<svg fill="none" height="400" viewBox="0 0 400 400" width="400" xmlns="http://www.w3.org/2000/svg"><path d="m0 0h400v400h-400z" fill="#fcfae6"/><g fill="#ff3c00"><path d="m183.76 178.213c22.996-12.618 54.49-29.905 54.49-80.213h-38.136c0 28.148-13.873 35.761-34.874 47.285-22.996 12.623-54.49 29.902-54.49 80.215h38.136c0-28.149 13.873-35.762 34.874-47.287z"/><path d="m251.116 174.5c0 28.149-13.873 35.762-34.875 47.285-22.99 12.619-54.491 29.902-54.491 80.215h38.135c0-28.149 13.874-35.762 34.875-47.287 22.996-12.618 54.49-29.9 54.49-80.213z"/></g></svg>