<svg enable-background="new 0 0 600 600" viewBox="0 0 600 600" xmlns="http://www.w3.org/2000/svg"><g fill="#4687f7"><ellipse cx="110.734" cy="507.087" rx="65.6" ry="65.6"/><ellipse cx="347.534" cy="507.787" rx="46.4" ry="46.4"/><ellipse cx="542.834" cy="507.787" rx="21.1" ry="21.1"/><path d="m531.8 334.6c-18.4 0-32.1-14.3-32.1-32.1v-136.5c0-47.1-22.5-83.2-73-83.2s-81.2 38.9-81.2 83.9v135.8c0 17.7-12.3 32.1-32.1 32.1-19.1 0-32.1-14.3-32.1-32.1v-136.5c0-47.1-24.6-83.2-75.1-83.2-51.9 0-79.1 38.9-79.1 83.9v135.8c0 17.7-13 32.1-32.1 32.1-18.4 0-32.1-14.3-32.1-32.1v-242.2c0-19.1 12.3-32.7 32.1-32.7 21.8 0 32.1 15 32.1 32.7v21.8c18.4-36.2 55.9-57.3 96.2-57.3 49.1 0 86 24.6 104.4 60.7 26.6-40.9 65.5-60.7 113.9-60.7 82.6 0 122.1 56.6 122.1 136.5v141.2c.2 17.8-12.8 32.1-31.9 32.1z"/></g></svg>