<svg fill="none" height="38" viewBox="0 0 134 38" width="134" xmlns="http://www.w3.org/2000/svg" xmlns:xlink="http://www.w3.org/1999/xlink"><clipPath id="a"><path d="m.707031-6.29932h133.293v43.5054h-133.293z"/></clipPath><g clip-path="url(#a)"><path clip-rule="evenodd" d="m22.6002-5.18048c.3582.44037.5409 1.0346.9063 2.22304l7.9822 25.96264c-2.9512-1.5159-6.1596-2.6091-9.5431-3.199l-5.1973-17.38949c-.085-.28454-.349-.47973-.6486-.47973-.3005 0-.5649.19621-.6493.48172l-5.1343 17.3788c-3.39926.5871-6.62223 1.6824-9.58612 3.2038l8.02141-25.96475c.36651-1.1864.54978-1.77961.90808-2.21916.31628-.38806.72773-.68943 1.19503-.87541.5293-.21066 1.1558-.21066 2.4089-.21066h5.7293c1.2546 0 1.882 0 2.4118.2111.4677.18636.8794.48835 1.1957.8771z" fill="#000" fill-rule="evenodd"/><path clip-rule="evenodd" d="m23.5551 24.2404c-1.3159 1.1141-3.9424 1.8739-6.9677 1.8739-3.7132 0-6.82548-1.1445-7.65133-2.6839-.29524.8822-.36145 1.8919-.36145 2.5369 0 0-.19453 3.1671 2.03028 5.37 0-1.1438.9365-2.0711 2.0917-2.0711 1.9801 0 1.9779 1.7105 1.9761 3.0982-.0001.0415-.0001.0828-.0001.1238 0 2.1063 1.3001 3.9118 3.1491 4.6729-.2761-.5624-.4311-1.194-.4311-1.8614 0-2.0088 1.1912-2.7568 2.5755-3.6261 1.1015-.6917 2.3253-1.4601 3.1687-3.0017.44-.8043.6899-1.7256.6899-2.7046 0-.6021-.0945-1.1823-.2696-1.7269z" fill="#ff5d01" fill-rule="evenodd"/><g fill="#000"><path d="m49.8142 22.599c3.3389 0 5.843-1.1761 6.8703-3.1786 0 .9536.0638 1.939.2246 2.7018h5.4895c-.2566-1.1126-.3849-2.6383-.3849-4.6408v-4.8951c0-4.64075-2.7612-6.83398-8.8926-6.83398-5.3615 0-8.9571 2.19323-9.3744 5.78508h5.7144c.1926-1.55751 1.5088-2.41575 3.66-2.41575 2.1184 0 3.3063.85824 3.3063 2.63835v.4767l-5.8104.5086c-2.8253.2861-4.4305.7628-5.5541 1.5257-1.1878.7946-1.7978 2.0026-1.7978 3.4965 0 2.9879 2.5041 4.8315 6.5491 4.8315zm2.119-3.3058c-1.8623 0-2.9858-.731-2.9858-1.9071 0-1.2079.9308-1.8437 3.2748-2.1297l4.3015-.445v.9536c0 2.1297-1.8617 3.5282-4.5905 3.5282z"/><path d="m73.9779 22.599c5.5863 0 8.4433-2.0661 8.4433-5.4036 0-2.7655-1.6052-4.2912-5.4895-4.7998l-4.8481-.5403c-1.3801-.1908-1.9581-.5405-1.9581-1.3033 0-.92176.9309-1.33502 3.0497-1.33502 2.9215 0 4.944.66753 6.5816 1.97082l2.6-2.57473c-1.7978-1.84358-4.9115-2.86075-8.7638-2.86075-5.4256 0-8.4434 1.90713-8.4434 5.11748 0 2.7972 1.8618 4.3548 5.7142 4.8633l4.3664.5086c1.7335.2225 2.2471.5405 2.2471 1.3668 0 .9537-.9633 1.4623-3.2104 1.4623-3.3388 0-5.5859-.8901-7.0948-2.543l-2.9533 2.4158c1.9581 2.4158 5.2968 3.6554 9.7591 3.6554z"/><path d="m86.9532 9.82081v6.70689c0 3.9415 2.2471 5.944 7.0628 5.944 1.4769 0 2.6324-.1589 3.7241-.4768v-4.1323c-.578.1273-1.2843.2544-2.2152.2544-2.0225 0-3.0178-.89-3.0178-2.7654v-5.53079h5.2649v-3.59187h-5.2649v-5.816831l-5.5539 2.034291v3.78254h-3.5958v3.59187z"/><path d="m105.746 6.229h-5.073v15.8932h5.554v-5.944c0-1.7166.386-3.2741 1.445-4.2595.835-.7629 2.023-1.176 3.692-1.176.61 0 1.091.0635 1.637.1271v-4.99045c-.353-.06355-.61-.06355-1.059-.06355-3.179 0-5.329 1.8118-6.196 4.768z"/><path d="m123.976 22.599c5.875 0 10.016-3.0833 10.016-8.4551 0-5.34012-4.141-8.39158-10.016-8.39158-5.907 0-10.048 3.05146-10.048 8.39158 0 5.3718 4.141 8.4551 10.048 8.4551zm0-3.6554c-2.696 0-4.398-1.7165-4.398-4.7997 0-3.0833 1.702-4.7362 4.398-4.7362 2.665 0 4.366 1.6529 4.366 4.7362 0 3.0832-1.701 4.7997-4.366 4.7997z"/></g></g></svg>