<svg fill="none" height="60" viewBox="0 0 60 60" width="60" xmlns="http://www.w3.org/2000/svg"><path clip-rule="evenodd" d="m59.5417 29.9996c0 16.3564-13.2327 29.6158-29.556 29.6158s-29.556012-13.2594-29.556012-29.6158 13.232712-29.615811 29.556012-29.615811 29.556 13.259411 29.556 29.615811zm-15.9898 2.9201c.0388-.2161.0777-.4256.1158-.6316.061-.329.1204-.6492.1755-.9736.1566-.852.3104-1.704.4643-2.5559l.0006-.0035c.154-.8531.3081-1.7063.4649-2.5594.0784-.4322.1568-.8671.2352-1.3021.0785-.435.1569-.87.2353-1.3022.0672-.3367.1568-.651.4257-.898.1456-.1459.3249-.2245.5265-.2245.3809-.0112.7618-.0112 1.1427-.0112.5265 0 .7954.2357.885.7633.0784.449-.0112.8868-.1008 1.3134-.2241 1.1506-.4453 2.3012-.6666 3.4518-.2212 1.1506-.4425 2.3011-.6665 3.4517-.2185 1.1228-.4342 2.2427-.6499 3.3626-.2156 1.1195-.4312 2.2391-.6496 3.3614-.1905.9991-.3921 1.9981-.6162 2.9972-.168.7409-.4033 1.4593-.7954 2.1216-.5937 1.0102-1.4675 1.5378-2.655 1.5266-.5489 0-1.0978-.0449-1.5908-.3143-.5041-.2694-.8066-.6847-.8178-1.2797 0-.3929 0-.7858.1121-1.1562.1568-.5051.5153-.7184 1.0306-.5949.0875.0175.1749.0419.2677.0677l.0002.0001.0003.0001h.0001l.079.0219c.1792.0449.3473.0898.5265.1459.1569.0449.2689 0 .3585-.1459.3473-.5276.4817-1.1113.5041-1.7287.0224-.5613-.112-1.0889-.2464-1.6164v-.0001c-.4108-1.6462-.8315-3.2925-1.2521-4.9387-.2104-.8233-.4208-1.6467-.63-2.47-.28-1.1054-.5628-2.2079-.8455-3.3105l-.0002-.0004-.0001-.0005-.0001-.0005c-.2828-1.1027-.5656-2.2055-.8457-3.311-.1008-.3929-.0896-.7858.0224-1.1787.1008-.3368.3249-.5276.6722-.5276.5489-.0112 1.0978-.0112 1.6468 0 .5041 0 .8178.3031.9634.7858.1282.4221.219.8593.3091 1.293v.0002c.0201.0967.0402.1933.0606.2896.2915 1.3256.583 2.654.8745 3.9824.291 1.3264.5821 2.6527.8731 3.9763.0224.0225.0336.0561.056.1235zm-13.387-7.274h.6721c0 .0898 0 .1459-.0224.2133v8.0934c0 .6287.0112 1.2573.0448 1.8859.0448.8419.1793 1.6613.4817 2.4471.5042 1.3134 1.4676 2.043 2.8679 2.1441.4854.0374.9786.0358 1.4731.0343.099-.0003.198-.0007.2969-.0007.2129 0 .4145 0 .6162-.0224.3809-.0449.6609-.3031.7282-.6848.1008-.5275.0896-1.0551.0224-1.5827-.0672-.4827-.3809-.7409-.8626-.7521-.4033-.0113-.8066-.0113-1.2099-.0113-.5153-.0112-.6274-.0898-.8066-.5724-.2241-.6399-.2801-1.3134-.2801-1.9869v-9.0476c0-.0212.0025-.0424.0052-.0648.0029-.025.006-.0515.006-.0812.056-.0112.0896-.0112.1345-.0112h1.6467c.5266 0 .8851-.3031.9299-.8194.0448-.4715.0448-.943.0224-1.4144-.0336-.5388-.3137-.9991-1.0643-.9654-.3361.0075-.6721.005-1.0082.0025-.1681-.0013-.3361-.0025-.5041-.0025h-.1681v-.1908-5.5454c0-.1908-.0112-.3816-.0336-.5724-.0672-.5276-.3361-.9766-1.0418-.943-.1737.0056-.3473.0028-.5209 0-.1737-.0028-.3473-.0056-.521 0-.4257 0-.7057.1909-.829.6062-.0672.2694-.112.55-.1232.8194-.0896 1.74-.168 3.4687-.2465 5.2086-.0056.1066-.0112.2105-.0168.3143s-.0112.2077-.0168.3143c-.0988 0-.195-.0013-.2895-.0025h-.0001c-.1841-.0025-.3617-.0049-.5394.0025-.2576.0112-.4705.1235-.6049.348-.0784.1347-.1568.3031-.1681.4602-.0252.2863-.0315.5725-.0378.8588-.0021.0954-.0042.1908-.007.2862 0 .146.0112.2807.0336.4154.0785.5388.3921.8082.9411.8194zm-16.0794-5.9616-.0007.0001h-.0001c-.2435.0574-.4789.1129-.7013.1814-.5602.1684-.9859-.1571-1.0867-.6847-.0224-.1347-.0336-.2806-.0448-.4266 0-.5051 0-1.0215.0112-1.5266.0112-.4715.2689-.797.717-.9205 1.3219-.3592 2.6438-.7072 3.9769-1.0439.5601-.146.997.1683 1.0755.7408.0336.2021.0448.4041.0448.6174v22.0129c0 .3704-.0112.7296-.1233 1.0889-.1568.4939-.4145.6847-.941.6847h-1.714c-.4257 0-.6833-.1572-.829-.5613-.0784-.2357-.1232-.4939-.1568-.7521-.0168-.1261-.0147-.2585-.0126-.3925.0007-.0449.0014-.09.0014-.1351v-18.7126c.0112-.0673.0112-.1347.0112-.2245-.0766.0185-.1526.0364-.2277.0542zm8.3847-.0073c.0658-.0157.1323-.0315.1999-.0478v.1908 13.2908c0 1.9083 0 3.8278.0112 5.7361.0112.2919.056.5837.1232.8644.1344.4939.4145.6847.9186.6847h1.6692c.5153 0 .8066-.202.9298-.7072.0784-.3255.1233-.6623.1233-.999v-22.1476c0-.2021-.0224-.4041-.0561-.6062-.0784-.4378-.3584-.6959-.7729-.6959-.2241 0-.4481.0561-.661.1122-.7991.2021-1.5982.4141-2.3974.6261-.3995.1061-.7991.2121-1.1986.3168-.4257.1123-.6834.3929-.717.8195s-.0336.8643-.0336 1.2909c0 .247 0 .4939.0336.7296.0784.5501.5153.9093 1.0978.7297.2396-.0711.4792-.1282.73-.1879z" fill="#393939" fill-rule="evenodd"/></svg>