<svg fill="none" height="39" viewBox="0 0 144 39" width="144" xmlns="http://www.w3.org/2000/svg"><path d="m85.4487 16.3384h3.7922v13.5436h-3.7922v-1.7607c-1.3543 2.0316-3.115 2.167-4.1985 2.167-4.1985 0-6.9073-3.2505-6.9073-7.1781 0-4.0631 2.7088-7.1781 6.6364-7.1781 1.0835 0 3.1151.1354 4.334 2.167v-1.7607zm-7.0427 6.7718c0 2.167 1.4898 3.7922 3.7922 3.7922 2.167 0 3.7923-1.6252 3.7923-3.7922s-1.4898-3.7922-3.7923-3.7922c-2.1669 0-3.7922 1.6252-3.7922 3.7922zm18.2839-3.5213v10.2931h-3.7922v-10.2931h-1.4898v-3.2505h1.4898v-4.6048h3.7922v4.6048h2.5733v3.2505zm11.5121 0c-.948-.8127-1.761-.9481-2.167-.9481-.948 0-1.49.4063-1.49 1.0835 0 .4063.136.8126 1.219 1.2189l.948.2709c1.084.4063 2.709.8126 3.386 1.8961.406.5417.677 1.3544.677 2.3024 0 1.2189-.406 2.4379-1.49 3.3859-1.083.9481-2.437 1.4898-4.063 1.4898-2.844 0-4.334-1.3543-5.2816-2.3024l2.0316-2.3024c.813.8126 1.896 1.6252 2.98 1.6252 1.083 0 1.896-.5417 1.896-1.4898 0-.8126-.678-1.2189-1.219-1.3543l-.813-.2709c-.948-.4063-2.031-.8126-2.844-1.6252-.677-.6772-1.084-1.4898-1.084-2.5733 0-1.3544.678-2.4379 1.355-3.1151 1.083-.8126 2.438-.948 3.521-.948.948 0 2.573.1354 4.334 1.4898zm8.262-1.4898c1.354-1.8961 3.25-2.167 4.334-2.167 3.927 0 6.636 3.115 6.636 7.1781s-2.709 7.1781-6.772 7.1781c-.812 0-2.844-.1354-4.334-2.167v1.7607h-3.657v-22.75328h3.793zm-.407 5.0111c0 2.167 1.49 3.7922 3.793 3.7922 2.167 0 3.792-1.6252 3.792-3.7922s-1.49-3.7922-3.792-3.7922c-2.303 0-3.793 1.6252-3.793 3.7922zm17.607 4.7403-6.501-11.5121h4.469l4.199 7.7199 3.792-7.7199h4.334l-10.835 20.7217h-4.334zm-60.2691-9.2097h-9.4805v3.7922h5.0111c-.8126 2.5733-2.7087 4.334-6.2301 4.334-3.9276 0-6.7718-3.2505-6.7718-7.1781 0-3.9277 2.7087-7.3136 6.6364-7.3136 2.167 0 4.334 1.0835 5.6883 2.8442l3.115-2.0316c-2.0315-2.8441-5.282-4.46938-8.8033-4.46938-5.9592 0-10.8349 4.87568-10.8349 10.97038 0 6.0946 4.6048 10.9703 10.8349 10.9703s10.8349-4.8757 10.8349-10.9703c.1354-.4064 0-.6772 0-.9481z" fill="#000"/><path clip-rule="evenodd" d="m.259277 19.0471c0-10.42862 8.532483-18.9611015 18.961123-18.9611015 10.4285 0 18.961 8.5324815 18.961 18.9611015 0 10.4286-8.5325 18.961-18.961 18.961-10.42864 0-18.961123-8.5324-18.961123-18.961zm4.063083.2708c0 3.6568 1.4898 7.449 4.33396 10.2932 2.84418 2.8442 6.63638 4.1985 10.42858 4.334l-.1368-.1356h.0013l-14.62707-14.6271c0 .0454.00022.0908.00065.1362zm.40631-3.5213 17.74213 17.7422c.0001-.0001.0001-.0001.0001-.0001l.1353.1353c6.0946-1.5236 10.8798-6.8564 11.4542-13.3199.0384-.4309.0579-.8669.0579-1.307 0-.0001 0-.0001 0-.0002h-9.4805v2.7087.0002h6.5009c-.9481 4.063-3.9277 7.4488-7.8553 8.8032l-15.57509-15.5751c1.76069-4.7402 6.23009-8.12609 11.51209-8.12609 4.063 0 7.7198 2.03154 10.0222 5.14659l2.0316-1.7607c-.0001 0-.0001-.0001-.0001-.0001-2.7087-3.65682-7.0426-6.09467-12.0538-6.09467-7.0427 0-13.00186 5.01114-14.49166 11.64747l.00006.0001c-.00001 0-.00002.0001-.00003.0001z" fill="#639" fill-rule="evenodd"/></svg>