<svg fill="none" height="26" viewBox="0 0 137 26" width="137" xmlns="http://www.w3.org/2000/svg" xmlns:xlink="http://www.w3.org/1999/xlink"><clipPath id="a"><path d="m.243652.811523h27.0703v25h-27.0703z"/></clipPath><path d="m38.2858 2.68022h2.9433l5.5318 14.75578 5.5186-14.75578h2.9433l-7.3056 19.13128h-2.3389zm-1.3402 0h2.7987l.4862 12.77168v6.3596h-3.2849zm16.8187 0h2.8119v19.13128h-3.2981v-6.3596zm10.1433-1.05117v20.18245h-3.1798v-20.18245zm8.8298 5.96539-6.1888 6.85886-3.39 3.4689-.8278-2.6805 2.5622-3.1666 4.0208-4.48066zm-3.1404 14.21706-4.612-6.6749 1.9972-2.2206 6.2808 8.8955zm11.5624 0h-4.0865l.0263-2.6148h4.0602c1.1825 0 2.1724-.2584 2.9695-.7752.8059-.5168 1.4103-1.257 1.8133-2.2206.4117-.9636.6176-2.1111.6176-3.4426v-1.038c0-1.0337-.1183-1.94906-.3548-2.7462-.2278-.79713-.5694-1.46725-1.0249-2.01036-.4468-.5431-.9986-.95481-1.6556-1.23512-.6482-.28032-1.3972-.42047-2.2469-.42047h-4.2835v-2.62793h4.2835c1.2702 0 2.4309.21462 3.482.64384 1.0512.42047 1.9578 1.02927 2.7199 1.82641.7709.79714 1.3622 1.75195 1.7739 2.86444s.6175 2.35639.6175 3.73169v1.0117c0 1.3753-.2058 2.6192-.6175 3.7317s-1.003 2.0673-1.7739 2.8644c-.7708.7884-1.6906 1.3972-2.7593 1.8264-1.0599.4205-2.2469.6307-3.5608.6307zm-2.26-19.13128v19.13128h-3.2981v-19.13128zm13.9012 12.18048v-.3023c0-1.0248.1489-1.9753.4467-2.8513.2978-.8847.7271-1.6512 1.2877-2.29939.5694-.65698 1.2614-1.16505 2.076-1.5242.8235-.3679 1.752-.55186 2.7857-.55186 1.0423 0 1.9713.18396 2.7853.55186.824.35915 1.52.86722 2.089 1.5242.57.64819 1.003 1.41469 1.301 2.29939.298.876.447 1.8265.447 2.8513v.3023c0 1.0249-.149 1.9753-.447 2.8513-.298.8759-.731 1.6424-1.301 2.2994-.569.6482-1.261 1.1563-2.076 1.5242-.814.3591-1.738.5387-2.7721.5387-1.0424 0-1.9753-.1796-2.7987-.5387-.8147-.3679-1.5067-.876-2.0761-1.5242-.5694-.657-1.003-1.4235-1.3008-2.2994-.2978-.876-.4467-1.8264-.4467-2.8513zm3.1666-.3023v.3023c0 .6394.0657 1.2438.1971 1.8132s.3373 1.0687.6176 1.4979c.2803.4293.6394.7665 1.0774 1.0118s.9592.3679 1.5636.3679c.5871 0 1.0951-.1226 1.5241-.3679.438-.2453.797-.5825 1.078-1.0118.28-.4292.486-.9285.617-1.4979.14-.5694.21-1.1738.21-1.8132v-.3023c0-.6307-.07-1.2263-.21-1.7869-.131-.5694-.341-1.0731-.631-1.5111-.28-.438-.639-.7796-1.077-1.0249-.429-.25402-.9417-.38104-1.5373-.38104-.5957 0-1.1125.12702-1.5505.38104-.4293.2453-.784.5869-1.0643 1.0249s-.4862.9417-.6176 1.5111c-.1314.5606-.1971 1.1562-.1971 1.7869zm19.0518 4.9931c.517 0 .981-.1007 1.393-.3022.42-.2102.758-.4993 1.012-.8672.262-.3679.407-.7928.433-1.2746h2.983c-.018.9198-.289 1.7564-.815 2.5097-.525.7533-1.222 1.3534-2.089 1.8001-.867.438-1.826.657-2.877.657-1.087 0-2.033-.1839-2.839-.5518-.806-.3767-1.476-.8935-2.01-1.5505s-.937-1.4147-1.209-2.2732c-.263-.8584-.394-1.7782-.394-2.7593v-.4599c0-.9811.131-1.9009.394-2.7593.272-.8672.675-1.6293 1.209-2.28631.534-.65698 1.204-1.16943 2.01-1.53734.806-.37666 1.748-.565 2.825-.565 1.139 0 2.138.22775 2.996.68326.859.44675 1.533 1.07307 2.024 1.87897.499.79712.757 1.72562.775 2.78562h-2.983c-.026-.5256-.157-.9986-.394-1.4191-.228-.4292-.552-.7709-.972-1.0249-.412-.25402-.907-.38104-1.485-.38104-.639 0-1.169.1314-1.59.39414-.42.2541-.749.6045-.985 1.0512-.237.438-.408.9329-.513 1.4848-.096.5431-.144 1.1081-.144 1.695v.4599c0 .5869.048 1.1563.144 1.7081.097.5519.263 1.0468.499 1.4848.246.4293.579.7753.999 1.0381.421.254.955.381 1.603.381zm16.766-1.5899c0-.3153-.079-.6-.237-.8541-.157-.2628-.46-.4993-.906-.7095-.438-.2102-1.087-.403-1.945-.5781-.753-.1665-1.445-.3636-2.076-.5913-.622-.2365-1.156-.5212-1.603-.8541s-.793-.7271-1.038-1.1826-.368-.9811-.368-1.5767c0-.5782.127-1.1257.381-1.64248.254-.51683.618-.97234 1.091-1.36653.473-.39418 1.046-.70516 1.721-.93291.683-.22775 1.445-.34163 2.286-.34163 1.191 0 2.212.20147 3.062.60442.858.39419 1.515.93292 1.971 1.61618.455.67445.683 1.43655.683 2.28625h-3.167c0-.3766-.096-.727-.289-1.0511-.184-.3329-.464-.6001-.841-.80154-.376-.21024-.849-.31536-1.419-.31536-.543 0-.994.0876-1.353.2628-.351.1664-.613.3854-.789.657-.166.2715-.249.5694-.249.8935 0 .2365.044.4511.131.6438.097.184.254.3548.473.5125.219.1489.517.289.894.4204.385.1314.867.2584 1.445.3811 1.086.2277 2.019.5212 2.799.8803.788.3504 1.393.8059 1.813 1.3666.421.5518.631 1.2526.631 2.1023 0 .6307-.136 1.2088-.408 1.7344-.262.5169-.648.968-1.156 1.3534-.508.3767-1.117.6701-1.826.8804-.701.2102-1.489.3153-2.365.3153-1.288 0-2.379-.2277-3.272-.6832-.894-.4643-1.573-1.0556-2.037-1.7739-.455-.7271-.683-1.4804-.683-2.26h3.061c.035.5869.198 1.0555.487 1.4059.297.3417.665.5913 1.103.749.447.1489.907.2234 1.38.2234.569 0 1.047-.0745 1.432-.2234.386-.1577.679-.3679.881-.6307.201-.2716.302-.5782.302-.9198z" fill="#444"/><g clip-path="url(#a)"><path d="m15.4333 25.7257c-.1633-.0492-2.9364-.8725-6.16229-1.8298-3.22612-.9574-5.97107-1.7746-6.10016-1.8163-.32738-.1057-.89945-.4907-1.3243-.8914-.7758-.732-1.222352-1.4888-1.491179-2.5276-.094848-.3663-.11262-.5616-.111684-1.2276.000748-.5432.025255-.8929.078197-1.1136.301191-1.2553.659815-2.2343 1.024616-2.7966.10588-.1633 2.66208-3.0479 5.67998-6.40978 4.07522-4.53995 5.53822-6.13869 5.68482-6.212024.3962-.1983.4284-.1925 7.417 1.375564 7.1646 1.60754 6.7807 1.50128 7.0439 1.95007.1596.27239.1877.67048.0674.95596-.0775.18371-10.8436 12.64891-11.3343 13.12281-.3516.3397-.6484.4381-1.0308.3419-.1282-.0321-2.6387-.7501-5.5788-1.5955-5.65042-1.6244-5.63658-1.621-6.10389-1.4716-.47854.1534-.76009.6049-.85606 1.3724-.14386 1.1522.22075 2.3016.89366 2.8161.2967.2269.39398.2649 1.56021.608.54551.1607 3.18402.94 5.86348 1.7319 2.6795.7919 4.8872 1.4338 4.9061 1.4263.0187-.0075 2.1227-2.5306 4.6754-5.6067 1.5682-1.8912 3.1376-3.7814 4.7081-5.6708.0565-.0651.0555-.1315-.0056-.4207-.1828-.8621.0075-2.23801.3876-2.80186.3728-.55336 1.097-.62015 1.5733-.14535.3627.36143.4011.74456.142 1.41611-.0316.0816-.0683.3489-.0818.5938-.0198.362-.0043.515.0833.8168.1474.5083.174.8794.0797 1.1056-.0805.1923-10.3135 12.5513-10.5735 12.77-.2855.2402-.6258.2811-1.1144.1339zm4.814-17.02984c.1019-.05818.3968-.36049.6555-.6716.4035-.48602.4701-.59153.4701-.74568 0-.13582-.0314-.20316-.1283-.27556-.0838-.06248-1.0295-.31578-2.7223-.72922-1.4267-.34833-3.251-.79414-4.0542-.99056-2.057-.50324-2.124-.49201-2.9413.49331-.3751.45198-.4724.60145-.4732.72567-.0013.24133.2077.38369.7495.5109.2508.05893 1.9946.48602 3.8747.94885 1.8801.46301 3.5297.85736 3.6657.87645.322.04489.6724-.01029.9038-.14256z" fill="#444"/></g></svg>