<svg fill="none" height="60" viewBox="0 0 99 60" width="99" xmlns="http://www.w3.org/2000/svg"><path d="m23.8623 15.6904h18.3211v1.4562h-16.6417v10.9597h15.6493v1.4562h-15.6493v12.0326h16.8325v1.4562h-18.5119zm19.9624 0h1.9466l8.6261 12.0327 8.8171-12.0327 11.9925-15.284272-19.7027 28.581572 10.153 14.0636h-2.023l-9.2369-12.7991-9.275 12.7991h-1.9848l10.2293-14.0636zm22.5578 1.4562v-1.4562h20.8784v1.4562h-9.6186v25.9047h-1.6794v-25.9047zm-65.440605-1.4562h2.099285l28.94802 43.3179-11.9628-15.957-17.32874-25.2916-.07633 25.2916h-1.679435zm86.149805 25.4653c-.3432 0-.6005-.2659-.6005-.6094 0-.3436.2573-.6094.6005-.6094.3472 0 .6004.2658.6004.6094 0 .3435-.2532.6094-.6004.6094zm1.6502-1.6033h.8987c.0122.4867.3676.8139.8904.8139.5842 0 .915-.3517.915-1.0102v-4.1719h.915v4.1759c0 1.1862-.6862 1.8692-1.8218 1.8692-1.0661 0-1.7973-.6626-1.7973-1.6769zm4.8159-.0532h.9069c.0776.5604.6249.9162 1.4133.9162.7352 0 1.2744-.3804 1.2744-.9039 0-.4499-.3431-.7199-1.1233-.9039l-.7597-.1841c-1.0662-.2495-1.5523-.7648-1.5523-1.6319 0-1.0512.8578-1.7506 2.1445-1.7506 1.1969 0 2.071.6994 2.1241 1.6933h-.8905c-.0857-.544-.5596-.8834-1.2458-.8834-.723 0-1.205.3476-1.205.8793 0 .4213.3104.6626 1.0784.8426l.6494.1595c1.2091.2822 1.7075.773 1.7075 1.6606 0 1.1288-.8742 1.8364-2.2712 1.8364-1.3071 0-2.1853-.6748-2.2507-1.7301z" fill="#000"/></svg>