<svg fill="none" height="43" viewBox="0 0 59 43" width="59" xmlns="http://www.w3.org/2000/svg"><g clip-rule="evenodd" fill-rule="evenodd"><path d="m18.2874 41.4027c-.0424-.075-.0801-.1525-.1131-.2321-.2283-.5282-.2986-1.1112-.2023-1.6785h-13.50547l20.07067-35.32009 6.589 11.58289 1.9107-3.3808-5.7439-10.11868c-.1607-.29166-1.1309-1.851123-2.8034-1.851123-.7559 0-1.8392.327368-2.7202 1.874933l-20.33251 35.74867c-.17261.3095-1.011868 1.9344-.17857 3.3748.38094.6548 1.19043 1.4345 2.97608 1.4345h17.0291c-1.7737 0-2.5951-.7678-2.9761-1.4345z" fill="#01c58e"/><path d="m57.4409 38.028-16.7077-29.43341c-.1726-.30951-1.1368-1.87492-2.8153-1.87492-.7559 0-1.8392.32141-2.7202 1.86897l-2.1606 3.78556 1.9226 3.3808 2.976-5.2676 16.5292 29.0048h-6.2855c.0804.4795.0353.9717-.131 1.4285-.035.1009-.0788.1985-.1309.2917l-.0536.1071c-.8452 1.4405-2.6725 1.5178-3.0296 1.5178h9.8329c.3631 0 2.1845-.0773 3.0297-1.5178.375-.6547.6428-1.7559-.256-3.2915z" fill="#108775"/><path d="m47.8641 41.3193.0536-.1071c.0521-.0932.0959-.1908.1309-.2917.1663-.4568.2114-.949.131-1.4285-.0927-.5171-.2782-1.0132-.5476-1.4642l-12.6603-22.273-1.9344-3.3808-1.9225 3.3808-12.6543 22.273c-.2457.4564-.4108.9517-.4881 1.4642-.1018.5656-.0378 1.1486.1845 1.6785.0329.0797.0707.1572.1131.2322.3809.6547 1.1904 1.4344 2.9761 1.4344h23.5705c.375 0 2.2023-.0773 3.0475-1.5178zm-14.8268-22.1836 11.571 20.3563h-23.136z" fill="#2f495e"/></g></svg>