<svg fill="none" height="39" viewBox="0 0 34 39" width="34" xmlns="http://www.w3.org/2000/svg"><path clip-rule="evenodd" d="m15.3696 1.74909c5.1541-3.28945 12.2829-1.75507043 15.8922 3.41804h-.0004c.8566 1.20056 1.465 2.56038 1.7897 3.99962.3246 1.43925.3589 2.92895.1007 4.38165-.2499 1.3871-.7781 2.7092-1.5527 3.8861 1.1302 2.1586 1.5095 4.6328 1.078 7.0314-.2551 1.4241-.8042 2.7791-1.6121 3.9786-.8079 1.1994-1.8568 2.2168-3.0797 2.9871l-9.0522 5.7775c-5.1534 3.2895-12.28251 1.7558-15.89185-3.418-.85638-1.2007-1.46472-2.5605-1.78934-3.9997-.324617-1.4392-.358974-2.9289-.10106-4.3816.24997-1.3873.77843-2.7095 1.55341-3.8865-1.13063-2.1582-1.51009-4.6325-1.07829-7.031.25512-1.4241.80418-2.7791 1.61207-3.9785.80788-1.19947 1.85681-2.21688 3.07972-2.98723zm-5.193 32.31151c1.3801.5123 2.884.5882 4.3085.2174.6508-.1741 1.2711-.4471 1.8394-.8094l9.0514-5.7772c.7354-.4634 1.3662-1.0753 1.852-1.7966s.8161-1.5362.9696-2.3926c.155-.8735.1342-1.7692-.061-2.6345-.1953-.8654-.5613-1.683-1.0763-2.4048-.839-1.2105-2.0287-2.134-3.4085-2.646-1.3797-.512-2.8831-.5877-4.3072-.217-.6508.1739-1.2711.4468-1.8394.8091l-3.4538 2.204c-.1717.1089-.359.1909-.5553.2433-.4293.1115-.8825.0884-1.2983-.0661-.4158-.1546-.7742-.4332-1.0269-.7982-.1551-.2178-.2652-.4643-.3239-.7252-.0588-.2609-.065-.5309-.0183-.7942.0463-.2579.1458-.5033.2922-.7205.1463-.2172.3363-.4015.5577-.5411l9.0535-5.77714c.1717-.10897.3589-.19101.5553-.24328.429-.11144.8818-.08838 1.2973.06606.4156.15444.7737.43283 1.0262.79756.2766.3921.4059.8695.3651 1.3478l-.0312.3364.3366.1022c1.2722.3846 2.4694.984 3.54 1.7724l.4636.3402.1704-.5213c.0918-.2772.1645-.5604.2176-.8476.155-.8735.1342-1.7692-.0611-2.63451-.1953-.86534-.5612-1.68292-1.0761-2.4048-.839-1.21107-2.0289-2.13516-3.409-2.64747-1.3801-.5123-2.8839-.58815-4.3084-.21729-.6508.17419-1.2712.44716-1.8394.80941l-9.05149 5.77716c-.73584.4628-1.36711 1.0743-1.85344 1.7955-.48633.7211-.817 1.5359-.97087 2.3923-.15502.8735-.13427 1.7692.06102 2.6346.1953.8653.56121 1.6829 1.07627 2.4047.83897 1.2111 2.02884 2.1351 3.40891 2.6474 1.3801.5123 2.884.5882 4.3085.2174.6507-.1741 1.2709-.4467 1.8394-.8084l3.4545-2.2051c.1716-.109.3589-.1911.5553-.2433.4293-.1116.8825-.0885 1.2983.0661.4158.1545.7743.4332 1.027.7982.155.2178.2651.4642.324.725s.0653.5308.0188.7941c-.0464.258-.146.5034-.2924.7206-.1464.2173-.3364.4016-.5578.5413l-9.0525 5.7792c-.1717.109-.3589.191-.5553.2433-.4293.1118-.8825.089-1.2983-.0655-.4159-.1544-.7744-.433-1.027-.7981-.2769-.3919-.4063-.8694-.3651-1.3478l.0309-.3364-.3363-.1022c-1.27211-.3847-2.46929-.9841-3.53992-1.7724l-.464-.3409-.17041.5213c-.09152.2767-.16376.5595-.21621.8462-.15497.8735-.13423 1.7692.061 2.6345.19524.8653.56103 1.6829 1.07594 2.4048.83898 1.2111 2.02885 2.1351 3.4089 2.6474z" fill="#ff3e00" fill-rule="evenodd"/></svg>