<?xml version="1.0" encoding="UTF-8" standalone="no"?>
<svg
   fill="none"
   height="59.231609"
   viewBox="0 0 59.112011 59.231609"
   width="59.112011"
   version="1.1"
   id="svg444"
   sodipodi:docname="eleventy.svg"
   inkscape:version="1.1.2 (b8e25be8, 2022-02-05)"
   xmlns:inkscape="http://www.inkscape.org/namespaces/inkscape"
   xmlns:sodipodi="http://sodipodi.sourceforge.net/DTD/sodipodi-0.dtd"
   xmlns="http://www.w3.org/2000/svg"
   xmlns:svg="http://www.w3.org/2000/svg">
  <defs
     id="defs448" />
  <sodipodi:namedview
     id="namedview446"
     pagecolor="#ffffff"
     bordercolor="#666666"
     borderopacity="1.0"
     inkscape:pageshadow="2"
     inkscape:pageopacity="0.0"
     inkscape:pagecheckerboard="0"
     showgrid="false"
     inkscape:zoom="13.05"
     inkscape:cx="33.678161"
     inkscape:cy="19.501916"
     inkscape:window-width="1296"
     inkscape:window-height="963"
     inkscape:window-x="0"
     inkscape:window-y="25"
     inkscape:window-maximized="0"
     inkscape:current-layer="svg444" />
  <path
     clip-rule="evenodd"
     d="m 59.112012,29.615811 c 0,16.3564 -13.2327,29.6158 -29.556,29.6158 C 13.232712,59.231611 0,45.972211 0,29.615811 0,13.259411 13.232712,0 29.556012,0 c 16.3233,0 29.556,13.259411 29.556,29.615811 z m -15.9898,2.9201 c 0.0388,-0.2161 0.0777,-0.4256 0.1158,-0.6316 0.061,-0.329 0.1204,-0.6492 0.1755,-0.9736 0.1566,-0.852 0.3104,-1.704 0.4643,-2.5559 l 6e-4,-0.0035 c 0.154,-0.8531 0.3081,-1.7063 0.4649,-2.5594 0.0784,-0.4322 0.1568,-0.8671 0.2352,-1.3021 0.0785,-0.435 0.1569,-0.87 0.2353,-1.3022 0.0672,-0.3367 0.1568,-0.651 0.4257,-0.898 0.1456,-0.1459 0.3249,-0.2245 0.5265,-0.2245 0.3809,-0.0112 0.7618,-0.0112 1.1427,-0.0112 0.5265,0 0.7954,0.2357 0.885,0.7633 0.0784,0.449 -0.0112,0.8868 -0.1008,1.3134 -0.2241,1.1506 -0.4453,2.3012 -0.6666,3.4518 -0.2212,1.1506 -0.4425,2.3011 -0.6665,3.4517 -0.2185,1.1228 -0.4342,2.2427 -0.6499,3.3626 -0.2156,1.1195 -0.4312,2.2391 -0.6496,3.3614 -0.1905,0.9991 -0.3921,1.9981 -0.6162,2.9972 -0.168,0.7409 -0.4033,1.4593 -0.7954,2.1216 -0.5937,1.0102 -1.4675,1.5378 -2.655,1.5266 -0.5489,0 -1.0978,-0.0449 -1.5908,-0.3143 -0.5041,-0.2694 -0.8066,-0.6847 -0.8178,-1.2797 0,-0.3929 0,-0.7858 0.1121,-1.1562 0.1568,-0.5051 0.5153,-0.7184 1.0306,-0.5949 0.0875,0.0175 0.1749,0.0419 0.2677,0.0677 l 2e-4,1e-4 3e-4,10e-5 h 10e-5 l 0.079,0.0219 c 0.1792,0.0449 0.3473,0.0898 0.5265,0.1459 0.1569,0.0449 0.2689,0 0.3585,-0.1459 0.3473,-0.5276 0.4817,-1.1113 0.5041,-1.7287 0.0224,-0.5613 -0.112,-1.0889 -0.2464,-1.6164 v -10e-5 c -0.4108,-1.6462 -0.8315,-3.2925 -1.2521,-4.9387 -0.2104,-0.8233 -0.4208,-1.6467 -0.63,-2.47 -0.28,-1.1054 -0.5628,-2.2079 -0.8455,-3.3105 l -2e-4,-4e-4 -1e-4,-5e-4 -10e-5,-5e-4 c -0.2828,-1.1027 -0.5656,-2.2055 -0.8457,-3.311 -0.1008,-0.3929 -0.0896,-0.7858 0.0224,-1.1787 0.1008,-0.3368 0.3249,-0.5276 0.6722,-0.5276 0.5489,-0.0112 1.0978,-0.0112 1.6468,0 0.5041,0 0.8178,0.3031 0.9634,0.7858 0.1282,0.4221 0.219,0.8593 0.3091,1.293 v 2e-4 c 0.0201,0.0967 0.0402,0.1933 0.0606,0.2896 0.2915,1.3256 0.583,2.654 0.8745,3.9824 0.291,1.3264 0.5821,2.6527 0.8731,3.9763 0.0224,0.0225 0.0336,0.0561 0.056,0.1235 z m -13.387,-7.274 h 0.6721 c 0,0.0898 0,0.1459 -0.0224,0.2133 v 8.0934 c 0,0.6287 0.0112,1.2573 0.0448,1.8859 0.0448,0.8419 0.1793,1.6613 0.4817,2.4471 0.5042,1.3134 1.4676,2.043 2.8679,2.1441 0.4854,0.0374 0.9786,0.0358 1.4731,0.0343 0.099,-3e-4 0.198,-7e-4 0.2969,-7e-4 0.2129,0 0.4145,0 0.6162,-0.0224 0.3809,-0.0449 0.6609,-0.3031 0.7282,-0.6848 0.1008,-0.5275 0.0896,-1.0551 0.0224,-1.5827 -0.0672,-0.4827 -0.3809,-0.7409 -0.8626,-0.7521 -0.4033,-0.0113 -0.8066,-0.0113 -1.2099,-0.0113 -0.5153,-0.0112 -0.6274,-0.0898 -0.8066,-0.5724 -0.2241,-0.6399 -0.2801,-1.3134 -0.2801,-1.9869 v -9.0476 c 0,-0.0212 0.0025,-0.0424 0.0052,-0.0648 0.0029,-0.025 0.006,-0.0515 0.006,-0.0812 0.056,-0.0112 0.0896,-0.0112 0.1345,-0.0112 h 1.6467 c 0.5266,0 0.8851,-0.3031 0.9299,-0.8194 0.0448,-0.4715 0.0448,-0.943 0.0224,-1.4144 -0.0336,-0.5388 -0.3137,-0.9991 -1.0643,-0.9654 -0.3361,0.0075 -0.6721,0.005 -1.0082,0.0025 -0.1681,-0.0013 -0.3361,-0.0025 -0.5041,-0.0025 h -0.1681 v -0.1908 -5.5454 c 0,-0.1908 -0.0112,-0.3816 -0.0336,-0.5724 -0.0672,-0.5276 -0.3361,-0.9766 -1.0418,-0.943 -0.1737,0.0056 -0.3473,0.0028 -0.5209,0 -0.1737,-0.0028 -0.3473,-0.0056 -0.521,0 -0.4257,0 -0.7057,0.1909 -0.829,0.6062 -0.0672,0.2694 -0.112,0.55 -0.1232,0.8194 -0.0896,1.74 -0.168,3.4687 -0.2465,5.2086 -0.0056,0.1066 -0.0112,0.2105 -0.0168,0.3143 -0.0056,0.1038 -0.0112,0.2077 -0.0168,0.3143 -0.0988,0 -0.195,-0.0013 -0.2895,-0.0025 h -10e-5 c -0.1841,-0.0025 -0.3617,-0.0049 -0.5394,0.0025 -0.2576,0.0112 -0.4705,0.1235 -0.6049,0.348 -0.0784,0.1347 -0.1568,0.3031 -0.1681,0.4602 -0.0252,0.2863 -0.0315,0.5725 -0.0378,0.8588 -0.0021,0.0954 -0.0042,0.1908 -0.007,0.2862 0,0.146 0.0112,0.2807 0.0336,0.4154 0.0785,0.5388 0.3921,0.8082 0.9411,0.8194 z m -16.0794,-5.9616 -7e-4,10e-5 h -1e-4 c -0.2435,0.0574 -0.4789,0.1129 -0.7013,0.1814 -0.5602,0.1684 -0.9859,-0.1571 -1.0867,-0.6847 -0.0224,-0.1347 -0.0336,-0.2806 -0.0448,-0.4266 0,-0.5051 0,-1.0215 0.0112,-1.5266 0.0112,-0.4715 0.2689,-0.797 0.717,-0.9205 1.3219,-0.3592 2.6438,-0.7072 3.9769,-1.0439 0.5601,-0.146 0.997,0.1683 1.0755,0.7408 0.0336,0.2021 0.0448,0.4041 0.0448,0.6174 v 22.0129 c 0,0.3704 -0.0112,0.7296 -0.1233,1.0889 -0.1568,0.4939 -0.4145,0.6847 -0.941,0.6847 h -1.714 c -0.4257,0 -0.6833,-0.1572 -0.829,-0.5613 -0.0784,-0.2357 -0.1232,-0.4939 -0.1568,-0.7521 -0.0168,-0.1261 -0.0147,-0.2585 -0.0126,-0.3925 7e-4,-0.0449 0.0014,-0.09 0.0014,-0.1351 v -18.7126 c 0.0112,-0.0673 0.0112,-0.1347 0.0112,-0.2245 -0.0766,0.0185 -0.1526,0.0364 -0.2277,0.0542 z m 8.3847,-0.0073 c 0.0658,-0.0157 0.1323,-0.0315 0.1999,-0.0478 v 0.1908 13.2908 c 0,1.9083 0,3.8278 0.0112,5.7361 0.0112,0.2919 0.056,0.5837 0.1232,0.8644 0.1344,0.4939 0.4145,0.6847 0.9186,0.6847 h 1.6692 c 0.5153,0 0.8066,-0.202 0.9298,-0.7072 0.0784,-0.3255 0.1233,-0.6623 0.1233,-0.999 v -22.1476 c 0,-0.2021 -0.0224,-0.4041 -0.0561,-0.6062 -0.0784,-0.4378 -0.3584,-0.6959 -0.7729,-0.6959 -0.2241,0 -0.4481,0.0561 -0.661,0.1122 -0.7991,0.2021 -1.5982,0.4141 -2.3974,0.6261 -0.3995,0.1061 -0.7991,0.2121 -1.1986,0.3168 -0.4257,0.1123 -0.6834,0.3929 -0.717,0.8195 -0.0336,0.4266 -0.0336,0.8643 -0.0336,1.2909 0,0.247 0,0.4939 0.0336,0.7296 0.0784,0.5501 0.5153,0.9093 1.0978,0.7297 0.2396,-0.0711 0.4792,-0.1282 0.73,-0.1879 z"
     fill="#393939"
     fill-rule="evenodd"
     id="path442" />
</svg>
