<?xml version="1.0" encoding="UTF-8" standalone="no"?>
<svg
   fill="none"
   height="37.9221"
   viewBox="0 0 143.69772 37.9221"
   width="143.69772"
   version="1.1"
   id="svg458"
   sodipodi:docname="gatsby.svg"
   inkscape:version="1.1.2 (b8e25be8, 2022-02-05)"
   xmlns:inkscape="http://www.inkscape.org/namespaces/inkscape"
   xmlns:sodipodi="http://sodipodi.sourceforge.net/DTD/sodipodi-0.dtd"
   xmlns="http://www.w3.org/2000/svg"
   xmlns:svg="http://www.w3.org/2000/svg">
  <defs
     id="defs462" />
  <sodipodi:namedview
     id="namedview460"
     pagecolor="#ffffff"
     bordercolor="#666666"
     borderopacity="1.0"
     inkscape:pageshadow="2"
     inkscape:pageopacity="0.0"
     inkscape:pagecheckerboard="0"
     showgrid="false"
     inkscape:zoom="7.5208333"
     inkscape:cx="71.734072"
     inkscape:cy="19.34626"
     inkscape:window-width="1296"
     inkscape:window-height="963"
     inkscape:window-x="0"
     inkscape:window-y="25"
     inkscape:window-maximized="0"
     inkscape:current-layer="svg458" />
  <path
     d="m 85.189423,16.252402 h 3.7922 v 13.5436 h -3.7922 v -1.7607 c -1.3543,2.0316 -3.115,2.166999 -4.1985,2.166999 -4.1985,0 -6.9073,-3.250499 -6.9073,-7.1781 0,-4.063099 2.7088,-7.178099 6.6364,-7.178099 1.0835,0 3.1151,0.1354 4.334,2.166999 v -1.760699 z m -7.0427,6.771799 c 0,2.167001 1.4898,3.792201 3.7922,3.792201 2.167,0 3.7923,-1.6252 3.7923,-3.792201 0,-2.167 -1.4898,-3.7922 -3.7923,-3.7922 -2.1669,0 -3.7922,1.6252 -3.7922,3.7922 z m 18.2839,-3.5213 v 10.293101 h -3.7922 V 19.502901 h -1.4898 v -3.250499 h 1.4898 v -4.6048 h 3.7922 v 4.6048 h 2.5733 v 3.250499 z m 11.512097,0 c -0.948,-0.8127 -1.761,-0.9481 -2.167,-0.9481 -0.948,0 -1.49,0.406301 -1.49,1.0835 0,0.406301 0.136,0.8126 1.219,1.218901 l 0.948,0.2709 c 1.084,0.4063 2.709,0.8126 3.386,1.8961 0.406,0.5417 0.677,1.3544 0.677,2.3024 0,1.2189 -0.406,2.4379 -1.49,3.3859 -1.083,0.9481 -2.437,1.489799 -4.063,1.489799 -2.844,0 -4.334,-1.354299 -5.281597,-2.302399 l 2.031597,-2.3024 c 0.813,0.8126 1.896,1.6252 2.98,1.6252 1.083,0 1.896,-0.5417 1.896,-1.4898 0,-0.8126 -0.678,-1.2189 -1.219,-1.3543 l -0.813,-0.2709 c -0.948,-0.4063 -2.031,-0.8126 -2.844,-1.6252 -0.677,-0.6772 -1.084,-1.4898 -1.084,-2.5733 0,-1.3544 0.678,-2.4379 1.355,-3.1151 1.083,-0.8126 2.438,-0.948 3.521,-0.948 0.948,0 2.573,0.1354 4.334,1.4898 z m 8.262,-1.4898 c 1.354,-1.8961 3.25,-2.166999 4.334,-2.166999 3.927,0 6.636,3.115 6.636,7.178099 0,4.0631 -2.709,7.1781 -6.772,7.1781 -0.812,0 -2.844,-0.1354 -4.334,-2.167 v 1.7607 h -3.657 V 7.0427215 h 3.793 z m -0.407,5.0111 c 0,2.167001 1.49,3.792201 3.793,3.792201 2.167,0 3.792,-1.6252 3.792,-3.792201 0,-2.167 -1.49,-3.7922 -3.792,-3.7922 -2.303,0 -3.793,1.6252 -3.793,3.7922 z m 17.607,4.740301 -6.501,-11.5121 h 4.469 l 4.199,7.719899 3.792,-7.719899 h 4.334 l -10.835,20.7217 h -4.334 z M 73.135623,18.554801 h -9.4805 v 3.7922 h 5.0111 c -0.8126,2.5733 -2.7087,4.334 -6.2301,4.334 -3.9276,0 -6.7718,-3.250499 -6.7718,-7.1781 0,-3.927699 2.7087,-7.3136 6.6364,-7.3136 2.167,0 4.334,1.083501 5.6883,2.844201 l 3.115,-2.031601 c -2.0315,-2.844099 -5.282,-4.4693795 -8.8033,-4.4693795 -5.9592,0 -10.8349,4.8756805 -10.8349,10.9703805 0,6.0946 4.6048,10.9703 10.8349,10.9703 6.2301,0 10.8349,-4.8757 10.8349,-10.9703 0.1354,-0.4064 0,-0.6772 0,-0.948101 z"
     fill="#000000"
     id="path454" />
  <path
     clip-rule="evenodd"
     d="M 0,18.961102 C 0,8.5324815 8.532483,0 18.961123,0 c 10.4285,0 18.961,8.5324815 18.961,18.961102 0,10.428599 -8.5325,18.960999 -18.961,18.960999 C 8.532483,37.922101 0,29.389701 0,18.961102 Z m 4.063083,0.2708 c 0,3.6568 1.4898,7.448999 4.33396,10.2932 2.84418,2.8442 6.63638,4.198499 10.42858,4.333999 l -0.1368,-0.1356 h 0.0013 L 4.063053,19.096402 c 0,0.0454 2.2e-4,0.0908 6.5e-4,0.136199 z m 0.40631,-3.5213 17.74213,17.7422 c 10e-5,-10e-5 10e-5,-10e-5 10e-5,-10e-5 l 0.1353,0.1353 c 6.0946,-1.5236 10.8798,-6.856401 11.4542,-13.319901 0.0384,-0.4309 0.0579,-0.8669 0.0579,-1.306999 0,-10e-5 0,-10e-5 0,-2e-4 h -9.4805 v 2.7087 2e-4 h 6.5009 c -0.9481,4.062999 -3.9277,7.448799 -7.8553,8.8032 l -15.57509,-15.5751 c 1.76069,-4.7402 6.23009,-8.1260905 11.51209,-8.1260905 4.063,0 7.7198,2.03154 10.0222,5.1465905 l 2.0316,-1.7607 c -10e-5,0 -10e-5,-10e-5 -10e-5,-10e-5 -2.7087,-3.6568205 -7.0426,-6.0946705 -12.0538,-6.0946705 -7.0427,0 -13.00186,5.01114 -14.49166,11.6474705 l 6e-5,10e-5 c -10e-6,0 -2e-5,10e-5 -3e-5,10e-5 z"
     fill="#663399"
     fill-rule="evenodd"
     id="path456" />
</svg>
