<?xml version="1.0" encoding="UTF-8" standalone="no"?>
<svg
   fill-rule="evenodd"
   stroke-width="27"
   viewBox="0 0 1491.61 389.97406"
   version="1.1"
   id="svg479"
   sodipodi:docname="hugo.svg"
   width="1491.61"
   height="389.97406"
   inkscape:version="1.1.2 (b8e25be8, 2022-02-05)"
   xmlns:inkscape="http://www.inkscape.org/namespaces/inkscape"
   xmlns:sodipodi="http://sodipodi.sourceforge.net/DTD/sodipodi-0.dtd"
   xmlns="http://www.w3.org/2000/svg"
   xmlns:svg="http://www.w3.org/2000/svg">
  <defs
     id="defs483" />
  <sodipodi:namedview
     id="namedview481"
     pagecolor="#ffffff"
     bordercolor="#666666"
     borderopacity="1.0"
     inkscape:pageshadow="2"
     inkscape:pageopacity="0.0"
     inkscape:pagecheckerboard="0"
     showgrid="false"
     inkscape:zoom="0.72538513"
     inkscape:cx="745.12142"
     inkscape:cy="193.69021"
     inkscape:window-width="1296"
     inkscape:window-height="963"
     inkscape:window-x="0"
     inkscape:window-y="25"
     inkscape:window-maximized="0"
     inkscape:current-layer="svg479" />
  <path
     d="m 1344.221,23.984311 112.262,64.305 a 43,43 0 0 1 21.627,37.311999 v 142.237 a 40,40 0 0 1 -20.702,35.037 l -120.886,66.584 a 42,42 0 0 1 -41.216,-0.389 l -106.242,-61.155 a 57,57 0 0 1 -28.564,-49.4 v -120.525 a 64,64 0 0 1 31.172,-54.938999 l 98.01,-58.564 a 54,54 0 0 1 54.54,-0.503 z"
     fill="#ebb951"
     stroke="#fcd804"
     id="path469" />
  <path
     d="m 957.08,22.100311 117.31,66.78 a 41,41 0 0 1 20.72,35.639999 v 139.5 a 45,45 0 0 1 -23.1,39.32 l -117.32,65.34 a 44,44 0 0 1 -43.54,-0.41 l -105.82,-61.6 a 56,56 0 0 1 -27.83,-48.4 v -118.92 a 68,68 0 0 1 33.23,-58.439999 l 98.06,-58.35 a 48,48 0 0 1 48.3,-0.46 z"
     fill="#33ba91"
     stroke="#00a88a"
     id="path471" />
  <path
     d="m 474.67134,-181.99781 114.41,66.54 a 44,44 0 0 1 21.88,38.039994 v 136.43 a 48,48 0 0 1 -24.45,41.819996 l -113.55,63.94 a 49,49 0 0 1 -48.48,-0.23 l -104.57,-60.19 a 53,53 0 0 1 -26.56,-45.929996 v -129.47 a 55,55 0 0 1 26.1,-46.799994 l 102.8,-63.46 a 51,51 0 0 1 52.42,-0.69 z"
     fill="#ff4088"
     stroke="#c9177e"
     id="path475" />
  <path
     d="m 1319.73,88.430311 c 58.79,0 106.52,47.729999 106.52,106.509999 0,58.8 -47.73,106.52 -106.52,106.52 -58.78,0 -106.52,-47.73 -106.52,-106.52 0,-58.78 47.74,-106.509999 106.52,-106.509999 z m 0,39.569999 c 36.95,0 66.94,30 66.94,66.94 -0.017,36.96308 -29.9769,66.92345 -66.94,66.94 -36.95,0 -66.94,-29.99 -66.94,-66.94 0.016,-36.95918 29.9708,-66.91793 66.93,-66.94 z m -283.8,65.31 c 0,47.18 -8.94,60.93 -26.81,80.58 -17.87,19.65 -41.57,27.57 -71.1,27.57 -27,0 -48.75,-9.58 -67.61,-26.23 -20.88,-18.45 -36.08,-47.04 -36.08,-78.95 0,-31.37 11.72,-58.48 32.49,-78.67 18.22,-17.669999 45.34,-29.179999 73.3,-29.179999 33.77,0 68.83,15.979999 90.44,47.529999 l -31.73,26.82 c -13.45,-25.03 -32.94,-33.46 -60.82,-34.26 -30.83,-0.88 -64.77,28.53 -62.25,67.75 1.4,21.94 11.65,59.65 60.96,66.57 25.9,3.63 55.36,-24.02 55.36,-39.04 h -48.67 v -37.5 h 92.5 v 6.98 z M 473.33,98.660311 h 42.29 V 210.83031 c 0,17.8 0.49,29.33 1.47,34.61 1.69,8.48 4.81,14.37 11.17,19.5 6.37,5.13 13.8,6.59 24.84,6.59 11.2,0 14.96,-1.74 20.66,-6.6 5.69,-4.85 9.12,-9.46 10.28,-16.53 1.15,-7.07 3.07,-18.8 3.07,-35.18 V 98.660311 h 42.28 V 207.44031 c 0,24.86 -1.07,42.43 -3.21,52.69 -2.14,10.27 -6.08,18.93 -11.82,26 -5.74,7.06 -13.42,12.69 -23.03,16.88 -9.62,4.19 -22.16,6.28 -37.65,6.28 -18.7,0 -32.87,-2.28 -42.52,-6.85 -9.66,-4.57 -17.3,-10.5 -22.9,-17.8 -5.61,-7.3 -9.3,-14.95 -11.08,-22.96 -6.54466,-53.10255 -4.40749,-105.53957 -3.85,-163.019999 z M 92.92,299.20031 V 91.980311 h 43.35 v 75.479999 h 71.92 V 91.980311 h 43.48 V 299.20031 h -43.48 v -90.61 h -71.92 v 90.61 z"
     fill="#ffffff"
     id="path477"
     sodipodi:nodetypes="sssssscccsscsscscscccccccccccccsccsccsccscccsccccccccccccccccc" />
</svg>
