<?xml version="1.0" encoding="UTF-8" standalone="no"?>
<svg
   width="511.01852"
   height="208.57181"
   viewBox="0 0 511.01852 208.57181"
   version="1.1"
   preserveAspectRatio="xMidYMid"
   id="svg147"
   sodipodi:docname="jekyll.svg"
   inkscape:version="1.1.2 (b8e25be8, 2022-02-05)"
   xmlns:inkscape="http://www.inkscape.org/namespaces/inkscape"
   xmlns:sodipodi="http://sodipodi.sourceforge.net/DTD/sodipodi-0.dtd"
   xmlns="http://www.w3.org/2000/svg"
   xmlns:svg="http://www.w3.org/2000/svg">
  <sodipodi:namedview
     id="namedview149"
     pagecolor="#ffffff"
     bordercolor="#666666"
     borderopacity="1.0"
     inkscape:pageshadow="2"
     inkscape:pageopacity="0.0"
     inkscape:pagecheckerboard="0"
     showgrid="false"
     inkscape:zoom="1.6933594"
     inkscape:cx="293.20415"
     inkscape:cy="93.600921"
     inkscape:window-width="1312"
     inkscape:window-height="963"
     inkscape:window-x="0"
     inkscape:window-y="25"
     inkscape:window-maximized="0"
     inkscape:current-layer="svg147" />
  <defs
     id="defs113">
    <linearGradient
       x1="37.162752"
       y1="71.070223"
       x2="106.31594"
       y2="85.817913"
       id="linearGradient-1"
       gradientTransform="scale(0.74470265,1.3428178)"
       gradientUnits="userSpaceOnUse">
      <stop
         stop-color="#919191"
         offset="0%"
         id="stop96" />
      <stop
         stop-color="#FFFFFF"
         offset="100%"
         id="stop98" />
    </linearGradient>
    <linearGradient
       x1="33.756025"
       y1="100.28269"
       x2="73.691014"
       y2="109.62749"
       id="linearGradient-2"
       gradientTransform="scale(0.78007129,1.2819341)"
       gradientUnits="userSpaceOnUse">
      <stop
         stop-color="#990000"
         offset="0%"
         id="stop101" />
      <stop
         stop-color="#E80000"
         offset="100%"
         id="stop103" />
    </linearGradient>
    <linearGradient
       x1="133.52033"
       y1="327.56363"
       x2="133.52033"
       y2="60.940893"
       id="linearGradient-3"
       gradientTransform="scale(1.6317304,0.61284635)"
       gradientUnits="userSpaceOnUse">
      <stop
         stop-color="#1A1A1A"
         offset="0%"
         id="stop106" />
      <stop
         stop-color="#4A4A4C"
         offset="40.26%"
         id="stop108" />
      <stop
         stop-color="#333333"
         offset="100%"
         id="stop110" />
    </linearGradient>
  </defs>
  <g
     id="g145"
     transform="translate(-0.04716457,-0.0446696)">
    <g
       id="g143">
      <g
         transform="translate(394.23002)"
         id="g137">
        <path
           d="m 65.072905,4.2916179 c -0.09981,0.3992203 -0.09981,0.7984406 0,1.1976609 0,0 1.297465,8.4834312 -0.199611,12.2760232 L 3.3933723,177.75283 c -4.39142298,11.77699 1.497076,24.85146 13.2740737,29.34269 11.776998,4.49122 24.851462,-1.29747 29.542301,-12.97466 v 0 L 107.68967,34.133333 c 1.19766,-3.093957 8.08421,-9.182066 8.08421,-9.182066 0.29941,-0.299415 0.59883,-0.59883 0.79844,-0.898246 v -0.0998 c 0,-0.0998 0.0998,-0.0998 0.0998,-0.19961 C 118.26901,19.661598 107.98908,11.876803 93.816764,6.3875244 79.644444,0.89824561 66.769591,-0.19961014 65.17271,3.9922027 c 0,0 -0.0998,0.099805 -0.0998,0.2994152 v 0 z"
           opacity="0.1"
           fill="#000000"
           id="path115" />
        <path
           d="m 63.276413,2.894347 c -0.0998,0.3992203 -0.0998,0.7984405 0,1.1976608 0,0 1.297466,8.4834312 -0.19961,12.2760232 L 1.5968811,176.35556 c -4.391423,11.77699 1.497076,24.85146 13.2740739,29.34269 11.776998,4.49122 24.851462,-1.29747 29.5423,-12.97466 v 0 L 105.89318,32.736062 c 1.19766,-3.093957 8.08421,-9.182066 8.08421,-9.182066 0.29941,-0.299415 0.59883,-0.59883 0.79844,-0.898246 v -0.0998 c 0,-0.0998 0.0998,-0.0998 0.0998,-0.19961 1.59689,-4.092008 -8.68304,-11.876803 -22.855357,-17.3660816 -14.17232,-5.48927874 -27.047174,-6.5871345 -28.644055,-2.3953216 0,0.099805 0,0.1996101 -0.09981,0.2994152 v 0 z"
           fill="url(#linearGradient-1)"
           id="path117"
           style="fill:url(#linearGradient-1)" />
        <path
           d="M 82.638597,75.253021 38.225341,190.62768 C 34.931774,198.9115 25.450292,203.20312 16.966862,199.90955 8.4834308,196.61598 3.9922027,186.93489 7.0861598,178.65107 v 0 L 35.430799,104.89513 c 0,0 3.493178,-5.688892 10.479532,-9.7809 6.986355,-4.092008 12.675244,-3.193762 20.360234,-6.587134 7.784796,-3.393373 16.368032,-13.274075 16.368032,-13.274075 z"
           fill="url(#linearGradient-2)"
           id="path119"
           style="fill:url(#linearGradient-2)" />
        <path
           d="M 104.1762,19.018572 C 105.06086,16.710104 98.693287,12.10333 89.953834,8.7290542 81.21438,5.3547782 73.412499,4.49077 72.527844,6.7992378 71.643189,9.1077056 78.010761,13.71448 86.750215,17.088756 c 8.739454,3.374276 16.541335,4.238284 17.425985,1.929816 z"
           fill="#333333"
           id="path121" />
        <path
           d="m 62.862712,4.0804762 c 0,0 1.288983,8.4595238 -0.198305,12.2414288 L 1.5864407,175.85857 c -4.3627119,11.74381 1.4872881,24.78143 13.1872883,29.26 1.983051,0.79619 4.065254,1.29381 6.147457,1.39334 -7.83305,-5.97143 -11.2042368,-16.52096 -7.634745,-26.27429 v 0 L 73.174576,23.885714 c 0,0 -8.229661,-7.663333 -10.311864,-19.8052378 z"
           opacity="0.3"
           fill="#ffffff"
           id="path123" />
        <g
           transform="translate(25.779661,104.5)"
           fill="#ffffff"
           opacity="0.5"
           id="g135">
          <ellipse
             cx="17.450848"
             cy="2.4880953"
             rx="1.7847458"
             ry="1.7914286"
             id="ellipse125" />
          <ellipse
             cx="29.051695"
             cy="15.326667"
             rx="2.6771185"
             ry="2.6871428"
             id="ellipse127" />
          <ellipse
             cx="11.30339"
             cy="30.653334"
             rx="5.0567799"
             ry="5.0757141"
             id="ellipse129" />
          <ellipse
             cx="3.1728814"
             cy="40.008572"
             rx="2.6771185"
             ry="2.6871428"
             id="ellipse131" />
          <ellipse
             cx="13.782204"
             cy="59.913334"
             rx="1.7847458"
             ry="1.7914286"
             id="ellipse133" />
        </g>
      </g>
      <path
         d="m 120.46472,97.135238 c 2.69473,2.189524 7.58518,0.895714 10.87875,-2.687143 3.49318,-3.781905 3.9922,-8.658571 1.29747,-10.848095 -2.69474,-2.189524 -7.58519,-0.895714 -10.87876,2.886191 -3.49317,3.781904 -4.092,8.559047 -1.29746,10.649047 z m -8.08421,7.066192 c -0.69864,0 -1.9961,1.29381 -0.89825,1.79143 1.49708,0.49762 2.19571,1.79143 2.19571,3.58285 -1.29746,7.46429 -10.57933,15.92381 -14.172317,18.81 -0.898246,0.89572 0.39922,2.88619 1.297467,2.18953 1.9961,-1.59238 6.18791,-4.87667 9.58129,-9.25572 -5.58909,12.44048 -16.567646,28.56334 -20.759459,34.23619 -16.368031,22.59191 -41.219493,43.39238 -58.28616,43.39238 -13.673294,0 -25.2506818,-9.25571 -27.7458085,-22.79095 -0.1996102,-1.49285 -2.1957115,-1.79143 -1.7964913,0.19905 3.0939571,18.61095 17.4658868,25.87619 34.8319688,25.87619 19.062768,0 41.419103,-13.73429 53.794932,-27.86667 19.961018,-22.79095 32.835868,-49.06523 29.442498,-63.89428 -1.39727,-5.47381 -5.28967,-6.36952 -7.48538,-6.27 z m 122.66043,49.66238 c 5.28966,-1.29381 9.58128,-4.18 9.58128,-8.7581 0,-0.49762 -0.89824,-0.49762 -0.89824,0 0,2.68715 -3.09396,4.97619 -6.58714,5.47381 -8.18401,1.29381 -24.35244,-8.26047 -31.93762,-18.11333 8.18402,3.08524 24.85146,-1.39333 32.73606,-7.06619 7.28577,-5.27476 10.18012,-11.04714 10.67914,-15.72476 0.89825,-7.76286 -7.58518,-12.340954 -19.46198,-7.76286 -7.58519,3.08524 -16.66745,9.75333 -26.14893,22.29333 9.98051,-16.42142 29.6421,-43.292853 48.90448,-60.410948 23.45419,-20.800476 37.02768,-16.819524 15.96881,5.274762 -8.68304,9.056667 -25.05107,20.800476 -36.32904,25.87619 -3.49318,1.492857 -1.79649,3.483334 0.69863,2.388572 11.97661,-5.274762 27.94542,-16.122857 37.62651,-25.179524 28.54425,-27.369048 4.69084,-47.970476 -26.84756,-19.009048 -21.45809,19.705715 -35.4308,40.307143 -47.60702,67.079046 -4.19181,5.07572 -7.28577,9.25572 -11.07836,12.44048 -0.49902,0.39809 -0.79844,0.79619 -1.09786,1.19428 -10.47953,8.95715 -26.94736,21.09905 -37.22729,21.19857 -7.28576,0.19905 -10.37972,-5.27476 -9.08226,-12.34095 1.9961,-11.04714 13.47369,-24.08476 23.25458,-28.56333 12.67525,-5.77238 20.16063,5.47381 3.49318,14.43095 -6.38752,3.28429 -13.97271,5.07572 -17.06667,5.07572 -3.59298,0 -3.29356,1.49285 -0.19961,1.59238 5.09006,0.19904 13.27408,-1.99048 18.66355,-4.47857 17.06667,-8.16096 18.16452,-23.3881 -0.39922,-23.88572 -20.16062,-0.69666 -44.31345,16.42143 -44.11384,38.0181 0.19961,9.75333 7.98441,15.02809 18.66355,15.02809 17.86511,-0.19905 33.73411,-13.73428 46.80858,-25.67714 1.89629,-1.59238 3.69278,-3.28429 5.48928,-5.07572 -4.59104,11.54477 -6.88655,22.29334 -5.7887,30.25524 0.69864,5.77238 3.9922,8.45953 6.58714,10.64905 0.49902,0.3981 1.59688,0 0.89824,-1.09476 -3.79259,-4.47857 -2.69474,-17.91429 2.49513,-30.95191 4.39142,8.7581 21.45809,19.80524 39.3232,15.82429 z m -21.45809,-37.71952 c 20.85925,-18.610957 29.04327,-1.99048 15.7692,8.16095 -6.88655,5.27476 -20.55985,9.25571 -24.85147,6.66809 l -0.89824,-0.49762 c -0.49903,-0.89571 -1.09786,-1.79142 -1.49708,-2.68714 3.49318,-4.27952 7.48538,-8.06143 11.47759,-11.64428 z M 329.55633,94.945714 c 8.38363,0.895715 4.89045,-9.255714 -3.59298,-6.668095 -3.79259,1.094762 -7.48538,8.36 -10.18011,14.630001 -8.38363,12.44048 -22.35634,29.45905 -32.13724,38.41619 -8.68304,7.46428 -16.66744,9.45476 -6.88655,-4.47857 3.99221,-5.57334 9.08227,-11.54476 11.97661,-17.51619 6.88655,-15.0281 -7.78479,-21.696193 -19.6616,-12.63953 -6.88655,5.27477 -16.16842,16.12286 -23.45419,22.09429 -1.9961,1.59238 -1.49707,3.98095 0.49903,2.38857 5.78869,-4.67762 15.96881,-15.42619 24.75165,-21.69619 7.28577,-5.57333 10.18012,-1.99048 5.98831,2.68714 -5.7887,6.6681 -15.96881,18.31238 -18.56374,25.67715 -3.59299,11.04714 0.69863,15.92381 7.9844,15.92381 9.98051,0 24.85146,-15.52572 34.83197,-27.86667 3.29357,-4.18 6.88655,-9.05667 9.98051,-13.73429 -8.68304,16.81953 -17.7653,33.8381 -29.04328,49.26429 -15.96881,21.69619 -35.92982,38.01809 -54.89278,38.01809 -13.6733,0 -25.4503,-9.25571 -27.94542,-22.79095 -0.19961,-1.49286 -1.99611,-1.79143 -1.7965,0.19905 3.09396,18.61095 17.46589,25.87619 34.83197,25.87619 19.06277,0 37.4269,-11.04714 50.30176,-24.58238 25.94932,-27.36905 29.04327,-58.12191 37.02768,-75.33953 3.79259,-7.862376 7.18596,-8.160947 9.9805,-7.862376 z M 435.1501,68.671429 c 3.79259,-6.469048 3.59298,-11.544762 -5.28967,-11.544762 -6.68694,0.199047 -18.86316,4.876666 -24.55205,9.255714 -1.29746,1.29381 -0.69863,1.990476 0.89825,1.29381 1.09785,-0.398096 2.39532,-1.094762 3.59298,-1.592382 6.38752,-3.483333 3.79259,3.781905 2.39532,6.469048 -7.58518,13.236667 -21.05887,31.847623 -28.14503,41.103333 -3.39337,4.5781 -7.18596,9.05667 -10.87875,12.9381 -6.78674,6.46904 -20.26043,17.91428 -30.54035,21.69619 -33.03548,12.34095 9.08226,-43.79048 12.57544,-48.368575 7.78479,-9.753334 25.25068,-26.771905 30.54035,-35.330953 3.79259,-6.469047 3.59298,-11.544761 -5.28967,-11.544761 -6.68694,0.199047 -18.86316,4.876666 -24.55205,9.255714 -1.29746,1.293809 -0.69863,1.990476 0.89825,1.293809 1.09786,-0.398095 2.39532,-1.094762 3.59298,-1.592381 6.38753,-3.483333 3.79259,3.781905 2.39532,6.469048 -7.58518,13.236667 -21.05887,31.847619 -28.14503,41.103329 -5.78869,7.76286 -12.87485,15.52572 -18.36413,19.90477 -2.19571,1.79142 -0.89824,3.48333 1.29747,1.99047 1.9961,-1.29381 4.89044,-4.18 8.18401,-7.56381 -5.9883,11.94286 -10.87875,28.76238 4.89045,30.75286 13.47369,1.79143 29.4425,-11.84333 39.82222,-21.99476 1.09786,-1.09476 2.39532,-2.38857 3.69279,-3.68238 0.29942,-0.29857 0.59883,-0.59715 0.89825,-0.89572 -5.98831,11.94286 -10.87876,28.76238 4.89044,30.75286 17.26628,2.38857 38.72437,-20.80048 47.00819,-29.35952 1.59688,-1.59238 1.09786,-4.37905 -1.59688,-1.59238 -4.89045,5.07571 -21.45809,20.1038 -33.4347,24.58238 -33.03548,12.34095 9.08226,-43.79048 12.57544,-48.36857 7.8846,-9.952386 25.35049,-26.970958 30.64016,-35.430481 z"
         opacity="0.1"
         fill="#000000"
         id="path139" />
      <path
         d="m 118.66823,95.443333 c 2.69473,2.189524 7.58518,0.895715 10.87875,-2.687142 3.49318,-3.781905 3.9922,-8.658572 1.29746,-10.848096 -2.69473,-2.189524 -7.58518,-0.895714 -10.87875,2.886191 -3.49317,3.781904 -3.9922,8.459524 -1.29746,10.649047 z m -7.98441,7.066187 c -0.69863,0 -1.9961,1.29381 -0.89825,1.79143 1.49708,0.49762 2.19572,1.79143 2.19572,3.58286 -1.29747,7.46429 -10.57934,15.92381 -14.172323,18.81 -0.898246,0.89571 0.39922,2.88619 1.297466,2.18952 1.996097,-1.59238 6.187917,-4.87666 9.581287,-9.25571 -5.58908,12.44047 -16.567642,28.56333 -20.759455,34.23619 -16.368031,22.5919 -41.219493,43.39238 -58.28616,43.39238 -13.673294,0 -25.250682,-9.25571 -27.7458087,-22.79095 -0.1996101,-1.49286 -2.19571151,-1.79143 -1.79649123,0.19905 3.09395713,18.61095 17.46588693,25.87619 34.83196893,25.87619 19.062768,0 41.419103,-13.73429 53.794932,-27.86667 19.961014,-22.79095 32.835864,-49.06524 29.442494,-63.89429 -1.49708,-5.57333 -5.28967,-6.46904 -7.48538,-6.27 z m 122.56062,49.66238 c 5.28967,-1.29381 9.58129,-4.18 9.58129,-8.75809 0,-0.49762 -0.89825,-0.49762 -0.89825,0 0,2.68714 -3.09395,4.97619 -6.58713,5.47381 -8.18401,1.29381 -24.35244,-8.26048 -31.93762,-18.11333 8.18401,3.08523 24.85146,-1.39334 32.73606,-7.06619 7.28577,-5.27477 10.18012,-11.04715 10.67914,-15.72477 0.89825,-7.76285 -7.58518,-12.340949 -19.46199,-7.76285 -7.58518,3.08523 -16.66744,9.75333 -26.14892,22.29333 9.9805,-16.42143 29.6421,-43.292858 48.90448,-60.410953 23.45419,-20.800476 37.02768,-16.819524 15.96881,5.274762 -8.68304,9.056667 -25.05107,20.800476 -36.32904,25.876191 -3.49318,1.492857 -1.79649,3.483333 0.69863,2.388571 11.97661,-5.274762 27.94542,-16.122857 37.62651,-25.179524 28.54425,-27.369048 4.69084,-47.970476 -26.84756,-19.009048 -21.45809,19.606191 -35.4308,40.307143 -47.60702,67.079051 -4.19181,5.07571 -7.28577,9.25571 -11.07836,12.44047 -0.49903,0.3981 -0.79844,0.79619 -1.09786,1.19429 -10.47953,8.95714 -26.94736,21.09905 -37.22729,21.19857 -7.28577,0.19905 -10.37972,-5.27476 -9.08226,-12.34095 1.9961,-11.04715 13.47369,-24.08476 23.25458,-28.56333 12.67525,-5.77239 20.16063,5.4738 3.49318,14.43095 -6.38752,3.28428 -13.97271,5.07571 -17.06667,5.07571 -3.59298,0 -3.29356,1.49286 -0.19961,1.59238 5.09006,0.19905 13.27408,-1.99047 18.66355,-4.47857 17.06667,-8.16095 18.16452,-23.38809 -0.39922,-23.88571 -20.16062,-0.69667 -44.31345,16.42142 -44.11384,38.01809 0.19961,9.75333 7.98441,15.0281 18.66355,15.0281 17.86511,-0.19905 33.73411,-13.73429 46.80858,-25.67715 1.89629,-1.59238 3.69278,-3.28428 5.48927,-5.07571 -4.59103,11.54476 -6.88655,22.29333 -5.78869,30.25524 0.69864,5.77238 3.9922,8.45952 6.58713,10.64905 0.49903,0.39809 1.59689,0 0.89825,-1.09477 -3.79259,-4.47857 -2.69474,-17.91428 2.49513,-30.9519 4.49123,8.75809 21.55789,19.80524 39.32319,15.82428 z m -21.45809,-37.81904 c 20.85926,-18.610955 29.04328,-1.99048 15.76921,8.16095 -6.88655,5.27476 -20.55985,9.25571 -24.85147,6.66809 l -0.89824,-0.49761 c -0.49903,-0.89572 -1.09786,-1.79143 -1.49708,-2.68715 3.49318,-4.18 7.48538,-8.06143 11.47758,-11.64428 z M 327.75984,93.25381 c 8.38363,0.895714 4.89045,-9.255715 -3.59298,-6.668096 -3.79259,1.094762 -7.48538,8.36 -10.18012,14.629996 -8.38362,12.44048 -22.35633,29.45905 -32.13723,38.41619 -8.68304,7.46429 -16.66744,9.45477 -6.88655,-4.47857 3.99221,-5.57333 9.08226,-11.54476 11.97661,-17.51619 6.88655,-15.02809 -7.78479,-21.696188 -19.6616,-12.63952 -6.88655,5.27476 -16.16842,16.12286 -23.45419,22.09428 -1.9961,1.59239 -1.49707,3.98096 0.49903,2.38858 5.78869,-4.67762 15.96881,-15.42619 24.75165,-21.69619 7.28577,-5.57334 10.18012,-1.99048 5.98831,2.68714 -5.7887,6.66809 -15.96881,18.31238 -18.56374,25.67714 -3.59299,11.04714 0.69863,15.92381 7.9844,15.92381 9.98051,0 24.85146,-15.52571 34.83197,-27.86667 3.29357,-4.18 6.88655,-9.05666 9.98051,-13.73428 -8.68305,16.81952 -17.76531,33.83809 -29.04328,49.26428 -15.96881,21.69619 -35.92982,38.0181 -54.89279,38.0181 -13.67329,0 -25.45029,-9.25572 -27.94542,-22.79095 -0.19961,-1.49286 -1.9961,-1.79143 -1.79649,0.19904 3.09396,18.61096 17.46589,25.87619 34.83197,25.87619 19.06277,0 37.4269,-11.04714 50.30176,-24.58238 25.94932,-27.36904 29.04327,-58.1219 37.02768,-75.33952 3.79259,-7.86238 7.28577,-8.260476 9.9805,-7.86238 z M 433.35361,66.88 c 3.79259,-6.469048 3.59298,-11.544762 -5.28967,-11.544762 -6.68694,0.199048 -18.86316,4.876667 -24.55205,9.255714 -1.29747,1.29381 -0.69863,1.990477 0.89825,1.29381 1.09785,-0.398095 2.39532,-1.094762 3.59298,-1.592381 6.38752,-3.483333 3.79259,3.781905 2.39532,6.469048 -7.58518,13.236666 -21.05887,31.847621 -28.14503,41.103331 -3.39337,4.5781 -7.18596,9.05667 -10.87875,12.9381 -6.78675,6.46904 -20.26043,17.91428 -30.54035,21.69619 -33.03548,12.34095 9.08226,-43.79048 12.57544,-48.368574 7.78479,-9.753333 25.25068,-26.771905 30.54035,-35.330952 3.79259,-6.469048 3.59298,-11.544762 -5.28967,-11.544762 -6.68694,0.199047 -18.86316,4.876667 -24.55205,9.255714 -1.29746,1.29381 -0.69863,1.990476 0.89825,1.29381 1.09785,-0.398096 2.39532,-1.094762 3.59298,-1.592381 6.38753,-3.483334 3.79259,3.781904 2.39532,6.469047 -7.58518,13.236667 -21.05887,31.847619 -28.14503,41.103338 -5.78869,7.76285 -12.87485,15.52571 -18.36413,19.90476 -2.19571,1.79143 -0.89825,3.48333 1.29747,1.99047 1.9961,-1.29381 4.89044,-4.18 8.18401,-7.56381 -5.9883,11.94286 -10.87875,28.76238 4.89045,30.75286 13.47368,1.79143 29.44249,-11.84333 39.82222,-21.99476 1.09786,-1.09476 2.39532,-2.38857 3.69279,-3.68238 0.29941,-0.29857 0.59883,-0.59714 0.89825,-0.89572 -5.98831,11.94286 -10.87876,28.76238 4.89044,30.75286 17.26628,2.38857 38.72437,-20.80048 47.00819,-29.35952 1.59688,-1.59238 1.09786,-4.37905 -1.59688,-1.59238 -4.89045,5.07571 -21.45809,20.10381 -33.4347,24.58238 -33.03548,12.34095 9.08226,-43.79048 12.57544,-48.36857 7.98441,-9.952385 25.35049,-26.970956 30.64016,-35.43048 z"
         fill="url(#linearGradient-3)"
         id="path141"
         style="fill:url(#linearGradient-3)" />
    </g>
  </g>
</svg>
