<?xml version="1.0" encoding="UTF-8" standalone="no"?>
<svg
   width="134.64235"
   height="24.999851"
   viewBox="0 0 134.64235 24.999851"
   fill="none"
   version="1.1"
   id="svg562"
   sodipodi:docname="mkdocs.svg"
   inkscape:version="1.1.2 (b8e25be8, 2022-02-05)"
   xmlns:inkscape="http://www.inkscape.org/namespaces/inkscape"
   xmlns:sodipodi="http://sodipodi.sourceforge.net/DTD/sodipodi-0.dtd"
   xmlns="http://www.w3.org/2000/svg"
   xmlns:svg="http://www.w3.org/2000/svg">
  <sodipodi:namedview
     id="namedview564"
     pagecolor="#ffffff"
     bordercolor="#666666"
     borderopacity="1.0"
     inkscape:pageshadow="2"
     inkscape:pageopacity="0.0"
     inkscape:pagecheckerboard="0"
     showgrid="false"
     inkscape:zoom="7.9051095"
     inkscape:cx="68.246999"
     inkscape:cy="12.207295"
     inkscape:window-width="1296"
     inkscape:window-height="963"
     inkscape:window-x="0"
     inkscape:window-y="25"
     inkscape:window-maximized="0"
     inkscape:current-layer="svg562" />
  <path
     d="m 38.042147,1.8686356 h 2.9433 l 5.5318,14.7557804 5.5186,-14.7557804 h 2.9433 l -7.3056,19.1312804 h -2.3389 z m -1.3402,0 h 2.7987 l 0.4862,12.7716804 v 6.3596 h -3.2849 z m 16.8187,0 h 2.8119 V 20.999916 h -3.2981 v -6.3596 z m 10.1433,-1.05117 V 20.999916 h -3.1798 V 0.8174656 Z m 8.8298,5.96539 -6.1888,6.8588604 -3.39,3.4689 -0.8278,-2.6805 2.5622,-3.1666 4.0208,-4.4806604 z m -3.1404,14.2170604 -4.612,-6.6749 1.9972,-2.2206 6.2808,8.8955 z m 11.5624,0 h -4.0865 l 0.0263,-2.6148 h 4.0602 c 1.1825,0 2.1724,-0.2584 2.9695,-0.7752 0.8059,-0.5168 1.4103,-1.257 1.8133,-2.2206 0.4117,-0.9636 0.6176,-2.1111 0.6176,-3.4426 v -1.038 c 0,-1.0337004 -0.1183,-1.9490604 -0.3548,-2.7462004 -0.2278,-0.79713 -0.5694,-1.46725 -1.0249,-2.01036 -0.4468,-0.5431 -0.9986,-0.95481 -1.6556,-1.23512 -0.6482,-0.28032 -1.3972,-0.42047 -2.2469,-0.42047 h -4.2835 v -2.62793 h 4.2835 c 1.2702,0 2.4309,0.21462 3.482,0.64384 1.0512,0.42047 1.9578,1.02927 2.7199,1.82641 0.7709,0.79714 1.3622,1.75195 1.7739,2.86444 0.4117,1.11249 0.6175,2.35639 0.6175,3.7316904 v 1.0117 c 0,1.3753 -0.2058,2.6192 -0.6175,3.7317 -0.4117,1.1125 -1.003,2.0673 -1.7739,2.8644 -0.7708,0.7884 -1.6906,1.3972 -2.7593,1.8264 -1.0599,0.4205 -2.2469,0.6307 -3.5608,0.6307 z m -2.26,-19.1312804 V 20.999916 h -3.2981 V 1.8686356 Z m 13.9012,12.1804804 v -0.3023 c 0,-1.0248 0.1489,-1.9753 0.4467,-2.8513 0.2978,-0.8847 0.7271,-1.6512004 1.2877,-2.2993904 0.5694,-0.65698 1.2614,-1.16505 2.076,-1.5242 0.8235,-0.3679 1.752,-0.55186 2.7857,-0.55186 1.042303,0 1.971303,0.18396 2.785303,0.55186 0.824,0.35915 1.52,0.86722 2.089,1.5242 0.57,0.64819 1.003,1.4146904 1.301,2.2993904 0.298,0.876 0.447,1.8265 0.447,2.8513 v 0.3023 c 0,1.0249 -0.149,1.9753 -0.447,2.8513 -0.298,0.8759 -0.731,1.6424 -1.301,2.2994 -0.569,0.6482 -1.261,1.1563 -2.076,1.5242 -0.814,0.3591 -1.738,0.5387 -2.772103,0.5387 -1.0424,0 -1.9753,-0.1796 -2.7987,-0.5387 -0.8147,-0.3679 -1.5067,-0.876 -2.0761,-1.5242 -0.5694,-0.657 -1.003,-1.4235 -1.3008,-2.2994 -0.2978,-0.876 -0.4467,-1.8264 -0.4467,-2.8513 z m 3.1666,-0.3023 v 0.3023 c 0,0.6394 0.0657,1.2438 0.1971,1.8132 0.1314,0.5694 0.3373,1.0687 0.6176,1.4979 0.2803,0.4293 0.6394,0.7665 1.0774,1.0118 0.438,0.2453 0.9592,0.3679 1.5636,0.3679 0.5871,0 1.095103,-0.1226 1.524103,-0.3679 0.438,-0.2453 0.797,-0.5825 1.078,-1.0118 0.28,-0.4292 0.486,-0.9285 0.617,-1.4979 0.14,-0.5694 0.21,-1.1738 0.21,-1.8132 v -0.3023 c 0,-0.6307 -0.07,-1.2263 -0.21,-1.7869 -0.131,-0.5694 -0.341,-1.0731 -0.631,-1.5111 -0.28,-0.438 -0.639,-0.7796004 -1.077,-1.0249004 -0.429,-0.25402 -0.941703,-0.38104 -1.537303,-0.38104 -0.5957,0 -1.1125,0.12702 -1.5505,0.38104 -0.4293,0.2453 -0.784,0.5869004 -1.0643,1.0249004 -0.2803,0.438 -0.4862,0.9417 -0.6176,1.5111 -0.1314,0.5606 -0.1971,1.1562 -0.1971,1.7869 z m 19.051803,4.9931 c 0.517,0 0.981,-0.1007 1.393,-0.3022 0.42,-0.2102 0.758,-0.4993 1.012,-0.8672 0.262,-0.3679 0.407,-0.7928 0.433,-1.2746 h 2.983 c -0.018,0.9198 -0.289,1.7564 -0.815,2.5097 -0.525,0.7533 -1.222,1.3534 -2.089,1.8001 -0.867,0.438 -1.826,0.657 -2.877,0.657 -1.087,0 -2.033,-0.1839 -2.839,-0.5518 -0.806,-0.3767 -1.476,-0.8935 -2.01,-1.5505 -0.534,-0.657 -0.937,-1.4147 -1.209,-2.2732 -0.263,-0.8584 -0.394,-1.7782 -0.394,-2.7593 v -0.4599 c 0,-0.9811 0.131,-1.9009 0.394,-2.7593 0.272,-0.8672 0.675,-1.6293004 1.209,-2.2863104 0.534,-0.65698 1.204,-1.16943 2.01,-1.53734 0.806,-0.37666 1.748,-0.565 2.825,-0.565 1.139,0 2.138,0.22775 2.996,0.68326 0.859,0.44675 1.533,1.07307 2.024,1.87897 0.499,0.79712 0.757,1.7256204 0.775,2.7856204 h -2.983 c -0.026,-0.5256 -0.157,-0.9986 -0.394,-1.4191 -0.228,-0.4292 -0.552,-0.7709004 -0.972,-1.0249004 -0.412,-0.25402 -0.907,-0.38104 -1.485,-0.38104 -0.639,0 -1.169,0.1314 -1.59,0.39414 -0.42,0.2541 -0.749,0.6045004 -0.985,1.0512004 -0.237,0.438 -0.408,0.9329 -0.513,1.4848 -0.096,0.5431 -0.144,1.1081 -0.144,1.695 v 0.4599 c 0,0.5869 0.048,1.1563 0.144,1.7081 0.097,0.5519 0.263,1.0468 0.499,1.4848 0.246,0.4293 0.579,0.7753 0.999,1.0381 0.421,0.254 0.955,0.381 1.603,0.381 z m 16.766,-1.5899 c 0,-0.3153 -0.079,-0.6 -0.237,-0.8541 -0.157,-0.2628 -0.46,-0.4993 -0.906,-0.7095 -0.438,-0.2102 -1.087,-0.403 -1.945,-0.5781 -0.753,-0.1665 -1.445,-0.3636 -2.076,-0.5913 -0.622,-0.2365 -1.156,-0.5212 -1.603,-0.8541 -0.447,-0.3329 -0.793,-0.7271 -1.038,-1.1826 -0.245,-0.4555 -0.368,-0.9811 -0.368,-1.5767 0,-0.5782 0.127,-1.1257004 0.381,-1.6424804 0.254,-0.51683 0.618,-0.97234 1.091,-1.36653 0.473,-0.39418 1.046,-0.70516 1.721,-0.93291 0.683,-0.22775 1.445,-0.34163 2.286,-0.34163 1.191,0 2.212,0.20147 3.062,0.60442 0.858,0.39419 1.515,0.93292 1.971,1.61618 0.455,0.67445 0.683,1.4365504 0.683,2.2862504 h -3.167 c 0,-0.3766 -0.096,-0.727 -0.289,-1.0511004 -0.184,-0.3329 -0.464,-0.6001 -0.841,-0.80154 -0.376,-0.21024 -0.849,-0.31536 -1.419,-0.31536 -0.543,0 -0.994,0.0876 -1.353,0.2628 -0.351,0.1664 -0.613,0.3854 -0.789,0.657 -0.166,0.2715004 -0.249,0.5694004 -0.249,0.8935004 0,0.2365 0.044,0.4511 0.131,0.6438 0.097,0.184 0.254,0.3548 0.473,0.5125 0.219,0.1489 0.517,0.289 0.894,0.4204 0.385,0.1314 0.867,0.2584 1.445,0.3811 1.086,0.2277 2.019,0.5212 2.799,0.8803 0.788,0.3504 1.393,0.8059 1.813,1.3666 0.421,0.5518 0.631,1.2526 0.631,2.1023 0,0.6307 -0.136,1.2088 -0.408,1.7344 -0.262,0.5169 -0.648,0.968 -1.156,1.3534 -0.508,0.3767 -1.117,0.6701 -1.826,0.8804 -0.701,0.2102 -1.489,0.3153 -2.365,0.3153 -1.288,0 -2.379,-0.2277 -3.272,-0.6832 -0.894,-0.4643 -1.573,-1.0556 -2.037,-1.7739 -0.455,-0.7271 -0.683,-1.4804 -0.683,-2.26 h 3.061 c 0.035,0.5869 0.198,1.0555 0.487,1.4059 0.297,0.3417 0.665,0.5913 1.103,0.749 0.447,0.1489 0.907,0.2234 1.38,0.2234 0.569,0 1.047,-0.0745 1.432,-0.2234 0.386,-0.1577 0.679,-0.3679 0.881,-0.6307 0.201,-0.2716 0.302,-0.5782 0.302,-0.9198 z"
     fill="#444444"
     id="path551" />
  <g
     clip-path="url(#clip0_118_728)"
     id="g555"
     transform="translate(-0.24365274,-0.8115844)">
    <path
       d="M 15.4333,25.7257 C 15.27,25.6765 12.4969,24.8532 9.27101,23.8959 6.04489,22.9385 3.29994,22.1213 3.17085,22.0796 2.84347,21.9739 2.2714,21.5889 1.84655,21.1882 1.07075,20.4562 0.624198,19.6994 0.355371,18.6606 0.260523,18.2943 0.242751,18.099 0.243687,17.433 0.244435,16.8898 0.268942,16.5401 0.321884,16.3194 0.623075,15.0641 0.981699,14.0851 1.3465,13.5228 1.45238,13.3595 4.00858,10.4749 7.02648,7.11302 11.1017,2.57307 12.5647,0.97433 12.7113,0.900996 c 0.3962,-0.1983 0.4284,-0.1925 7.417,1.375564 7.1646,1.60754 6.7807,1.50128 7.0439,1.95007 0.1596,0.27239 0.1877,0.67048 0.0674,0.95596 C 27.1621,5.3663 16.396,17.8315 15.9053,18.3054 c -0.3516,0.3397 -0.6484,0.4381 -1.0308,0.3419 -0.1282,-0.0321 -2.6387,-0.7501 -5.5788,-1.5955 -5.65042,-1.6244 -5.63658,-1.621 -6.10389,-1.4716 -0.47854,0.1534 -0.76009,0.6049 -0.85606,1.3724 -0.14386,1.1522 0.22075,2.3016 0.89366,2.8161 0.2967,0.2269 0.39398,0.2649 1.56021,0.608 0.54551,0.1607 3.18402,0.94 5.86348,1.7319 2.6795,0.7919 4.8872,1.4338 4.9061,1.4263 0.0187,-0.0075 2.1227,-2.5306 4.6754,-5.6067 1.5682,-1.8912 3.1376,-3.7814 4.7081,-5.6708 0.0565,-0.0651 0.0555,-0.1315 -0.0056,-0.4207 -0.1828,-0.8621 0.0075,-2.23801 0.3876,-2.80186 0.3728,-0.55336 1.097,-0.62015 1.5733,-0.14535 0.3627,0.36143 0.4011,0.74456 0.142,1.41611 -0.0316,0.0816 -0.0683,0.3489 -0.0818,0.5938 -0.0198,0.362 -0.0043,0.515 0.0833,0.8168 0.1474,0.5083 0.174,0.8794 0.0797,1.1056 -0.0805,0.1923 -10.3135,12.5513 -10.5735,12.77 -0.2855,0.2402 -0.6258,0.2811 -1.1144,0.1339 z m 4.814,-17.02984 c 0.1019,-0.05818 0.3968,-0.36049 0.6555,-0.6716 0.4035,-0.48602 0.4701,-0.59153 0.4701,-0.74568 0,-0.13582 -0.0314,-0.20316 -0.1283,-0.27556 C 21.1608,6.94054 20.2151,6.68724 18.5223,6.2738 17.0956,5.92547 15.2713,5.47966 14.4681,5.28324 12.4111,4.78 12.3441,4.79123 11.5268,5.77655 11.1517,6.22853 11.0544,6.378 11.0536,6.50222 c -0.0013,0.24133 0.2077,0.38369 0.7495,0.5109 0.2508,0.05893 1.9946,0.48602 3.8747,0.94885 1.8801,0.46301 3.5297,0.85736 3.6657,0.87645 0.322,0.04489 0.6724,-0.01029 0.9038,-0.14256 z"
       fill="#444444"
       id="path553" />
  </g>
  <defs
     id="defs560">
    <clipPath
       id="clip0_118_728">
      <rect
         width="27.070299"
         height="25"
         fill="#ffffff"
         transform="translate(0.243652,0.811523)"
         id="rect557"
         x="0"
         y="0" />
    </clipPath>
  </defs>
</svg>
