<?xml version="1.0" encoding="UTF-8" standalone="no"?>
<svg
   fill="none"
   height="58.602173"
   viewBox="0 0 97.137802 58.602173"
   width="97.137802"
   version="1.1"
   id="svg576"
   sodipodi:docname="nextjs.svg"
   inkscape:version="1.1.2 (b8e25be8, 2022-02-05)"
   xmlns:inkscape="http://www.inkscape.org/namespaces/inkscape"
   xmlns:sodipodi="http://sodipodi.sourceforge.net/DTD/sodipodi-0.dtd"
   xmlns="http://www.w3.org/2000/svg"
   xmlns:svg="http://www.w3.org/2000/svg">
  <defs
     id="defs580" />
  <sodipodi:namedview
     id="namedview578"
     pagecolor="#ffffff"
     bordercolor="#666666"
     borderopacity="1.0"
     inkscape:pageshadow="2"
     inkscape:pageopacity="0.0"
     inkscape:pagecheckerboard="0"
     showgrid="false"
     inkscape:lockguides="true"
     inkscape:zoom="15.470639"
     inkscape:cx="14.834552"
     inkscape:cy="32.804074"
     inkscape:window-width="1296"
     inkscape:window-height="963"
     inkscape:window-x="0"
     inkscape:window-y="25"
     inkscape:window-maximized="0"
     inkscape:current-layer="svg576" />
  <path
     d="m 22.920405,15.284272 h 18.3211 v 1.4562 h -16.6417 v 10.9597 h 15.6493 v 1.4562 h -15.6493 v 12.0326 h 16.8325 v 1.4562 h -18.5119 z m 19.9624,0 h 1.9466 l 8.6261,12.0327 8.8171,-12.0327 L 74.265105,0 l -19.7027,28.581572 10.153,14.0636 h -2.023 l -9.2369,-12.7991 -9.275,12.7991 h -1.9848 l 10.2293,-14.0636 z m 22.5578,1.4562 v -1.4562 h 20.8784 v 1.4562 h -9.6186 v 25.9047 h -1.6794 v -25.9047 z M 0,15.284272 h 2.099285 l 28.94802,43.3179 -11.9628,-15.957 -17.32874,-25.2916 -0.07633,25.2916 H 0 Z m 86.149805,25.4653 c -0.3432,0 -0.6005,-0.2659 -0.6005,-0.6094 0,-0.3436 0.2573,-0.6094 0.6005,-0.6094 0.3472,0 0.6004,0.2658 0.6004,0.6094 0,0.3435 -0.2532,0.6094 -0.6004,0.6094 z m 1.6502,-1.6033 h 0.8987 c 0.0122,0.4867 0.3676,0.8139 0.8904,0.8139 0.5842,0 0.915,-0.3517 0.915,-1.0102 v -4.1719 h 0.915 v 4.1759 c 0,1.1862 -0.6862,1.8692 -1.8218,1.8692 -1.0661,0 -1.7973,-0.6626 -1.7973,-1.6769 z m 4.8159,-0.0532 h 0.9069 c 0.0776,0.5604 0.6249,0.9162 1.4133,0.9162 0.7352,0 1.2744,-0.3804 1.2744,-0.9039 0,-0.4499 -0.3431,-0.7199 -1.1233,-0.9039 l -0.7597,-0.1841 c -1.0662,-0.2495 -1.5523,-0.7648 -1.5523,-1.6319 0,-1.0512 0.8578,-1.7506 2.1445,-1.7506 1.1969,0 2.071,0.6994 2.1241,1.6933 h -0.8905 c -0.0857,-0.544 -0.5596,-0.8834 -1.2458,-0.8834 -0.723,0 -1.205,0.3476 -1.205,0.8793 0,0.4213 0.3104,0.6626 1.0784,0.8426 l 0.6494,0.1595 c 1.2091,0.2822 1.7075,0.773 1.7075,1.6606 0,1.1288 -0.8742,1.8364 -2.2712,1.8364 -1.3071,0 -2.1853,-0.6748 -2.2507,-1.7301 z"
     fill="#000000"
     id="path574" />
</svg>
