<?xml version="1.0" encoding="UTF-8" standalone="no"?>
<svg
   fill="none"
   height="42.433002"
   viewBox="0 0 57.151077 42.433002"
   width="57.151077"
   version="1.1"
   id="svg594"
   sodipodi:docname="nuxt.svg"
   inkscape:version="1.1.2 (b8e25be8, 2022-02-05)"
   xmlns:inkscape="http://www.inkscape.org/namespaces/inkscape"
   xmlns:sodipodi="http://sodipodi.sourceforge.net/DTD/sodipodi-0.dtd"
   xmlns="http://www.w3.org/2000/svg"
   xmlns:svg="http://www.w3.org/2000/svg">
  <defs
     id="defs598" />
  <sodipodi:namedview
     id="namedview596"
     pagecolor="#ffffff"
     bordercolor="#666666"
     borderopacity="1.0"
     inkscape:pageshadow="2"
     inkscape:pageopacity="0.0"
     inkscape:pagecheckerboard="0"
     showgrid="false"
     inkscape:zoom="18.209302"
     inkscape:cx="28.639208"
     inkscape:cy="21.115581"
     inkscape:window-width="1296"
     inkscape:window-height="963"
     inkscape:window-x="0"
     inkscape:window-y="25"
     inkscape:window-maximized="0"
     inkscape:current-layer="svg594" />
  <g
     clip-rule="evenodd"
     fill-rule="evenodd"
     id="g592"
     transform="translate(-0.89550742,-0.404297)">
    <path
       d="M 18.2874,41.4027 C 18.245,41.3277 18.2073,41.2502 18.1743,41.1706 17.946,40.6424 17.8757,40.0594 17.972,39.4921 H 4.46653 L 24.5372,4.17201 31.1262,15.7549 33.0369,12.3741 27.293,2.25542 C 27.1323,1.96376 26.1621,0.404297 24.4896,0.404297 c -0.7559,0 -1.8392,0.327368 -2.7202,1.874933 L 1.43689,38.0279 c -0.17261,0.3095 -1.011868,1.9344 -0.17857,3.3748 0.38094,0.6548 1.19043,1.4345 2.97608,1.4345 h 17.0291 c -1.7737,0 -2.5951,-0.7678 -2.9761,-1.4345 z"
       fill="#01c58e"
       id="path586" />
    <path
       d="M 57.4409,38.028 40.7332,8.59459 C 40.5606,8.28508 39.5964,6.71967 37.9179,6.71967 c -0.7559,0 -1.8392,0.32141 -2.7202,1.86897 l -2.1606,3.78556 1.9226,3.3808 2.976,-5.2676 16.5292,29.0048 h -6.2855 c 0.0804,0.4795 0.0353,0.9717 -0.131,1.4285 -0.035,0.1009 -0.0788,0.1985 -0.1309,0.2917 l -0.0536,0.1071 c -0.8452,1.4405 -2.6725,1.5178 -3.0296,1.5178 h 9.8329 c 0.3631,0 2.1845,-0.0773 3.0297,-1.5178 0.375,-0.6547 0.6428,-1.7559 -0.256,-3.2915 z"
       fill="#108775"
       id="path588" />
    <path
       d="m 47.8641,41.3193 0.0536,-0.1071 c 0.0521,-0.0932 0.0959,-0.1908 0.1309,-0.2917 0.1663,-0.4568 0.2114,-0.949 0.131,-1.4285 -0.0927,-0.5171 -0.2782,-1.0132 -0.5476,-1.4642 L 34.9717,15.7548 33.0373,12.374 31.1148,15.7548 18.4605,38.0278 c -0.2457,0.4564 -0.4108,0.9517 -0.4881,1.4642 -0.1018,0.5656 -0.0378,1.1486 0.1845,1.6785 0.0329,0.0797 0.0707,0.1572 0.1131,0.2322 0.3809,0.6547 1.1904,1.4344 2.9761,1.4344 h 23.5705 c 0.375,0 2.2023,-0.0773 3.0475,-1.5178 z M 33.0373,19.1357 44.6083,39.492 h -23.136 z"
       fill="#2f495e"
       id="path590" />
  </g>
</svg>
