<?xml version="1.0" encoding="UTF-8" standalone="no"?>
<svg
   fill="none"
   height="38.925308"
   viewBox="0 0 32.342953 38.925308"
   width="32.342953"
   version="1.1"
   id="svg609"
   sodipodi:docname="svelte.svg"
   inkscape:version="1.1.2 (b8e25be8, 2022-02-05)"
   xmlns:inkscape="http://www.inkscape.org/namespaces/inkscape"
   xmlns:sodipodi="http://sodipodi.sourceforge.net/DTD/sodipodi-0.dtd"
   xmlns="http://www.w3.org/2000/svg"
   xmlns:svg="http://www.w3.org/2000/svg">
  <defs
     id="defs613" />
  <sodipodi:namedview
     id="namedview611"
     pagecolor="#ffffff"
     bordercolor="#666666"
     borderopacity="1.0"
     inkscape:pageshadow="2"
     inkscape:pageopacity="0.0"
     inkscape:pagecheckerboard="0"
     showgrid="false"
     inkscape:zoom="20.076923"
     inkscape:cx="16.01341"
     inkscape:cy="19.5"
     inkscape:window-width="1296"
     inkscape:window-height="963"
     inkscape:window-x="0"
     inkscape:window-y="25"
     inkscape:window-maximized="0"
     inkscape:current-layer="svg609" />
  <path
     clip-rule="evenodd"
     d="m 14.38962,1.7325477 c 5.1541,-3.28945 12.2829,-1.75507043 15.8922,3.41804 h -4e-4 c 0.8566,1.20056 1.465,2.56038 1.7897,3.99962 0.3246,1.4392503 0.3589,2.9289503 0.1007,4.3816503 -0.2499,1.3871 -0.7781,2.7092 -1.5527,3.8861 1.1302,2.1586 1.5095,4.6328 1.078,7.0314 -0.2551,1.4241 -0.8042,2.7791 -1.6121,3.9786 -0.8079,1.1994 -1.8568,2.2168 -3.0797,2.9871 l -9.0522,5.7775 c -5.1534,3.2895 -12.2825101,1.7558 -15.8918501,-3.418 -0.85638,-1.2007 -1.46471997,-2.5605 -1.78933997,-3.9997 -0.324617,-1.4392 -0.358974,-2.9289 -0.10106,-4.3816 0.24997,-1.3873 0.77843,-2.7095 1.55340997,-3.8865 -1.13062997,-2.1582 -1.51008997,-4.6325 -1.07828997,-7.031 0.25512,-1.4241 0.80417997,-2.7791 1.61206997,-3.9785 0.80788,-1.1994703 1.85681,-2.2168803 3.07972,-2.9872303 z M 9.1966199,34.044058 c 1.3801001,0.5123 2.8840001,0.5882 4.3085001,0.2174 0.6508,-0.1741 1.2711,-0.4471 1.8394,-0.8094 l 9.0514,-5.7772 c 0.7354,-0.4634 1.3662,-1.0753 1.852,-1.7966 0.4858,-0.7213 0.8161,-1.5362 0.9696,-2.3926 0.155,-0.8735 0.1342,-1.7692 -0.061,-2.6345 -0.1953,-0.8654 -0.5613,-1.683 -1.0763,-2.4048 -0.839,-1.2105 -2.0287,-2.134 -3.4085,-2.646 -1.3797,-0.512 -2.8831,-0.5877 -4.3072,-0.217 -0.6508,0.1739 -1.2711,0.4468 -1.8394,0.8091 l -3.4538,2.204 c -0.1717,0.1089 -0.359,0.1909 -0.5553,0.2433 -0.4293,0.1115 -0.8825,0.0884 -1.2983,-0.0661 -0.4158,-0.1546 -0.7742,-0.4332 -1.0269,-0.7982 -0.1551,-0.2178 -0.2652001,-0.4643 -0.3239001,-0.7252 -0.0588,-0.2609 -0.065,-0.5309 -0.0183,-0.7942 0.0463,-0.2579 0.1458,-0.5033 0.2922001,-0.7205 0.1463,-0.2172 0.3363,-0.4015 0.5577,-0.5411 l 9.0535,-5.7771403 c 0.1717,-0.10897 0.3589,-0.19101 0.5553,-0.24328 0.429,-0.11144 0.8818,-0.08838 1.2973,0.06606 0.4156,0.15444 0.7737,0.43283 1.0262,0.7975603 0.2766,0.3921 0.4059,0.8695 0.3651,1.3478 l -0.0312,0.3364 0.3366,0.1022 c 1.2722,0.3846 2.4694,0.984 3.54,1.7724 l 0.4636,0.3402 0.1704,-0.5213 c 0.0918,-0.2772 0.1645,-0.5604 0.2176,-0.8476 0.155,-0.8735 0.1342,-1.7692 -0.0611,-2.6345103 -0.1953,-0.86534 -0.5612,-1.68292 -1.0761,-2.4048 -0.839,-1.21107 -2.0289,-2.13516 -3.409,-2.64747 -1.3801,-0.5123 -2.8839,-0.58815 -4.3084,-0.21729 -0.6508,0.17419 -1.2712,0.44716 -1.8394,0.80941 L 7.9474299,11.250258 c -0.73584,0.4628 -1.36711,1.0743 -1.85344,1.7955 -0.48633,0.7211 -0.817,1.5359 -0.97087,2.3923 -0.15502,0.8735 -0.13427,1.7692 0.06102,2.6346 0.1953,0.8653 0.56121,1.6829 1.07627,2.4047 0.83897,1.2111 2.02884,2.1351 3.40891,2.6474 1.3801001,0.5123 2.8840001,0.5882 4.3085001,0.2174 0.6507,-0.1741 1.2709,-0.4467 1.8394,-0.8084 l 3.4545,-2.2051 c 0.1716,-0.109 0.3589,-0.1911 0.5553,-0.2433 0.4293,-0.1116 0.8825,-0.0885 1.2983,0.0661 0.4158,0.1545 0.7743,0.4332 1.027,0.7982 0.155,0.2178 0.2651,0.4642 0.324,0.725 0.0589,0.2608 0.0653,0.5308 0.0188,0.7941 -0.0464,0.258 -0.146,0.5034 -0.2924,0.7206 -0.1464,0.2173 -0.3364,0.4016 -0.5578,0.5413 l -9.0525,5.7792 c -0.1717,0.109 -0.3589,0.191 -0.5553,0.2433 -0.4293,0.1118 -0.8825,0.089 -1.2983,-0.0655 -0.4159,-0.1544 -0.7744001,-0.433 -1.0270001,-0.7981 -0.2769,-0.3919 -0.4063,-0.8694 -0.3651,-1.3478 l 0.0309,-0.3364 -0.3363,-0.1022 c -1.27211,-0.3847 -2.46929,-0.9841 -3.53992,-1.7724 l -0.464,-0.3409 -0.17041,0.5213 c -0.09152,0.2767 -0.16376,0.5595 -0.21621,0.8462 -0.15497,0.8735 -0.13423,1.7692 0.061,2.6345 0.19524,0.8653 0.56103,1.6829 1.07594,2.4048 0.83898,1.2111 2.02885,2.1351 3.4089,2.6474 z"
     fill="#ff3e00"
     fill-rule="evenodd"
     id="path607" />
</svg>
