<svg fill="none" height="57" viewBox="0 0 234 57" width="234" xmlns="http://www.w3.org/2000/svg"><path d="m64.2253 41.9374c-1.775.3127-3.5813.4066-5.4498.6563l-5.6993-16.7499v17.4688c-1.7751.1874-3.3945.4374-5.0762.6874v-32h4.7338l6.4776 18.1565v-18.1565h5.0139zm9.81-18.2186c1.9311 0 4.8896-.0938 6.6646-.0938v4.9999c-2.2112 0-4.7959 0-6.6646.0938v7.4376c2.9276-.1875 5.855-.4376 8.8134-.5314v4.8122l-13.7963 1.094v-29.5311h13.7963v5.0001h-8.8134zm27.3437-6.7187h-5.17v23c-1.6818 0-3.3635 0-4.9826.0623v-23.0623h-5.1697v-5.0001h15.3223zm8.097 6.375h6.82v4.9999h-6.82v11.3439h-4.89v-27.7189h13.921v5.0001h-9.031zm17.128 11.9687c2.834.0623 5.699.2814 8.471.4373v4.9376c-4.453-.2814-8.907-.5623-13.453-.6563v-28.0624h4.982zm12.675 5.7187c1.589.0939 3.27.1877 4.889.3749v-29.4374h-4.889zm26.721-29.0625-6.322 15.2188 6.322 16.7812c-1.869-.25-3.737-.5937-5.606-.9063l-3.581-9.2498-3.643 8.5001c-1.807-.3129-3.551-.4066-5.357-.6566l6.415-14.6563-5.793-15.0311h5.357l3.269 8.4063 3.489-8.4063z" fill="#e50914"/></svg>