<svg fill="none" height="57" viewBox="0 0 234 57" width="234" xmlns="http://www.w3.org/2000/svg"><path d="m77.8142 17.0864c-1.3809-1.4208-6.7862-5.6475-9.5774-7.0295-2.6883-1.3377-5.6437-2.04112-8.642-2.0569-2.9974.01615-5.9518.71957-8.6392 2.0569-2.7764 1.3702-8.1936 5.6087-9.5773 7.0295-1.5381 1.623-2.3907 3.784-2.3782 6.0278v10.7716c-.0125 2.2439.8401 4.4049 2.3782 6.0279 1.3808 1.4208 6.7861 5.6474 9.5773 7.0295 2.6877 1.3365 5.6419 2.0398 8.6392 2.0568 2.9987-.0176 5.9542-.7231 8.642-2.0627 2.7794-1.3703 8.1965-5.6088 9.5774-7.0296 1.5373-1.6234 2.3898-3.7842 2.3781-6.0278v-10.7657c.0123-2.2438-.8402-4.4047-2.3781-6.0278zm-34.1198 2.2857c1.2304-1.2663 6.3111-5.2105 8.6864-6.3846 2.2444-1.1157 4.7112-1.703 7.214-1.7179 2.5042.0162 4.9721.6057 7.217 1.7239 2.3604 1.1741 7.4558 5.1183 8.6862 6.3845.9479 1.0105 1.4694 2.352 1.4546 3.7421v1.8786c-.0006.8063-.1822 1.6021-.5312 2.3279-.3489.7257-.8563 1.3626-1.4839 1.863-5.789 4.616-9.9551 7.7369-11.3595 8.486-1.2306.6333-2.5956.9556-3.9774.9392-1.3965-.0072-2.773-.3356-4.0244-.9601-1.3426-.6658-5.7152-4.0572-6.264-4.5833-.014-.0134-.0252-.0294-.0328-.0473s-.0116-.0373-.0115-.0567c.0005-.0218.006-.043.0164-.0622.0102-.0191.0248-.0355.0426-.0478l3.0184-2.3005 3.4285 2.6127c1.1013.8352 2.4425 1.2869 3.821 1.2869 1.3784 0 2.7196-.4517 3.8209-1.2869l6.1193-4.6606 2.2159-1.6943c.5463-.4009.9662-.952 1.2097-1.5871.228-.6202.2727-1.2935.1286-1.9387-.144-.6451-.4705-1.2344-.94-1.6965-.5901-.5678-5.3109-4.2891-7.0813-5.1748-1.7032-.8431-3.5754-1.2823-5.4731-1.284-1.9118-.0174-3.7992.4335-5.4998 1.3137-2.027 1.0641-7.5356 5.362-11.8493 8.81v-2.1431c-.0179-1.3895.5017-2.7316 1.4487-3.7421zm11.3389 9.1369 2.6967-2.0569c.5384-.4068 1.1932-.6268 1.8663-.6268.6729 0 1.3277.22 1.8661.6268l2.6968 2.0569-2.6968 2.0538c-.5373.4092-1.1926.6305-1.8661.6305-.6736 0-1.3289-.2213-1.8663-.6305zm20.4647 9.119c-1.2304 1.2662-6.3111 5.2105-8.6862 6.3845-2.244 1.1223-4.7119 1.7159-7.217 1.7358-2.5033-.0167-4.97-.6062-7.214-1.7239-2.3753-1.189-7.456-5.1183-8.6864-6.3845-.9499-1.0135-1.4696-2.3604-1.4487-3.7541v-1.8784c.0007-.8065.1823-1.6023.5312-2.328.349-.7257.8563-1.3626 1.484-1.863 5.786-4.622 9.9521-7.728 11.3595-8.4919 2.2247-1.1889 5.3935-1.2721 8.0077.0238 1.3366.6658 5.7093 4.0572 6.2581 4.5833.0142.0148.0251.0326.0318.0521.0065.0196.0088.0403.0065.0608-.0001.0211-.0052.0419-.015.0605-.0097.0186-.0238.0346-.041.0465l-3.0214 2.3006-3.4314-2.6127c-1.1003-.8375-2.4418-1.2908-3.8209-1.2908-1.3792 0-2.7207.4533-3.821 1.2908l-6.1164 4.6696-2.2099 1.6823c-.546.4012-.966.9522-1.2097 1.5872-.2294.6201-.275 1.294-.1315 1.9398s.47 1.2358.9399 1.6983c.5901.5677 5.311 4.289 7.0813 5.1747 1.6996.8455 3.5688 1.2877 5.4643 1.293 1.9109.0168 3.7971-.434 5.4968-1.3137 2.0241-1.0819 7.5357-5.371 11.8552-8.8189v2.143c.0148 1.3859-.5033 2.7237-1.4458 3.7333zm25.758-16.9452c-5.1161 0-7.7038 3.5669-7.7038 7.8172 0 4.2504 2.5877 7.8172 7.7038 7.8172 5.116 0 7.704-3.5668 7.704-7.8172 0-4.2503-2.603-7.8172-7.704-7.8172zm0 12.5997c-2.9505 0-4.4257-2.3452-4.4257-4.7825s1.4752-4.7854 4.4257-4.7854c2.951 0 4.426 2.3481 4.426 4.7854s-1.499 4.7825-4.426 4.7825zm69.667-12.5997c-5.116 0-7.703 3.5669-7.703 7.8172 0 4.2504 2.587 7.8172 7.703 7.8172s7.701-3.5668 7.701-7.8172c0-4.2503-2.587-7.8172-7.701-7.8172zm0 12.5997c-2.95 0-4.425-2.3452-4.425-4.7825s1.475-4.7854 4.425-4.7854c2.952 0 4.427 2.3481 4.427 4.7854s-1.485 4.7825-4.427 4.7825zm-50.583 0c-.634.013-1.265-.1003-1.856-.3333s-1.131-.5812-1.588-1.0247c-.457-.4434-.823-.9734-1.077-1.5594-.253-.5861-.389-1.2169-.4-1.8561 0-2.4373 1.475-4.7854 4.425-4.7854.815-.0231 1.623.1642 2.346.544.723.3797 1.337.9393 1.785 1.6257l.313-.2348v-3.754c-1.36-.7512-2.876-1.1697-4.426-1.2217-5.116 0-7.704 3.5669-7.704 7.8172 0 4.2504 3.081 7.8172 8.197 7.8172 1.572-.0181 3.115-.4265 4.493-1.1889v-3.8641l-.295-.2288c-.474.6849-1.104 1.246-1.837 1.6368-.732.3908-1.547.6-2.376.6103zm33.291-12.5966c-2.36 0-4.131.1486-5.84.1486h-.507s.05 1.8904.05 7.6655c0 5.7752-.05 7.6656-.05 7.6656h3.272s-.023-.9095-.038-3.3944c.784.0871 1.571.1288 2.361.1249 4.425 0 7.154-2.0806 7.154-6.1943.024-3.3617-2.23-6.0159-6.402-6.0159zm-.617 9.2735c-.833-.0033-1.665-.0499-2.493-.1397v-6.004c.694-.1629 1.405-.2417 2.119-.2349 3.342 0 4.23 1.2187 4.23 3.1953.012 1.6436-1.029 3.1833-3.856 3.1833zm35.577-9.2735c-2.36 0-4.131.1486-5.838.1486h-.496s.05 1.8904.05 7.6655c0 5.7752-.05 7.6656-.05 7.6656h3.266s-.024-.9095-.039-3.3944c.784.0871 1.572.1288 2.361.1249 4.426 0 7.155-2.0806 7.155-6.1943.012-3.3617-2.242-6.0159-6.409-6.0159zm-.616 9.2735c-.833-.0033-1.666-.0499-2.494-.1397v-6.004c.695-.1629 1.406-.2417 2.119-.2349 3.352-.0089 4.237 1.2098 4.237 3.1863 0 1.6526-1.057 3.1923-3.868 3.1923zm-45.303-9.1249h-3.271s.05 1.8904.05 7.6655c0 3.0793-1.137 4.7825-3.668 4.7825s-3.665-1.7032-3.665-4.7735c0-5.7752.051-7.6656.051-7.6656h-3.272s.023 1.8904.023 7.6656c0 4.2355 1.75 7.8171 6.863 7.8171s6.866-3.5668 6.866-7.8171c0-5.7841.023-7.6745.023-7.6745z" fill="#494949"/></svg>