<svg fill="none" height="57" viewBox="0 0 234 57" width="234" xmlns="http://www.w3.org/2000/svg"><path d="m178.213 0c-1.431-.00000017-2.803.567721-3.815 1.57834-1.012 1.01063-1.58 2.38142-1.581 3.81101v16.17065l5.396-5.3893h5.394c1.43 0 2.802-.5678 3.813-1.5785 1.012-1.0107 1.58-2.3815 1.58-3.8109v-10.7813zm5.394 10.7813h-5.394v-5.39195h5.394z" fill="#27aa27"/><path d="m155.11 25.3768v-2.4545c.15-.021.331-.0368.491-.0473s.318-.0157.47-.0157c.749-.0293 1.49.1615 2.131.5486.559.3641.838 1.0203.838 1.9689v13.304h-2.803c-.455 0-.744-.1234-.862-.3675-.136-.3436-.197-.7124-.178-1.0815l-.021-.315c-.229.2486-.474.4819-.733.6982-.311.2595-.646.488-1.001.6826-.41.2279-.846.4042-1.298.525-.545.1401-1.106.2072-1.668.1995-1.955 0-3.444-.5828-4.467-1.7483-1.022-1.1656-1.534-2.7406-1.534-4.7252v-7.1771-2.4492c.153-.021.329-.0368.491-.0473.163-.0105.318-.0157.468-.0157.749-.0296 1.49.1612 2.131.5486.558.3641.839 1.0203.84 1.9689v7.1429c0 1.0002.263 1.7719.817 2.3153.279.2729.61.4861.973.6265.364.1404.753.205 1.142.1899.517.0038 1.029-.1046 1.5-.3176.46-.2041.869-.505 1.201-.882.34-.3861.607-.8309.788-1.3126.192-.5163.289-1.0635.284-1.6144zm-14.807 12.338c-.811.4524-1.669.8159-2.559 1.0842-.956.2846-1.949.4261-2.947.42-1.521.0183-3.029-.2673-4.437-.8401-1.303-.5383-2.483-1.3369-3.466-2.3468-.982-1.0203-1.753-2.2247-2.267-3.5439-1.079-2.8684-1.079-6.0307 0-8.8991.518-1.3509 1.297-2.5871 2.291-3.6384.995-1.0456 2.189-1.8819 3.512-2.4598 1.42-.6157 2.954-.9244 4.501-.9056.982-.0091 1.962.1047 2.916.3386.836.2111 1.644.5222 2.406.9267.707.3616 1.357.8251 1.929 1.3755.226.2232.525.5487.651.6931.127.169.228.3567.297.5565.073.2026.09.4214.047.6326-.08.3686-.281.7-.57.9425-.618.5134-1.274.9794-1.962 1.3939-.623-.8929-1.408-1.6613-2.315-2.2655-.907-.5985-2.045-.8978-3.415-.8978-.976-.0165-1.942.1976-2.819.6248-.816.4027-1.541.9693-2.128 1.6643-.602.7155-1.059 1.5411-1.345 2.4309-.312.9441-.47 1.9326-.465 2.927-.008.9818.149 1.9579.465 2.8876.286.8574.737 1.6509 1.327 2.3363.573.6618 1.277 1.198 2.067 1.5751.846.3936 1.771.5901 2.704.5749.8.0193 1.598-.0888 2.364-.3203 1.087-.3342 2.061-.9587 2.819-1.806.306-.35.589-.6546.849-.9136.606.425 1.186.8852 1.739 1.3782.145.1294.283.267.412.4122.11.1196.193.2609.244.4147.054.1697.065.3501.032.525-.051.1932-.128.3787-.229.5513-.099.1665-.215.3222-.346.4647-.689.6717-1.462 1.2523-2.299 1.7273zm-18.602-14.9054c-.182-.0184-.539-.0446-.846-.0446-.581-.0086-1.159.0701-1.716.2336-.458.1371-.899.3264-1.314.5644-.355.2059-.685.4516-.985.7324-.241.2306-.47.4752-.683.7324-.002-.1759-.018-.3515-.047-.525-.052-.2395-.157-.4645-.307-.6584s-.341-.352-.56-.4625c-.505-.2518-1.064-.3762-1.629-.3623-.215 0-.402 0-.557 0s-.294.0263-.412.0446c-.118.0184-.263.0394-.352.0604v15.5459h3.94v-8.4135c-.009-.5166.089-1.0296.29-1.5057.201-.4762.5-.9049.877-1.2585.365-.3392.796-.6 1.266-.7665.492-.176 1.01-.2648 1.532-.2625.329-.004.657.018.982.0656.281.0455.555.1239.817.2336.134-.2914.581-1.575.704-1.9714.112-.3564.159-.7297.14-1.1026-.008-.175-.072-.3428-.184-.4777-.111-.1263-.252-.2228-.41-.2809-.169-.0625-.346-.1022-.525-.1182zm-40.1747 11.6056c.9492.9111 2.2173 1.4152 3.5335 1.4045.6568.0111 1.3072-.1309 1.8994-.4148.5416-.2672 1.0233-.6414 1.416-1.0999.3896-.4559.6892-.9815.8828-1.5488.1998-.5785.3011-1.1863.2994-1.7982.0048-.6278-.0675-1.2537-.2154-1.8639-.1305-.546-.368-1.0608-.6988-1.5147-.3299-.4379-.7583-.7922-1.2505-1.0343-.5953-.2716-1.2454-.4019-1.8994-.3806-.5677-.0084-1.1287.1223-1.6341.3806-.4749.2459-.8984.58-1.2479.9845-.3352.3897-.6017.8335-.7881 1.3125-.1813.4382-.2776.9068-.2838 1.3808zm-3.8987-11.2879c.0972-.021.2154-.0394.352-.0604.1367-.021.2628-.0342.4125-.0447.1498-.0105.3415 0 .557 0 .5652-.0136 1.1252.1108 1.6314.3623.2183.111.4092.2692.5587.4631s.2539.4186.3056.6578c.0228.1143.0368.2302.0421.3465.2457-.2569.509-.4963.7881-.7166.3284-.263.6863-.4868 1.0666-.6668.4481-.2125.9163-.3796 1.3977-.4988.5726-.1392 1.1604-.2063 1.7497-.1995 1.0233-.0347 2.0399.1788 2.9627.6222.9229.4435 1.7244 1.1037 2.3362 1.9242.5935.7882 1.0385 1.6777 1.3136 2.6251.2899.9836.4359 2.004.4334 3.0294.0291 1.068-.1493 2.1316-.5254 3.1317-.3278.8169-.7768 1.5797-1.3319 2.2629-.771.9748-1.7734 1.7418-2.9162 2.2313-1.0325.4176-2.1359.6324-3.2497.6327-1.4175-.0314-2.7954-.4727-3.967-1.2706v5.4077c-.1769.0512-.3597.0795-.5438.084-.2628.021-.5649.0289-.888.0289-.3137.0023-.6266-.0312-.9327-.0997-.2878-.0623-.5575-.1898-.7881-.3728-.2402-.1939-.428-.4448-.5464-.7298-.1457-.3744-.2137-.7745-.1997-1.176zm85.3634-.0709v-3.1502c-.022-.3476.05-.6948.208-1.0054.146-.2535.355-.465.607-.6142.257-.1528.542-.2553.838-.3019.306-.0493.615-.0738.924-.0735h.463c.152 0 .299.021.433.0393.134.0184.3.0315.434.0499v5.0638h4.419l-3.203 3.1869h-1.216v6.8253c0 .8873.15 1.5698.452 2.0476.299.4778.806.7167 1.65.7167.273.0001.544-.0479.801-.1418.236-.0867.464-.1921.683-.315.185-.1053.36-.2256.525-.3597.15-.126.263-.2205.318-.2835.257.383.49.782.696 1.1945.15.2949.233.6195.242.9502-.011.2978-.123.5829-.318.8086-.25.2951-.553.5416-.893.7271-.438.2393-.908.416-1.395.5251-.583.1506-1.184.2204-1.786.2073-.736-.0008-1.464-.1407-2.147-.4121-.63-.2522-1.185-.6595-1.616-1.1839-.425-.5408-.726-1.168-.882-1.8376-.184-.7792-.272-1.5779-.263-2.3783v-7.0905h-2.664v-3.1869zm-91.3717 10.0961c.0007.3997-.1084.792-.3152 1.1341-.2137.3575-.4905.6732-.8171.9319-.7123.5599-1.592.8649-2.4984.8663-.9317 0-1.6376-.189-2.1174-.567-.2366-.1862-.425-.4265-.5494-.7006-.1243-.2741-.181-.574-.1652-.8745.0019-.323.0708-.6421.2024-.9372.1316-.295.323-.5596.5621-.777.5131-.4935 1.4046-.7359 2.6744-.7271.2443 0 .5254 0 .8827.0183.3573.0184.6726.0263.9826.0499l1.1664.0656zm-7.7527-9.6892c-.4062.1782-.7814.4201-1.1112.7166-.1146.0906-.2072.2059-.2709.3373-.0636.1313-.0968.2754-.0969.4214.0489.2832.1486.5554.2942.8033.3032.5294.688 1.0078 1.1402 1.4175.5622-.3596 1.1536-.6713 1.768-.9319.8501-.3211 1.7559-.4684 2.664-.4331.8645-.0418 1.72.1916 2.4432.6667.2986.2023.5408.477.7039.7984.1632.3215.2419.679.2287 1.0392v.3675l-1.2321-.0656c-.3546-.0236-.7224-.0394-1.0981-.0499s-.7225-.0183-1.0351-.0183c-.9453-.0099-1.8873.1139-2.7979.3675-.7867.2145-1.5232.582-2.1674 1.0815-.5958.4732-1.0748 1.0767-1.4003 1.7641-.3417.7466-.5123 1.5601-.4991 2.381-.0191.7826.1465 1.5586.4834 2.2654.2995.6127.7321 1.1508 1.2662 1.5751.5171.4087 1.1048.7192 1.734.9162.6192.1973 1.2652.2982 1.9151.2992.9954.0126 1.9816-.1916 2.8899-.5985.7376-.3052 1.3974-.7716 1.9309-1.3651-.018.3743.0429.7481.1787 1.0973.1182.2442.4072.3675.8617.3675h2.727v-10.5004c.0075-.7849-.1519-1.5625-.4677-2.2812-.3058-.688-.7607-1.2995-1.3319-1.7903-.613-.5188-1.3204-.9145-2.0834-1.1656-.8765-.2862-1.7943-.4263-2.7164-.4147-.82-.0093-1.6392.0522-2.4485.1837-.2864.0499-.5596.0998-.8171.1654-.5688.1418-1.1229.3369-1.6551.5828zm-3.0317-1.0501c-.2633-.9199-.7191-1.7735-1.3372-2.5043-.7229-.8385-1.6192-1.5102-2.6271-1.9689-1.1034-.525-2.5212-.7875-4.2534-.7875h-4.0116c-.3098.0006-.6191.026-.9248.0761-.2967.0456-.582.1471-.8406.2993-.2461.144-.4542.3447-.6069.5854-.1677.3153-.2476.6698-.2312 1.0264v19.5413h4.0327v-5.9931h2.8898c.9946-.0038 1.9833-.1533 2.9345-.4436.9734-.2873 1.8817-.7607 2.6745-1.394.8154-.6585 1.4756-1.4884 1.9335-2.4308.5217-1.1135.7763-2.3333.7435-3.5623-.0137-.8303-.1392-1.655-.373-2.4519zm-5.136 5.5915c-.7829.7683-1.8338 1.1524-3.1526 1.1524h-2.5115v-8.5106h2.5168c.5756-.0181 1.1489.0825 1.6839.2956s1.0203.5341 1.4256.9431c.4053.4089.7219.8969.93 1.4336.2081.5366.3032 1.1104.2795 1.6854.0221.5538-.0705 1.1062-.2721 1.6226-.2017.5163-.5079.9854-.8996 1.3779zm118.3601 9.1433h-.549v-.2626h1.38v.2626h-.549v1.533h-.282zm2.412.3806-.365.9345h-.349l-.384-1.0028v1.2207h-.289v-1.7956h.342l.504 1.3677.525-1.3677h.316v1.7956h-.289zm-68.505-3.5098c.454.4245.883.875 1.284 1.3493.106.1246.204.2552.295.3912.077.1118.13.2389.155.3727.025.1469.012.2978-.037.4384-.067.1558-.156.3016-.263.4332-.102.1264-.217.2417-.344.3439-.843.7192-1.936 1.1471-2.984 1.4674-1.026.2853-2.088.4197-3.153.399-1.159.0165-2.31-.1958-3.3863-.6248-.9883-.3908-1.8816-.988-2.6201-1.7518s-1.3052-1.6764-1.6621-2.6767c-.4002-1.11-.5977-2.2828-.5833-3.4625-.0104-1.0983.1875-2.1885.5833-3.2132.3695-.9591.9248-1.836 1.634-2.5804.7076-.7398 1.5574-1.3291 2.4985-1.7326 1.016-.4322 2.111-.6476 3.216-.6327 1.252-.0366 2.494.2338 3.617.7876.945.4855 1.761 1.187 2.383 2.0475.609.8648 1.049 1.8364 1.298 2.864.267 1.0671.401 2.1631.399 3.2631v.567h-11.6618c-.0102.5493.1219 1.0919.3836 1.575.2508.4615.59.8691.9982 1.1997.417.337.891.5958 1.4.7639.499.1727 1.023.2614 1.55.2625 1.183.0196 2.355-.2253 3.431-.7166.352-.1589.683-.3598.986-.5985.262-.2101.449-.3833.583-.5251zm-1.7-4.7829c-.002-.411-.082-.8179-.234-1.1997-.157-.4005-.389-.7675-.683-1.0815-.327-.3362-.718-.6039-1.15-.7876-.505-.218-1.051-.3255-1.6-.315-.588-.0107-1.171.0964-1.716.315-.461.184-.8853.4509-1.2505.7876-.3235.3074-.584.6747-.7671 1.0815-.1708.3771-.2603.7858-.2627 1.1997z" fill="#3b3b3d"/></svg>