<svg fill="none" height="57" viewBox="0 0 234 57" width="234" xmlns="http://www.w3.org/2000/svg"><g fill="#9146ff"><path d="m64.0942 21.8347-.003-7.833h-9.0912v23.5171l4.5456 4.4796 12.4984.0015v-8.9624h-7.9498v-2.2405h7.9498v-8.9623z"/><path d="m97.0386 21.8345v11.2029h-2.2735v-11.2029h-9.079v11.2029h-2.2736v-11.2029h-9.0941v15.6841l4.5455 4.4797 27.2691.0014v-20.1652z"/><path d="m108.405 21.8345h9.094v20.1638h-9.091z"/><path d="m108.408 14.0017h9.091v5.6074h-9.094z"/><path d="m143.637 21.8345-4.547 4.4857v11.1984l4.546 4.4797 13.643.0014v-8.9623h-9.094v-2.2405h9.094v-8.9624z"/><path d="m175.453 21.8345h-6.806v-7.8345h-9.093v27.9997h9.078v-11.2028h2.274v11.2028l9.094-.0015v-15.678z"/><path d="m128.868 21.8345-.004-7.833-9.09-.0015v23.5186l4.544 4.4796h12.5v-8.9593l-7.95-.0014v-2.2406h7.95v-8.9624z"/></g></svg>