<?xml version="1.0" encoding="UTF-8" standalone="no"?>
<svg
   fill="none"
   height="90"
   viewBox="0 0 90 90"
   width="90"
   version="1.1"
   id="svg2098"
   sodipodi:docname="11ty.svg"
   inkscape:version="1.1.2 (b8e25be8, 2022-02-05)"
   xmlns:inkscape="http://www.inkscape.org/namespaces/inkscape"
   xmlns:sodipodi="http://sodipodi.sourceforge.net/DTD/sodipodi-0.dtd"
   xmlns="http://www.w3.org/2000/svg"
   xmlns:svg="http://www.w3.org/2000/svg">
  <defs
     id="defs2102" />
  <sodipodi:namedview
     id="namedview2100"
     pagecolor="#ffffff"
     bordercolor="#666666"
     borderopacity="1.0"
     inkscape:pageshadow="2"
     inkscape:pageopacity="0.0"
     inkscape:pagecheckerboard="0"
     showgrid="false"
     width="90px"
     inkscape:zoom="5.9153846"
     inkscape:cx="6.0013004"
     inkscape:cy="37.444733"
     inkscape:window-width="1296"
     inkscape:window-height="923"
     inkscape:window-x="0"
     inkscape:window-y="25"
     inkscape:window-maximized="0"
     inkscape:current-layer="svg2098" />
  <g
     id="g2110"
     transform="matrix(0.82574772,0,0,0.82574772,8.5149545,7.6801043)">
    <path
       d="M 12,46.5 C 12,28.5507 26.5507,14 44.5,14 62.4493,14 77,28.5507 77,46.5 77,64.4493 62.4493,79 44.5,79 26.5507,79 12,64.4493 12,46.5 Z"
       fill="#000000"
       id="path2086" />
    <g
       fill="#ffffff"
       id="g2096"
       transform="translate(12,14)">
      <path
         d="m 45.1595,34.6853 c 0.2509,-1.6908 0.503,-3.3816 0.7539,-5.0712 0.1467,-0.9896 0.2897,-1.9805 0.4452,-2.9689 0.1016,-0.6472 0.3989,-0.8855 1.0624,-0.8855 0.3136,0 0.6272,-0.0025 0.9395,0 0.365,0.0037 0.5983,0.1542 0.6234,0.518 0.0288,0.4202 0.0125,0.8554 -0.0665,1.2681 -0.8642,4.5456 -1.7309,9.0912 -2.6303,13.6305 -0.1505,0.7601 -0.4139,1.5064 -0.7024,2.2289 -0.4001,1.0047 -1.2066,1.4475 -2.2765,1.4286 -0.5469,-0.01 -1.085,-0.0589 -1.5516,-0.3913 -0.3324,-0.2358 -0.5619,-0.5381 -0.5532,-0.962 0.0088,-0.4039 0.0038,-0.8166 0.0866,-1.2079 0.1016,-0.4804 0.4189,-0.6272 0.8981,-0.498 0.1919,0.0514 0.3888,0.0878 0.5707,0.1631 0.2998,0.1229 0.4415,0 0.5406,-0.2722 0.2496,-0.6911 0.2458,-1.3923 0.0803,-2.0947 -0.7489,-3.1634 -1.5014,-6.3267 -2.2553,-9.4888 -0.232,-0.9734 -0.4854,-1.9417 -0.6961,-2.9188 -0.064,-0.2972 -0.0527,-0.6234 -0.0138,-0.9282 0.0426,-0.3286 0.2571,-0.4728 0.5958,-0.4741 0.5331,-0.0037 1.0649,-0.0012 1.598,0 0.5318,0 0.8165,0.2007 0.9407,0.73 0.1442,0.6184 0.2534,1.2455 0.3713,1.8702 0.4001,2.1085 0.7977,4.2182 1.1953,6.3267 h 0.0452 z"
         id="path2088" />
      <path
         d="m 19.6767,23.7976 c -0.2947,0.0715 -0.5343,0.1355 -0.7764,0.1882 -0.3951,0.0865 -0.7049,-0.0464 -0.7751,-0.4303 -0.1518,-0.8215 -0.1907,-1.6569 0.0263,-2.4734 0.0464,-0.1744 0.2534,-0.3839 0.4265,-0.4328 1.2931,-0.3662 2.5939,-0.7074 3.8996,-1.031 0.5005,-0.1242 0.8228,0.1392 0.8843,0.6598 0.0251,0.2169 0.0426,0.4364 0.0426,0.6547 0.0025,6.1674 0.0038,12.3348 -0.0025,18.5022 0,0.3312 -0.0288,0.6686 -0.0978,0.9909 -0.0966,0.4491 -0.3437,0.6209 -0.8028,0.6247 -0.6058,0.0037 -1.2116,0.0012 -1.8162,0 -0.6309,0 -0.8931,-0.2283 -0.9608,-0.8542 -0.0289,-0.2684 -0.0452,-0.5406 -0.0452,-0.8116 -0.0025,-5.0397 -0.0025,-10.0808 -0.0025,-15.1206 0,-0.143 0,-0.286 0,-0.4678 z"
         id="path2090" />
      <path
         d="m 37.0418,25.7582 h 1.4663 c 0.5656,0 0.8592,0.2547 0.8918,0.8166 0.0251,0.4365 0.0251,0.8768 0,1.3145 -0.0301,0.5519 -0.3337,0.8166 -0.8981,0.8228 -0.4491,0.0051 -0.8981,0.0038 -1.3471,0.0063 -0.0201,0 -0.0402,0.01 -0.0979,0.0251 -0.005,0.0991 -0.015,0.2082 -0.015,0.3186 0,2.3907 -0.0088,4.7801 0.0062,7.1708 0.0026,0.4541 0.069,0.9157 0.1631,1.361 0.1091,0.5217 0.3587,0.6898 0.8855,0.6936 0.3023,0.0012 0.6059,-0.005 0.9082,0.0025 0.4465,0.01 0.7413,0.2559 0.7714,0.6999 0.0301,0.4465 0.0301,0.8981 -0.0038,1.3446 -0.0326,0.4365 -0.3311,0.7124 -0.7701,0.7112 -0.8028,-0.0013 -1.6106,0.01 -2.4071,-0.0715 -1.2267,-0.1267 -2.1335,-1.0047 -2.4484,-2.392 -0.1718,-0.7563 -0.2822,-1.5427 -0.2947,-2.3179 -0.0376,-2.3681 -0.0138,-4.7388 -0.0138,-7.1069 0,-0.1329 0,-0.2659 0,-0.4428 -0.2095,0 -0.3826,0.0038 -0.5569,0 -0.5193,-0.0138 -0.8003,-0.2558 -0.8329,-0.7764 -0.0301,-0.4565 -0.0301,-0.9181 -0.0012,-1.3759 0.0351,-0.5519 0.3273,-0.7978 0.8742,-0.8003 h 0.5093 c 0.0363,-0.7538 0.0727,-1.4876 0.1091,-2.2226 0.0589,-1.1979 0.1166,-2.3957 0.1831,-3.5923 0.0088,-0.1631 0.0552,-0.3299 0.1129,-0.4842 0.1154,-0.3073 0.3387,-0.4666 0.6748,-0.4628 0.4177,0.005 0.8354,0 1.2531,0.0012 0.5293,0.0013 0.7814,0.2183 0.8529,0.7513 0.0251,0.1857 0.0251,0.3751 0.0251,0.562 0.0012,1.6807 0,3.3603 0,5.041 z"
         id="path2092" />
      <path
         d="m 26.9292,23.7665 c -0.2647,0.0665 -0.4854,0.1229 -0.7075,0.1768 -0.5067,0.123 -0.8742,-0.0903 -0.9068,-0.6121 -0.0439,-0.6861 -0.0351,-1.3772 0,-2.0633 0.0188,-0.3713 0.2584,-0.6171 0.6422,-0.7137 1.2242,-0.3073 2.4446,-0.6271 3.6676,-0.9395 0.5544,-0.1417 0.8918,0.0766 0.9921,0.6372 0.0201,0.1117 0.0176,0.2283 0.0176,0.3437 0,6.3995 0.0025,12.7989 -0.0038,19.1984 0,0.2458 -0.0464,0.4992 -0.1166,0.735 -0.0966,0.3223 -0.3312,0.4892 -0.6824,0.4854 -0.6999,-0.0063 -1.3998,-0.005 -2.0997,0 -0.3512,0.0025 -0.5895,-0.1693 -0.6735,-0.4942 -0.0753,-0.2897 -0.123,-0.5945 -0.123,-0.8931 -0.0075,-5.1363 -0.005,-10.2727 -0.005,-15.4091 0,-0.1342 0,-0.2696 0,-0.4503 z"
         id="path2094" />
    </g>
  </g>
</svg>
