<svg fill="none" height="53.673603" viewBox="0 0 53.673603 53.673603" width="53.673603" xmlns="http://www.w3.org/2000/svg"><g transform="matrix(.82574772 0 0 .82574772 -9.908973 -11.560468)"><path d="m12 46.5c0-17.9493 14.5507-32.5 32.5-32.5s32.5 14.5507 32.5 32.5-14.5507 32.5-32.5 32.5-32.5-14.5507-32.5-32.5z" fill="#000"/><g fill="#fff" transform="translate(12 14)"><path d="m45.1595 34.6853c.2509-1.6908.503-3.3816.7539-5.0712.1467-.9896.2897-1.9805.4452-2.9689.1016-.6472.3989-.8855 1.0624-.8855.3136 0 .6272-.0025.9395 0 .365.0037.5983.1542.6234.518.0288.4202.0125.8554-.0665 1.2681-.8642 4.5456-1.7309 9.0912-2.6303 13.6305-.1505.7601-.4139 1.5064-.7024 2.2289-.4001 1.0047-1.2066 1.4475-2.2765 1.4286-.5469-.01-1.085-.0589-1.5516-.3913-.3324-.2358-.5619-.5381-.5532-.962.0088-.4039.0038-.8166.0866-1.2079.1016-.4804.4189-.6272.8981-.498.1919.0514.3888.0878.5707.1631.2998.1229.4415 0 .5406-.2722.2496-.6911.2458-1.3923.0803-2.0947-.7489-3.1634-1.5014-6.3267-2.2553-9.4888-.232-.9734-.4854-1.9417-.6961-2.9188-.064-.2972-.0527-.6234-.0138-.9282.0426-.3286.2571-.4728.5958-.4741.5331-.0037 1.0649-.0012 1.598 0 .5318 0 .8165.2007.9407.73.1442.6184.2534 1.2455.3713 1.8702.4001 2.1085.7977 4.2182 1.1953 6.3267h.0452z"/><path d="m19.6767 23.7976c-.2947.0715-.5343.1355-.7764.1882-.3951.0865-.7049-.0464-.7751-.4303-.1518-.8215-.1907-1.6569.0263-2.4734.0464-.1744.2534-.3839.4265-.4328 1.2931-.3662 2.5939-.7074 3.8996-1.031.5005-.1242.8228.1392.8843.6598.0251.2169.0426.4364.0426.6547.0025 6.1674.0038 12.3348-.0025 18.5022 0 .3312-.0288.6686-.0978.9909-.0966.4491-.3437.6209-.8028.6247-.6058.0037-1.2116.0012-1.8162 0-.6309 0-.8931-.2283-.9608-.8542-.0289-.2684-.0452-.5406-.0452-.8116-.0025-5.0397-.0025-10.0808-.0025-15.1206 0-.143 0-.286 0-.4678z"/><path d="m37.0418 25.7582h1.4663c.5656 0 .8592.2547.8918.8166.0251.4365.0251.8768 0 1.3145-.0301.5519-.3337.8166-.8981.8228-.4491.0051-.8981.0038-1.3471.0063-.0201 0-.0402.01-.0979.0251-.005.0991-.015.2082-.015.3186 0 2.3907-.0088 4.7801.0062 7.1708.0026.4541.069.9157.1631 1.361.1091.5217.3587.6898.8855.6936.3023.0012.6059-.005.9082.0025.4465.01.7413.2559.7714.6999.0301.4465.0301.8981-.0038 1.3446-.0326.4365-.3311.7124-.7701.7112-.8028-.0013-1.6106.01-2.4071-.0715-1.2267-.1267-2.1335-1.0047-2.4484-2.392-.1718-.7563-.2822-1.5427-.2947-2.3179-.0376-2.3681-.0138-4.7388-.0138-7.1069 0-.1329 0-.2659 0-.4428-.2095 0-.3826.0038-.5569 0-.5193-.0138-.8003-.2558-.8329-.7764-.0301-.4565-.0301-.9181-.0012-1.3759.0351-.5519.3273-.7978.8742-.8003h.5093c.0363-.7538.0727-1.4876.1091-2.2226.0589-1.1979.1166-2.3957.1831-3.5923.0088-.1631.0552-.3299.1129-.4842.1154-.3073.3387-.4666.6748-.4628.4177.005.8354 0 1.2531.0012.5293.0013.7814.2183.8529.7513.0251.1857.0251.3751.0251.562.0012 1.6807 0 3.3603 0 5.041z"/><path d="m26.9292 23.7665c-.2647.0665-.4854.1229-.7075.1768-.5067.123-.8742-.0903-.9068-.6121-.0439-.6861-.0351-1.3772 0-2.0633.0188-.3713.2584-.6171.6422-.7137 1.2242-.3073 2.4446-.6271 3.6676-.9395.5544-.1417.8918.0766.9921.6372.0201.1117.0176.2283.0176.3437 0 6.3995.0025 12.7989-.0038 19.1984 0 .2458-.0464.4992-.1166.735-.0966.3223-.3312.4892-.6824.4854-.6999-.0063-1.3998-.005-2.0997 0-.3512.0025-.5895-.1693-.6735-.4942-.0753-.2897-.123-.5945-.123-.8931-.0075-5.1363-.005-10.2727-.005-15.4091 0-.1342 0-.2696 0-.4503z"/></g></g></svg>