<svg fill="none" height="39.931" viewBox="0 0 27.922001 39.931" width="27.922001" xmlns="http://www.w3.org/2000/svg"><g clip-rule="evenodd" fill-rule="evenodd" transform="translate(-18 -12)"><path d="m37.8532 13.0005c.3252.4049.491.9513.8227 2.0439l7.2461 23.8708c-2.6791-1.3938-5.5915-2.3989-8.663-2.9413l-4.718-15.9883c-.0771-.2616-.3168-.4411-.5888-.4411-.2727 0-.5128.1804-.5894.4429l-4.6608 15.9785c-3.0857.5398-6.0115 1.5469-8.702 2.9457l7.2816-23.8727c.3327-1.0908.4991-1.6362.8244-2.0403.2871-.3568.6605-.6339 1.0848-.8049.4805-.1937 1.0492-.1937 2.1867-.1937h5.2009c1.1389 0 1.7084 0 2.1894.1941.4246.1713.7983.449 1.0854.8064z" fill="#000"/><path d="m38.7202 40.0514c-1.1945 1.0243-3.5787 1.7229-6.3251 1.7229-3.3707 0-6.196-1.0524-6.9456-2.4677-.2681.8112-.3282 1.7395-.3282 2.3325 0 0-.1765 2.912 1.8431 4.9373 0-1.0516.8501-1.9042 1.8988-1.9042 1.7975 0 1.7955 1.5727 1.7938 2.8485 0 .0382-.0001.0762-.0001.1139 0 1.9366 1.1803 3.5967 2.8587 4.2964-.2507-.5171-.3913-1.0978-.3913-1.7114 0-1.847 1.0813-2.5347 2.3379-3.334.9999-.6359 2.1109-1.3424 2.8765-2.7598.3994-.7395.6263-1.5865.6263-2.4867 0-.5535-.0858-1.087-.2448-1.5877z" fill="#ff5d01"/></g></svg>