<svg fill="none" height="65" viewBox="0 0 67 65" width="67" xmlns="http://www.w3.org/2000/svg"><path clip-rule="evenodd" d="m14.9022 32.0607c0-9.9108 8.1089-18.0197 18.0197-18.0197s18.0197 8.1089 18.0197 18.0197-8.1089 18.0197-18.0197 18.0197-18.0197-8.1089-18.0197-18.0197zm3.8614.2574c0 3.4752 1.4158 7.0792 4.1188 9.7821 2.7029 2.703 6.3069 3.9901 9.9108 4.1188l-.1299-.1287h.0012l-13.9009-13.9009c0 .0431.0002.0862.0006.1293zm.3861-3.3465 16.8613 16.8613.1287.1287c5.8886-1.4721 10.4909-6.686 10.9095-12.9668.0206-.3089.031-.6204.031-.9341h-9.0098v2.5742h6.1782c-.0563.2414-.1202.4802-.1913.7162-1.0672 3.5399-3.7747 6.4434-7.274 7.6501l-14.8019-14.8019c1.6365-4.4059 5.7353-7.5806 10.6107-7.718.1095-.0031.2195-.0047.3298-.0047.2413 0 .4812.0076.7193.0224 3.5714.223 6.754 2.0933 8.8054 4.8687l1.9307-1.6733c-2.5743-3.4752-6.6931-5.792-11.4554-5.792-2.9914 0-5.7771.9513-8.0698 2.5666-.9134.6436-1.7486 1.3925-2.4873 2.2287-1.5559 1.7609-2.6841 3.9088-3.2151 6.2739z" fill="#639" fill-rule="evenodd"/></svg>