<svg fill="none" height="37.445072" viewBox="0 0 33.51675 37.445072" width="33.51675" xmlns="http://www.w3.org/2000/svg" xmlns:xlink="http://www.w3.org/1999/xlink"><mask id="a" height="63" maskUnits="userSpaceOnUse" width="63" x="0" y="0"><path d="m.5.5h62v62h-62z" fill="#fff"/></mask><g mask="url(#a)" transform="translate(-14.745674 -12.774317)"><path clip-rule="evenodd" d="m46.9531 36.7967v-11.8322c0-1.5387-.8184-2.9622-2.1504-3.7416-2.859-1.6728-7.9099-4.628-11.0032-6.4381-1.6338-.9554-3.663-.934-5.2754.0561-2.7378 1.6812-7.0092 4.304-9.7665 5.9974-1.6629 1.0211-2.6756 2.8271-2.6756 4.7724v12.1146c0 1.9297 1.0283 3.7142 2.7009 4.6879l10.1776 5.9243c1.3528.7879 3.0235.805 4.3929.0455 2.972-1.6488 8.2357-4.5678 11.268-6.2498 1.4384-.7984 2.3296-2.3092 2.3296-3.9487v-1.3879z" fill="#ff4088" fill-rule="evenodd"/><path clip-rule="evenodd" d="m31.2225 12.7766c1.548213-.04663 3.003208.627147 4.263359 1.471502 3.46492 2.051661 6.975303 4.036609 10.416841 6.122398 1.620138 1.130701 2.496891 3.146547 2.3422 5.10223-.01975 4.421997.0376 8.847075-.0252 13.26737-.176648 1.978105-1.454962 3.79084-3.236567 4.658255-3.819098 2.098779-7.607738 4.259686-11.442833 6.325645-1.787101.825876-3.957059.589263-5.585871-.487465-3.401617-1.998621-6.869285-3.952846-10.236029-5.974735-1.920679-1.289875-3.089249-3.59279-2.9635-5.903079.02273-4.130484-.04294-8.264534.0282-12.393121.191285-2.269446 1.613424-4.358677 3.611852-5.436064 3.309293-2.009013 6.582444-4.087186 9.909948-6.061236.903231-.454273 1.917694-.672326 2.9176-.6917zm-.0224 2.6132c-1.561022-.02027-2.771917 1.135363-4.054382 1.843513-2.695886 1.684915-5.447385 3.286896-8.113718 5.015987-1.210123.919131-1.778655 2.495882-1.6356 3.98723.02193 3.998635-.04223 8.001124.0291 11.99757.149261 1.484901 1.197062 2.759377 2.532788 3.373223 3.339004 1.920565 6.641431 3.911049 10.000612 5.793077 1.10375.511995 2.397527.197059 3.359573-.475793 3.661584-2.053438 7.361561-4.045063 11.002027-6.132507 1.016859-.706289 1.457522-2.008385 1.3217-3.21103-.019431-4.332633.03758-8.669447-.0262-12.99967-.121261-1.188419-1.029932-2.124398-2.082583-2.597096-3.604954-2.084129-7.175223-4.233795-10.799417-6.281604-.480358-.209929-1.010826-.327907-1.5339-.3129z" fill="#c9177e" fill-rule="evenodd"/><path d="m23.8042 41.448v-20.0555h4.2135v7.3052h6.9894v-7.3052h4.2258v20.0555h-4.2258v-8.7692h-6.9894v8.7692z" fill="#fff"/></g></svg>