<svg clip-rule="evenodd" stroke-linecap="round" stroke-linejoin="round" stroke-miterlimit="10" viewBox="0 0 38 38" xmlns="http://www.w3.org/2000/svg" xmlns:xlink="http://www.w3.org/1999/xlink"><defs><path id="a" d="m0 19c0-10.49341 8.50659-19 19-19 10.4934 0 19 8.50659 19 19 0 10.4934-8.5066 19-19 19-10.49341 0-19-8.5066-19-19z"/><path id="b" d="m17.2464 6.4663c-.0235.0935-.0235.1868 0 .2802 0 0 .3048 1.9838-.047 2.8708l-14.4377 37.415c-1.0309 2.7542.3518 5.8117 3.1175 6.8619 2.7657 1.0503 5.836-.3033 6.9376-3.0341l14.438-37.4149c.2813-.7236 1.8984-2.1473 1.8984-2.1473.0705-.0702.1409-.1401.1877-.2101v-.0233c0-.0234.0235-.0234.0235-.0468.375-.957-2.0392-2.7773-5.3675-4.0612-3.3284-1.2837-6.352-1.5405-6.727-.5601 0 .0156-.0079.0389-.0235.0699z"/><linearGradient id="c" gradientUnits="userSpaceOnUse" x1="8.569" x2="16.1308" y1="35.8538" y2="36.935"><stop offset="0" stop-color="#900"/><stop offset="1" stop-color="#e80000"/></linearGradient><clipPath id="d"><path clip-rule="evenodd" d="m0 0h38v38h-38z"/></clipPath><clipPath id="e"><use clip-rule="evenodd" xlink:href="#a"/></clipPath><clipPath id="f"><use clip-rule="evenodd" xlink:href="#b"/></clipPath></defs><g clip-path="url(#d)"><use fill="#333" xlink:href="#a"/><g clip-path="url(#e)"><use fill="#f6f8fe" xlink:href="#b"/><g clip-path="url(#f)"><path d="m21.7921 23.3884-10.4302 26.9817c-.7733 1.9374-3.0001 2.9408-4.9922 2.1707-1.9924-.7703-3.0471-3.0343-2.3202-4.9716l6.6563-17.2487s.8203-1.3304 2.4611-2.2871c1.6406-.9572 2.9766-.7472 4.7814-1.5407 1.8279-.7935 3.8438-3.1043 3.8438-3.1043z" fill="url(#c)"/><path d="m26.8489 10.2374c.2079-.54-1.2876-1.6174-3.3398-2.4064-2.0525-.7891-3.8848-.9911-4.0924-.4514-.2078.54 1.2877 1.6172 3.3399 2.4064 2.0525.7891 3.8847.9911 4.0923.4514z" fill="#333"/><g fill="#fff"><path d="m17.1477 6.7439s.3027 1.9785-.0468 2.8629l-14.3435 37.3095c-1.0244 2.7462.3494 5.7953 3.097 6.8427.4657.1862.9547.3024 1.4436.3258-1.8867-1.4345-2.6139-3.9264-1.793-6.1445l14.0643-36.5646s-1.9327-1.7923-2.4216-4.6318z" opacity=".5"/><path d="m12.5371 31.2288c.2315 0 .4191-.1875.4191-.4188 0-.2314-.1876-.4189-.4191-.4189s-.4192.1875-.4192.4189c0 .2313.1877.4188.4192.4188z"/><path d="m15.2622 34.4411c.3472 0 .6287-.2814.6287-.6284s-.2815-.6284-.6287-.6284-.6287.2814-.6287.6284.2815.6284.6287.6284z"/><path d="m11.0928 38.5839c.6559 0 1.1876-.5315 1.1876-1.1871s-.5317-1.1871-1.1876-1.1871c-.6558 0-1.1875.5315-1.1875 1.1871s.5317 1.1871 1.1875 1.1871z"/></g></g></g></g></svg>