<svg width="63" height="63" viewBox="0 0 63 63" fill="none" xmlns="http://www.w3.org/2000/svg">
<mask id="mask0" mask-type="alpha" maskUnits="userSpaceOnUse" x="0" y="0" width="63" height="63">
<rect x="0.5" y="0.25" width="62" height="62" fill="white"/>
</mask>
<g mask="url(#mask0)">
<circle cx="31.5" cy="31.25" r="19" fill="#333333"/>
<mask id="mask1" mask-type="alpha" maskUnits="userSpaceOnUse" x="12" y="12" width="39" height="39">
<circle cx="31.5" cy="31.25" r="19" fill="#333333"/>
</mask>
<g mask="url(#mask1)">
<path d="M29.7464 18.7163C29.7229 18.8098 29.7229 18.9031 29.7464 18.9965C29.7464 18.9965 30.0512 20.9803 29.6994 21.8673L15.2617 59.2823C14.2308 62.0365 15.6135 65.094 18.3792 66.1442C21.1449 67.1945 24.2152 65.8409 25.3168 63.1101L39.7548 25.6952C40.0361 24.9716 41.6532 23.5479 41.6532 23.5479C41.7237 23.4777 41.7941 23.4078 41.8409 23.3378V23.3145C41.8409 23.2911 41.8644 23.2911 41.8644 23.2677C42.2394 22.3107 39.8252 20.4904 36.4969 19.2065C33.1685 17.9228 30.1449 17.666 29.7699 18.6464C29.7699 18.662 29.762 18.6853 29.7464 18.7163Z" fill="#F6F8FE"/>
<path d="M34.2921 35.6384L23.8619 62.6201C23.0886 64.5575 20.8618 65.5609 18.8697 64.7908C16.8773 64.0205 15.8226 61.7565 16.5495 59.8192L23.2058 42.5705C23.2058 42.5705 24.0261 41.2401 25.6669 40.2834C27.3075 39.3262 28.6435 39.5362 30.4483 38.7427C32.2762 37.9492 34.2921 35.6384 34.2921 35.6384Z" fill="url(#paint0_linear)"/>
<path d="M39.3489 22.4874C39.5568 21.9474 38.0613 20.87 36.0091 20.081C33.9566 19.2919 32.1243 19.0899 31.9167 19.6296C31.7089 20.1696 33.2044 21.2468 35.2566 22.036C37.3091 22.8251 39.1413 23.0271 39.3489 22.4874Z" fill="#333333"/>
<path opacity="0.5" d="M29.6477 18.9939C29.6477 18.9939 29.9504 20.9724 29.6009 21.8568L15.2574 59.1663C14.233 61.9125 15.6068 64.9616 18.3544 66.009C18.8201 66.1952 19.3091 66.3114 19.798 66.3348C17.9113 64.9003 17.1841 62.4084 18.005 60.1903L32.0693 23.6257C32.0693 23.6257 30.1366 21.8334 29.6477 18.9939Z" fill="white"/>
<path d="M25.0371 43.4788C25.2686 43.4788 25.4562 43.2913 25.4562 43.06C25.4562 42.8286 25.2686 42.6411 25.0371 42.6411C24.8056 42.6411 24.6179 42.8286 24.6179 43.06C24.6179 43.2913 24.8056 43.4788 25.0371 43.4788Z" fill="white"/>
<path d="M27.7622 46.6911C28.1094 46.6911 28.3909 46.4097 28.3909 46.0627C28.3909 45.7157 28.1094 45.4343 27.7622 45.4343C27.415 45.4343 27.1335 45.7157 27.1335 46.0627C27.1335 46.4097 27.415 46.6911 27.7622 46.6911Z" fill="white"/>
<path d="M23.5928 50.8339C24.2487 50.8339 24.7804 50.3024 24.7804 49.6468C24.7804 48.9912 24.2487 48.4597 23.5928 48.4597C22.937 48.4597 22.4053 48.9912 22.4053 49.6468C22.4053 50.3024 22.937 50.8339 23.5928 50.8339Z" fill="white"/>
</g>
</g>
<defs>
<linearGradient id="paint0_linear" x1="21.069" y1="48.1038" x2="28.6308" y2="49.185" gradientUnits="userSpaceOnUse">
<stop stop-color="#990000"/>
<stop offset="1" stop-color="#E80000"/>
</linearGradient>
</defs>
</svg>