<?xml version="1.0" encoding="UTF-8" standalone="no"?>
<svg
   clip-rule="evenodd"
   height="14.34574"
   stroke-linecap="round"
   stroke-linejoin="round"
   stroke-miterlimit="10"
   viewBox="0 0 25.10746 14.345741"
   width="25.10746"
   version="1.1"
   id="svg18"
   sodipodi:docname="mkdocs.svg"
   inkscape:version="1.1.2 (b8e25be8, 2022-02-05)"
   xmlns:inkscape="http://www.inkscape.org/namespaces/inkscape"
   xmlns:sodipodi="http://sodipodi.sourceforge.net/DTD/sodipodi-0.dtd"
   xmlns="http://www.w3.org/2000/svg"
   xmlns:svg="http://www.w3.org/2000/svg">
  <defs
     id="defs22" />
  <sodipodi:namedview
     id="namedview20"
     pagecolor="#ffffff"
     bordercolor="#666666"
     borderopacity="1.0"
     inkscape:pageshadow="2"
     inkscape:pageopacity="0.0"
     inkscape:pagecheckerboard="0"
     showgrid="false"
     inkscape:zoom="12.172936"
     inkscape:cx="23.453667"
     inkscape:cy="21.153483"
     inkscape:window-width="1312"
     inkscape:window-height="967"
     inkscape:window-x="0"
     inkscape:window-y="25"
     inkscape:window-maximized="0"
     inkscape:current-layer="svg18" />
  <clipPath
     id="a">
    <path
       d="m-.89067 4.62357h36.5411v27.2113h-36.5411z"
       id="path9" />
  </clipPath>
  <g
     fill="#1a1a1a"
     transform="matrix(0.75949119,0,0,0.75949119,1.5389449,-5.0748662)"
     id="g16">
    <path
       clip-path="url(#a)"
       d="m 2.08394,9.27786 h 2.7832 L 8.98824,21.4068 13.08,9.27786 h 2.7539 V 23.6236 h -1.8457 v -8.4668 c 0,-0.293 0.0065,-0.778 0.0196,-1.4551 0.013,-0.6771 0.0195,-1.403 0.0195,-2.1777 L 9.9355,23.6236 H 8.01167 L 3.89058,11.524 v 0.4394 c 0,0.3516 0.00814,0.8871 0.02441,1.6065 0.01628,0.7194 0.02442,1.2483 0.02442,1.5869 v 8.4668 H 2.08394 Z"
       id="path12" />
    <path
       clip-path="url(#a)"
       d="m 18.5195,9.27786 h 1.6894 v 8.33004 l 4.5118,-4.4433 h 2.2461 l -4.004,3.916 4.2286,6.543 h -2.2461 l -3.2618,-5.2735 -1.4746,1.3477 v 3.9258 h -1.6894 z"
       id="path14" />
  </g>
</svg>
