<svg fill="none" height="65" viewBox="0 0 63 65" width="63" xmlns="http://www.w3.org/2000/svg"><g fill="#000"><path d="m30.3206 14.8219c-.0773.007-.3232.0316-.5445.0491-5.1039.4602-9.8846 3.2141-12.9126 7.4469-1.6861 2.3535-2.7644 5.0232-3.1719 7.8509-.144.987-.1616 1.2786-.1616 2.6169s.0176 1.6299.1616 2.617c.9765 6.7478 5.7783 12.4173 12.2908 14.5179 1.1663.3758 2.3957.6322 3.7937.7868.5445.0597 2.898.0597 3.4425 0 2.4132-.267 4.4576-.8641 6.4738-1.8933.3092-.1581.3689-.2003.3267-.2354-.0281-.0211-1.3453-1.7879-2.926-3.9236l-2.8734-3.8816-3.6005-5.3287c-1.9812-2.9296-3.611-5.3252-3.6251-5.3252-.014-.0035-.0281 2.364-.0351 5.255-.0106 5.0617-.0141 5.2655-.0773 5.3849-.0913.1721-.1616.2424-.3091.3197-.1124.0562-.2108.0667-.7412.0667h-.6077l-.1616-.1019c-.1054-.0667-.1826-.1545-.2353-.2564l-.0738-.1581.007-7.0429.0106-7.0464.1089-.137c.0562-.0738.1756-.1686.2599-.2143.144-.0703.2002-.0773.8079-.0773.7166 0 .836.0281 1.0222.2319.0527.0562 2.0022 2.9928 4.3347 6.53 2.3324 3.5373 5.5219 8.3672 7.0885 10.7383l2.8453 4.3101.144-.0949c1.2751-.829 2.624-2.0092 3.6919-3.2387 2.2727-2.6099 3.7375-5.7924 4.2292-9.1856.1441-.9871.1616-1.2787.1616-2.617s-.0175-1.6299-.1616-2.6169c-.9765-6.7479-5.7783-12.4174-12.2908-14.5179-1.1487-.3724-2.3711-.6288-3.741-.7834-.3373-.0351-2.6591-.0737-2.9507-.0456zm7.3556 10.8682c.1686.0843.3056.2459.3547.4145.0281.0913.0352 2.0444.0281 6.4458l-.0105 6.3158-1.1135-1.7072-1.117-1.7072v-4.591c0-2.9683.014-4.6368.0351-4.7176.0562-.1967.1791-.3512.3477-.4426.1441-.0737.1967-.0808.7482-.0808.5199 0 .6112.0071.7272.0703z"/><path d="m41.0615 47.9991c-.1229.0772-.1615.1299-.0527.0702.0772-.0456.2036-.1404.1825-.1439-.0105 0-.0702.0351-.1298.0737zm-.2422.158c-.0632.0491-.0632.0526.0141.014.0421-.0211.0772-.0456.0772-.0527 0-.028-.0176-.021-.0913.0387zm-.1755.1052c-.0631.0492-.0631.0527.0141.0141.0421-.0211.0772-.0456.0772-.0527 0-.028-.0176-.021-.0913.0386zm-.1754.1053c-.0632.0492-.0632.0527.014.0141.0421-.0211.0772-.0457.0772-.0527 0-.028-.0175-.021-.0912.0386zm-.2668.1404c-.1333.0702-.1263.0983.007.0316.0597-.0316.1053-.0632.1053-.0702 0-.0246-.0035-.021-.1123.0386z"/></g></svg>