<svg fill="none" height="32.6688" viewBox="0 0 44.000042 32.6688" width="44.000042" xmlns="http://www.w3.org/2000/svg"><g clip-rule="evenodd" fill-rule="evenodd" transform="translate(-9.99999 -16)"><path d="m23.3899 47.5644c-.0326-.0578-.0617-.1174-.0871-.1787-.1757-.4067-.2298-.8555-.1558-1.2923h-10.3977l15.4523-27.1927 5.0728 8.9176 1.471-2.6029-4.4221-7.7902c-.1238-.2246-.8707-1.4252-2.1584-1.4252-.582 0-1.416.252-2.0942 1.4435l-15.6539 27.5226c-.1329.2383-.77902 1.4893-.1375 2.5983.2933.5041.9165 1.1044 2.2913 1.1044h13.1106c-1.3656 0-1.998-.5912-2.2913-1.1044z" fill="#01c58e"/><path d="m53.5338 44.9661-12.8632-22.6605c-.1329-.2383-.8752-1.4435-2.1675-1.4435-.582 0-1.416.2474-2.0942 1.4389l-1.6635 2.9145 1.4802 2.6028 2.2912-4.0555 12.7257 22.3306h-4.8391c.0619.3692.0271.7481-.1009 1.0998-.0269.0777-.0607.1528-.1008.2246l-.0412.0824c-.6507 1.109-2.0576 1.1686-2.3325 1.1686h7.5703c.2795 0 1.6818-.0596 2.3325-1.1686.2887-.504.4949-1.3518-.197-2.5341z" fill="#108775"/><path d="m46.1606 47.5003.0413-.0825c.0401-.0718.0738-.1469.1008-.2246.128-.3517.1627-.7306.1008-1.0998-.0713-.3981-.2141-.78-.4216-1.1273l-9.747-17.1477-1.4893-2.6029-1.4802 2.6029-9.7424 17.1477c-.1892.3514-.3163.7328-.3758 1.1273-.0784.4355-.029.8843.1421 1.2923.0253.0613.0544.121.0871.1787.2932.5041.9165 1.1044 2.2912 1.1044h18.1468c.2887 0 1.6955-.0596 2.3462-1.1685zm-11.415-17.0791 8.9084 15.6722h-17.8122z" fill="#2f495e"/></g></svg>