<svg fill="none" height="34.216072" viewBox="0 0 28.881332 34.216072" width="28.881332" xmlns="http://www.w3.org/2000/svg"><path clip-rule="evenodd" d="m12.849463 1.5229629c4.6025-2.8915 10.9683-1.54280004 14.1913 3.0045h-.0003c.7649 1.0553 1.3082 2.2506 1.5981 3.5157.2899 1.2652.3205 2.5746001.09 3.8516001-.2232 1.2193-.6949 2.3814-1.3865 3.416 1.0092 1.8974 1.3479 4.0723.9625 6.1807-.2278 1.2518-.7181 2.4429-1.4395 3.4972-.7214 1.0544-1.6581 1.9487-2.7501 2.6258l-8.0833 5.0785c-4.6019 2.8915-10.9679998 1.5434-14.1909998-3.0045-.7647-1.0554-1.30799997-2.2507-1.59779997-3.5158-.2899-1.2651-.3206-2.5745-.0903-3.8515.2232-1.2195.6951-2.3817 1.38719997-3.4163-1.00969997-1.8971-1.34849997-4.072-.96289997-6.1804.2278-1.2518.71809997-2.4429 1.43949997-3.4972001.7214-1.0543 1.6581-1.9487 2.7501-2.6258zm-4.6362998 28.4024001c1.2324.4504 2.5752998.517 3.8473998.1911.5811-.1531 1.1351-.393 1.6425-.7115l8.0827-5.0782c.6567-.4073 1.2199-.9452 1.6537-1.5793.4339-.634.7287-1.3503.8658-2.1031.1385-.7678.1199-1.5552-.0544-2.3158-.1744-.7607-.5012-1.4794-.9611-2.1139-.7492-1.064-1.8116-1.8758-3.0437-2.3258-1.232-.4501-2.5745-.5167-3.8462-.1908-.5812.1529-1.1351.3927-1.6425.7112l-3.0842 1.9374c-.1533.0957-.3205.1678-.4959.2139-.3833.098-.788.0777-1.1593-.0582-.3712998-.1359-.6913998-.3807-.9169998-.7016-.1385-.1914-.2368-.4082-.2892-.6375-.0525-.2293-.0581-.4666-.0164-.6981.0414-.2267.1302-.4424.2609-.6333.1307-.191.3003-.353.4981-.4757l8.0844998-5.0782001c.1533-.0958.3205-.1679.4959-.2138.3831-.098.7874-.0777 1.1584.0581.3711.1357.6909.3804.9164.701.2469.3447.3624.7643.326 1.1847001l-.0279.2958.3006.0898c1.1361.3381 2.2051.865 3.1611 1.558l.414.2991.1522-.4583c.0819-.2437.1468-.4926.1943-.7451.1384-.7678.1198-1.5551001-.0546-2.3158001-.1744-.7606-.5011-1.4793-.9609-2.1138-.7492-1.0646-1.8117-1.8769-3.0441-2.3272s-2.5753-.517-3.8474-.191c-.5811.1531-1.135.3931-1.6425.7115l-8.0826998 5.0782c-.6571.4068001-1.2208.9444001-1.6551 1.5783001-.4342.6338-.7295 1.3501-.8669 2.1029-.1384.7678-.1199 1.5551.0545 2.3158s.5011 1.4793.961 2.1138c.7492 1.0646 1.8118 1.8768 3.0441 2.3271 1.2324.4504 2.5752998.5171 3.8473998.1911.581-.153 1.1349-.3926 1.6425-.7106l3.0848-1.9383c.1532-.0958.3205-.1679.4959-.2139.3833-.098.788-.0777 1.1593.0581.3713.1359.6914.3808.917.7017.1385.1914.2368.408.2894.6373s.0583.4666.0168.698c-.0414.2267-.1304.4425-.2611.6335-.1307.1909-.3004.353-.4981.4758l-8.0837 5.08c-.1533.0958-.3205.1679-.4958.2138-.3833.0983-.7879998.0782-1.1593998-.0575-.3713-.1358-.6914-.3807-.917-.7016-.2473-.3445-.3628-.7642-.326-1.1847l.0275-.2957-.3003-.0898c-1.1359-.3382-2.205-.8651-3.161-1.558l-.4144-.2997-.1521.4582c-.0818.2433-.1463.4918-.1931.7439-.1384.7678-.1199 1.5551.0545 2.3157.1743.7607.501 1.4794.9608 2.1139.7491 1.0645 1.8117 1.8768 3.044 2.3271z" fill="#ff3e00" fill-rule="evenodd"/></svg>