<svg width="17" height="11" viewBox="0 0 17 11" fill="none" xmlns="http://www.w3.org/2000/svg">
	<path fill-rule="evenodd" clip-rule="evenodd" d="M9.80953 9.03382C9.73338 9.07742 9.6513 9.12102 9.56923 9.15954C8.9579 9.44314 8.67402 9.62939 8.67402 10.0222C8.67402 10.443 9.01797 10.7871 9.4385 10.7871C9.76595 10.7871 10.0388 10.5797 10.148 10.2901C10.3505 10.4977 10.5926 10.6626 10.8598 10.7752C11.127 10.8877 11.4141 10.9456 11.704 10.9454C11.9907 10.9454 12.2746 10.8889 12.5395 10.7791C12.8044 10.6693 13.0451 10.5084 13.2478 10.3055C13.4505 10.1027 13.6113 9.86182 13.721 9.59678C13.8307 9.33173 13.8871 9.04767 13.887 8.7608C13.887 8.64609 13.871 8.53138 13.8545 8.41667C14.9739 8.08905 15.8361 7.15527 16.0328 5.98615C16.0599 5.81683 16.0764 5.64752 16.0764 5.4727C16.0764 5.29788 16.0599 5.12856 16.0328 4.95925C15.8306 3.79605 14.9739 2.85635 13.8545 2.52873L13.8566 2.51433C13.8722 2.40513 13.8875 2.29973 13.8875 2.18459C13.8875 1.89769 13.8311 1.61359 13.7214 1.34852C13.6117 1.08345 13.4508 0.842598 13.2481 0.639728C13.0453 0.436859 12.8046 0.275945 12.5397 0.166179C12.2747 0.0564126 11.9908 -5.55652e-05 11.704 4.10281e-08C11.0978 4.10281e-08 10.5465 0.251433 10.148 0.655251C10.0945 0.509879 9.99791 0.38435 9.87109 0.295519C9.74427 0.206687 9.59331 0.158808 9.4385 0.15831C9.01797 0.15831 8.67402 0.502444 8.67402 0.923192C8.67402 1.34902 8.9579 1.53484 9.56923 1.81887C9.62937 1.84753 9.68863 1.87803 9.74691 1.9103L9.80953 1.94416C9.8586 1.97168 9.90768 1.99919 9.95168 2.02628C9.98975 2.04829 10.0223 2.06988 10.0553 2.09189C10.0657 2.09746 10.0756 2.10383 10.0849 2.11094C10.0946 2.11809 10.1048 2.12446 10.1154 2.12999C10.3007 2.2502 10.4699 2.39243 10.6341 2.53973C10.6392 2.54262 10.6438 2.54634 10.6476 2.55074C10.6519 2.55497 10.6561 2.5592 10.6612 2.56174C10.7267 2.62693 10.7923 2.69296 10.8524 2.75815L10.8769 2.78566C10.885 2.79497 10.893 2.80471 10.9015 2.81275C10.9272 2.84473 10.9535 2.87634 10.9802 2.90757C11.0212 2.95582 11.0614 3.00366 11.0978 3.05318C11.6272 3.75504 11.9146 4.60989 11.9168 5.48921C11.9172 6.36895 11.6295 7.22459 11.0978 7.92523C11.03 8.01905 10.9562 8.10841 10.8769 8.19275C10.8685 8.20206 10.8604 8.2118 10.8524 8.21984C10.8071 8.27318 10.7593 8.32016 10.7107 8.36799L10.6612 8.41667C10.6561 8.41956 10.6515 8.42328 10.6476 8.42768C10.6434 8.43191 10.6392 8.43572 10.6341 8.43868C10.4723 8.58864 10.2989 8.72551 10.1154 8.848C10.1044 8.8535 10.0947 8.8607 10.0854 8.86705C10.0759 8.87432 10.0658 8.88083 10.0553 8.88652L10.0033 8.91911L9.95168 8.95171L9.8806 8.99277C9.85733 9.00631 9.83407 9.02028 9.80953 9.03382ZM2.22183 2.55074C1.10239 2.87836 0.240182 3.81214 0.043457 4.98126C-0.0143738 5.33205 -0.0143738 5.68996 0.043457 6.04075C0.245682 7.20395 1.10239 8.14365 2.22183 8.47127L2.21971 8.48567C2.20406 8.59488 2.18883 8.70027 2.18883 8.81541C2.18877 9.10234 2.24522 9.38648 2.35496 9.65158C2.46469 9.91668 2.62556 10.1575 2.82837 10.3604C3.03118 10.5633 3.27195 10.7242 3.53693 10.8339C3.80192 10.9437 4.08591 11.0001 4.3727 11C4.66249 10.9996 4.9493 10.9415 5.21639 10.8289C5.48348 10.7164 5.72549 10.5518 5.92831 10.3447C5.98176 10.4901 6.07838 10.6157 6.20521 10.7045C6.33203 10.7933 6.48298 10.8412 6.6378 10.8417C6.84031 10.8411 7.03437 10.7604 7.1776 10.6172C7.32084 10.474 7.40161 10.2798 7.40228 10.0772C7.40228 9.65098 7.1184 9.46516 6.50707 9.18113C6.44657 9.15319 6.38861 9.12187 6.32938 9.0897L6.26677 9.05584C6.21769 9.02832 6.16862 9.00081 6.12462 8.97372C6.08654 8.95171 6.05397 8.93012 6.02097 8.90811C6.01062 8.90254 6.00071 8.89617 5.99135 8.88906C5.98173 8.8819 5.97154 8.87553 5.96089 8.87001C5.77744 8.74737 5.604 8.61036 5.44221 8.46027C5.43711 8.45739 5.43253 8.45367 5.42867 8.44926C5.42444 8.44503 5.42021 8.44122 5.41513 8.43868C5.34956 8.37307 5.28398 8.30746 5.22391 8.24185L5.19937 8.21476C5.19133 8.20503 5.18329 8.19529 5.17483 8.18725C5.14945 8.15508 5.12237 8.12375 5.09614 8.09243C5.0551 8.04418 5.01491 7.99677 4.97853 7.94682C4.47085 7.26956 4.15947 6.42298 4.15947 5.51079C4.1592 4.6312 4.44688 3.77572 4.97853 3.07519C5.04632 2.98123 5.12009 2.89173 5.19937 2.80725C5.20783 2.79794 5.21587 2.7882 5.22391 2.78016C5.28345 2.71059 5.34731 2.64485 5.41513 2.58333C5.42022 2.58042 5.42479 2.57671 5.42867 2.57232C5.43258 2.56808 5.43715 2.56451 5.44221 2.56174C5.60539 2.41328 5.7787 2.27637 5.96089 2.152C5.97139 2.14645 5.98143 2.14008 5.99093 2.13295C6.00066 2.12618 6.00997 2.11941 6.02097 2.1139C6.03747 2.1029 6.05481 2.09189 6.073 2.08089C6.0904 2.07034 6.10761 2.05947 6.12462 2.04829L6.19569 2.00723C6.29632 1.94618 6.40012 1.89051 6.50665 1.84046C7.1129 1.55135 7.40228 1.36553 7.40228 0.94478C7.40228 0.524455 7.05833 0.180321 6.6378 0.180321C6.31034 0.180321 6.03747 0.387732 5.92831 0.677262C5.72576 0.469695 5.48374 0.304787 5.2165 0.192253C4.94926 0.079719 4.66222 0.0218349 4.37227 0.022011C4.08556 0.022011 3.80165 0.0785203 3.53677 0.188312C3.27189 0.298103 3.03121 0.459025 2.82849 0.661889C2.62578 0.864753 2.46498 1.10558 2.3553 1.37063C2.24562 1.63567 2.18919 1.91974 2.18925 2.2066C2.18925 2.32089 2.20533 2.43603 2.22183 2.55074Z" fill="white"/>
	<path d="M5.65536 5.49428C5.65519 5.18152 5.71665 4.8718 5.83621 4.58282C5.95577 4.29384 6.13109 4.03127 6.35215 3.81014C6.57321 3.589 6.83567 3.41364 7.12451 3.29406C7.41336 3.17449 7.72294 3.11306 8.03553 3.11328C8.34813 3.11311 8.65769 3.1746 8.94652 3.29422C9.23535 3.41385 9.49777 3.58926 9.71879 3.81044C9.93981 4.03161 10.1151 4.29421 10.2346 4.58321C10.3541 4.87221 10.4155 5.18194 10.4153 5.4947C10.4154 5.80743 10.354 6.11712 10.2345 6.40607C10.1149 6.69502 9.93966 6.95757 9.71864 7.1787C9.49763 7.39982 9.23522 7.5752 8.94642 7.6948C8.65762 7.8144 8.34809 7.87587 8.03553 7.8757C7.72294 7.87592 7.41336 7.81449 7.12451 7.69492C6.83567 7.57535 6.57321 7.39998 6.35215 7.17885C6.13109 6.95771 5.95577 6.69515 5.83621 6.40617C5.71665 6.11719 5.65519 5.80746 5.65536 5.4947V5.49428Z" fill="white"/>
</svg>