<?xml version="1.0" encoding="UTF-8" standalone="no"?>
<!-- Generator: Adobe Illustrator 19.0.0, SVG Export Plug-In . SVG Version: 6.00 Build 0)  -->

<svg
   version="1.1"
   id="layer"
   x="0px"
   y="0px"
   viewBox="-153 -46 600.20538 100.6"
   xml:space="preserve"
   sodipodi:docname="extrahop.svg"
   width="600.20538"
   height="100.6"
   inkscape:version="1.1.2 (b8e25be8, 2022-02-05)"
   xmlns:inkscape="http://www.inkscape.org/namespaces/inkscape"
   xmlns:sodipodi="http://sodipodi.sourceforge.net/DTD/sodipodi-0.dtd"
   xmlns="http://www.w3.org/2000/svg"
   xmlns:svg="http://www.w3.org/2000/svg"><defs
   id="defs48" /><sodipodi:namedview
   id="namedview46"
   pagecolor="#ffffff"
   bordercolor="#666666"
   borderopacity="1.0"
   inkscape:pageshadow="2"
   inkscape:pageopacity="0.0"
   inkscape:pagecheckerboard="0"
   showgrid="false"
   inkscape:zoom="1.2407975"
   inkscape:cx="398.53399"
   inkscape:cy="56.012361"
   inkscape:window-width="1312"
   inkscape:window-height="963"
   inkscape:window-x="0"
   inkscape:window-y="25"
   inkscape:window-maximized="0"
   inkscape:current-layer="layer" />
<style
   type="text/css"
   id="style9">
	.st0{fill:#FFFFFF;}
	.st1{fill:#ADAFB2;}
	.st2{fill:#126B95;}
</style>
<g
   id="g43"
   transform="translate(-20.994643,-270.3)">
	<path
   class="st0"
   d="m -64.1,324.9 c -5.9,-0.5 -8.9,-10.3 -8.6,-22.4 0.4,-12.4 2.9,-23.8 9,-24.8 l 2.4,-0.3 c 1.3,14.4 6,24.8 13.8,25.6 l 31.4,-0.2 c -1.5,13.6 -6.5,21.4 -12,22 l -36,0.1"
   id="path11" />
	<path
   class="st1"
   d="m -64.1,324.9 c -5.9,-0.5 -8.9,-10.3 -8.6,-22.4 0.4,-12.4 2.9,-23.8 9,-24.8 l 2.4,-0.3 c 1.3,14.4 6,24.8 13.8,25.6 l 31.4,-0.2 c -1.5,13.6 -6.5,21.4 -12,22 l -36,0.1"
   id="path13" />
	<path
   class="st0"
   d="m -101.6,281.8 c -3.8,-0.4 -5.8,-6.7 -5.5,-14.5 0.3,-8 1.9,-15.3 5.8,-16 l 24.7,-3.6 c 0.3,-0.1 0.6,-0.2 0.9,-0.2 3.5,0 5.9,7.2 5.4,17.1 -0.5,10.5 -4.1,16.6 -7.9,17 l -23.4,0.2"
   id="path15" />
	<path
   class="st1"
   d="m -101.6,281.8 c -3.8,-0.4 -5.8,-6.7 -5.5,-14.5 0.3,-8 1.9,-15.3 5.8,-16 l 24.7,-3.6 c 0.3,-0.1 0.6,-0.2 0.9,-0.2 3.5,0 5.9,7.2 5.4,17.1 -0.5,10.5 -4.1,16.6 -7.9,17 l -23.4,0.2"
   id="path17" />
	<path
   class="st0"
   d="m -128.1,248.2 c -2.7,-0.2 -4,-4.6 -3.9,-10.1 0.2,-5.6 1.3,-10.7 4,-11.2 l 17.3,-2.5 c 0.2,-0.1 0.4,-0.1 0.6,-0.1 2.5,0 4.1,5.1 3.7,11.9 -0.4,7.3 -2.8,11.6 -5.6,11.9 l -16.1,0.1"
   id="path19" />
	<path
   class="st1"
   d="m -128.1,248.2 c -2.7,-0.2 -4,-4.6 -3.9,-10.1 0.2,-5.6 1.3,-10.7 4,-11.2 l 17.3,-2.5 c 0.2,-0.1 0.4,-0.1 0.6,-0.1 2.5,0 4.1,5.1 3.7,11.9 -0.4,7.3 -2.8,11.6 -5.6,11.9 l -16.1,0.1"
   id="path21" />
	<path
   class="st0"
   d="m -45.7,296.4 c -6.6,-0.6 -9.9,-11.4 -9.5,-24.8 0.5,-13.7 3.2,-26.3 9.9,-27.5 L -2.9,238 c 0.5,-0.2 1.1,-0.3 1.6,-0.3 6,0 10,12.4 9.2,29.3 -0.8,18 -7,28.5 -13.6,29.1 l -40,0.3"
   id="path23" />
	<path
   class="st2"
   d="m -45.7,296.4 c -6.6,-0.6 -9.9,-11.4 -9.5,-24.8 0.5,-13.7 3.2,-26.3 9.9,-27.5 L -2.9,238 c 0.5,-0.2 1.1,-0.3 1.6,-0.3 6,0 10,12.4 9.2,29.3 -0.8,18 -7,28.5 -13.6,29.1 l -40,0.3"
   id="path25" />
	<polygon
   class="st2"
   points="86.6,298.9 103.7,269.3 88.4,242 103.7,242.1 113.9,263.1 124.2,242.1 139.5,242.1 124.2,269.4 141.2,298.9 126.4,298.9 113.9,275.8 101.4,298.9 "
   id="polygon27" />
	<path
   class="st2"
   d="m 166.8,280.8 c 0,1.1 0,2.2 0.1,3.2 0.1,1 0.4,1.8 0.9,2.6 0.5,0.7 1.3,1.3 2.3,1.7 1.1,0.4 2.6,0.6 4.5,0.6 h 8.1 l 1.1,1.1 v 2.8 c 0,2.3 -0.7,3.9 -2,4.8 -1.3,0.9 -3.7,1.4 -7.1,1.4 h -3.4 c -3.4,0 -6.3,-0.4 -8.6,-1 -2.3,-0.7 -4.2,-1.7 -5.6,-2.9 -1.4,-1.3 -2.5,-2.8 -3.1,-4.6 -0.6,-1.8 -0.9,-3.8 -0.9,-6 v -32.1 h -8 v -9.1 l 8,-0.6 3.4,-15.3 h 10.2 v 14.8 h 15.9 v 10.2 h -15.9 z"
   id="path29" />
	<path
   class="st2"
   d="M 220.8,251.8 H 207.2 V 299 h -13.6 v -56.3 c 4.5,-0.3 8.1,-0.5 10.8,-0.7 2.7,-0.1 4.9,-0.3 6.7,-0.3 1.8,-0.1 3.4,-0.1 4.7,-0.1 1.4,0 3.1,0 5.1,0 z"
   id="path31" />
	<path
   class="st2"
   d="m 232.2,252.4 -1.1,-1.1 v -2.8 c 0,-2.3 0.7,-3.9 2,-4.8 1.3,-0.9 3.7,-1.4 7.1,-1.4 h 17.1 c 3.4,0 6.3,0.4 8.8,1.2 2.4,0.8 4.4,1.9 6,3.3 1.6,1.4 2.7,3.1 3.5,5 0.7,1.9 1.1,4 1.1,6.2 v 40.6 c -4.5,0.3 -8.4,0.5 -11.5,0.7 -3.1,0.2 -5.9,0.3 -8.2,0.3 -2.4,0.1 -4.5,0.1 -6.4,0.1 -1.8,0 -3.7,0 -5.7,0 -3.4,0 -6.3,-0.3 -8.6,-1 -2.3,-0.7 -4.2,-1.7 -5.6,-2.9 -1.4,-1.3 -2.5,-2.8 -3.1,-4.6 -0.6,-1.8 -0.9,-3.8 -0.9,-6 v -7.3 c 0,-2.2 0.3,-4.2 0.9,-6 0.6,-1.8 1.6,-3.4 3.1,-4.6 1.4,-1.2 3.3,-2.2 5.6,-2.9 2.3,-0.7 5.2,-1 8.6,-1 1.7,0 3.1,0 4,0 1,0 2,0 3.1,0.1 1.1,0.1 2.4,0.2 4,0.3 1.6,0.2 4,0.4 7.1,0.7 v -2.3 c 0,-1.3 -0.1,-2.5 -0.3,-3.7 -0.2,-1.2 -0.6,-2.2 -1.3,-3.1 -0.7,-0.9 -1.7,-1.6 -3,-2.1 -1.3,-0.5 -3,-0.8 -5.1,-0.8 z m 30.6,37 V 274.6 H 247 c -1.6,0 -2.8,0.2 -3.8,0.5 -0.9,0.3 -1.6,0.8 -2.1,1.4 -0.5,0.6 -0.8,1.2 -0.9,1.9 -0.1,0.7 -0.2,1.5 -0.2,2.3 v 2.5 c 0,0.8 0.1,1.5 0.2,2.3 0.1,0.8 0.4,1.4 0.9,2 0.5,0.6 1.2,1 2.1,1.4 0.9,0.3 2.2,0.5 3.8,0.5 z"
   id="path33" />
	<polygon
   class="st2"
   points="302.6,268.1 302.6,299 288.4,299 288.5,228.6 302.7,228.6 302.6,257.2 329.9,257.2 330,228.6 344.2,228.6 344.1,299.1 329.9,299.1 329.9,268.1 "
   id="polygon35" />
	<path
   class="st2"
   d="m 374.2,299.1 c -3.4,0 -6.3,-0.3 -8.6,-1 -2.3,-0.7 -4.2,-1.7 -5.6,-2.9 -1.4,-1.2 -2.5,-2.8 -3.1,-4.6 -0.6,-1.8 -0.9,-3.8 -0.9,-6 v -27.7 c 0,-2.2 0.3,-4.2 0.9,-6 0.6,-1.8 1.6,-3.3 3.1,-4.6 1.4,-1.2 3.3,-2.2 5.6,-2.9 2.3,-0.7 5.2,-1 8.6,-1 h 13.6 c 3.4,0 6.3,0.3 8.6,1 2.3,0.7 4.2,1.7 5.6,2.9 1.4,1.3 2.5,2.8 3.1,4.6 0.6,1.8 0.9,3.8 0.9,6 v 27.7 c 0,2.2 -0.3,4.2 -0.9,6 -0.6,1.8 -1.6,3.3 -3.1,4.6 -1.4,1.2 -3.3,2.2 -5.6,2.9 -2.3,0.7 -5.2,1 -8.6,1 z m 9.2,-10.2 c 3.4,0 5.8,-0.5 7.1,-1.6 1.3,-1.1 1.9,-2.8 1.9,-5.2 v -22.7 c 0,-2.3 -0.6,-4.1 -1.9,-5.2 -1.3,-1.1 -3.6,-1.7 -7,-1.7 h -4.8 c -3.4,0 -5.8,0.5 -7.1,1.6 -1.3,1.1 -1.9,2.8 -1.9,5.2 V 282 c 0,2.3 0.6,4.1 1.9,5.2 1.3,1.1 3.6,1.7 7,1.7 z"
   id="path37" />
	<path
   class="st2"
   d="M 449.8,299.7 H 447 c -1.1,0 -2.3,0 -3.7,-0.1 -1.4,-0.1 -3,-0.2 -4.9,-0.3 -1.9,-0.2 -4.1,-0.4 -6.7,-0.7 v 23.3 h -13.6 l 0.1,-79 c 4.6,-0.3 8.4,-0.5 11.5,-0.7 3.1,-0.1 5.9,-0.3 8.2,-0.3 2.3,-0.1 4.4,-0.1 6.3,-0.1 1.9,0 3.8,0 5.8,0 3.4,0 6.3,0.3 8.6,1 2.3,0.7 4.2,1.6 5.6,2.9 1.4,1.2 2.5,2.8 3.1,4.6 0.6,1.8 0.9,3.8 0.9,6 v 28.9 c 0,2.2 -0.3,4.2 -0.9,6 -0.6,1.8 -1.6,3.4 -3.1,4.6 -1.4,1.3 -3.3,2.2 -5.6,2.9 -2.5,0.7 -5.4,1 -8.8,1 m 4.6,-18.2 v -22.3 c 0,-1.1 0,-2 -0.1,-3 0,-0.9 -0.3,-1.7 -0.7,-2.3 -0.4,-0.6 -1.1,-1.1 -2,-1.5 -1,-0.3 -2.3,-0.5 -4.2,-0.5 h -15.8 v 37.5 h 14.9 c 2,0 3.5,-0.2 4.5,-0.6 1.1,-0.4 1.8,-0.9 2.3,-1.7 0.5,-0.7 0.8,-1.6 0.9,-2.6 0.1,-0.8 0.2,-1.8 0.2,-3"
   id="path39" />
	<path
   class="st2"
   d="m 46.7,241.4 c 1.4,-1.5 4.1,-2.2 8,-2.2 h 29.1 l 1.1,-1.1 v -3.4 c 0,-2.3 -0.7,-3.9 -2,-4.8 -1.3,-0.9 -3.7,-1.4 -7.1,-1.4 H 48.5 c -3.4,0 -6.3,0.3 -8.6,1 -2.3,0.7 -4.2,1.6 -5.6,2.9 -1.4,1.2 -2.5,2.8 -3.1,4.6 -0.6,1.8 -0.9,3.8 -0.9,6 v 9 c 0,0.4 0,0.7 0.1,1.1 v 19.4 c 0,0.4 -0.1,0.8 -0.1,1.3 v 10.7 c 0,2.2 0.3,4.2 0.9,6 0.6,1.8 1.6,3.4 3.1,4.6 1.4,1.2 3.3,2.2 5.6,2.9 2.3,0.7 5.2,1 8.6,1 h 27.3 c 3.4,0 5.8,-0.5 7.1,-1.4 1.3,-0.9 2,-2.6 2,-4.8 v -3.4 l -1.1,-1.1 H 54.7 c -3.9,0 -6.6,-0.7 -8,-2.2 -1.4,-1.5 -2.1,-3.4 -2.1,-5.7 v -4.3 c 0,-2.2 0.6,-4.1 1.9,-5.6 1.3,-1.6 3.6,-2.3 7.1,-2.3 H 72.5 V 258.1 H 53.6 c -3.5,0 -5.9,-0.8 -7.1,-2.3 -1.3,-1.6 -1.9,-3.4 -1.9,-5.6 v -2.6 c 0,-2.8 0.7,-4.7 2.1,-6.2"
   id="path41" />
</g>
</svg>
