<svg width="17" height="17" viewBox="0 0 17 17" fill="none" xmlns="http://www.w3.org/2000/svg">
	<path fill-rule="evenodd" clip-rule="evenodd" d="M8.08103 0.502425C6.18062 0.500003 4.34153 1.1921 2.8935 2.45461C1.44548 3.71713 0.483243 5.46749 0.179327 7.39183C-0.124589 9.31618 0.249696 11.2886 1.23507 12.9556C2.22044 14.6225 3.75245 15.8748 5.5564 16.488C5.95274 16.5583 6.10009 16.3061 6.10009 16.0895L6.08748 14.6944C3.86386 15.1907 3.39817 13.5967 3.39817 13.5967C3.03098 12.6486 2.50935 12.3964 2.50935 12.3964C1.78364 11.8872 2.56451 11.8953 2.56451 11.8953C3.36823 11.9543 3.78585 12.7424 3.78585 12.7424C4.50289 13.9952 5.66041 13.6315 6.11743 13.4229C6.15238 13.007 6.33127 12.6177 6.62172 12.3253C4.84802 12.1224 2.97976 11.4176 2.97976 8.27414C2.97976 7.38017 3.29101 6.64543 3.80397 6.07316C3.56024 5.36674 3.58785 4.59162 3.88119 3.90533C3.88119 3.90533 4.55569 3.68386 6.08276 4.74595C7.39294 4.38218 8.77384 4.38218 10.084 4.74595C11.6087 3.68386 12.2817 3.90533 12.2817 3.90533C12.5759 4.59198 12.6035 5.36795 12.3589 6.07478C12.8734 6.65028 13.1791 7.38098 13.1791 8.27576C13.1791 11.4232 11.3101 12.1184 9.53088 12.3229C9.81691 12.5742 10.0714 13.0746 10.0714 13.84L10.0628 16.0903C10.0628 16.3118 10.2046 16.564 10.6151 16.4848C12.4153 15.8672 13.9427 14.613 14.9242 12.9463C15.9057 11.2796 16.2774 9.30921 15.9727 7.38728C15.668 5.46535 14.7069 3.71724 13.2611 2.45549C11.8153 1.19373 9.97923 0.500595 8.08103 0.5" fill="#1B1817"/>
</svg>