<?xml version="1.0" encoding="UTF-8" standalone="no"?>
<svg
   fill="none"
   height="32"
   viewBox="0 0 118 32"
   width="118"
   version="1.1"
   id="svg111"
   sodipodi:docname="netflix.svg"
   inkscape:version="1.1.2 (b8e25be8, 2022-02-05)"
   xmlns:inkscape="http://www.inkscape.org/namespaces/inkscape"
   xmlns:sodipodi="http://sodipodi.sourceforge.net/DTD/sodipodi-0.dtd"
   xmlns="http://www.w3.org/2000/svg"
   xmlns:svg="http://www.w3.org/2000/svg">
  <defs
     id="defs115" />
  <sodipodi:namedview
     id="namedview113"
     pagecolor="#ffffff"
     bordercolor="#666666"
     borderopacity="1.0"
     inkscape:pageshadow="2"
     inkscape:pageopacity="0.0"
     inkscape:pagecheckerboard="0"
     showgrid="false"
     inkscape:zoom="3.7051282"
     inkscape:cx="68.958478"
     inkscape:cy="16.598616"
     inkscape:window-width="1312"
     inkscape:window-height="963"
     inkscape:window-x="0"
     inkscape:window-y="25"
     inkscape:window-maximized="0"
     inkscape:current-layer="svg111" />
  <path
     d="m 16.2253,29.9374 c -1.775,0.3127 -3.5813,0.4066 -5.4498,0.6563 L 5.0762,13.8438 V 31.3126 C 3.3011,31.5 1.6817,31.75 0,32 V 0 h 4.7338 l 6.4776,18.1565 V 0 h 5.0139 z m 9.81,-18.2186 c 1.9311,0 4.8896,-0.0938 6.6646,-0.0938 v 4.9999 c -2.2112,0 -4.7959,0 -6.6646,0.0938 v 7.4376 c 2.9276,-0.1875 5.855,-0.4376 8.8134,-0.5314 v 4.8122 l -13.7963,1.094 V 0 H 34.8487 V 5.0001 H 26.0353 Z M 53.379,5.0001 h -5.17 v 23 c -1.6818,0 -3.3635,0 -4.9826,0.0623 V 5.0001 H 38.0567 V 0 H 53.379 Z m 8.097,6.375 h 6.82 v 4.9999 h -6.82 v 11.3439 h -4.89 V 0 h 13.921 v 5.0001 h -9.031 z m 17.128,11.9687 c 2.834,0.0623 5.699,0.2814 8.471,0.4373 v 4.9376 C 82.622,28.4373 78.168,28.1564 73.622,28.0624 V 0 h 4.982 z m 12.675,5.7187 c 1.589,0.0939 3.27,0.1877 4.889,0.3749 V 0 H 91.279 Z M 118,0 111.678,15.2188 118,32 c -1.869,-0.25 -3.737,-0.5937 -5.606,-0.9063 l -3.581,-9.2498 -3.643,8.5001 c -1.807,-0.3129 -3.551,-0.4066 -5.357,-0.6566 L 106.228,15.0311 100.435,0 h 5.357 L 109.061,8.4063 112.55,0 Z"
     fill="#e50914"
     id="path109" />
</svg>
