<?xml version="1.0" encoding="UTF-8" standalone="no"?>
<svg
   fill="none"
   height="41"
   viewBox="0 0 156 41"
   width="156"
   version="1.1"
   id="svg375"
   sodipodi:docname="ocupop.svg"
   inkscape:version="1.1.2 (b8e25be8, 2022-02-05)"
   xmlns:inkscape="http://www.inkscape.org/namespaces/inkscape"
   xmlns:sodipodi="http://sodipodi.sourceforge.net/DTD/sodipodi-0.dtd"
   xmlns="http://www.w3.org/2000/svg"
   xmlns:svg="http://www.w3.org/2000/svg">
  <defs
     id="defs379" />
  <sodipodi:namedview
     id="namedview377"
     pagecolor="#ffffff"
     bordercolor="#666666"
     borderopacity="1.0"
     inkscape:pageshadow="2"
     inkscape:pageopacity="0.0"
     inkscape:pagecheckerboard="0"
     showgrid="false"
     inkscape:zoom="4.6282051"
     inkscape:cx="78.108034"
     inkscape:cy="20.418283"
     inkscape:window-width="1296"
     inkscape:window-height="963"
     inkscape:window-x="0"
     inkscape:window-y="25"
     inkscape:window-maximized="0"
     inkscape:current-layer="svg375" />
  <path
     d="m 38.814236,9.0864 c -1.3809,-1.4208 -6.7862,-5.6475 -9.5774,-7.0295 -2.6883,-1.3377 -5.6437,-2.04112 -8.642,-2.0569 -2.9974,0.01615 -5.9518,0.71957 -8.6392,2.0569 -2.7764005,1.3702 -8.1936005,5.6087 -9.5773005,7.0295 -1.53809997,1.623 -2.39069997,3.784 -2.378199971,6.0278 v 10.7716 c -0.012499999,2.2439 0.840100001,4.4049 2.378199971,6.0279 1.3808,1.4208 6.7861,5.6474 9.5773005,7.0295 2.6877,1.3365 5.6419,2.0398 8.6392,2.0568 2.9987,-0.0176 5.9542,-0.7231 8.642,-2.0627 2.7794,-1.3703 8.1965,-5.6088 9.5774,-7.0296 1.5373,-1.6234 2.3898,-3.7842 2.3781,-6.0278 V 15.1142 c 0.0123,-2.2438 -0.8402,-4.4047 -2.3781,-6.0278 z M 4.6944355,11.3721 c 1.2304,-1.2663 6.3111005,-5.2105 8.6864005,-6.3846 2.2444,-1.1157 4.7112,-1.703 7.214,-1.7179 2.5042,0.0162 4.9721,0.6057 7.217,1.7239 2.3604,1.1741 7.4558,5.1183 8.6862,6.3845 0.9479,1.0105 1.4694,2.352 1.4546,3.7421 v 1.8786 c -6e-4,0.8063 -0.1822,1.6021 -0.5312,2.3279 -0.3489,0.7257 -0.8563,1.3626 -1.4839,1.863 -5.789,4.616 -9.9551,7.7369 -11.3595,8.486 -1.2306,0.6333 -2.5956,0.9556 -3.9774,0.9392 -1.3965,-0.0072 -2.773,-0.3356 -4.0244,-0.9601 -1.3426,-0.6658 -5.7152,-4.0572 -6.264,-4.5833 -0.014,-0.0134 -0.0252,-0.0294 -0.0328,-0.0473 -0.0076,-0.0179 -0.0116,-0.0373 -0.0115,-0.0567 5e-4,-0.0218 0.006,-0.043 0.0164,-0.0622 0.0102,-0.0191 0.0248,-0.0355 0.0426,-0.0478 l 3.0184,-2.3005 3.4285,2.6127 c 1.1013,0.8352 2.4425,1.2869 3.821,1.2869 1.3784,0 2.7196,-0.4517 3.8209,-1.2869 l 6.1193,-4.6606 2.2159,-1.6943 c 0.5463,-0.4009 0.9662,-0.952 1.2097,-1.5871 0.228,-0.6202 0.2727,-1.2935 0.1286,-1.9387 -0.144,-0.6451 -0.4705,-1.2344 -0.94,-1.6965 -0.5901,-0.5678 -5.3109,-4.2891 -7.0813,-5.1748 -1.7032,-0.8431 -3.5754,-1.2823 -5.4731,-1.284 -1.9118,-0.0174 -3.7992,0.4335 -5.4998,1.3137 -2.027,1.0641 -7.5356005,5.362 -11.8493005,8.81 v -2.1431 c -0.0179,-1.3895 0.5017,-2.7316 1.4487,-3.7421 z m 11.3389005,9.1369 2.6967,-2.0569 c 0.5384,-0.4068 1.1932,-0.6268 1.8663,-0.6268 0.6729,0 1.3277,0.22 1.8661,0.6268 l 2.6968,2.0569 -2.6968,2.0538 c -0.5373,0.4092 -1.1926,0.6305 -1.8661,0.6305 -0.6736,0 -1.3289,-0.2213 -1.8663,-0.6305 z m 20.4647,9.119 c -1.2304,1.2662 -6.3111,5.2105 -8.6862,6.3845 -2.244,1.1223 -4.7119,1.7159 -7.217,1.7358 -2.5033,-0.0167 -4.97,-0.6062 -7.214,-1.7239 -2.3753,-1.189 -7.4560005,-5.1183 -8.6864005,-6.3845 -0.9499,-1.0135 -1.4696,-2.3604 -1.4487,-3.7541 v -1.8784 c 7e-4,-0.8065 0.1823,-1.6023 0.5312,-2.328 0.349,-0.7257 0.8563,-1.3626 1.484,-1.863 5.7860005,-4.622 9.9521005,-7.728 11.3595005,-8.4919 2.2247,-1.1889 5.3935,-1.2721 8.0077,0.0238 1.3366,0.6658 5.7093,4.0572 6.2581,4.5833 0.0142,0.0148 0.0251,0.0326 0.0318,0.0521 0.0065,0.0196 0.0088,0.0403 0.0065,0.0608 -10e-5,0.0211 -0.0052,0.0419 -0.015,0.0605 -0.0097,0.0186 -0.0238,0.0346 -0.041,0.0465 l -3.0214,2.3006 -3.4314,-2.6127 c -1.1003,-0.8375 -2.4418,-1.2908 -3.8209,-1.2908 -1.3792,0 -2.7207,0.4533 -3.821,1.2908 l -6.1164,4.6696 -2.2099005,1.6823 c -0.546,0.4012 -0.966,0.9522 -1.2097,1.5872 -0.2294,0.6201 -0.275,1.294 -0.1315,1.9398 0.1435,0.6458 0.47,1.2358 0.9399,1.6983 0.5901,0.5677 5.3110005,4.289 7.0813005,5.1747 1.6996,0.8455 3.5688,1.2877 5.4643,1.293 1.9109,0.0168 3.7971,-0.434 5.4968,-1.3137 2.0241,-1.0819 7.5357,-5.371 11.8552,-8.8189 v 2.143 c 0.0148,1.3859 -0.5033,2.7237 -1.4458,3.7333 z m 25.758,-16.9452 c -5.1161,0 -7.7038,3.5669 -7.7038,7.8172 0,4.2504 2.5877,7.8172 7.7038,7.8172 5.116,0 7.704,-3.5668 7.704,-7.8172 0,-4.2503 -2.603,-7.8172 -7.704,-7.8172 z m 0,12.5997 c -2.9505,0 -4.4257,-2.3452 -4.4257,-4.7825 0,-2.4373 1.4752,-4.7854 4.4257,-4.7854 2.951,0 4.426,2.3481 4.426,4.7854 0,2.4373 -1.499,4.7825 -4.426,4.7825 z M 131.92304,12.6828 c -5.116,0 -7.703,3.5669 -7.703,7.8172 0,4.2504 2.587,7.8172 7.703,7.8172 5.116,0 7.701,-3.5668 7.701,-7.8172 0,-4.2503 -2.587,-7.8172 -7.701,-7.8172 z m 0,12.5997 c -2.95,0 -4.425,-2.3452 -4.425,-4.7825 0,-2.4373 1.475,-4.7854 4.425,-4.7854 2.952,0 4.427,2.3481 4.427,4.7854 0,2.4373 -1.485,4.7825 -4.427,4.7825 z m -50.583004,0 c -0.634,0.013 -1.265,-0.1003 -1.856,-0.3333 -0.591,-0.233 -1.131,-0.5812 -1.588,-1.0247 -0.457,-0.4434 -0.823,-0.9734 -1.077,-1.5594 -0.253,-0.5861 -0.389,-1.2169 -0.4,-1.8561 0,-2.4373 1.475,-4.7854 4.425,-4.7854 0.815,-0.0231 1.623,0.1642 2.346,0.544 0.723,0.3797 1.337,0.9393 1.785,1.6257 l 0.313,-0.2348 v -3.754 c -1.36,-0.7512 -2.876,-1.1697 -4.426,-1.2217 -5.116,0 -7.704,3.5669 -7.704,7.8172 0,4.2504 3.081,7.8172 8.197,7.8172 1.572,-0.0181 3.115,-0.4265 4.493,-1.1889 v -3.8641 l -0.295,-0.2288 c -0.474,0.6849 -1.104,1.246 -1.837,1.6368 -0.732,0.3908 -1.547,0.6 -2.376,0.6103 z M 114.63104,12.6859 c -2.36,0 -4.131,0.1486 -5.84,0.1486 h -0.507 c 0,0 0.05,1.8904 0.05,7.6655 0,5.7752 -0.05,7.6656 -0.05,7.6656 h 3.272 c 0,0 -0.023,-0.9095 -0.038,-3.3944 0.784,0.0871 1.571,0.1288 2.361,0.1249 4.425,0 7.154,-2.0806 7.154,-6.1943 0.024,-3.3617 -2.23,-6.0159 -6.402,-6.0159 z m -0.617,9.2735 c -0.833,-0.0033 -1.665,-0.0499 -2.493,-0.1397 v -6.004 c 0.694,-0.1629 1.405,-0.2417 2.119,-0.2349 3.342,0 4.23,1.2187 4.23,3.1953 0.012,1.6436 -1.029,3.1833 -3.856,3.1833 z m 35.577,-9.2735 c -2.36,0 -4.131,0.1486 -5.838,0.1486 h -0.496 c 0,0 0.05,1.8904 0.05,7.6655 0,5.7752 -0.05,7.6656 -0.05,7.6656 h 3.266 c 0,0 -0.024,-0.9095 -0.039,-3.3944 0.784,0.0871 1.572,0.1288 2.361,0.1249 4.426,0 7.155,-2.0806 7.155,-6.1943 0.012,-3.3617 -2.242,-6.0159 -6.409,-6.0159 z m -0.616,9.2735 c -0.833,-0.0033 -1.666,-0.0499 -2.494,-0.1397 v -6.004 c 0.695,-0.1629 1.406,-0.2417 2.119,-0.2349 3.352,-0.0089 4.237,1.2098 4.237,3.1863 0,1.6526 -1.057,3.1923 -3.868,3.1923 z m -45.303,-9.1249 h -3.271 c 0,0 0.05,1.8904 0.05,7.6655 0,3.0793 -1.137004,4.7825 -3.668004,4.7825 -2.531,0 -3.665,-1.7032 -3.665,-4.7735 0,-5.7752 0.051,-7.6656 0.051,-7.6656 h -3.272 c 0,0 0.023,1.8904 0.023,7.6656 0,4.2355 1.75,7.8171 6.863,7.8171 5.113004,0 6.866004,-3.5668 6.866004,-7.8171 0,-5.7841 0.023,-7.6745 0.023,-7.6745 z"
     fill="#494949"
     id="path373" />
</svg>
