<?xml version="1.0" encoding="UTF-8" standalone="no"?>
<svg
   fill="none"
   height="43.47961"
   viewBox="0 0 143 43.47961"
   width="143"
   version="1.1"
   id="svg231"
   sodipodi:docname="papercut.svg"
   inkscape:version="1.1.2 (b8e25be8, 2022-02-05)"
   xmlns:inkscape="http://www.inkscape.org/namespaces/inkscape"
   xmlns:sodipodi="http://sodipodi.sourceforge.net/DTD/sodipodi-0.dtd"
   xmlns="http://www.w3.org/2000/svg"
   xmlns:svg="http://www.w3.org/2000/svg">
  <defs
     id="defs235" />
  <sodipodi:namedview
     id="namedview233"
     pagecolor="#ffffff"
     bordercolor="#666666"
     borderopacity="1.0"
     inkscape:pageshadow="2"
     inkscape:pageopacity="0.0"
     inkscape:pagecheckerboard="0"
     showgrid="false"
     inkscape:zoom="4.6282051"
     inkscape:cx="70.977839"
     inkscape:cy="28.412742"
     inkscape:window-width="1296"
     inkscape:window-height="963"
     inkscape:window-x="0"
     inkscape:window-y="25"
     inkscape:window-maximized="0"
     inkscape:current-layer="svg231" />
  <path
     d="m 132.213,0 c -1.431,-1.6999996e-7 -2.803,0.567721 -3.815,1.57834 -1.012,1.01063 -1.58,2.38142 -1.581,3.81101 V 21.56 l 5.396,-5.3893 h 5.394 c 1.43,0 2.802,-0.5678 3.813,-1.5785 1.012,-1.0107 1.58,-2.3815 1.58,-3.8109 V 0 Z m 5.394,10.7813 h -5.394 V 5.38935 h 5.394 z"
     fill="#27aa27"
     id="path227" />
  <path
     d="m 109.11,25.3768 v -2.4545 c 0.15,-0.021 0.331,-0.0368 0.491,-0.0473 0.16,-0.0105 0.318,-0.0157 0.47,-0.0157 0.749,-0.0293 1.49,0.1615 2.131,0.5486 0.559,0.3641 0.838,1.0203 0.838,1.9689 v 13.304 h -2.803 c -0.455,0 -0.744,-0.1234 -0.862,-0.3675 -0.136,-0.3436 -0.197,-0.7124 -0.178,-1.0815 l -0.021,-0.315 c -0.229,0.2486 -0.474,0.4819 -0.733,0.6982 -0.311,0.2595 -0.646,0.488 -1.001,0.6826 -0.41,0.2279 -0.846,0.4042 -1.298,0.525 -0.545,0.1401 -1.106,0.2072 -1.668,0.1995 -1.955,0 -3.444,-0.5828 -4.467,-1.7483 -1.022,-1.1656 -1.534,-2.7406 -1.534,-4.7252 v -7.1771 -2.4492 c 0.153,-0.021 0.329,-0.0368 0.491,-0.0473 0.163,-0.0105 0.318,-0.0157 0.468,-0.0157 0.749,-0.0296 1.49,0.1612 2.131,0.5486 0.558,0.3641 0.839,1.0203 0.84,1.9689 v 7.1429 c 0,1.0002 0.263,1.7719 0.817,2.3153 0.279,0.2729 0.61,0.4861 0.973,0.6265 0.364,0.1404 0.753,0.205 1.142,0.1899 0.517,0.0038 1.029,-0.1046 1.5,-0.3176 0.46,-0.2041 0.869,-0.505 1.201,-0.882 0.34,-0.3861 0.607,-0.8309 0.788,-1.3126 0.192,-0.5163 0.289,-1.0635 0.284,-1.6144 z m -14.807,12.338 c -0.811,0.4524 -1.669,0.8159 -2.559,1.0842 -0.956,0.2846 -1.949,0.4261 -2.947,0.42 -1.521,0.0183 -3.029,-0.2673 -4.437,-0.8401 -1.303,-0.5383 -2.483,-1.3369 -3.466,-2.3468 -0.982,-1.0203 -1.753,-2.2247 -2.267,-3.5439 -1.079,-2.8684 -1.079,-6.0307 0,-8.8991 0.518,-1.3509 1.297,-2.5871 2.291,-3.6384 0.995,-1.0456 2.189,-1.8819 3.512,-2.4598 1.42,-0.6157 2.954,-0.9244 4.501,-0.9056 0.982,-0.0091 1.962,0.1047 2.916,0.3386 0.836,0.2111 1.644,0.5222 2.406,0.9267 0.707,0.3616 1.357,0.8251 1.929,1.3755 0.226,0.2232 0.525,0.5487 0.651,0.6931 0.127,0.169 0.228,0.3567 0.297,0.5565 0.073,0.2026 0.09,0.4214 0.047,0.6326 -0.08,0.3686 -0.281,0.7 -0.57,0.9425 -0.618,0.5134 -1.274,0.9794 -1.962,1.3939 -0.623,-0.8929 -1.408,-1.6613 -2.315,-2.2655 -0.907,-0.5985 -2.045,-0.8978 -3.415,-0.8978 -0.976,-0.0165 -1.942,0.1976 -2.819,0.6248 -0.816,0.4027 -1.541,0.9693 -2.128,1.6643 -0.602,0.7155 -1.059,1.5411 -1.345,2.4309 -0.312,0.9441 -0.47,1.9326 -0.465,2.927 -0.008,0.9818 0.149,1.9579 0.465,2.8876 0.286,0.8574 0.737,1.6509 1.327,2.3363 0.573,0.6618 1.277,1.198 2.067,1.5751 0.846,0.3936 1.771,0.5901 2.704,0.5749 0.8,0.0193 1.598,-0.0888 2.364,-0.3203 1.087,-0.3342 2.061,-0.9587 2.819,-1.806 0.306,-0.35 0.589,-0.6546 0.849,-0.9136 0.606,0.425 1.186,0.8852 1.739,1.3782 0.145,0.1294 0.283,0.267 0.412,0.4122 0.11,0.1196 0.193,0.2609 0.244,0.4147 0.054,0.1697 0.065,0.3501 0.032,0.525 -0.051,0.1932 -0.128,0.3787 -0.229,0.5513 -0.099,0.1665 -0.215,0.3222 -0.346,0.4647 -0.689,0.6717 -1.462,1.2523 -2.299,1.7273 z M 75.701,22.8094 c -0.182,-0.0184 -0.539,-0.0446 -0.846,-0.0446 -0.581,-0.0086 -1.159,0.0701 -1.716,0.2336 -0.458,0.1371 -0.899,0.3264 -1.314,0.5644 -0.355,0.2059 -0.685,0.4516 -0.985,0.7324 -0.241,0.2306 -0.47,0.4752 -0.683,0.7324 -0.002,-0.1759 -0.018,-0.3515 -0.047,-0.525 -0.052,-0.2395 -0.157,-0.4645 -0.307,-0.6584 -0.15,-0.1939 -0.341,-0.352 -0.56,-0.4625 -0.505,-0.2518 -1.064,-0.3762 -1.629,-0.3623 -0.215,0 -0.402,0 -0.557,0 -0.155,0 -0.294,0.0263 -0.412,0.0446 -0.118,0.0184 -0.263,0.0394 -0.352,0.0604 v 15.5459 h 3.94 v -8.4135 c -0.009,-0.5166 0.089,-1.0296 0.29,-1.5057 0.201,-0.4762 0.5,-0.9049 0.877,-1.2585 0.365,-0.3392 0.796,-0.6 1.266,-0.7665 0.492,-0.176 1.01,-0.2648 1.532,-0.2625 0.329,-0.004 0.657,0.018 0.982,0.0656 0.281,0.0455 0.555,0.1239 0.817,0.2336 0.134,-0.2914 0.581,-1.575 0.704,-1.9714 0.112,-0.3564 0.159,-0.7297 0.14,-1.1026 -0.008,-0.175 -0.072,-0.3428 -0.184,-0.4777 -0.111,-0.1263 -0.252,-0.2228 -0.41,-0.2809 C 76.078,22.8677 75.901,22.828 75.722,22.812 Z M 35.5263,34.415 c 0.9492,0.9111 2.2173,1.4152 3.5335,1.4045 0.6568,0.0111 1.3072,-0.1309 1.8994,-0.4148 0.5416,-0.2672 1.0233,-0.6414 1.416,-1.0999 0.3896,-0.4559 0.6892,-0.9815 0.8828,-1.5488 0.1998,-0.5785 0.3011,-1.1863 0.2994,-1.7982 0.0048,-0.6278 -0.0675,-1.2537 -0.2154,-1.8639 -0.1305,-0.546 -0.368,-1.0608 -0.6988,-1.5147 -0.3299,-0.4379 -0.7583,-0.7922 -1.2505,-1.0343 -0.5953,-0.2716 -1.2454,-0.4019 -1.8994,-0.3806 -0.5677,-0.0084 -1.1287,0.1223 -1.6341,0.3806 -0.4749,0.2459 -0.8984,0.58 -1.2479,0.9845 -0.3352,0.3897 -0.6017,0.8335 -0.7881,1.3125 -0.1813,0.4382 -0.2776,0.9068 -0.2838,1.3808 z M 31.6276,23.1271 c 0.0972,-0.021 0.2154,-0.0394 0.352,-0.0604 0.1367,-0.021 0.2628,-0.0342 0.4125,-0.0447 0.1498,-0.0105 0.3415,0 0.557,0 0.5652,-0.0136 1.1252,0.1108 1.6314,0.3623 0.2183,0.111 0.4092,0.2692 0.5587,0.4631 0.1495,0.1939 0.2539,0.4186 0.3056,0.6578 0.0228,0.1143 0.0368,0.2302 0.0421,0.3465 0.2457,-0.2569 0.509,-0.4963 0.7881,-0.7166 0.3284,-0.263 0.6863,-0.4868 1.0666,-0.6668 0.4481,-0.2125 0.9163,-0.3796 1.3977,-0.4988 0.5726,-0.1392 1.1604,-0.2063 1.7497,-0.1995 1.0233,-0.0347 2.0399,0.1788 2.9627,0.6222 0.9229,0.4435 1.7244,1.1037 2.3362,1.9242 0.5935,0.7882 1.0385,1.6777 1.3136,2.6251 0.2899,0.9836 0.4359,2.004 0.4334,3.0294 0.0291,1.068 -0.1493,2.1316 -0.5254,3.1317 -0.3278,0.8169 -0.7768,1.5797 -1.3319,2.2629 -0.771,0.9748 -1.7734,1.7418 -2.9162,2.2313 -1.0325,0.4176 -2.1359,0.6324 -3.2497,0.6327 -1.4175,-0.0314 -2.7954,-0.4727 -3.967,-1.2706 v 5.4077 c -0.1769,0.0512 -0.3597,0.0795 -0.5438,0.084 -0.2628,0.021 -0.5649,0.0289 -0.888,0.0289 -0.3137,0.0023 -0.6266,-0.0312 -0.9327,-0.0997 C 32.8924,43.3175 32.6227,43.19 32.3921,43.007 32.1519,42.8131 31.9641,42.5622 31.8457,42.2772 31.7,41.9028 31.632,41.5027 31.646,41.1012 Z M 116.991,23.0562 V 19.906 c -0.022,-0.3476 0.05,-0.6948 0.208,-1.0054 0.146,-0.2535 0.355,-0.465 0.607,-0.6142 0.257,-0.1528 0.542,-0.2553 0.838,-0.3019 0.306,-0.0493 0.615,-0.0738 0.924,-0.0735 h 0.463 c 0.152,0 0.299,0.021 0.433,0.0393 0.134,0.0184 0.3,0.0315 0.434,0.0499 v 5.0638 h 4.419 l -3.203,3.1869 h -1.216 v 6.8253 c 0,0.8873 0.15,1.5698 0.452,2.0476 0.299,0.4778 0.806,0.7167 1.65,0.7167 0.273,1e-4 0.544,-0.0479 0.801,-0.1418 0.236,-0.0867 0.464,-0.1921 0.683,-0.315 0.185,-0.1053 0.36,-0.2256 0.525,-0.3597 0.15,-0.126 0.263,-0.2205 0.318,-0.2835 0.257,0.383 0.49,0.782 0.696,1.1945 0.15,0.2949 0.233,0.6195 0.242,0.9502 -0.011,0.2978 -0.123,0.5829 -0.318,0.8086 -0.25,0.2951 -0.553,0.5416 -0.893,0.7271 -0.438,0.2393 -0.908,0.416 -1.395,0.5251 -0.583,0.1506 -1.184,0.2204 -1.786,0.2073 -0.736,-8e-4 -1.464,-0.1407 -2.147,-0.4121 -0.63,-0.2522 -1.185,-0.6595 -1.616,-1.1839 -0.425,-0.5408 -0.726,-1.168 -0.882,-1.8376 -0.184,-0.7792 -0.272,-1.5779 -0.263,-2.3783 v -7.0905 h -2.664 V 23.064 Z M 25.6193,33.1523 c 7e-4,0.3997 -0.1084,0.792 -0.3152,1.1341 -0.2137,0.3575 -0.4905,0.6732 -0.8171,0.9319 -0.7123,0.5599 -1.592,0.8649 -2.4984,0.8663 -0.9317,0 -1.6376,-0.189 -2.1174,-0.567 -0.2366,-0.1862 -0.425,-0.4265 -0.5494,-0.7006 -0.1243,-0.2741 -0.181,-0.574 -0.1652,-0.8745 0.0019,-0.323 0.0708,-0.6421 0.2024,-0.9372 0.1316,-0.295 0.323,-0.5596 0.5621,-0.777 0.5131,-0.4935 1.4046,-0.7359 2.6744,-0.7271 0.2443,0 0.5254,0 0.8827,0.0183 0.3573,0.0184 0.6726,0.0263 0.9826,0.0499 l 1.1664,0.0656 z m -7.7527,-9.6892 c -0.4062,0.1782 -0.7814,0.4201 -1.1112,0.7166 -0.1146,0.0906 -0.2072,0.2059 -0.2709,0.3373 -0.0636,0.1313 -0.0968,0.2754 -0.0969,0.4214 0.0489,0.2832 0.1486,0.5554 0.2942,0.8033 0.3032,0.5294 0.688,1.0078 1.1402,1.4175 0.5622,-0.3596 1.1536,-0.6713 1.768,-0.9319 0.8501,-0.3211 1.7559,-0.4684 2.664,-0.4331 0.8645,-0.0418 1.72,0.1916 2.4432,0.6667 0.2986,0.2023 0.5408,0.477 0.7039,0.7984 0.1632,0.3215 0.2419,0.679 0.2287,1.0392 V 28.666 L 24.3977,28.6004 C 24.0431,28.5768 23.6753,28.561 23.2996,28.5505 22.9239,28.54 22.5771,28.5322 22.2645,28.5322 c -0.9453,-0.0099 -1.8873,0.1139 -2.7979,0.3675 -0.7867,0.2145 -1.5232,0.582 -2.1674,1.0815 -0.5958,0.4732 -1.0748,1.0767 -1.4003,1.7641 -0.3417,0.7466 -0.5123,1.5601 -0.4991,2.381 -0.0191,0.7826 0.1465,1.5586 0.4834,2.2654 0.2995,0.6127 0.7321,1.1508 1.2662,1.5751 0.5171,0.4087 1.1048,0.7192 1.734,0.9162 0.6192,0.1973 1.2652,0.2982 1.9151,0.2992 0.9954,0.0126 1.9816,-0.1916 2.8899,-0.5985 0.7376,-0.3052 1.3974,-0.7716 1.9309,-1.3651 -0.018,0.3743 0.0429,0.7481 0.1787,1.0973 0.1182,0.2442 0.4072,0.3675 0.8617,0.3675 h 2.727 V 28.183 c 0.0075,-0.7849 -0.1519,-1.5625 -0.4677,-2.2812 -0.3058,-0.688 -0.7607,-1.2995 -1.3319,-1.7903 -0.613,-0.5188 -1.3204,-0.9145 -2.0834,-1.1656 -0.8765,-0.2862 -1.7943,-0.4263 -2.7164,-0.4147 -0.82,-0.0093 -1.6392,0.0522 -2.4485,0.1837 -0.2864,0.0499 -0.5596,0.0998 -0.8171,0.1654 -0.5688,0.1418 -1.1229,0.3369 -1.6551,0.5828 z M 14.8349,22.413 C 14.5716,21.4931 14.1158,20.6395 13.4977,19.9087 12.7748,19.0702 11.8785,18.3985 10.8706,17.9398 9.7672,17.4148 8.3494,17.1523 6.6172,17.1523 H 2.6056 c -0.3098,6e-4 -0.6191,0.026 -0.9248,0.0761 -0.2967,0.0456 -0.582,0.1471 -0.84060002,0.2993 -0.2461,0.144 -0.4542,0.3447 -0.6069,0.5854 -0.1677,0.3153 -0.2476,0.6698 -0.2312,1.0264 V 38.6808 H 4.0348 v -5.9931 h 2.8898 c 0.9946,-0.0038 1.9833,-0.1533 2.9345,-0.4436 0.9734,-0.2873 1.8817,-0.7607 2.6745,-1.394 0.8154,-0.6585 1.4756,-1.4884 1.9335,-2.4308 0.5217,-1.1135 0.7763,-2.3333 0.7435,-3.5623 -0.0137,-0.8303 -0.1392,-1.655 -0.373,-2.4519 z m -5.136,5.5915 C 8.916,28.7728 7.8651,29.1569 6.5463,29.1569 H 4.0348 v -8.5106 h 2.5168 c 0.5756,-0.0181 1.1489,0.0825 1.6839,0.2956 0.535,0.2131 1.0203,0.5341 1.4256,0.9431 0.4053,0.4089 0.7219,0.8969 0.93,1.4336 0.2081,0.5366 0.3032,1.1104 0.2795,1.6854 0.0221,0.5538 -0.0705,1.1062 -0.2721,1.6226 -0.2017,0.5163 -0.5079,0.9854 -0.8996,1.3779 z m 118.3601,9.1433 h -0.549 v -0.2626 h 1.38 v 0.2626 h -0.549 v 1.533 h -0.282 z m 2.412,0.3806 -0.365,0.9345 h -0.349 l -0.384,-1.0028 v 1.2207 h -0.289 v -1.7956 h 0.342 l 0.504,1.3677 0.525,-1.3677 h 0.316 v 1.7956 h -0.289 z M 61.966,34.0186 c 0.454,0.4245 0.883,0.875 1.284,1.3493 0.106,0.1246 0.204,0.2552 0.295,0.3912 0.077,0.1118 0.13,0.2389 0.155,0.3727 0.025,0.1469 0.012,0.2978 -0.037,0.4384 -0.067,0.1558 -0.156,0.3016 -0.263,0.4332 -0.102,0.1264 -0.217,0.2417 -0.344,0.3439 -0.843,0.7192 -1.936,1.1471 -2.984,1.4674 -1.026,0.2853 -2.088,0.4197 -3.153,0.399 -1.159,0.0165 -2.31,-0.1958 -3.3863,-0.6248 -0.9883,-0.3908 -1.8816,-0.988 -2.6201,-1.7518 -0.7385,-0.7638 -1.3052,-1.6764 -1.6621,-2.6767 -0.4002,-1.11 -0.5977,-2.2828 -0.5833,-3.4625 -0.0104,-1.0983 0.1875,-2.1885 0.5833,-3.2132 0.3695,-0.9591 0.9248,-1.836 1.634,-2.5804 0.7076,-0.7398 1.5574,-1.3291 2.4985,-1.7326 1.016,-0.4322 2.111,-0.6476 3.216,-0.6327 1.252,-0.0366 2.494,0.2338 3.617,0.7876 0.945,0.4855 1.761,1.187 2.383,2.0475 0.609,0.8648 1.049,1.8364 1.298,2.864 0.267,1.0671 0.401,2.1631 0.399,3.2631 v 0.567 H 52.6342 c -0.0102,0.5493 0.1219,1.0919 0.3836,1.575 0.2508,0.4615 0.59,0.8691 0.9982,1.1997 0.417,0.337 0.891,0.5958 1.4,0.7639 0.499,0.1727 1.023,0.2614 1.55,0.2625 1.183,0.0196 2.355,-0.2253 3.431,-0.7166 0.352,-0.1589 0.683,-0.3598 0.986,-0.5985 0.262,-0.2101 0.449,-0.3833 0.583,-0.5251 z m -1.7,-4.7829 c -0.002,-0.411 -0.082,-0.8179 -0.234,-1.1997 -0.157,-0.4005 -0.389,-0.7675 -0.683,-1.0815 -0.327,-0.3362 -0.718,-0.6039 -1.15,-0.7876 -0.505,-0.218 -1.051,-0.3255 -1.6,-0.315 -0.588,-0.0107 -1.171,0.0964 -1.716,0.315 -0.461,0.184 -0.8853,0.4509 -1.2505,0.7876 -0.3235,0.3074 -0.584,0.6747 -0.7671,1.0815 -0.1708,0.3771 -0.2603,0.7858 -0.2627,1.1997 z"
     fill="#3b3b3d"
     id="path229" />
</svg>
