<?xml version="1.0" encoding="UTF-8" standalone="no"?>
<svg
   fill="none"
   height="27.999901"
   viewBox="0 0 125 27.999901"
   width="125"
   version="1.1"
   id="svg314"
   sodipodi:docname="twitch.svg"
   inkscape:version="1.1.2 (b8e25be8, 2022-02-05)"
   xmlns:inkscape="http://www.inkscape.org/namespaces/inkscape"
   xmlns:sodipodi="http://sodipodi.sourceforge.net/DTD/sodipodi-0.dtd"
   xmlns="http://www.w3.org/2000/svg"
   xmlns:svg="http://www.w3.org/2000/svg">
  <defs
     id="defs318" />
  <sodipodi:namedview
     id="namedview316"
     pagecolor="#ffffff"
     bordercolor="#666666"
     borderopacity="1.0"
     inkscape:pageshadow="2"
     inkscape:pageopacity="0.0"
     inkscape:pagecheckerboard="0"
     showgrid="false"
     inkscape:zoom="4.6282051"
     inkscape:cx="61.903047"
     inkscape:cy="14.368421"
     inkscape:window-width="1296"
     inkscape:window-height="963"
     inkscape:window-x="0"
     inkscape:window-y="25"
     inkscape:window-maximized="0"
     inkscape:current-layer="svg314" />
  <g
     fill="#9146ff"
     id="g312"
     transform="translate(-55,-14)">
    <path
       d="m 64.0942,21.8347 -0.003,-7.833 H 55 v 23.5171 l 4.5456,4.4796 12.4984,0.0015 V 33.0375 H 64.0942 V 30.797 h 7.9498 v -8.9623 z"
       id="path298" />
    <path
       d="M 97.0386,21.8345 V 33.0374 H 94.7651 V 21.8345 h -9.079 V 33.0374 H 83.4125 V 21.8345 h -9.0941 v 15.6841 l 4.5455,4.4797 27.2691,0.0014 V 21.8345 Z"
       id="path300" />
    <path
       d="m 108.405,21.8345 h 9.094 v 20.1638 h -9.091 z"
       id="path302" />
    <path
       d="m 108.408,14.0017 h 9.091 v 5.6074 h -9.094 z"
       id="path304" />
    <path
       d="m 143.637,21.8345 -4.547,4.4857 v 11.1984 l 4.546,4.4797 13.643,0.0014 v -8.9623 h -9.094 v -2.2405 h 9.094 v -8.9624 z"
       id="path306" />
    <path
       d="m 175.453,21.8345 h -6.806 V 14 h -9.093 v 27.9997 h 9.078 V 30.7969 h 2.274 V 41.9997 L 180,41.9982 v -15.678 z"
       id="path308" />
    <path
       d="M 128.868,21.8345 128.864,14.0015 119.774,14 v 23.5186 l 4.544,4.4796 h 12.5 v -8.9593 l -7.95,-0.0014 v -2.2406 h 7.95 v -8.9624 z"
       id="path310" />
  </g>
</svg>
