<svg width="32" height="22" viewBox="0 0 139 95" fill="none" xmlns="http://www.w3.org/2000/svg">
<path fill-rule="evenodd" clip-rule="evenodd" d="M54.3761 77.803C55.029 78.1767 55.7327 78.5504 56.4364 78.8805C61.6778 81.3112 64.1117 82.9075 64.1117 86.2742C64.1117 89.8804 61.1628 92.8299 57.5573 92.8299C54.7497 92.8299 52.4101 91.0522 51.4743 88.5707C49.7377 90.3497 47.6626 91.7631 45.3714 92.7276C43.0801 93.6921 40.6191 94.1883 38.1332 94.1867C35.675 94.1867 33.2408 93.7024 30.9698 92.7614C28.6987 91.8204 26.6352 90.4412 24.8972 88.7025C23.1591 86.9638 21.7805 84.8996 20.8401 82.628C19.8997 80.3563 19.416 77.9217 19.4164 75.463C19.4164 74.4798 19.5543 73.4967 19.6957 72.5135C10.0979 69.7055 2.70556 61.7023 1.01887 51.6819C0.786728 50.2307 0.645264 48.7796 0.645264 47.2812C0.645264 45.7829 0.786728 44.3317 1.01887 42.8806C2.75271 32.911 10.0979 24.857 19.6957 22.049L19.6776 21.9256C19.5434 20.9896 19.4128 20.0863 19.4128 19.0995C19.4123 16.6405 19.8962 14.2055 20.8368 11.9336C21.7775 9.66176 23.1564 7.59748 24.8948 5.85873C26.6333 4.11997 28.6972 2.74081 30.9686 1.80002C33.2401 0.859235 35.6747 0.375256 38.1332 0.375733C43.3311 0.375733 48.0574 2.53072 51.4743 5.99177C51.9325 4.74582 52.761 3.66992 53.8483 2.90857C54.9357 2.14721 56.2299 1.73685 57.5573 1.73258C61.1628 1.73258 64.1117 4.68209 64.1117 8.28825C64.1117 11.9379 61.6778 13.5306 56.4364 15.9649C55.9208 16.2106 55.4127 16.472 54.913 16.7486L54.3761 17.0388C53.9554 17.2746 53.5346 17.5104 53.1574 17.7426C52.8309 17.9313 52.5516 18.1163 52.2687 18.305C52.1799 18.3527 52.095 18.4073 52.0148 18.4682C51.9322 18.5295 51.8449 18.5841 51.7536 18.6315C50.1649 19.6618 48.714 20.8808 47.3066 22.1433C47.2629 22.1681 47.2237 22.2 47.1905 22.2376C47.1542 22.2739 47.118 22.3102 47.0744 22.332C46.5122 22.8907 45.95 23.4566 45.4349 24.0153L45.2245 24.2511C45.1556 24.331 45.0867 24.4144 45.0141 24.4833C44.7931 24.7574 44.5682 25.0283 44.3395 25.296C43.9876 25.7096 43.643 26.1195 43.3311 26.544C38.7918 32.5595 36.3275 39.8862 36.3087 47.4227C36.3055 54.9628 38.7721 62.2963 43.3311 68.3015C43.9124 69.1056 44.5449 69.8714 45.2245 70.5943C45.2971 70.6741 45.366 70.7576 45.4349 70.8265C45.823 71.2836 46.2329 71.6863 46.65 72.0963L47.0744 72.5135C47.1181 72.5383 47.1573 72.5702 47.1905 72.6078C47.2268 72.6441 47.263 72.6768 47.3066 72.7021C48.6938 73.9874 50.1808 75.1605 51.7536 76.2104C51.8479 76.2575 51.9314 76.3192 52.0112 76.3736C52.0925 76.436 52.1786 76.4918 52.2687 76.5405L52.7148 76.8198L53.1574 77.0992L53.7668 77.4511C53.9663 77.5672 54.1658 77.6869 54.3761 77.803ZM119.431 22.2376C129.029 25.0457 136.422 33.0489 138.108 43.0692C138.604 46.0758 138.604 49.1433 138.108 52.1499C136.374 62.1195 129.029 70.1735 119.431 72.9815L119.449 73.1048C119.584 74.0409 119.714 74.9442 119.714 75.931C119.715 78.3903 119.231 80.8256 118.29 83.0977C117.349 85.3698 115.97 87.4342 114.231 89.173C112.492 90.9118 110.428 92.2909 108.156 93.2315C105.884 94.1721 103.449 94.6557 100.99 94.6547C98.5057 94.6513 96.0466 94.1529 93.7567 93.1887C91.4667 92.2245 89.3917 90.8137 87.6528 89.0387C87.1945 90.2847 86.3661 91.3606 85.2788 92.1219C84.1914 92.8833 82.8972 93.2936 81.5698 93.2979C79.8336 93.2931 78.1697 92.6014 76.9417 91.3738C75.7136 90.1462 75.0211 88.4824 75.0154 86.7459C75.0154 83.0925 77.4492 81.4999 82.6907 79.0655C83.2094 78.8261 83.7063 78.5576 84.2141 78.2819L84.751 77.9917C85.1717 77.7558 85.5925 77.52 85.9697 77.2878C86.2962 77.0992 86.5755 76.9142 86.8584 76.7255C86.9472 76.6778 87.032 76.6232 87.1123 76.5623C87.1948 76.5009 87.2822 76.4463 87.3735 76.399C88.9464 75.3479 90.4334 74.1736 91.8205 72.8872C91.8643 72.8625 91.9035 72.8306 91.9366 72.7928C91.9729 72.7566 92.0091 72.7239 92.0527 72.7021C92.6149 72.1398 93.1771 71.5775 93.6922 71.0152L93.9026 70.783C93.9715 70.6995 94.0404 70.6161 94.113 70.5471C94.3306 70.2714 94.5628 70.003 94.7876 69.7345C95.1395 69.3209 95.4841 68.9146 95.796 68.4865C100.149 62.6818 102.818 55.4259 102.818 47.6078C102.821 40.0689 100.354 32.7368 95.796 26.7326C95.2148 25.9273 94.5823 25.1602 93.9026 24.4362C93.83 24.3563 93.7611 24.2729 93.6922 24.204C93.1817 23.6077 92.6341 23.0442 92.0527 22.517C92.0091 22.4921 91.9699 22.4602 91.9366 22.4227C91.9031 22.3863 91.8639 22.3557 91.8205 22.332C90.4215 21.0595 88.9355 19.8861 87.3735 18.8201C87.2835 18.7726 87.1974 18.718 87.116 18.6569C87.0325 18.5988 86.9527 18.5408 86.8584 18.4936C86.7169 18.3993 86.5682 18.305 86.4123 18.2106C86.2631 18.1202 86.1155 18.0271 85.9697 17.9313L85.3603 17.5794C84.4976 17.0561 83.6076 16.5789 82.6943 16.15C77.4964 13.6721 75.0154 12.0794 75.0154 8.47327C75.0154 4.87074 77.9643 1.92123 81.5698 1.92123C84.3773 1.92123 86.7169 3.69892 87.6528 6.18042C89.3894 4.40141 91.4645 2.98801 93.7557 2.0235C96.047 1.05899 98.508 0.562876 100.994 0.564385C103.452 0.564385 105.886 1.04872 108.157 1.98972C110.428 2.93072 112.492 4.30996 114.23 6.04866C115.968 7.78737 117.347 9.85149 118.287 12.1231C119.227 14.3948 119.711 16.8295 119.711 19.2881C119.711 20.2677 119.573 21.2545 119.431 22.2376Z" fill="#034AD8"/>
<path d="M89.9924 47.4662C89.9938 44.7856 89.4669 42.131 88.4418 39.6542C87.4168 37.1774 85.9136 34.927 84.0183 33.0317C82.123 31.1364 79.8727 29.6334 77.3962 28.6085C74.9197 27.5837 72.2655 27.0572 69.5853 27.0591C66.9052 27.0577 64.2511 27.5846 61.7747 28.6099C59.2984 29.6352 57.0484 31.1386 55.1534 33.0343C53.2585 34.9299 51.7557 37.1806 50.7311 39.6575C49.7064 42.1345 49.18 44.7892 49.1819 47.4698C49.1805 50.1501 49.7072 52.8044 50.7321 55.281C51.757 57.7575 53.2598 60.0077 55.1547 61.903C57.0497 63.7983 59.2995 65.3014 61.7756 66.3264C64.2517 67.3515 66.9055 67.8784 69.5853 67.8769C72.2655 67.8788 74.9197 67.3523 77.3962 66.3275C79.8727 65.3026 82.123 63.7996 84.0183 61.9043C85.9136 60.009 87.4168 57.7586 88.4418 55.2818C89.4669 52.805 89.9938 50.1504 89.9924 47.4698V47.4662Z" fill="#034AD8"/>
</svg>
