<svg width="251" height="251" viewBox="0 0 251 251" fill="none" xmlns="http://www.w3.org/2000/svg">
<rect width="251" height="251" rx="125.5" fill="white"/>
<path fill-rule="evenodd" clip-rule="evenodd" d="M101.095 174.172C102.145 174.773 103.275 175.373 104.406 175.904C112.829 179.81 116.741 182.375 116.741 187.786C116.741 193.58 112.001 198.32 106.207 198.32C101.696 198.32 97.936 195.464 96.4321 191.476C93.6413 194.335 90.3067 196.606 86.6247 198.156C82.9427 199.706 78.9878 200.503 74.9929 200.501C71.0426 200.501 67.1309 199.723 63.4814 198.21C59.8317 196.698 56.5157 194.482 53.7227 191.688C50.9297 188.893 48.7142 185.577 47.2031 181.926C45.6918 178.275 44.9144 174.363 44.9152 170.412C44.9152 168.832 45.1367 167.252 45.364 165.672C29.9404 161.16 18.0609 148.299 15.3504 132.196C14.9773 129.864 14.75 127.532 14.75 125.124C14.75 122.716 14.9773 120.384 15.3504 118.052C18.1367 102.031 29.9404 89.0883 45.364 84.5758L45.3348 84.3776C45.1192 82.8735 44.9094 81.4218 44.9094 79.836C44.9086 75.8844 45.6862 71.9714 47.1977 68.3205C48.7093 64.6696 50.9252 61.3524 53.7189 58.5582C56.5126 55.764 59.8293 53.5477 63.4795 52.0358C67.1298 50.524 71.042 49.7462 74.9929 49.747C83.3459 49.747 90.9412 53.2101 96.4321 58.772C97.1684 56.7697 98.4997 55.0408 100.247 53.8173C101.994 52.5938 104.074 51.9343 106.207 51.9274C112.001 51.9274 116.741 56.6673 116.741 62.4623C116.741 68.3274 112.829 70.8869 104.406 74.7988C103.577 75.1936 102.761 75.6136 101.958 76.0581L101.095 76.5245C100.419 76.9034 99.743 77.2824 99.1368 77.6556C98.6122 77.9587 98.1633 78.256 97.7086 78.5592C97.566 78.6358 97.4295 78.7235 97.3006 78.8215C97.1679 78.9201 97.0275 79.0078 96.8809 79.0839C94.3278 80.7396 91.9962 82.6986 89.7345 84.7274C89.6644 84.7673 89.6014 84.8185 89.548 84.879C89.4897 84.9373 89.4314 84.9956 89.3615 85.0305C88.458 85.9284 87.5545 86.8379 86.7267 87.7358L86.3887 88.1147C86.278 88.2429 86.1672 88.377 86.0506 88.4878C85.6954 88.9282 85.334 89.3636 84.9664 89.7938C84.401 90.4583 83.8472 91.1172 83.3459 91.7993C76.0513 101.466 72.0912 113.24 72.0609 125.351C72.0559 137.468 76.0197 149.253 83.3459 158.903C84.2801 160.196 85.2965 161.426 86.3887 162.588C86.5052 162.716 86.616 162.85 86.7267 162.961C87.3505 163.695 88.0091 164.343 88.6795 165.001L89.3615 165.672C89.4316 165.712 89.4947 165.763 89.548 165.824C89.6063 165.882 89.6646 165.934 89.7345 165.975C91.9638 168.04 94.3534 169.926 96.8809 171.613C97.0325 171.689 97.1666 171.788 97.2948 171.875C97.4254 171.975 97.5638 172.066 97.7086 172.143L98.4256 172.593L99.1368 173.041L100.116 173.607C100.437 173.793 100.757 173.985 101.095 174.172ZM205.638 84.879C221.063 89.3914 232.942 102.253 235.653 118.355C236.449 123.187 236.449 128.116 235.653 132.948C232.866 148.969 221.063 161.912 205.638 166.424L205.668 166.623C205.884 168.126 206.094 169.578 206.094 171.164C206.094 175.116 205.317 179.029 203.804 182.681C202.293 186.332 200.076 189.65 197.282 192.444C194.487 195.238 191.17 197.455 187.519 198.966C183.868 200.478 179.955 201.255 176.004 201.253C172.011 201.248 168.06 200.447 164.38 198.897C160.7 197.348 157.366 195.08 154.571 192.228C153.834 194.231 152.503 195.959 150.756 197.183C149.008 198.406 146.928 199.065 144.796 199.073C142.005 199.065 139.332 197.954 137.358 195.98C135.385 194.008 134.272 191.334 134.262 188.543C134.262 182.673 138.174 180.113 146.596 176.201C147.43 175.817 148.229 175.385 149.045 174.941L149.907 174.475C150.584 174.096 151.26 173.718 151.866 173.345C152.391 173.041 152.84 172.744 153.294 172.441C153.437 172.364 153.573 172.276 153.702 172.178C153.835 172.08 153.975 171.992 154.122 171.916C156.65 170.227 159.039 168.34 161.268 166.273C161.338 166.233 161.401 166.182 161.454 166.121C161.513 166.063 161.571 166.011 161.641 165.975C162.545 165.071 163.448 164.168 164.276 163.264L164.614 162.891C164.725 162.757 164.835 162.623 164.952 162.512C165.302 162.069 165.675 161.637 166.037 161.207C166.602 160.541 167.156 159.888 167.656 159.201C174.651 149.873 178.941 138.212 178.941 125.649C178.946 113.534 174.982 101.751 167.656 92.1024C166.723 90.8083 165.706 89.5756 164.614 88.412C164.498 88.2837 164.387 88.1497 164.276 88.0389C163.456 87.0806 162.576 86.1752 161.641 85.3279C161.571 85.2879 161.508 85.2367 161.454 85.1764C161.401 85.1179 161.338 85.0686 161.268 85.0305C159.02 82.9858 156.632 81.1001 154.122 79.3871C153.978 79.3107 153.839 79.223 153.708 79.1247C153.574 79.0314 153.446 78.9381 153.294 78.8624C153.067 78.7108 152.827 78.5592 152.578 78.4076C152.338 78.2623 152.1 78.1126 151.866 77.9587L150.887 77.3932C149.501 76.5522 148.071 75.7855 146.602 75.0962C138.249 71.1142 134.262 68.5548 134.262 62.7597C134.262 56.9705 139.001 52.2306 144.796 52.2306C149.307 52.2306 153.067 55.0873 154.571 59.0751C157.361 56.2162 160.696 53.9449 164.378 52.395C168.06 50.845 172.015 50.0477 176.01 50.0502C179.96 50.0502 183.872 50.8285 187.521 52.3407C191.171 53.8528 194.487 56.0693 197.28 58.8634C200.073 61.6575 202.288 64.9745 203.8 68.625C205.311 72.2756 206.088 76.1881 206.088 80.1392C206.088 81.7133 205.866 83.299 205.638 84.879Z" fill="#034AD8"/>
<path d="M158.291 125.497C158.294 121.19 157.447 116.924 155.8 112.943C154.152 108.963 151.737 105.347 148.691 102.301C145.645 99.2554 142.029 96.84 138.049 95.1931C134.07 93.5462 129.804 92.7001 125.497 92.7032C121.19 92.7009 116.925 93.5477 112.946 95.1953C108.966 96.8429 105.35 99.2589 102.305 102.305C99.2601 105.352 96.8451 108.968 95.1985 112.949C93.5519 116.929 92.706 121.195 92.709 125.503C92.7067 129.81 93.5533 134.076 95.2002 138.055C96.8471 142.035 99.2622 145.652 102.307 148.697C105.353 151.743 108.968 154.158 112.947 155.805C116.926 157.452 121.191 158.299 125.497 158.297C129.804 158.3 134.07 157.454 138.049 155.807C142.029 154.16 145.645 151.745 148.691 148.699C151.737 145.654 154.152 142.037 155.8 138.057C157.447 134.077 158.294 129.811 158.291 125.503V125.497Z" fill="#034AD8"/>
</svg>
