<svg width="760" height="170" viewBox="0 0 760 170" fill="none" xmlns="http://www.w3.org/2000/svg">
<path fill-rule="evenodd" clip-rule="evenodd" d="M85.43 107.14L101.235 123.225L99.795 124.685C88.75 135.92 74.07 142.115 58.455 142.115C26.225 142.115 0 115.425 0 82.615C0 49.815 26.225 23.125 58.455 23.125C74.07 23.125 88.755 29.315 99.795 40.55L101.235 42.02L85.435 58.1L83.985 56.635C80.667 53.2228 76.6976 50.5118 72.3121 48.6626C67.9266 46.8134 63.2144 45.8638 58.455 45.87C38.55 45.87 22.345 62.355 22.345 82.62C22.345 102.88 38.545 119.37 58.455 119.37C68.105 119.37 77.17 115.545 83.99 108.605L85.43 107.14V107.14ZM236.05 40.65C225 29.35 210.28 23.125 194.62 23.125C177.35 23.125 161.15 30.625 150.03 43.945L148.715 45.56C142.98 53.21 139.315 61.56 136.345 70.395H123.495C121.675 75.705 120.13 81.205 118.555 86.83C117.805 89.49 117.055 92.165 116.265 94.845H129.155C126.875 102.54 124.255 110.26 120.535 117.595L120.305 118C113.089 131.035 101.997 141.502 88.565 147.95L98.105 168.675C113.389 161.394 126.416 150.112 135.805 136.025C135.805 136.025 138.41 132.03 140.855 127.275C145.945 117.325 150.15 103.275 153.175 92.525C155.645 83.705 157.99 75.325 161.415 68.09L162.4 66.09L162.56 65.785C163.05 64.85 163.55 63.955 164.035 63.145C170.69 52.33 182.115 45.87 194.62 45.87C204.295 45.87 213.385 49.72 220.22 56.705L221.655 58.18L235.74 43.85L235.79 43.82L237.475 42.11L236.05 40.65V40.65ZM365.02 99.08L374.27 108.325L373.43 109.165C370.258 112.35 366.486 114.875 362.332 116.594C358.178 118.313 353.725 119.192 349.23 119.18C330.355 119.18 315 103.84 315 84.99C315 66.14 330.35 50.805 349.225 50.805C353.721 50.7916 358.174 51.6698 362.328 53.3888C366.482 55.1079 370.254 57.6337 373.425 60.82L374.275 61.66L365.02 70.905L364.175 70.06C361.218 67.1089 357.453 65.0996 353.355 64.2858C349.257 63.4719 345.01 63.8898 341.15 65.4869C337.289 67.0839 333.988 69.7885 331.663 73.2595C329.338 76.7304 328.093 80.8122 328.085 84.99C328.094 89.1671 329.34 93.248 331.665 96.7182C333.991 100.188 337.291 102.892 341.151 104.49C345.01 106.087 349.257 106.506 353.354 105.694C357.451 104.881 361.217 102.874 364.175 99.925L365.02 99.08V99.08ZM397.035 72.55V98.66C397.035 103.34 400.905 107.14 405.675 107.14C410.45 107.14 414.315 103.34 414.315 98.66V72.55H397.035V72.55ZM426.85 72.55V98.66C426.85 110.135 417.37 119.435 405.675 119.435C393.985 119.435 384.505 110.135 384.505 98.66V72.55H426.85V72.55ZM452.3 117.97H440.16V51.11H452.485V77.52C454.555 74.29 459.635 71.335 466.505 71.335C480.055 71.335 487.865 81.585 487.865 95.065C487.865 108.825 479.215 119.075 466.035 119.075C459.635 119.075 454.745 116.305 452.3 112.425V117.97V117.97ZM475.35 95.16C475.35 86.845 470.27 82.32 463.875 82.32C457.565 82.32 452.3 86.845 452.3 95.16C452.3 103.375 457.565 108.085 463.875 108.085C470.275 108.085 475.35 103.47 475.35 95.16ZM510.265 117.97H497.745V72.535H510.265V117.97ZM496.24 57.665C496.24 53.415 499.725 50 503.96 50C508.285 50 511.675 53.415 511.675 57.665C511.675 61.73 508.285 65.145 503.96 65.145C499.725 65.145 496.24 61.73 496.24 57.665ZM562.235 112.365C558.545 116.73 552.68 120 544.675 120C531.035 120 520.305 109.84 520.305 95.9C520.305 81.86 530.845 71.795 544.3 71.795C552.615 71.795 558.555 75.125 562.205 79.595L553.41 87.645C551.79 85.135 549.025 83.155 544.585 83.155C538.185 83.155 532.82 87.68 532.82 95.895C532.82 104.115 538.28 108.735 544.675 108.735C548.855 108.735 551.67 106.96 553.405 104.755L562.235 112.36V112.365ZM596.835 61.265C594.105 61.265 590.34 62.465 590.34 67.545V72.535H608.785V51.11H621.3V117.97H608.785V83.06H590.34V117.97H577.73V83.06H570.015V72.535H577.73V67.36C577.73 57.11 584.32 50.46 594.575 50.46C597.21 50.46 599.75 50.925 600.785 51.385V61.73C599.497 61.391 598.167 61.2345 596.835 61.265ZM655.455 108.18C661.575 108.18 667.22 103.84 667.22 95.25C667.22 86.66 661.575 82.32 655.455 82.32C649.34 82.32 643.695 86.665 643.695 95.25C643.695 103.75 649.34 108.18 655.455 108.18ZM655.455 71.15C669.29 71.15 679.735 81.215 679.735 95.25C679.735 109.2 669.29 119.35 655.455 119.35C641.625 119.35 631.18 109.2 631.18 95.25C631.18 81.215 641.625 71.15 655.455 71.15ZM715.87 72.535H729.04L739.015 101.805L747.58 72.535H760L745.51 117.97H732.995L722.17 86.94L711.54 117.97H698.835L684.065 72.535H697.235L705.8 101.715L715.87 72.535V72.535Z" fill="black"/>
</svg>
