<svg width="591" height="173" viewBox="0 0 591 173" fill="none" xmlns="http://www.w3.org/2000/svg">
<path d="M222.139 111.2H201.164V107.528C201.164 106.589 201.593 106.033 202.449 105.86L207.449 104.916V54.9391C204.63 54.432 202.964 54.0895 202.449 53.9173C201.593 53.7479 201.164 53.1957 201.164 52.2557V48.5766H224.785C228.663 48.5766 232.095 49.0048 235.078 49.8582V49.7677C243.711 52.5944 248.029 58.6595 248.029 67.9689C248.029 73.9744 246.049 78.7022 242.087 82.1485C237.844 85.8805 232.079 87.7489 224.785 87.7489H215.867V104.792C216.516 105.018 218.196 105.375 220.899 105.86C221.725 106.033 222.139 106.589 222.139 107.528V111.2ZM215.867 55.1988V80.9083H224.785C229.49 80.9083 233.136 79.7432 235.725 77.41C238.349 75.0461 239.656 71.8741 239.656 67.89L239.566 67.7996C239.566 63.8992 238.345 60.8098 235.898 58.5287C233.504 56.3072 229.798 55.1988 224.785 55.1988H215.867ZM250.292 88.0904C250.292 85.0463 250.792 82.1975 251.791 79.5479C252.867 76.6991 254.231 74.3621 255.88 72.5351C257.654 70.6031 259.845 69.0551 262.457 67.89C264.964 66.7778 267.843 66.2217 271.094 66.2217H270.925C273.484 66.2217 275.934 66.6614 278.272 67.5484C280.546 68.397 282.466 69.6487 284.033 71.2987C285.83 73.2076 287.123 75.2867 287.919 77.5371C288.836 80.1271 289.295 82.9153 289.295 85.9103C289.295 87.2188 289.183 88.0346 288.953 88.3502C288.637 88.7745 288.104 88.989 287.363 88.989H257.981C257.981 91.6906 258.338 94.1411 259.052 96.3396C259.65 98.1551 260.631 99.8503 261.991 101.418C263.251 102.841 264.716 103.879 266.388 104.529C268.215 105.243 270.083 105.596 271.992 105.596C274.067 105.596 275.758 105.401 277.07 105.006C278.069 104.691 279.298 104.19 280.753 103.507C281.744 103.022 282.609 102.552 283.353 102.098C284.094 101.643 284.676 101.418 285.1 101.418C285.762 101.418 286.263 101.673 286.6 102.191L288.773 105.085C287.946 106.142 286.781 107.126 285.274 108.039C283.395 109.178 281.971 109.903 281.001 110.223C279.069 110.843 277.49 111.256 276.261 111.459C274.499 111.741 272.906 111.88 271.481 111.88C268.313 111.88 265.483 111.369 262.98 110.347C260.473 109.317 258.226 107.765 256.234 105.69C254.407 103.811 252.952 101.335 251.87 98.2599C250.818 95.2986 250.292 91.909 250.292 88.0904ZM258.323 84.2497H282.41C282.41 82.5698 282.139 80.9419 281.602 79.3756C280.974 77.5823 280.279 76.2555 279.512 75.3992C278.513 74.3169 277.318 73.475 275.923 72.8776C274.529 72.2868 272.92 71.9905 271.094 71.9905L271.173 71.9001C267.384 71.9001 264.453 72.9824 262.378 75.151C260.184 77.4283 258.831 80.4609 258.323 84.2497ZM314.915 111.2H294.542V107.528C294.542 106.589 294.94 106.033 295.736 105.86L300.825 104.916V73.3095C297.887 72.7717 296.192 72.4302 295.736 72.2868C294.94 72.1146 294.542 71.5547 294.542 70.6147V66.9471H305.391C306.448 66.9471 307.143 67.4724 307.485 68.525L308.165 73.3095V73.2307C312.528 68.4952 317.429 66.1274 322.867 66.1274C327.648 66.1274 331.32 67.6831 333.887 70.7879C336.393 73.8618 337.649 77.9055 337.649 82.9191V104.713C340.268 105.191 341.937 105.544 342.647 105.781C343.587 105.976 344.056 106.528 344.056 107.437V111.2H329.865V83.0471C329.865 75.9255 326.776 72.3657 320.593 72.3657C316.238 72.3657 312.209 74.4333 308.507 78.5713V104.792C308.597 104.792 310.292 105.15 313.596 105.86C314.475 106.033 314.915 106.589 314.915 107.528V111.2ZM348.157 89.1574C348.157 82.4082 349.878 76.9252 353.317 72.7082C356.876 68.27 361.574 66.0485 367.414 66.0485H367.335C372.258 66.0485 376.299 67.7996 379.459 71.2987V53.1091C376.072 52.5415 374.122 52.1961 373.608 52.0749C372.728 51.9103 372.289 51.3802 372.289 50.497V46.6562H387.148V104.713C389.914 105.221 391.61 105.574 392.241 105.781C393.063 105.946 393.477 106.472 393.477 107.359V111.2H382.627C381.575 111.2 380.875 110.644 380.526 109.527L379.808 104.19C375.674 109.204 370.717 111.711 364.937 111.711C359.788 111.711 355.718 109.791 352.723 105.95C349.679 101.928 348.157 96.3319 348.157 89.1574ZM356.176 89.1574C356.176 97.5047 358.345 102.627 362.678 104.529C364.103 105.126 365.712 105.428 367.504 105.428L367.587 105.517C372.145 105.517 376.102 103.27 379.459 98.7717V77.41C376.865 73.933 373.468 72.1973 369.255 72.1973C364.952 72.1973 361.708 73.6511 359.518 76.5605C357.293 79.4882 356.176 83.6898 356.176 89.1574ZM418.676 111.2H398.262V107.437C398.262 107.043 398.389 106.69 398.648 106.37C398.897 106.059 399.208 105.863 399.581 105.781L404.669 104.792V73.2307C401.791 72.7159 400.095 72.4004 399.581 72.2868C399.208 72.2041 398.897 72.0011 398.648 71.6855C398.389 71.3738 398.262 71.0168 398.262 70.6147V66.9471H412.347V104.792C415.174 105.329 416.842 105.66 417.35 105.781C417.717 105.863 418.033 106.059 418.289 106.37C418.549 106.69 418.676 107.043 418.676 107.437V111.2ZM402.997 53.0187C402.997 52.1393 403.143 51.4139 403.429 50.8347C403.824 50.0419 404.237 49.4329 404.669 49.0086C405.154 48.5237 405.736 48.11 406.416 47.7685C406.988 47.4827 407.684 47.3365 408.51 47.3365C409.333 47.3365 410.032 47.4827 410.6 47.7685C411.288 48.11 411.87 48.5237 412.347 49.0086C412.78 49.4329 413.193 50.0419 413.587 50.8347C413.937 51.5265 414.109 52.2519 414.109 53.0187C414.109 53.7287 413.937 54.4282 413.587 55.1084C413.246 55.7963 412.832 56.3861 412.347 56.871C411.87 57.3482 411.288 57.758 410.6 58.1073C410.032 58.3892 409.333 58.5287 408.51 58.5287C407.684 58.5287 406.988 58.3892 406.416 58.1073C405.736 57.758 405.154 57.3482 404.669 56.871C404.184 56.3861 403.771 55.7963 403.429 55.1084C403.143 54.5407 402.997 53.8413 402.997 53.0187ZM421.664 115.379C421.664 113.245 422.378 111.38 423.803 109.791C425.227 108.194 427.146 106.968 429.572 106.118C428.286 105.604 427.287 104.822 426.572 103.77C425.84 102.717 425.471 101.406 425.471 99.8387C425.471 99.4664 425.583 98.8276 425.813 97.9184C425.978 97.2045 426.321 96.505 426.835 95.8171C427.349 95.1331 427.963 94.4836 428.677 93.8631C428.789 93.739 429.613 93.2242 431.152 92.3189C428.955 91.0672 427.234 89.4326 425.981 87.4102C424.757 85.4187 424.139 83.0547 424.139 80.3185C424.139 78.0412 424.538 76.09 425.334 74.467C426.189 72.6967 427.362 71.2006 428.846 69.9797C430.293 68.7848 432.097 67.8304 434.266 67.1155C436.257 66.4584 438.505 66.1274 441.015 66.1274L440.842 66.3006C442.751 66.3006 444.532 66.5142 446.182 66.9471C447.75 67.3493 449.26 67.9881 450.715 68.8675H462.806V71.7307C462.806 72.7005 462.189 73.3134 460.964 73.5684L455.965 74.2976C456.905 75.9698 457.375 78.0633 457.375 80.5706C457.375 82.795 456.961 84.7461 456.134 86.4221C455.225 88.2973 454.101 89.7934 452.759 90.9094C451.17 92.2169 449.422 93.2021 447.513 93.8631C445.573 94.5135 443.349 94.8406 440.842 94.8406C438.767 94.8406 436.817 94.5808 434.99 94.0661C434.197 94.551 433.499 95.1937 432.901 95.998C432.416 96.6484 432.176 97.2911 432.176 97.9184C432.176 99.0007 432.585 99.782 433.412 100.26C434.434 100.887 435.577 101.274 436.833 101.418C438.712 101.643 440.305 101.759 441.616 101.759C442.781 101.759 444.589 101.872 447.036 102.098C450.058 102.386 451.868 102.586 452.467 102.703C454.199 103.041 455.811 103.567 457.296 104.281C458.603 104.909 459.746 105.935 460.712 107.359C461.539 108.554 461.952 110.193 461.952 112.267C461.952 114.319 461.479 116.187 460.531 117.867C459.652 119.426 458.242 120.994 456.308 122.561C454.601 123.933 452.455 125.041 449.861 125.891C447.355 126.714 444.435 127.127 441.105 127.127C437.712 127.127 434.848 126.8 432.514 126.15C430.037 125.47 428.03 124.601 426.492 123.55C424.874 122.437 423.675 121.182 422.904 119.787C422.078 118.273 421.664 116.804 421.664 115.379ZM428.582 114.699C428.582 115.638 428.857 116.567 429.402 117.484C429.939 118.389 430.721 119.13 431.743 119.698C432.916 120.355 434.227 120.84 435.674 121.151C437.385 121.524 439.252 121.708 441.275 121.708C442.925 121.708 444.788 121.498 446.863 121.072C448.378 120.753 449.79 120.212 451.103 119.449C452.237 118.758 453.106 117.931 453.703 116.973C454.356 115.887 454.68 114.83 454.68 113.801H454.77C454.77 112.748 454.473 111.88 453.875 111.2C453.244 110.485 452.406 109.96 451.354 109.621C450.245 109.249 449.05 108.99 447.761 108.847C445.461 108.565 443.995 108.411 443.364 108.381C442.849 108.351 442.089 108.321 441.082 108.291C440.068 108.269 439.29 108.242 438.753 108.212C438.44 108.182 436.945 108.009 434.266 107.701C432.612 108.464 431.248 109.43 430.165 110.599C429.108 111.741 428.582 113.109 428.582 114.699ZM431.323 80.8294C431.323 82.0811 431.548 83.276 432.003 84.419C432.488 85.6399 433.1 86.5799 433.844 87.237C434.784 88.0645 435.806 88.6735 436.911 89.0679C438.079 89.4701 439.418 89.6692 440.932 89.6692V89.8376C442.409 89.8376 443.804 89.6125 445.115 89.1574C446.228 88.7562 447.254 88.1434 448.193 87.3159C449.05 86.553 449.662 85.588 450.035 84.419C450.429 83.1635 450.624 81.9685 450.624 80.8294C450.624 78.1278 449.783 75.9736 448.103 74.3765C446.431 72.7871 444.041 71.9905 440.932 71.9905C437.828 71.9905 435.434 72.7871 433.754 74.3765C432.135 75.914 431.323 78.0672 431.323 80.8294ZM488.264 111.2H467.837V107.437C467.837 107.043 467.965 106.69 468.224 106.37C468.48 106.059 468.796 105.863 469.168 105.781L474.245 104.792V73.2307C471.374 72.7159 469.683 72.4004 469.168 72.2868C468.796 72.2041 468.48 72.0011 468.224 71.6855C467.965 71.3738 467.837 71.0168 467.837 70.6147V66.9471H481.938V104.792C484.753 105.329 486.422 105.66 486.937 105.781C487.305 105.863 487.621 106.059 487.88 106.37C488.136 106.69 488.264 107.043 488.264 107.437V111.2ZM472.588 53.0187C472.588 52.1393 472.727 51.4139 473.005 50.8347C473.407 50.0419 473.821 49.4329 474.245 49.0086C474.73 48.5237 475.317 48.11 476.008 47.7685C476.575 47.4827 477.271 47.3365 478.097 47.3365C478.921 47.3365 479.619 47.4827 480.187 47.7685C480.867 48.11 481.453 48.5237 481.938 49.0086C482.367 49.4329 482.78 50.0419 483.174 50.8347C483.517 51.5265 483.686 52.2519 483.686 53.0187C483.686 53.7287 483.517 54.4282 483.174 55.1084C482.833 55.7963 482.423 56.3861 481.938 56.871C481.453 57.3482 480.867 57.758 480.187 58.1073C479.619 58.3892 478.921 58.5287 478.097 58.5287C477.271 58.5287 476.575 58.3892 476.008 58.1073C475.317 57.758 474.73 57.3482 474.245 56.871C473.76 56.3861 473.347 55.7963 473.005 55.1084C472.727 54.5407 472.588 53.8413 472.588 53.0187ZM491.549 71.7307V68.6982L498.809 67.7207L500.557 54.0068C500.557 53.5527 500.73 53.1957 501.068 52.9398C501.387 52.7108 501.805 52.5973 502.319 52.5973H506.239V67.7996H518.931V73.4789H506.239V100.087C506.239 102.026 506.667 103.425 507.521 104.281C508.408 105.16 509.606 105.596 511.114 105.596C511.794 105.596 512.538 105.483 513.338 105.258C513.763 105.146 514.275 104.901 514.872 104.529C514.988 104.476 515.165 104.364 515.405 104.19C515.649 104.022 515.826 103.909 515.939 103.849C516.394 103.62 516.68 103.507 516.792 103.507C517.195 103.507 517.552 103.736 517.859 104.19L520.122 107.87C518.532 109.265 516.909 110.26 515.259 110.858C513.32 111.538 511.355 111.88 509.362 111.88C505.969 111.88 503.293 110.899 501.331 108.937C499.451 107.058 498.512 104.255 498.512 100.519V73.4H493.217C492.702 73.4 492.292 73.2865 491.981 73.0575C491.691 72.8545 491.549 72.4109 491.549 71.7307ZM524.223 100.008C524.223 98.1291 524.692 96.4377 525.631 94.9301C526.662 93.2993 528.243 91.8484 530.382 90.5669C532.746 89.1728 535.534 88.1203 538.755 87.4102C542.255 86.6357 546.509 86.249 551.526 86.249V82.8402C551.526 79.3641 550.77 76.7443 549.264 74.9779C547.718 73.1854 545.524 72.2868 542.687 72.2868C540.83 72.2868 539.233 72.5428 537.891 73.0575C536.557 73.5645 535.449 74.0946 534.562 74.6401C532.941 75.6022 532.088 76.1276 532.005 76.218C531.408 76.6731 530.735 76.8982 529.995 76.8982C529.397 76.8982 528.943 76.7856 528.631 76.5605C528.229 76.2709 527.932 75.914 527.733 75.4887L526.327 73.0575C528.574 70.8629 531.205 69.108 534.223 67.7996C536.873 66.6306 540.019 66.0485 543.664 66.0485C546.223 66.0485 548.429 66.4622 550.285 67.2887C552.217 68.1421 553.826 69.2543 555.115 70.6147C556.427 72.0088 557.422 73.7637 558.102 75.8765C558.731 77.7853 559.046 80.0482 559.046 82.6603V104.792C561.606 105.329 563.071 105.66 563.443 105.781V105.596C563.815 105.69 564.12 105.889 564.364 106.201C564.604 106.51 564.725 106.867 564.725 107.269V111.027H555.626C555.081 111.027 554.469 110.915 553.785 110.688C553.412 110.576 553.13 110.106 552.935 109.28L552.037 105.085C551.375 105.634 550.21 106.585 548.538 107.949C547.392 108.866 546.238 109.561 545.073 110.039C543.596 110.67 542.3 111.114 541.187 111.369C540.019 111.658 538.451 111.802 536.482 111.802C534.832 111.802 533.253 111.542 531.747 111.027C529.98 110.43 528.669 109.734 527.815 108.937C526.759 107.968 525.895 106.743 525.211 105.258C524.553 103.833 524.223 102.082 524.223 100.008ZM531.573 99.6656C531.573 100.576 531.788 101.556 532.208 102.609C532.581 103.496 533.095 104.198 533.757 104.713C534.437 105.221 535.208 105.6 536.061 105.86C537.001 106.149 537.955 106.292 538.925 106.292C540.09 106.292 541.315 106.149 542.596 105.86C543.649 105.634 544.731 105.251 545.843 104.713C546.671 104.311 547.636 103.669 548.741 102.782C549.317 102.327 550.188 101.515 551.353 100.35V91.2471C547.568 91.2471 544.532 91.4501 542.255 91.8523C540.173 92.2208 538.132 92.8336 536.139 93.6793C534.46 94.3932 533.295 95.2803 532.641 96.3396C531.93 97.445 531.573 98.5534 531.573 99.6656ZM590.266 111.2H569.806V107.437C569.806 106.498 570.261 105.946 571.166 105.781L576.086 104.792V53.1091C573.376 52.6242 571.737 52.2779 571.166 52.0749C570.261 51.9103 569.806 51.3802 569.806 50.497V46.7457H583.937V104.713C586.443 105.168 588.086 105.521 588.856 105.781C589.796 105.976 590.266 106.528 590.266 107.437V111.2Z" fill="#1C1018"/>
<path d="M172.129 172.382H86.4145V168.198H167.945V5.13637H4.88344V86.6674H0.700195V0.953125H172.129V172.382Z" fill="#1C1018"/>
<path d="M82.8401 136.434H52.3345V131.095C52.3345 129.723 52.955 128.915 54.199 128.662L61.4668 127.298V54.6109C57.3634 53.8585 54.9389 53.3592 54.199 53.111C52.955 52.8666 52.3345 52.0623 52.3345 50.6903V45.3506H86.6923C92.3264 45.3506 97.3169 45.9702 101.666 47.2142V47.0901C114.214 51.1868 120.49 60.0112 120.49 73.5596C120.49 82.3013 117.612 89.1747 111.857 94.1805C105.682 99.6116 97.2948 102.329 86.6923 102.329H73.7039V127.118C74.6583 127.445 77.1011 127.96 81.0323 128.662C82.2387 128.915 82.8401 129.723 82.8401 131.095V136.434ZM73.7039 54.9746V92.3842H86.6923C93.5214 92.3842 98.8236 90.6861 102.597 87.2851C106.408 83.8455 108.31 79.2303 108.31 73.4355L108.186 73.3114C108.186 67.6369 106.408 63.1419 102.845 59.8236C99.3691 56.5909 93.9832 54.9746 86.6923 54.9746H73.7039Z" fill="#1C1018"/>
</svg>
