<svg width="292" height="144" viewBox="0 0 292 144" fill="none" xmlns="http://www.w3.org/2000/svg">
<path d="M116.428 53.2215C116.715 53.2781 116.944 53.3349 117.23 53.3349C118.777 53.3349 120.21 52.2579 120.554 50.7275C121.012 48.9137 119.866 47.0433 117.975 46.6465C117.689 46.5899 110.584 44.9461 95.2273 44.2659C94.9981 44.2659 94.7689 44.2659 94.4825 44.2093C95.5139 38.1445 96.3733 31.3995 97.0609 23.9742C110.412 25.8448 118.663 26.6382 122.158 25.6746C126.055 24.5978 128.748 22.614 130.066 19.7233C131.613 16.4924 131.269 12.4115 129.034 7.53693C128.232 5.8365 126.226 5.04298 124.507 5.8365C122.788 6.63002 121.986 8.61385 122.788 10.3143C124.106 13.205 124.45 15.5289 123.82 16.8326C123.361 17.7961 122.158 18.5896 120.267 19.0998C116.543 20.12 95.9723 17.0026 79.4699 14.452C55.4613 10.7677 30.6503 6.9701 21.3679 8.78389C11.5122 10.711 3.20372 17.6828 0.739838 26.0714C-1.32296 33.0433 0.969038 40.0149 7.10012 45.7397C7.78772 46.3631 8.58992 46.6465 9.44942 46.6465C10.3662 46.6465 11.283 46.3065 11.9706 45.5697C13.2885 44.2093 13.1739 42.0555 11.7987 40.7517C7.55852 36.8409 6.01142 32.4197 7.32932 27.942C9.04832 21.9904 15.4086 16.8892 22.7431 15.4722C30.8795 13.8851 57.2375 17.9662 78.4957 21.197C82.7359 21.8204 86.6897 22.4438 90.2995 22.954C89.6119 30.7192 88.6951 37.7477 87.6065 43.9825C75.5735 43.7559 65.6033 44.2093 65.4887 44.2093C63.5979 44.3227 62.1081 45.9097 62.2227 47.7801C62.3373 49.6507 63.9417 51.1243 65.8325 51.0109C65.9471 51.0109 75.0577 50.6141 86.2885 50.7843C84.0539 61.1001 81.1889 68.8088 77.6935 73.6832C67.3223 88.3068 51.8513 84.906 47.3819 83.489C37.9275 80.5416 31.0515 73.4566 31.0515 66.6548C31.0515 64.7843 29.5043 63.2539 27.6135 63.2539C25.7227 63.2539 24.1755 64.7843 24.1755 66.6548C24.1755 76.4606 32.8851 86.0396 45.3191 89.9506C48.6999 91.0274 52.4243 91.651 56.3207 91.651C65.7179 91.651 75.9173 87.9668 83.3089 77.5942C87.4919 71.6994 90.8153 62.9139 93.2791 50.9543C93.8521 50.9543 94.4251 51.0109 94.9409 51.0109C109.552 51.6911 116.371 53.2215 116.428 53.2215V53.2215Z" fill="black"/>
<path d="M291.994 80.8248C292.052 78.9544 290.562 77.3674 288.672 77.3106C286.78 77.254 285.176 78.7276 285.118 80.598C285.062 83.1488 283.744 85.6426 281.68 88.1366C281.05 81.0516 280.076 73.003 278.816 63.764C278.586 61.9502 276.868 60.6466 275.034 60.8732C273.2 61.1 271.826 62.687 271.998 64.5008C272.8 74.1366 270.852 80.258 266.21 82.6386C264.606 83.4888 262.314 84.1122 260.25 82.4118C257.902 80.4848 256.354 75.7236 258.246 69.432C258.646 68.6386 259.048 67.7882 259.448 66.8814C260.25 65.181 259.506 63.1404 257.786 62.347C256.068 61.5534 254.006 62.2902 253.202 63.9906C245.18 81.0516 241.4 80.9382 241.4 80.9382C241.4 80.9382 239.566 80.4848 237.502 73.5698C236.988 71.8126 236.528 69.8288 236.07 67.845C236.242 67.6182 236.414 67.3916 236.586 67.1648C242.888 56.1688 247.014 42.0553 247.816 28.3385C248.218 21.8769 248.276 6.2331 240.884 1.18852C238.706 -0.285177 236.3 -0.398539 234.236 0.905117C232.804 1.75533 228.506 4.41931 226.73 23.8041C225.814 34.2901 225.928 46.4763 227.132 55.5454C227.648 59.343 228.162 62.8004 228.736 66.0312C227.762 67.9584 225.814 70.9058 222.09 74.76C218.48 78.4442 216.416 79.9746 215.328 80.598C215.098 78.3308 215.614 73.7964 215.958 70.849C216.874 63.0272 217.62 56.849 213.322 54.8652C209.598 53.1647 205.53 56.2254 200.658 61.44C197.679 64.6142 195.158 68.4684 193.095 72.0394L199.57 57.6424C205.128 45.3427 207.478 18.5328 199.112 8.16024C196.648 5.09949 194.184 5.3829 192.924 5.83634C189.657 6.96994 187.423 11.051 186.391 27.7717C185.933 35.3669 185.761 44.9459 185.876 56.2822C185.933 59.683 185.933 62.9704 185.933 66.0878C178.312 78.6142 172.525 81.845 169.889 80.7114C166.68 79.3512 165.018 71.8692 166.68 66.428C168.113 61.7234 170.405 60.8732 171.092 60.76C171.78 60.5898 172.41 60.76 172.811 61.2134C173.384 61.8368 173.442 62.9704 172.926 64.2742C172.296 66.0312 173.212 68.015 174.989 68.6386C176.765 69.262 178.77 68.3552 179.401 66.598C180.719 62.857 180.203 59.2862 177.968 56.7356C175.905 54.4118 172.754 53.4481 169.602 54.0715C165.362 54.9786 161.982 58.606 160.205 63.9906C160.148 64.1608 160.033 64.2742 159.976 64.4442C154.704 78.1042 150.407 81.2216 148.631 80.8814C146.625 80.5414 144.047 76.347 142.442 69.4888C144.276 65.7478 145.938 61.44 147.771 56.4522C149.089 52.7111 150.636 44.9459 150.292 37.5775H175.734C177.624 37.5775 179.172 36.0471 179.172 34.1767C179.172 32.3063 177.624 30.7759 175.734 30.7759H149.376C148.745 28.2253 147.714 25.9579 146.224 24.2575C143.703 21.3669 141.182 21.9337 140.15 22.2737C137.744 23.1807 136.254 25.6745 135.337 30.7759H119.293C117.402 30.7759 115.855 32.3063 115.855 34.1767C115.855 36.0471 117.402 37.5775 119.293 37.5775H134.42C133.905 43.6989 133.847 50.5007 133.847 55.3186C133.905 59.7964 134.306 64.3308 135.108 68.5818C132.186 73.9664 128.92 77.5374 124.221 79.9746C122.617 80.8248 120.325 81.4482 118.262 79.7478C118.147 79.6346 118.033 79.5778 117.918 79.4644C122.96 77.594 126.685 73.343 129.091 66.768C130.409 63.0272 129.894 59.4562 127.659 56.9056C125.596 54.5817 122.445 53.6181 119.293 54.2416C114.938 55.1486 111.5 58.9462 109.724 64.6142C107.203 72.8328 108.807 80.8248 113.907 84.9624C117.689 88.0232 122.731 88.42 127.487 85.926C131.613 83.7722 134.879 80.9382 137.629 77.3106C139.864 82.8086 143.073 86.7762 147.37 87.5132C147.886 87.6264 148.402 87.6264 148.917 87.6264C152.928 87.6264 156.767 84.7924 160.377 79.0678C161.695 82.582 163.872 85.416 167.081 86.7762C168.227 87.2864 169.488 87.5698 170.92 87.5698C174.817 87.5698 179.802 85.3026 185.818 77.9342V83.7722C185.818 86.4362 186.792 88.08 188.798 88.5334C189.084 88.59 189.371 88.6468 189.657 88.6468C191.892 88.6468 193.095 86.4928 193.554 85.756C194.069 84.9058 194.642 83.7156 195.33 82.2986C197.622 77.7074 201.06 70.7924 205.644 65.9178C207.592 63.8774 208.91 62.687 209.826 62.0068C209.826 64.2174 209.426 67.6182 209.14 69.8854C208.166 77.934 207.364 84.9058 212.062 87.1164C215.672 88.8168 220.026 86.5496 227.074 79.2944C228.564 77.764 229.768 76.347 230.856 75.0434C233.034 82.4118 235.898 86.833 240.426 87.5132C240.826 87.5698 241.228 87.6264 241.572 87.6264C244.838 87.6264 248.046 85.4726 251.542 80.8248C252.4 83.4888 253.89 85.8126 255.954 87.5132C259.736 90.5738 264.778 90.9707 269.534 88.4766C271.538 87.4564 273.2 86.0394 274.576 84.339C274.92 87.8532 275.206 91.084 275.492 94.0881C273.888 95.4485 272.17 96.8655 270.392 98.2825C262.142 104.971 252.744 112.509 250.108 122.655C248.276 129.627 251.828 138.016 258.188 141.757C260.422 143.06 262.772 143.684 265.122 143.684C268.96 143.684 272.914 141.983 276.524 138.696C280.306 135.238 284.488 126.906 282.54 96.9789C287.754 92.3311 291.766 87.173 291.994 80.8248V80.8248ZM116.314 66.8248C117.746 62.1202 120.038 61.27 120.726 61.1566C120.898 61.1 121.069 61.1 121.241 61.1C121.757 61.1 122.215 61.27 122.502 61.6102C123.075 62.2336 123.132 63.3672 122.617 64.6708C120.955 69.3186 118.606 72.1526 115.454 73.2864C115.339 71.4158 115.569 69.2054 116.314 66.8248V66.8248ZM141.182 54.2983C141.01 54.7517 140.895 55.1486 140.723 55.602C140.723 55.5454 140.723 55.4886 140.723 55.432C140.666 47.8933 140.895 42.0553 141.296 37.7475H143.302C143.531 43.4155 142.672 50.2173 141.182 54.2983V54.2983ZM194.872 14.4518C199.284 23.2941 197.966 44.4925 193.21 54.9786L192.637 56.2254C192.35 29.2455 193.84 18.5895 194.872 14.4518ZM233.434 24.8811C234.408 13.6016 236.3 8.78372 237.33 7.25334C239.28 9.18049 241.628 15.8688 240.884 28.0551C240.31 37.9175 237.904 48.0067 234.122 56.7356C234.008 56.0554 233.95 55.3752 233.836 54.7517C232.746 46.2497 232.574 34.8001 233.434 24.8811V24.8811ZM271.654 133.991C269.19 136.259 265.408 138.469 261.512 136.202C257.844 134.048 255.494 128.607 256.526 124.639C258.59 116.647 266.668 110.129 274.518 103.837C274.92 103.497 275.378 103.157 275.78 102.817C276.81 124.922 274.002 131.894 271.654 133.991V133.991Z" fill="black"/>
</svg>
