<svg fill="none" height="70.249725" viewBox="0 0 213.39999 70.249725" width="213.39999" xmlns="http://www.w3.org/2000/svg" xmlns:xlink="http://www.w3.org/1999/xlink"><clipPath id="a"><path d="m0 0h213.39999v70.279999h-213.39999z"/></clipPath><g clip-path="url(#a)" fill="#000" transform="translate(0 -.030273)"><path d="m83.06 9.41978c.004-.56196.174-1.1102.4887-1.5758.3146-.46561.7599-.82779 1.2799-1.04101.5199-.21323 1.0913-.26798 1.6423-.15738.5509.1106 1.0569.38163 1.4543.779s.6684.90335.779 1.45433c.1106.55097.0559 1.12238-.1574 1.64228-.2132.52-.5754.9653-1.041 1.2799-.4656.3147-1.0138.4847-1.5758.4887-.3772.0013-.751-.072-1.0999-.2158-.3488-.1438-.6657-.3551-.9324-.6219-.2668-.2668-.4781-.5837-.6219-.9325s-.2171-.72256-.2158-1.09982zm5 30.00002h-4.28v-23h4.28z"/><path d="m102.98 19.0298h.08c.385-.9087 1.034-1.6807 1.863-2.2157s1.8-.8083 2.787-.7843c4.56 0 4.7 4.05 4.7 7.56v15.82h-4.29v-15.91c0-1.59-.27-3.64-2.55-3.64-2.82 0-2.6 3.23-2.6 5.19v14.36h-4.28v-23h4.28z"/><path d="m131.79 21.0901c-.897-.7532-2.02-1.1859-3.19-1.23-1.6 0-2.92.91-2.92 2.46.09 3.87 7.2 4.05 7.2 10.62 0 4.06-2.51 6.84-6.61 6.84-1.331.0311-2.638-.3534-3.74-1.1v-4.19c.963.895 2.216 1.4133 3.53 1.46.39.0347.783-.0175 1.15-.1527.368-.1352.7-.3501.975-.6293.274-.2792.483-.6158.612-.9854.129-.3697.174-.7633.133-1.1526 0-4.06-7.2-4.33-7.2-10.71-.04-.8248.09-1.649.383-2.421.293-.7721.742-1.4753 1.32-2.0657.577-.5905 1.27-1.0554 2.035-1.3657s1.587-.4593 2.412-.4376c1.362-.0439 2.709.3031 3.88 1z"/><path d="m141.72 9.41996c.016-.7489.326-1.46148.863-1.98361s1.258-.81181 2.007-.80639c.564.00397 1.113.17499 1.58.49144.466.31645.829.76411 1.041 1.28637.212.52227.264 1.09569.15 1.64773-.114.5521-.389 1.058-.79 1.4537-.401.3958-.911.6637-1.465.7698-.553.106-1.126.0456-1.645-.1738-.519-.2193-.962-.5877-1.272-1.0586-.31-.4708-.473-1.023-.469-1.58664zm5 30.00004h-4.29v-23h4.29z"/><path d="m170.84 39.6296c0 8.21-2.46 9.62-7 9.62-4.15 0-6.79-2.37-6.79-6.65v-.64h4.15c-.09 1.64.59 3.46 2.73 3.46 2.87 0 2.6-2.78 2.6-4.87v-3.87h-.09c-.21.9161-.736 1.7288-1.486 2.2957-.75.5668-1.675.8516-2.614.8043-5.47 0-5.61-7.8-5.61-11.72 0-3.69-.09-12 5.51-12 2.28 0 3.29 1.27 4.2 3.1l.09-.1v-2.67h4.33zm-7.06-19.73c-3 0-2.69 6.29-2.69 7.93s-.28 8.16 2.82 8.16 2.65-6.07 2.65-7.93 0-8.2-2.78-8.2z"/><path d="m185.83 1.57031v17.45999h.09c.384-.9095 1.033-1.6823 1.862-2.2175.83-.5351 1.801-.8078 2.788-.7825 4.61 0 4.7 4.05 4.7 7.56v15.82h-4.29v-15.91c0-1.59-.27-3.64-2.55-3.64-2.83 0-2.6 3.23-2.6 5.19v14.36h-4.28v-37.83999z"/><path d="m211.12 9.87012v6.51998h2.28v3.37h-2.28v19.65h-4.28v-19.65h-2.33v-3.37h2.33v-6.51998z"/><path d="m88.44 56.8402c-.1079-.1674-.2558-.3054-.4304-.4014-.1746-.0961-.3703-.1471-.5696-.1486-1.86 0-1.91 2.62-1.91 3.86s0 4.07 1.87 4.07c.4081-.0073.7995-.1638 1.1-.44v2c-.5295.3124-1.1353.4717-1.75.46-3 0-3.42-3.58-3.42-5.88s.27-6.09 3.45-6.09c.5965-.0117 1.1869.1222 1.72.39z"/><path d="m95.56 55.8802c.1985-.4944.5457-.9149.9935-1.2033.4479-.2885.9743-.4306 1.5065-.4067v2.14h-.36c-1.61 0-2.12.9-2.12 2.37v7.31h-2.18v-11.64h2.16z"/><path d="m104.84 60.6795c0 1-.05 3.63 1.36 3.63 1.15 0 1.35-1.26 1.35-2.16h2c0 2.14-.94 4.09-3.38 4.09-3.24 0-3.54-3.44-3.54-5.9s.28-6.07 3.47-6.07 3.52 3.68 3.52 6.07v.34zm2.57-1.54c0-.89 0-2.94-1.31-2.94s-1.26 2.05-1.26 2.94z"/><path d="m119.25 64.5695h-.05c-.44 1-.9 1.67-2.14 1.67-2.69 0-2.73-4.25-2.73-6.13s.07-5.84 2.8-5.84c.453.0068.894.151 1.263.4134.37.2625.651.6309.807 1.0566h.05v-1.29h2.16v11.61h-2.16zm.06-4.33c0-.91.1-4-1.35-4-1.61 0-1.43 3.1-1.43 4s-.18 4.07 1.43 4.07c1.45 0 1.35-3.15 1.35-4.07z"/><path d="m129.4 51.1699v3.28h1.15v1.7h-1.15v9.91h-2.16v-9.91h-1.18v-1.7h1.17v-3.28z"/><path d="m134.91 50.9397c.002-.2839.088-.5609.247-.7962s.384-.4183.647-.526c.262-.1078.551-.1355.829-.0796.279.0559.534.1929.735.3936.201.2008.338.4565.394.7349s.028.5671-.08.8298c-.107.2627-.29.4877-.526.6467-.235.159-.512.2449-.796.2468-.385 0-.753-.1527-1.025-.4247-.272-.2719-.425-.6407-.425-1.0253zm2.51 15.12h-2.16v-11.61h2.16z"/><path d="m144.4 54.4502 1.56 8.78.07-.69.85-4.69.71-3.4h2.09l-3.06 11.61h-1.42l-3.14-11.61z"/><path d="m156.3 60.6795c0 1-.05 3.63 1.36 3.63 1.14 0 1.35-1.26 1.35-2.16h2c0 2.14-.94 4.09-3.38 4.09-3.24 0-3.54-3.44-3.54-5.9s.28-6.07 3.47-6.07 3.5 3.68 3.5 6.07v.34zm2.57-1.54c0-.89 0-2.94-1.31-2.94s-1.26 2.05-1.26 2.94z"/><path d="m167.53 64.1999-2.23 6.09-1.17-.32 1.54-6.34z"/><path d="m178.99 50.9402c.03-.3599.194-.6954.46-.9399s.614-.3802.975-.3802.709.1357.975.3802.43.58.46.9399c.017.1985-.008.3983-.073.5868-.064.1884-.167.3614-.302.508s-.299.2637-.481.3437c-.183.0801-.38.1214-.579.1214s-.396-.0413-.579-.1214c-.182-.08-.346-.1971-.481-.3437s-.238-.3196-.302-.508c-.065-.1885-.09-.3883-.073-.5868zm2.5 15.12h-2.16v-11.61h2.16z"/><path d="m189.06 55.7896c.189-.4613.514-.854.932-1.1256.419-.2716.91-.4092 1.408-.3944 2.3 0 2.37 2 2.37 3.81v8h-2.16v-8c0-.81-.14-1.84-1.29-1.84-1.42 0-1.31 1.63-1.31 2.62v7.24h-2.16v-11.65h2.21z"/><path d="m204.06 56.8397h-.05c-.106-.1694-.253-.3089-.428-.4052s-.372-.1461-.572-.1448c-1.86 0-1.9 2.62-1.9 3.86s0 4.07 1.86 4.07c.409-.0054.8-.1622 1.1-.44v2c-.529.3124-1.135.4717-1.75.46-3.05 0-3.42-3.58-3.42-5.88s.28-6.09 3.45-6.09c.591-.0202 1.178.1033 1.71.36z"/><path d="m208.97 64.8405c.004-.2721.088-.5369.242-.7612s.371-.398.624-.4994c.252-.1014.529-.1259.795-.0704.267.0555.511.1884.702.3822s.32.4397.372.7068c.051.2672.023.5436-.082.7946s-.282.4653-.508.6161c-.227.1508-.493.2312-.765.2313-.183-.0013-.363-.0386-.531-.1097-.168-.071-.321-.1745-.449-.3045s-.229-.284-.298-.4531c-.069-.1692-.103-.3502-.102-.5327z"/><path d="m70.19 34.6303c0 25.09-22.29 33-22.29 33l-.07-10h-31.2v3.61s4 .59 6 2.06c.813.6194 1.4602 1.43 1.8842 2.3599.4239.93.6114 1.9502.5458 2.9701-13.14-3.36-24.9999832-17-25.05998319-33.6-.06000001-16.6 13.38998319-34.9999746 34.99998319-34.9999746 16.58-.02999995 35.19 12.9199746 35.19 34.5999746zm-35-15.39c-3.1423-.0039-6.2152.9239-8.8303 2.6662s-4.6549 4.2208-5.8615 7.1222-1.5259 6.0955-.9174 9.1783c.6084 3.0829 2.1172 5.9161 4.3357 8.1416 2.2184 2.2254 5.0469 3.7431 8.1278 4.3612 3.0809.6182 6.276.3089 9.1812-.8885 2.9052-1.1975 5.3901-3.2295 7.1406-5.8391s2.688-5.6796 2.6939-8.8219c0-4.2125-1.6727-8.2527-4.6505-11.2324-2.9778-2.9796-7.0169-4.6549-11.2295-4.6576z"/></g></svg>