<svg width="296" height="77" viewBox="0 0 296 77" fill="none" xmlns="http://www.w3.org/2000/svg">
<path fill-rule="evenodd" clip-rule="evenodd" d="M2.80005 0.700195V73.6002H75.7V0.700195H2.80005ZM38.8 54.4002L33.1 40.7002H30.2001L35.8 54.4002H22.5L29.3 38.4002H32.1L30.8 35.1002L36 22.5002H45.6L59.3 54.4002H38.8Z" fill="black"/>
<path d="M108.2 55.7996C107.9 55.9996 107.2 56.0996 106.3 56.0996C105.4 56.0996 104.7 55.9996 104.5 55.8996C104.2 55.6996 104 55.5996 104 55.4996C104 55.3996 103.9 54.8996 103.8 53.7996C103.7 52.6996 103.5 51.4996 103.4 50.1996C103.2 48.8996 103.1 47.6996 103 46.5996C102.9 45.4996 102.8 44.8996 102.8 44.6996C102.7 44.2996 102.6 44.0996 102.2 44.0996H94.3C93.9 44.0996 93.6 44.2996 93.6 44.5996C93.6 44.6996 93.5 45.2996 93.4 46.3996C93.2 47.4996 93.1 48.6996 92.9 49.9996C92.7 51.2996 92.6 52.4996 92.5 53.6996C92.4 54.7996 92.3 55.3996 92.3 55.4996C92.2 55.6996 92.1 55.7996 91.8 55.9996C91.5 56.1996 90.8 56.1996 89.8 56.1996C88.8 56.1996 88.1 56.0996 87.8 55.9996C87.5 55.8996 87.4 55.6996 87.5 55.5996C87.5 55.4996 87.6 54.7996 87.7 53.2996C87.9 51.7996 88.1 49.8996 88.4 47.4996C88.7 45.0996 89 42.3996 89.3 39.2996C89.6 36.1996 90 33.0996 90.4 29.8996C90.8 26.6996 91.1 23.4996 91.5 20.4996C91.9 17.3996 92.2 14.6996 92.4 12.1996C92.7 9.79961 92.9 7.79961 93.1 6.29961C93.3 4.79961 93.4 3.99961 93.4 3.89961C93.5 2.99961 93.9 2.29961 94.5 1.69961C95 0.999609 96.2 0.699609 98 0.699609C99.8 0.699609 101.1 0.999609 101.7 1.59961C102.4 2.19961 102.7 2.89961 102.8 3.59961C102.8 3.69961 102.9 4.49961 103.1 6.09961C103.3 7.59961 103.5 9.59961 103.8 12.0996C104.1 14.4996 104.4 17.2996 104.7 20.3996C105 23.4996 105.4 26.5996 105.8 29.7996C106.2 32.9996 106.5 36.0996 106.9 39.1996C107.2 42.2996 107.5 44.9996 107.8 47.3996C108.1 49.7996 108.3 51.7996 108.4 53.1996C108.6 54.6996 108.6 55.3996 108.6 55.4996C108.7 55.4996 108.5 55.5996 108.2 55.7996ZM101.9 39.0996C101.9 38.9996 101.8 38.3996 101.7 37.1996C101.5 35.9996 101.3 34.3996 101.1 32.3996C100.9 30.4996 100.6 28.2996 100.3 25.9996C100 23.5996 99.7 21.2996 99.4 19.0996C99.1 16.7996 98.9 14.7996 98.7 12.8996C98.5 10.9996 98.3 9.59961 98.2 8.59961C98.1 8.19961 98.1 7.99961 98 7.99961C98 7.99961 98 8.19961 97.9 8.49961C97.8 9.49961 97.6 10.8996 97.4 12.7996C97.2 14.6996 96.9 16.7996 96.7 18.9996C96.4 21.2996 96.1 23.5996 95.8 25.8996C95.5 28.2996 95.2 30.3996 95 32.2996C94.8 34.1996 94.6 35.7996 94.4 37.0996C94.2 38.3996 94.2 38.9996 94.2 39.0996C94.2 39.5996 94.4 39.7996 94.7 39.7996H101.5C101.9 39.8996 102 39.5996 101.9 39.0996ZM127.3 44.1996C127.7 43.9996 128.3 43.7996 129 43.7996C129.7 43.7996 130.3 43.8996 130.8 44.0996C131.3 44.2996 131.5 44.4996 131.5 44.6996V49.0996C131.5 51.4996 130.9 53.0996 129.7 54.0996C128.5 55.0996 126.8 55.5996 124.6 55.5996H119.4C114.8 55.5996 112.6 53.3996 112.6 49.0996V7.79961C112.6 5.39961 113.2 3.69961 114.3 2.69961C115.5 1.59961 117.2 1.09961 119.4 1.09961H124.6C126.8 1.09961 128.5 1.59961 129.7 2.59961C130.9 3.59961 131.5 5.29961 131.5 7.59961V11.3996C131.5 11.5996 131.3 11.6996 130.8 11.8996C130.3 12.0996 129.8 12.0996 129.1 12.0996C128.4 12.0996 127.8 11.9996 127.3 11.8996C126.9 11.7996 126.6 11.5996 126.6 11.3996V7.59961C126.6 6.89961 126.4 6.29961 126 5.79961C125.6 5.29961 125 5.09961 124.1 5.09961H120C118.3 5.09961 117.5 6.09961 117.5 8.19961V49.2996C117.5 49.9996 117.7 50.5996 118.1 51.0996C118.5 51.5996 119.1 51.7996 120 51.7996H124.1C125.8 51.7996 126.6 50.9996 126.6 49.2996V44.8996C126.6 44.5996 126.8 44.3996 127.3 44.1996ZM150.6 44.1996C151 43.9996 151.6 43.7996 152.3 43.7996C153 43.7996 153.6 43.8996 154.1 44.0996C154.6 44.2996 154.8 44.4996 154.8 44.6996V49.0996C154.8 51.4996 154.2 53.0996 153 54.0996C151.8 55.0996 150.1 55.5996 147.9 55.5996H142.7C138.1 55.5996 135.9 53.3996 135.9 49.0996V7.79961C135.9 5.39961 136.5 3.69961 137.6 2.69961C138.8 1.59961 140.5 1.09961 142.7 1.09961H147.9C150.1 1.09961 151.8 1.59961 153 2.59961C154.2 3.59961 154.8 5.29961 154.8 7.59961V11.3996C154.8 11.5996 154.6 11.6996 154.1 11.8996C153.6 12.0996 153.1 12.0996 152.4 12.0996C151.7 12.0996 151.1 11.9996 150.6 11.8996C150.2 11.7996 149.9 11.5996 149.9 11.3996V7.59961C149.9 6.89961 149.7 6.29961 149.3 5.79961C148.9 5.29961 148.3 5.09961 147.4 5.09961H143.3C141.6 5.09961 140.8 6.09961 140.8 8.19961V49.2996C140.8 49.9996 141 50.5996 141.4 51.0996C141.8 51.5996 142.4 51.7996 143.3 51.7996H147.4C149.1 51.7996 149.9 50.9996 149.9 49.2996V44.8996C150 44.5996 150.2 44.3996 150.6 44.1996ZM176.5 54.0996C175.3 55.1996 173.6 55.6996 171.4 55.6996H166.3C164 55.6996 162.3 55.1996 161.2 54.1996C160 53.1996 159.4 51.4996 159.4 49.1996V7.79961C159.4 5.39961 160 3.69961 161.2 2.69961C162.4 1.59961 164.1 1.09961 166.3 1.09961H171.4C173.7 1.09961 175.4 1.59961 176.5 2.59961C177.7 3.59961 178.2 5.29961 178.2 7.59961V48.9996C178.3 51.2996 177.7 52.9996 176.5 54.0996ZM173.4 7.59961C173.4 6.89961 173.2 6.29961 172.8 5.79961C172.4 5.29961 171.8 5.09961 170.9 5.09961H166.8C166 5.09961 165.3 5.39961 164.9 5.99961C164.5 6.59961 164.3 7.29961 164.3 8.09961V49.1996C164.3 49.8996 164.5 50.4996 164.9 50.9996C165.3 51.4996 165.9 51.6996 166.8 51.6996H170.9C171.7 51.6996 172.4 51.3996 172.8 50.7996C173.2 50.1996 173.4 49.4996 173.4 48.6996V7.59961ZM197.4 55.6996H183.9C183.4 55.6996 183.2 55.4996 183.2 55.0996V1.39961C183.2 1.19961 183.4 1.09961 183.8 0.899609C184.2 0.699609 184.8 0.599609 185.6 0.599609C186.4 0.599609 187 0.699609 187.4 0.899609C187.8 1.09961 188 1.29961 188 1.59961V51.0996C188 51.4996 188.1 51.6996 188.4 51.6996H197.4C197.9 51.6996 198.2 52.3996 198.2 53.6996C198.2 54.9996 197.9 55.6996 197.4 55.6996ZM222.9 55.7996C222.6 55.9996 221.9 56.0996 221 56.0996C220.1 56.0996 219.4 55.9996 219.2 55.8996C218.9 55.6996 218.7 55.5996 218.7 55.4996C218.7 55.3996 218.6 54.8996 218.5 53.7996C218.4 52.6996 218.2 51.4996 218.1 50.1996C217.9 48.8996 217.8 47.6996 217.7 46.5996C217.6 45.4996 217.5 44.8996 217.5 44.6996C217.4 44.2996 217.3 44.0996 216.9 44.0996H209C208.6 44.0996 208.3 44.2996 208.3 44.5996C208.3 44.6996 208.2 45.2996 208.1 46.3996C207.9 47.4996 207.8 48.6996 207.6 49.9996C207.4 51.2996 207.3 52.4996 207.2 53.6996C207.1 54.7996 207 55.3996 207 55.4996C206.9 55.6996 206.8 55.7996 206.5 55.9996C206.2 56.1996 205.5 56.1996 204.5 56.1996C203.5 56.1996 202.8 56.0996 202.5 55.9996C202.2 55.8996 202.1 55.6996 202.2 55.5996C202.2 55.4996 202.3 54.7996 202.4 53.2996C202.6 51.7996 202.8 49.8996 203.1 47.4996C203.4 45.0996 203.7 42.3996 204 39.2996C204.3 36.1996 204.7 33.0996 205.1 29.8996C205.5 26.6996 205.8 23.4996 206.2 20.4996C206.6 17.3996 206.9 14.6996 207.1 12.1996C207.4 9.79961 207.6 7.79961 207.8 6.29961C208 4.79961 208.1 3.99961 208.1 3.89961C208.2 2.99961 208.6 2.29961 209.2 1.69961C209.8 1.09961 211 0.799609 212.8 0.799609C214.6 0.799609 215.9 1.09961 216.5 1.69961C217.2 2.29961 217.5 2.99961 217.6 3.69961C217.6 3.79961 217.7 4.59961 217.9 6.19961C218.1 7.69961 218.3 9.69961 218.6 12.1996C218.9 14.5996 219.2 17.3996 219.5 20.4996C219.8 23.5996 220.2 26.6996 220.6 29.8996C221 33.0996 221.3 36.1996 221.7 39.2996C222 42.3996 222.3 45.0996 222.6 47.4996C222.9 49.8996 223.1 51.8996 223.2 53.2996C223.4 54.7996 223.4 55.4996 223.4 55.5996C223.4 55.4996 223.2 55.5996 222.9 55.7996ZM216.6 39.0996C216.6 38.9996 216.5 38.3996 216.4 37.1996C216.2 35.9996 216 34.3996 215.8 32.3996C215.6 30.4996 215.3 28.2996 215 25.9996C214.7 23.5996 214.4 21.2996 214.1 19.0996C213.8 16.7996 213.6 14.7996 213.4 12.8996C213.2 10.9996 213 9.59961 212.9 8.59961C212.8 8.19961 212.8 7.99961 212.7 7.99961C212.6 8.09961 212.6 8.19961 212.5 8.59961C212.4 9.59961 212.2 10.9996 212 12.8996C211.8 14.7996 211.5 16.8996 211.3 19.0996C211 21.3996 210.7 23.6996 210.4 25.9996C210.1 28.3996 209.8 30.4996 209.6 32.3996C209.4 34.2996 209.2 35.8996 209 37.1996C208.8 38.4996 208.8 39.0996 208.8 39.1996C208.8 39.6996 209 39.8996 209.3 39.8996H216.1C216.6 39.8996 216.7 39.5996 216.6 39.0996ZM244.7 53.9996C243.5 55.0996 241.8 55.6996 239.6 55.6996H228.4C227.9 55.6996 227.6 55.3996 227.6 54.8996V1.69961C227.6 1.29961 227.8 1.09961 228.2 1.09961H239.5C241.8 1.09961 243.5 1.59961 244.6 2.59961C245.8 3.59961 246.4 5.29961 246.4 7.59961V48.8996C246.4 51.1996 245.8 52.8996 244.7 53.9996ZM241.5 7.59961C241.5 6.89961 241.3 6.29961 240.9 5.79961C240.5 5.29961 239.9 5.09961 239 5.09961H232.8C232.5 5.09961 232.3 5.29961 232.3 5.59961V50.9996C232.3 51.4996 232.5 51.6996 232.9 51.6996H239C239.8 51.6996 240.5 51.3996 240.9 50.7996C241.3 50.1996 241.5 49.4996 241.5 48.5996V7.59961ZM265.7 4.99961H256.6C256.3 4.99961 256.1 5.19961 256.1 5.49961V25.2996C256.1 25.5996 256.2 25.7996 256.5 25.7996H264.8C265 25.7996 265.1 25.8996 265.3 26.1996C265.5 26.3996 265.6 26.9996 265.6 27.8996C265.6 28.7996 265.5 29.3996 265.3 29.5996C265.1 29.7996 264.9 29.9996 264.7 29.9996H256.6C256.2 29.9996 256 30.1996 256 30.5996V51.2996C256 51.6996 256.2 51.8996 256.6 51.8996H265.6C265.9 51.8996 266.1 51.9996 266.2 52.1996C266.4 52.3996 266.4 52.9996 266.4 53.8996C266.4 54.6996 266.3 55.2996 266.2 55.5996C266 55.8996 265.9 55.9996 265.6 55.9996L251.8 55.8996C251.4 55.8996 251.2 55.6996 251.2 55.3996V1.79961C251.2 1.29961 251.4 1.09961 251.9 1.09961H265.5C265.8 1.09961 266 1.29961 266.1 1.69961C266.3 2.09961 266.3 2.49961 266.3 2.99961C266.3 3.49961 266.2 3.89961 266.1 4.39961C266.2 4.79961 266 4.99961 265.7 4.99961ZM276.5 18.5996C277.2 19.7996 278 20.8996 279.1 21.9996C280.1 23.0996 281.3 24.1996 282.5 25.2996C283.7 26.3996 284.8 27.5996 285.9 28.8996C286.9 30.1996 287.8 31.6996 288.5 33.2996C289.2 34.8996 289.5 36.6996 289.5 38.7996V48.8996C289.5 51.2996 288.9 52.9996 287.8 53.9996C286.6 55.0996 284.9 55.5996 282.7 55.5996H277.6C275.3 55.5996 273.6 55.0996 272.5 54.0996C271.3 53.0996 270.8 51.3996 270.8 49.0996V45.1996C270.8 44.9996 271 44.7996 271.4 44.5996C271.8 44.3996 272.4 44.1996 273.3 44.1996C274.9 44.1996 275.7 44.4996 275.7 45.0996V48.9996C275.7 49.6996 275.9 50.2996 276.3 50.7996C276.7 51.2996 277.4 51.4996 278.3 51.4996H282.3C283.1 51.4996 283.8 51.1996 284.2 50.5996C284.6 49.9996 284.8 49.2996 284.8 48.4996V38.5996C284.8 37.2996 284.5 35.9996 283.8 34.7996C283.1 33.5996 282.3 32.2996 281.2 31.0996C280.2 29.8996 279 28.6996 277.9 27.4996C276.7 26.2996 275.6 25.0996 274.6 23.8996C273.6 22.6996 272.7 21.3996 272 20.1996C271.3 18.9996 271 17.6996 271 16.3996V7.79961C271 5.39961 271.6 3.69961 272.7 2.69961C273.9 1.59961 275.6 1.09961 277.8 1.09961H282.9C285.2 1.09961 286.9 1.59961 288 2.59961C289.2 3.59961 289.7 5.29961 289.7 7.59961V11.4996C289.7 12.0996 288.9 12.3996 287.3 12.3996C286.6 12.3996 286 12.2996 285.5 12.0996C285.1 11.8996 284.8 11.6996 284.8 11.4996V7.59961C284.8 6.89961 284.6 6.29961 284.2 5.79961C283.8 5.29961 283.2 5.09961 282.3 5.09961H281.4H278C277.2 5.09961 276.5 5.39961 276.1 5.99961C275.7 6.59961 275.5 7.29961 275.5 8.09961V14.6996C275.5 16.0996 275.8 17.3996 276.5 18.5996Z" fill="#2D2D2D"/>
<path d="M89 73.7998C88.5 73.7998 88.3 73.6998 88.3 73.5998V59.0998C88.3 58.9998 88.3 58.9998 88.4 58.8998C88.5 58.8998 88.7 58.7998 88.9 58.7998C89.1 58.7998 89.3 58.7998 89.4 58.8998C89.5 58.8998 89.6 58.9998 89.6 59.0998V73.4998C89.6 73.6998 89.4 73.7998 89 73.7998ZM107.5 59.8998C107.5 59.9998 107.4 60.0998 107.3 60.0998H105.4C105.3 60.0998 105.3 60.0998 105.3 60.1998V73.4998C105.3 73.5998 105.2 73.5998 105 73.6998C104.8 73.6998 104.7 73.7998 104.6 73.7998C104.5 73.7998 104.4 73.7998 104.2 73.7998C104 73.7998 104 73.6998 104 73.6998V60.1998C104 60.0998 104 60.0998 103.9 60.0998H102C101.8 60.0998 101.7 59.8998 101.7 59.5998C101.7 59.1998 101.8 59.0998 101.9 59.0998H107.3C107.4 59.0998 107.5 59.0998 107.5 59.1998C107.5 59.2998 107.5 59.3998 107.5 59.5998C107.5 59.6998 107.5 59.7998 107.5 59.8998ZM137.6 70.5998C137.7 70.4998 137.9 70.4998 138.1 70.4998C138.3 70.4998 138.5 70.4998 138.6 70.5998C138.7 70.6998 138.8 70.6998 138.8 70.7998V71.9998C138.8 72.5998 138.6 73.0998 138.3 73.3998C138 73.6998 137.5 73.7998 136.9 73.7998H135.5C134.3 73.7998 133.7 73.1998 133.7 71.9998V60.7998C133.7 60.1998 133.9 59.6998 134.2 59.3998C134.5 59.0998 135 58.9998 135.6 58.9998H137C137.6 58.9998 138 59.0998 138.4 59.3998C138.7 59.6998 138.9 60.0998 138.9 60.6998V61.6998C138.9 61.6998 138.8 61.7998 138.7 61.7998C138.6 61.7998 138.4 61.8998 138.2 61.8998C138 61.8998 137.8 61.8998 137.7 61.7998C137.6 61.7998 137.5 61.6998 137.5 61.6998V60.6998C137.5 60.4998 137.4 60.2998 137.3 60.1998C137.2 60.0998 137 59.9998 136.8 59.9998H135.7C135.3 59.9998 135 60.2998 135 60.7998V71.7998C135 71.9998 135.1 72.1998 135.2 72.2998C135.3 72.3998 135.5 72.4998 135.7 72.4998H136.8C137.3 72.4998 137.5 72.2998 137.5 71.7998V70.5998C137.4 70.6998 137.5 70.5998 137.6 70.5998ZM155.4 73.1998C155.1 73.4998 154.6 73.5998 154 73.5998H152.6C152 73.5998 151.5 73.4998 151.2 73.1998C150.9 72.8998 150.7 72.4998 150.7 71.8998V60.7998C150.7 60.1998 150.9 59.6998 151.2 59.3998C151.5 59.0998 152 58.9998 152.6 58.9998H154C154.6 58.9998 155.1 59.0998 155.4 59.3998C155.7 59.6998 155.9 60.0998 155.9 60.6998V71.7998C155.8 72.4998 155.7 72.8998 155.4 73.1998ZM154.5 60.6998C154.5 60.4998 154.4 60.2998 154.3 60.1998C154.2 60.0998 154 59.9998 153.8 59.9998H152.7C152.5 59.9998 152.3 60.0998 152.2 60.1998C152.1 60.3998 152 60.4998 152 60.7998V71.7998C152 71.9998 152.1 72.1998 152.2 72.2998C152.3 72.3998 152.5 72.4998 152.7 72.4998H153.8C154 72.4998 154.2 72.3998 154.3 72.2998C154.4 72.0998 154.5 71.9998 154.5 71.6998V60.6998ZM173.3 73.4998C173.3 73.5998 173.3 73.5998 173.2 73.6998C173.1 73.6998 172.9 73.7998 172.7 73.7998C172.5 73.7998 172.3 73.7998 172.2 73.6998C172.1 73.5998 172 73.5998 172 73.4998C172 73.4998 171.9 73.2998 171.8 72.7998C171.7 72.3998 171.5 71.7998 171.3 71.1998C171.1 70.4998 170.9 69.7998 170.7 69.0998C170.5 68.2998 170.3 67.5998 170.1 66.9998C169.9 66.3998 169.8 65.7998 169.6 65.3998C169.5 64.9998 169.4 64.6998 169.4 64.6998V64.5998C169.4 64.5998 169.4 64.5998 169.4 64.6998V73.5998C169.4 73.5998 169.3 73.6998 169.2 73.6998C169.1 73.7998 168.9 73.7998 168.7 73.7998C168.5 73.7998 168.3 73.7998 168.2 73.6998C168.1 73.6998 168 73.5998 168 73.4998V59.0998C168 58.9998 168.1 58.8998 168.2 58.8998C168.3 58.8998 168.5 58.8998 168.7 58.8998C169.1 58.8998 169.4 58.9998 169.4 59.0998C169.8 60.6998 170.2 62.1998 170.6 63.4998C170.8 63.9998 170.9 64.5998 171.1 65.0998C171.2 65.5998 171.4 66.0998 171.5 66.4998C171.6 66.8998 171.7 67.2998 171.8 67.4998C171.9 67.7998 171.9 67.8998 171.9 67.8998V67.9998C171.9 67.9998 171.9 67.9998 171.9 67.8998V59.0998C171.9 58.9998 172.1 58.8998 172.6 58.8998C173 58.8998 173.3 58.9998 173.3 59.0998V73.4998ZM186.9 63.6998C187.1 63.9998 187.3 64.2998 187.6 64.5998C187.9 64.8998 188.2 65.1998 188.5 65.4998C188.8 65.7998 189.1 66.0998 189.4 66.4998C189.7 66.8998 189.9 67.1998 190.1 67.6998C190.3 68.0998 190.4 68.5998 190.4 69.1998V71.8998C190.4 72.4998 190.2 72.9998 189.9 73.2998C189.6 73.5998 189.1 73.6998 188.5 73.6998H187.1C186.5 73.6998 186 73.5998 185.7 73.2998C185.4 72.9998 185.2 72.5998 185.2 71.9998V70.9998C185.2 70.9998 185.2 70.8998 185.3 70.7998C185.4 70.6998 185.6 70.6998 185.8 70.6998C186.2 70.6998 186.4 70.7998 186.4 70.9998V71.9998C186.4 72.1998 186.5 72.3998 186.6 72.4998C186.7 72.5998 186.9 72.6998 187.1 72.6998H188.2C188.4 72.6998 188.6 72.5998 188.7 72.4998C188.8 72.2998 188.9 72.1998 188.9 71.8998V68.9998C188.9 68.5998 188.8 68.2998 188.6 67.9998C188.4 67.6998 188.2 67.2998 187.9 66.9998C187.6 66.6998 187.3 66.2998 187 65.9998C186.7 65.6998 186.4 65.3998 186.1 64.9998C185.8 64.6998 185.6 64.2998 185.4 63.9998C185.2 63.6998 185.1 63.2998 185.1 62.9998V60.6998C185.1 60.0998 185.3 59.5998 185.6 59.2998C185.9 58.9998 186.4 58.8998 187 58.8998H188.4C189 58.8998 189.5 58.9998 189.8 59.2998C190.1 59.5998 190.3 59.9998 190.3 60.5998V61.5998C190.3 61.7998 190.1 61.7998 189.6 61.7998C189.4 61.7998 189.2 61.7998 189.1 61.6998C189 61.5998 188.9 61.5998 188.9 61.5998V60.5998C188.9 60.3998 188.8 60.1998 188.7 60.0998C188.6 59.9998 188.4 59.8998 188.2 59.8998H188H187.1C186.9 59.8998 186.7 59.9998 186.6 60.0998C186.5 60.2998 186.4 60.3998 186.4 60.6998V62.4998C186.6 62.9998 186.7 63.3998 186.9 63.6998ZM207 73.1998C206.7 73.4998 206.2 73.5998 205.6 73.5998H204.2C203.6 73.5998 203.1 73.4998 202.8 73.1998C202.5 72.8998 202.3 72.4998 202.3 71.7998V59.0998C202.3 58.9998 202.4 58.9998 202.5 58.9998C202.6 58.9998 202.8 58.8998 202.9 58.8998C203.1 58.8998 203.2 58.8998 203.4 58.9998C203.5 58.9998 203.6 59.0998 203.6 59.1998V71.9998C203.6 72.1998 203.7 72.3998 203.8 72.4998C203.9 72.5998 204.1 72.6998 204.3 72.6998H205.4C205.6 72.6998 205.8 72.5998 205.9 72.4998C206 72.2998 206.1 72.1998 206.1 71.8998V59.0998C206.1 58.9998 206.2 58.9998 206.3 58.9998C206.4 58.9998 206.6 58.8998 206.8 58.8998C207 58.8998 207.2 58.8998 207.3 58.9998C207.4 58.9998 207.5 59.0998 207.5 59.1998V71.8998C207.5 72.3998 207.3 72.8998 207 73.1998ZM223.5 73.5998H219.9C219.8 73.5998 219.7 73.4998 219.7 73.3998V59.0998C219.7 59.0998 219.8 58.9998 219.9 58.9998C220 58.9998 220.2 58.8998 220.4 58.8998C220.6 58.8998 220.8 58.8998 220.9 58.9998C221 58.9998 221.1 59.0998 221.1 59.1998V72.4998C221.1 72.5998 221.1 72.5998 221.2 72.5998H223.6C223.7 72.5998 223.8 72.7998 223.8 73.0998C223.7 73.4998 223.6 73.5998 223.5 73.5998ZM241.2 59.8998C241.2 59.9998 241.1 60.0998 241 60.0998H239.1C239 60.0998 239 60.0998 239 60.1998V73.4998C239 73.5998 238.9 73.5998 238.7 73.6998C238.5 73.6998 238.4 73.7998 238.3 73.7998C238.2 73.7998 238.1 73.7998 237.9 73.7998C237.7 73.7998 237.7 73.6998 237.7 73.6998V60.1998C237.7 60.0998 237.7 60.0998 237.6 60.0998H235.7C235.5 60.0998 235.4 59.8998 235.4 59.5998C235.4 59.1998 235.5 59.0998 235.6 59.0998H241C241.1 59.0998 241.2 59.0998 241.2 59.1998C241.2 59.2998 241.2 59.3998 241.2 59.5998C241.2 59.6998 241.2 59.7998 241.2 59.8998ZM253.9 73.7998C253.4 73.7998 253.2 73.6998 253.2 73.5998V59.0998C253.2 58.9998 253.2 58.9998 253.3 58.8998C253.4 58.8998 253.6 58.7998 253.8 58.7998C254 58.7998 254.2 58.7998 254.3 58.8998C254.4 58.8998 254.5 58.9998 254.5 59.0998V73.4998C254.6 73.6998 254.3 73.7998 253.9 73.7998ZM272.2 73.4998C272.2 73.5998 272.2 73.5998 272.1 73.6998C272 73.6998 271.8 73.7998 271.6 73.7998C271.4 73.7998 271.2 73.7998 271.1 73.6998C271 73.5998 270.9 73.5998 270.9 73.4998C270.9 73.4998 270.8 73.2998 270.7 72.7998C270.6 72.3998 270.4 71.7998 270.2 71.1998C270 70.4998 269.8 69.7998 269.6 69.0998C269.4 68.2998 269.2 67.5998 269 66.9998C268.8 66.3998 268.7 65.7998 268.5 65.3998C268.4 64.9998 268.3 64.6998 268.3 64.6998V64.5998C268.3 64.5998 268.3 64.5998 268.3 64.6998V73.5998C268.3 73.5998 268.2 73.6998 268.1 73.6998C268 73.7998 267.8 73.7998 267.6 73.7998C267.4 73.7998 267.2 73.7998 267.1 73.6998C267 73.6998 266.9 73.5998 266.9 73.4998V59.0998C266.9 58.9998 267 58.8998 267.1 58.8998C267.2 58.8998 267.4 58.8998 267.6 58.8998C268 58.8998 268.3 58.9998 268.3 59.0998C268.7 60.6998 269.1 62.1998 269.5 63.4998C269.7 63.9998 269.8 64.5998 270 65.0998C270.1 65.5998 270.3 66.0998 270.4 66.4998C270.5 66.8998 270.6 67.2998 270.7 67.4998C270.8 67.7998 270.8 67.8998 270.8 67.8998V67.9998C270.8 67.9998 270.8 67.9998 270.8 67.8998V59.0998C270.8 58.9998 271 58.8998 271.5 58.8998C272 58.8998 272.2 58.9998 272.2 59.0998V73.4998ZM288 68.1998H286.6C286.5 68.1998 286.5 68.1998 286.5 68.0998C286.5 67.9998 286.4 67.8998 286.4 67.5998C286.4 67.3998 286.4 67.1998 286.5 67.1998C286.5 67.0998 286.6 67.0998 286.7 67.0998H289C289.3 67.0998 289.4 67.1998 289.5 67.2998C289.6 67.4998 289.6 67.5998 289.6 67.7998V71.7998C289.6 72.3998 289.4 72.8998 289.1 73.1998C288.8 73.4998 288.3 73.5998 287.7 73.5998H286.3C285.1 73.5998 284.5 72.9998 284.5 71.7998V60.7998C284.5 60.1998 284.6 59.6998 284.9 59.3998C285.2 59.0998 285.7 58.9998 286.3 58.9998H287.7C288.3 58.9998 288.8 59.0998 289.1 59.3998C289.4 59.6998 289.6 60.0998 289.6 60.6998V61.6998C289.6 61.7998 289.5 61.7998 289.4 61.7998C289.3 61.7998 289.1 61.8998 288.9 61.8998C288.7 61.8998 288.6 61.8998 288.5 61.7998C288.4 61.7998 288.3 61.6998 288.3 61.5998V60.6998C288.3 60.4998 288.3 60.2998 288.2 60.1998C288.1 59.9998 288 59.9998 287.7 59.9998H286.5C286.3 59.9998 286.1 60.0998 286 60.1998C285.9 60.3998 285.8 60.5998 285.8 60.7998V71.7998C285.8 71.9998 285.9 72.1998 286 72.2998C286.1 72.3998 286.3 72.4998 286.5 72.4998H287.6C287.9 72.4998 288 72.3998 288.1 72.2998C288.2 72.1998 288.2 71.9998 288.2 71.8998V68.2998C288.2 68.1998 288.1 68.1998 288 68.1998Z" fill="#2D2D2D"/>
</svg>
