<svg width="397" height="104" viewBox="0 0 397 104" fill="none" xmlns="http://www.w3.org/2000/svg">
<path d="M98.7525 23.1689C95.2425 19.5839 81.5025 8.9188 74.4075 5.43126C67.5739 2.05596 60.0615 0.281077 52.44 0.241211C44.8209 0.281952 37.3111 2.05682 30.48 5.43126C23.4225 8.8888 9.65245 19.5839 6.13495 23.1689C2.22521 27.2642 0.0579671 32.7173 0.0899486 38.3791V65.5594C0.0579671 71.2212 2.22521 76.6743 6.13495 80.7695C9.64495 84.3546 23.385 95.0197 30.48 98.5072C37.3118 101.88 44.8212 103.654 52.44 103.697C60.0627 103.653 67.5752 101.873 74.4075 98.4922C81.4725 95.0347 95.2425 84.3396 98.7525 80.7545C102.66 76.658 104.827 71.2057 104.797 65.5444V38.3791C104.829 32.7174 102.662 27.2646 98.7525 23.1689V23.1689ZM12.0225 28.9365C15.15 25.7415 28.065 15.7889 34.1025 12.8263C39.8077 10.0111 46.078 8.52879 52.44 8.49129C58.8056 8.53232 65.0786 10.0198 70.785 12.8413C76.785 15.8039 89.7375 25.7565 92.865 28.9515C95.2743 31.5011 96.5999 34.8864 96.5625 38.3941V43.1341C96.5608 45.1689 96.0992 47.177 95.2121 49.0083C94.3251 50.8395 93.0356 52.4466 91.44 53.7093C76.725 65.3569 66.135 73.232 62.565 75.122C59.437 76.7201 55.9673 77.5334 52.455 77.492C48.905 77.4738 45.4061 76.6452 42.225 75.0695C38.8125 73.3895 27.6975 64.8319 26.3025 63.5044C26.2668 63.4706 26.2384 63.4299 26.2191 63.3847C26.1997 63.3396 26.1898 63.291 26.19 63.2419C26.1911 63.187 26.2053 63.1332 26.2314 63.085C26.2575 63.0367 26.2947 62.9953 26.34 62.9643L34.0125 57.1593L42.7275 63.7519C45.5268 65.8596 48.9359 66.9994 52.44 66.9994C55.9441 66.9994 59.3531 65.8596 62.1525 63.7519L77.7075 51.9917L83.34 47.7167C84.7285 46.7049 85.7961 45.3144 86.415 43.7117C86.9944 42.1469 87.108 40.4479 86.7419 38.8199C86.3759 37.192 85.5459 35.7051 84.3525 34.5391C82.8525 33.1065 70.8525 23.7164 66.3525 21.4814C62.0229 19.354 57.2639 18.2457 52.44 18.2414C47.5802 18.1977 42.7827 19.3354 38.46 21.5564C33.3075 24.2415 19.305 35.0866 8.33995 43.7867V38.3791C8.29453 34.8728 9.6152 31.4863 12.0225 28.9365V28.9365ZM40.845 51.9917L47.7 46.8017C49.0684 45.7751 50.733 45.2201 52.4437 45.2201C54.1544 45.2201 55.819 45.7751 57.1875 46.8017L64.0425 51.9917L57.1875 57.1743C55.8215 58.2067 54.156 58.7653 52.4437 58.7653C50.7315 58.7653 49.066 58.2067 47.7 57.1743L40.845 51.9917ZM92.865 75.002C89.7375 78.197 76.8225 88.1496 70.785 91.1121C65.0811 93.9441 58.8079 95.4418 52.44 95.4922C46.0769 95.45 39.8065 93.9626 34.1025 91.1421C28.065 88.1421 15.15 78.227 12.0225 75.032C9.60792 72.4747 8.28669 69.076 8.33995 65.5594V60.8193C8.34164 58.7845 8.80326 56.7765 9.6903 54.9452C10.5773 53.114 11.8669 51.5069 13.4625 50.2442C28.17 38.5816 38.76 30.744 42.3375 28.8165C47.9925 25.8165 56.0475 25.6065 62.6925 28.8765C66.09 30.5565 77.205 39.1141 78.6 40.4416C78.6363 40.479 78.6638 40.5239 78.6807 40.5732C78.6976 40.6225 78.7033 40.6749 78.6975 40.7266C78.6972 40.7798 78.6841 40.8321 78.6593 40.8791C78.6345 40.9261 78.5987 40.9664 78.555 40.9966L70.875 46.8017L62.1525 40.2091C59.3556 38.0956 55.9456 36.9521 52.44 36.9521C48.9343 36.9521 45.5244 38.0956 42.7275 40.2091L27.18 51.9917L21.5625 56.2368C20.1745 57.2492 19.1071 58.6395 18.4875 60.2418C17.9045 61.8067 17.7884 63.5071 18.1532 65.1367C18.518 66.7663 19.348 68.2549 20.5425 69.4219C22.0425 70.8544 34.0425 80.2445 38.5425 82.4795C42.8629 84.6126 47.6142 85.7286 52.4325 85.7421C57.2897 85.7845 62.0845 84.6469 66.405 82.427C71.55 79.697 85.56 68.8744 96.54 60.1743V65.5819C96.5776 69.0787 95.2607 72.4545 92.865 75.002V75.002ZM158.34 32.244C145.335 32.244 138.757 41.2441 138.757 51.9692C138.757 62.6943 145.335 71.6944 158.34 71.6944C171.345 71.6944 177.922 62.6943 177.922 51.9692C177.922 41.2441 171.307 32.244 158.34 32.244ZM158.34 64.0369C150.84 64.0369 147.09 58.1193 147.09 51.9692C147.09 45.8192 150.84 39.8941 158.34 39.8941C165.84 39.8941 169.59 45.8192 169.59 51.9692C169.59 58.1193 165.78 64.0369 158.34 64.0369ZM335.43 32.244C322.425 32.244 315.848 41.2441 315.848 51.9692C315.848 62.6943 322.425 71.6944 335.43 71.6944C348.435 71.6944 355.005 62.6943 355.005 51.9692C355.005 41.2441 348.428 32.244 335.43 32.244ZM335.43 64.0369C327.93 64.0369 324.18 58.1193 324.18 51.9692C324.18 45.8192 327.93 39.8941 335.43 39.8941C342.93 39.8941 346.68 45.8192 346.68 51.9692C346.68 58.1193 342.908 64.0369 335.43 64.0369ZM206.85 64.0369C205.237 64.0697 203.634 63.7839 202.131 63.1959C200.629 62.6079 199.258 61.7293 198.095 60.6104C196.933 59.4914 196.003 58.1542 195.359 56.6752C194.715 55.1963 194.368 53.6047 194.34 51.9917C194.34 45.8417 198.09 39.9166 205.59 39.9166C207.662 39.8585 209.714 40.3311 211.552 41.2893C213.389 42.2476 214.952 43.6597 216.09 45.3917L216.885 44.7992V35.3266C213.429 33.431 209.575 32.375 205.635 32.244C192.63 32.244 186.052 41.2441 186.052 51.9692C186.052 62.6943 193.882 71.6944 206.888 71.6944C210.884 71.6486 214.807 70.6182 218.31 68.6944V58.9443L217.56 58.3668C216.354 60.095 214.753 61.5108 212.891 62.4969C211.028 63.4829 208.957 64.0109 206.85 64.0369V64.0369ZM291.473 32.2515C285.473 32.2515 280.973 32.6265 276.63 32.6265H275.34C275.34 32.6265 275.468 37.3966 275.468 51.9692C275.468 66.5419 275.34 71.3119 275.34 71.3119H283.658C283.658 71.3119 283.598 69.0169 283.56 62.7468C285.552 62.9666 287.556 63.0718 289.56 63.0619C300.81 63.0619 307.748 57.8118 307.748 47.4317C307.808 38.9491 302.078 32.2515 291.473 32.2515V32.2515ZM289.905 55.6518C287.788 55.6434 285.673 55.5258 283.568 55.2993V40.1491C285.333 39.7382 287.14 39.5393 288.953 39.5566C297.45 39.5566 299.708 42.6316 299.708 47.6192C299.738 51.7667 297.09 55.6518 289.905 55.6518ZM380.34 32.2515C374.34 32.2515 369.84 32.6265 365.498 32.6265H364.238C364.238 32.6265 364.365 37.3966 364.365 51.9692C364.365 66.5419 364.238 71.3119 364.238 71.3119H372.54C372.54 71.3119 372.48 69.0169 372.443 62.7468C374.435 62.9666 376.438 63.0718 378.443 63.0619C389.693 63.0619 396.63 57.8118 396.63 47.4317C396.66 38.9491 390.93 32.2515 380.34 32.2515V32.2515ZM378.773 55.6518C376.655 55.6434 374.54 55.5258 372.435 55.2993V40.1491C374.2 39.7382 376.008 39.5393 377.82 39.5566C386.34 39.5341 388.59 42.6091 388.59 47.5967C388.59 51.7667 385.905 55.6518 378.758 55.6518H378.773ZM263.618 32.6265H255.3C255.3 32.6265 255.428 37.3966 255.428 51.9692C255.428 59.7393 252.54 64.0369 246.105 64.0369C239.67 64.0369 236.79 59.7393 236.79 51.9917C236.79 37.4191 236.917 32.649 236.917 32.649H228.6C228.6 32.649 228.66 37.4191 228.66 51.9917C228.66 62.6793 233.107 71.7169 246.105 71.7169C259.102 71.7169 263.558 62.7168 263.558 51.9917C263.558 37.3966 263.618 32.6265 263.618 32.6265V32.6265Z" fill="black"/>
</svg>
