<svg width="305" height="101" viewBox="0 0 305 101" fill="none" xmlns="http://www.w3.org/2000/svg">
<g clip-path="url(#clip0_6027_36605)">
<g clip-path="url(#clip1_6027_36605)">
<path d="M127.86 36.75H134.055L140.79 59.34L146.28 36.75H152.52L150.405 44.61L155.235 59.46L160.8 36.75H166.95L158.595 67.2H151.86L147.75 54.72L144.18 67.2H137.43L127.86 36.75Z" fill="black"/>
<path d="M171.69 45.1951C172.791 45.0166 173.905 44.9313 175.02 44.9401C176.27 44.9401 177.24 44.9401 177.93 44.9401C178.634 44.9851 179.335 45.0702 180.03 45.1951C180.629 45.2855 181.211 45.4677 181.755 45.7351C182.228 45.9932 182.662 46.3163 183.045 46.6951C183.472 47.1183 183.799 47.6305 184.005 48.1951C184.527 49.5691 184.782 51.0304 184.755 52.5001C184.828 53.7646 184.586 55.0275 184.05 56.1751C183.13 57.7251 181.31 58.5001 178.59 58.5001H171.555C171.536 59.283 171.621 60.0649 171.81 60.8251C171.934 61.3544 172.263 61.8128 172.725 62.1001C173.152 62.3565 173.627 62.5248 174.12 62.5951C174.6 62.6651 175.925 62.7001 178.095 62.7001C180.183 62.7084 182.269 62.5579 184.335 62.2501V66.1951C183.126 66.6568 181.859 66.9496 180.57 67.0651L177.975 67.2751C177.505 67.2751 176.925 67.2751 176.235 67.2751C175.325 67.2751 174.26 67.2751 173.04 67.2751C170.29 67.2751 168.39 66.4151 167.34 64.6951C166.29 62.9751 165.765 60.1801 165.765 56.3101C165.581 53.5048 166.016 50.6934 167.04 48.0751C167.531 47.2609 168.209 46.5751 169.018 46.0744C169.826 45.5736 170.742 45.2722 171.69 45.1951V45.1951ZM178.92 52.6951C179.035 51.7634 178.84 50.8199 178.365 50.0101C177.716 49.5248 176.904 49.3098 176.1 49.4101C175.314 49.3922 174.527 49.4273 173.745 49.5151C173.286 49.5993 172.858 49.8008 172.5 50.1001C172.059 50.4812 171.785 51.0195 171.735 51.6001C171.628 52.1992 171.573 52.8064 171.57 53.4151V54.4351H177.105C178.325 54.3751 178.935 53.7901 178.935 52.6801L178.92 52.6951Z" fill="black"/>
<path d="M193.695 34.5V46.185C195.787 45.1965 198.072 44.6842 200.385 44.685C202.021 44.5937 203.631 45.1302 204.885 46.185C206.001 47.2525 206.743 48.6519 207 50.175C207.36 52.1541 207.526 54.1637 207.495 56.175C207.687 59.0388 207.144 61.9041 205.92 64.5C205.378 65.4745 204.569 66.2743 203.589 66.8056C202.609 67.337 201.497 67.5778 200.385 67.5C199.143 67.4885 197.914 67.2337 196.77 66.75C195.689 66.3227 194.678 65.7362 193.77 65.01L192.735 67.26H187.95V34.5H193.695ZM198.9 62.4C199.37 62.4015 199.83 62.2583 200.216 61.9901C200.602 61.7218 200.897 61.3412 201.06 60.9C201.607 59.4659 201.848 57.9328 201.765 56.4C201.808 54.8466 201.688 53.293 201.405 51.765C201.303 51.0259 200.979 50.3353 200.475 49.785C200.022 49.4454 199.465 49.2756 198.9 49.305C197.144 49.2575 195.394 49.5373 193.74 50.13V61.065C195.293 62.0085 197.084 62.4874 198.9 62.445V62.4Z" fill="black"/>
<path d="M210.54 36.75H216.735L223.5 59.535L230.655 36.75H236.85L226.83 67.2H220.095L210.54 36.75Z" fill="black"/>
<path d="M235.245 56.5805C235.222 54.9742 235.332 53.3686 235.575 51.7805C235.748 50.6385 236.097 49.5303 236.61 48.4955C237.04 47.6266 237.692 46.8866 238.5 46.3505C240.563 45.2366 242.894 44.7173 245.235 44.8505C249.035 44.8505 251.66 45.6805 253.11 47.3405C254.56 49.0005 255.29 51.9605 255.3 56.2205C255.3 60.4805 254.585 63.4005 253.155 64.9805C251.725 66.5605 249.085 67.3505 245.235 67.3505C241.465 67.3505 238.83 66.5055 237.33 64.8155C235.83 63.1255 235.135 60.3805 235.245 56.5805ZM241.92 50.7155C241.53 51.3359 241.293 52.0404 241.23 52.7705C241.104 53.9512 241.049 55.1383 241.065 56.3255C241.044 57.4942 241.114 58.6628 241.275 59.8205C241.353 60.5085 241.617 61.1621 242.04 61.7105C242.367 62.1107 242.814 62.3948 243.315 62.5205C243.942 62.6456 244.581 62.701 245.22 62.6855C245.826 62.6937 246.433 62.6637 247.035 62.5955C247.449 62.5358 247.847 62.393 248.205 62.1755C248.591 61.9396 248.879 61.572 249.015 61.1405C249.42 59.8301 249.602 58.4612 249.555 57.0905C249.555 55.3805 249.52 54.1305 249.45 53.3405C249.399 52.6649 249.279 51.9964 249.09 51.3455C248.975 50.8802 248.692 50.474 248.295 50.2055C247.478 49.7433 246.548 49.5198 245.61 49.5605C244.785 49.5199 243.958 49.5855 243.15 49.7555C242.641 49.9221 242.205 50.2617 241.92 50.7155Z" fill="black"/>
<path d="M258.87 59.3251V34.6201H264.69V58.4101C264.616 59.4556 264.77 60.5046 265.14 61.4851C265.46 62.0783 265.998 62.5244 266.64 62.7301C267.548 63.0863 268.48 63.377 269.43 63.6001V67.1701H264.6C263.797 67.224 262.993 67.0877 262.253 66.7723C261.513 66.4569 260.857 65.9714 260.34 65.3551C259.214 63.5555 258.699 61.4409 258.87 59.3251V59.3251Z" fill="black"/>
<path d="M268.935 49.4998V46.2748L272.505 45.0748L273.465 38.9248H278.325V44.9998H283.275V49.4998H278.325V58.3648C278.253 59.4262 278.411 60.4906 278.79 61.4848C279.089 62.0606 279.592 62.5045 280.2 62.7298C281.108 63.0855 282.041 63.3762 282.99 63.5998V67.1698H277.92C274.32 67.1698 272.52 64.5348 272.52 59.2648V49.4998H268.935Z" fill="black"/>
<path d="M286.14 46.185C289.39 45.0697 292.817 44.5613 296.25 44.685C298.334 44.5524 300.402 45.1171 302.13 46.29C302.875 46.9858 303.449 47.8453 303.806 48.8006C304.162 49.7559 304.292 50.7809 304.185 51.795V67.185H299.565L298.365 64.77C298.067 65.1318 297.706 65.4367 297.3 65.67C296.524 66.1599 295.693 66.5575 294.825 66.855C293.867 67.2234 292.851 67.4214 291.825 67.44C290.955 67.4951 290.083 67.366 289.266 67.061C288.449 66.756 287.706 66.282 287.085 65.67C286.01 64.5789 285.412 63.1065 285.42 61.575V59.505C285.356 57.9004 285.922 56.3343 286.995 55.14C287.64 54.5323 288.407 54.0684 289.245 53.7789C290.083 53.4893 290.972 53.3806 291.855 53.46H296.76C297.299 53.4969 297.841 53.4969 298.38 53.46V52.05C298.438 51.6554 298.404 51.2528 298.282 50.8731C298.16 50.4935 297.952 50.1469 297.675 49.86C296.802 49.4251 295.826 49.2432 294.855 49.335C293.435 49.335 290.54 49.49 286.17 49.8L286.14 46.185ZM291.21 60.735C291.166 61.033 291.193 61.3371 291.286 61.6234C291.38 61.9097 291.539 62.1704 291.75 62.385C292.221 62.6762 292.772 62.8125 293.325 62.775C294.114 62.7581 294.894 62.6111 295.635 62.34C296.321 62.1189 296.984 61.8326 297.615 61.485L298.365 61.02V57L292.995 57.42C291.805 57.53 291.21 58.28 291.21 59.67V60.735Z" fill="black"/>
<path d="M115.05 71.685C115.05 80.175 103.05 81.885 91.245 87.045L57.525 99.84L23.805 87C11.175 81.75 0 80.16 0 71.685V28.185C0 19.71 10.77 17.79 23.805 12.825L57.525 0L91.245 12.795C103.5 17.505 115.05 19.68 115.05 28.155V71.685Z" fill="black"/>
<path d="M111.81 70.4997C111.81 78.5097 100.5 80.1147 89.31 84.9897L57.525 97.0347L25.71 84.9597C13.785 79.9647 3.21002 78.4797 3.21002 70.4697V29.3847C3.21002 21.3747 13.365 19.5747 25.71 14.8797L57.525 2.80469L89.355 14.8947C100.89 19.3947 111.855 21.3897 111.855 29.3997L111.81 70.4997Z" stroke="white" stroke-width="1.125"/>
<path d="M11.265 30.2253H23.04L31.35 59.0253L38.85 30.2103H49.8L46.89 41.4303L53.79 59.0103L62.025 30.1953H73.8L60.3 71.8803H48L41.715 56.8803L37.005 71.8803H24.6L11.265 30.2253Z" fill="white"/>
<g opacity="0.7">
<path d="M62.1149 30.165H73.8899L82.9949 58.98L92.3399 30.165H104.1L88.9649 71.85H76.6349L62.1149 30.165Z" fill="white"/>
</g>
</g>
</g>
<defs>
<clipPath id="clip0_6027_36605">
<rect width="304.5" height="100.5" fill="white"/>
</clipPath>
<clipPath id="clip1_6027_36605">
<rect width="304.2" height="99.84" fill="white"/>
</clipPath>
</defs>
</svg>
