<svg width="110" height="76" viewBox="0 0 110 76" fill="none" xmlns="http://www.w3.org/2000/svg">
<path fill-rule="evenodd" clip-rule="evenodd" d="M42.8803 62.4155C43.4013 62.7167 43.9629 63.018 44.5245 63.2841C48.7075 65.2435 50.6499 66.5303 50.6499 69.2443C50.6499 72.1513 48.2964 74.529 45.419 74.529C43.1784 74.529 41.3113 73.0959 40.5645 71.0956C39.1785 72.5296 37.5225 73.669 35.694 74.4465C33.8654 75.224 31.9014 75.624 29.9175 75.6227C27.9557 75.6227 26.0131 75.2323 24.2007 74.4738C22.3882 73.7152 20.7415 72.6034 19.3544 71.2018C17.9673 69.8002 16.8671 68.1362 16.1166 66.305C15.3661 64.4738 14.9801 62.5112 14.9805 60.5292C14.9805 59.7366 15.0905 58.9441 15.2034 58.1515C7.54378 55.8879 1.64423 49.4364 0.298162 41.3588C0.112896 40.189 0 39.0192 0 37.8114C0 36.6035 0.112896 35.4337 0.298162 34.2639C1.68186 26.2273 7.54378 19.7348 15.2034 17.4712L15.1889 17.3718C15.0818 16.6172 14.9776 15.889 14.9776 15.0935C14.9772 13.1113 15.3634 11.1484 16.114 9.31704C16.8647 7.48564 17.9651 5.82158 19.3525 4.41994C20.7399 3.0183 22.387 1.90653 24.1998 1.14815C26.0125 0.38976 27.9554 -0.000383905 29.9175 2.83467e-07C34.0657 2.83467e-07 37.8376 1.73718 40.5645 4.52719C40.9302 3.5228 41.5913 2.65551 42.4591 2.04176C43.3268 1.42802 44.3597 1.09722 45.419 1.09378C48.2964 1.09378 50.6499 3.47143 50.6499 6.37842C50.6499 9.32051 48.7075 10.6044 44.5245 12.5667C44.113 12.7648 43.7075 12.9754 43.3087 13.1984L42.8803 13.4324C42.5445 13.6225 42.2087 13.8126 41.9076 13.9998C41.6471 14.1518 41.4242 14.301 41.1984 14.4531C41.1276 14.4915 41.0598 14.5355 40.9958 14.5847C40.9299 14.6341 40.8602 14.6781 40.7874 14.7163C39.5194 15.5469 38.3615 16.5295 37.2384 17.5472C37.2035 17.5672 37.1722 17.5929 37.1457 17.6233C37.1168 17.6525 37.0878 17.6818 37.0531 17.6993C36.6044 18.1497 36.1557 18.6059 35.7447 19.0563L35.5768 19.2464C35.5218 19.3107 35.4668 19.378 35.4089 19.4336C35.2325 19.6545 35.053 19.8729 34.8704 20.0887C34.5896 20.4221 34.3146 20.7525 34.0657 21.0947C30.4431 25.9439 28.4764 31.8501 28.4614 37.9254C28.4589 44.0036 30.4274 49.9153 34.0657 54.7561C34.5296 55.4043 35.0344 56.0217 35.5768 56.6045C35.6347 56.6688 35.6897 56.7361 35.7447 56.7916C36.0544 57.1601 36.3815 57.4847 36.7144 57.8152L37.0531 58.1515C37.0879 58.1715 37.1192 58.1972 37.1457 58.2276C37.1747 58.2568 37.2036 58.2831 37.2384 58.3036C38.3454 59.3397 39.5322 60.2853 40.7874 61.1316C40.8626 61.1697 40.9292 61.2194 40.9929 61.2632C41.0578 61.3135 41.1265 61.3585 41.1984 61.3978L41.5545 61.623L41.9076 61.8482L42.394 62.1318C42.5532 62.2254 42.7124 62.3219 42.8803 62.4155ZM94.798 17.6233C102.458 19.8869 108.357 26.3384 109.703 34.416C110.099 36.8396 110.099 39.3124 109.703 41.7361C108.32 49.7727 102.458 56.2652 94.798 58.5288L94.8125 58.6282C94.9196 59.3828 95.0238 60.111 95.0238 60.9065C95.0242 62.8889 94.6379 64.852 93.8871 66.6836C93.1363 68.5152 92.0355 70.1794 90.6479 71.5811C89.2602 72.9828 87.6127 74.0945 85.7996 74.8527C83.9865 75.6109 82.0433 76.0008 80.081 76C78.0982 75.9972 76.1357 75.5955 74.3082 74.8182C72.4807 74.0409 70.8247 72.9037 69.4369 71.4728C69.0712 72.4772 68.4101 73.3445 67.5423 73.9582C66.6746 74.572 65.6417 74.9028 64.5824 74.9062C63.1968 74.9024 61.8689 74.3448 60.8889 73.3552C59.9088 72.3656 59.3561 71.0244 59.3515 69.6245C59.3515 66.6795 61.2939 65.3956 65.4769 63.4333C65.8908 63.2402 66.2874 63.0238 66.6927 62.8016L67.1211 62.5676C67.4569 62.3775 67.7927 62.1874 68.0938 62.0002C68.3543 61.8482 68.5772 61.699 68.803 61.5469C68.8738 61.5084 68.9416 61.4644 69.0056 61.4153C69.0714 61.3658 69.1412 61.3218 69.214 61.2837C70.4693 60.4364 71.656 59.4898 72.763 58.4528C72.7979 58.4329 72.8292 58.4072 72.8557 58.3767C72.8846 58.3475 72.9136 58.3212 72.9483 58.3036C73.397 57.8503 73.8457 57.397 74.2567 56.9437L74.4246 56.7565C74.4796 56.6893 74.5346 56.622 74.5925 56.5664C74.7662 56.3442 74.9515 56.1278 75.131 55.9113C75.4117 55.5779 75.6867 55.2504 75.9357 54.9053C79.4094 50.226 81.54 44.377 81.54 38.0746C81.5418 31.9974 79.5734 26.0868 75.9357 21.2468C75.4718 20.5976 74.9671 19.9792 74.4246 19.3955C74.3667 19.3312 74.3117 19.2639 74.2567 19.2084C73.8493 18.7277 73.4123 18.2735 72.9483 17.8485C72.9135 17.8284 72.8822 17.8027 72.8557 17.7724C72.8289 17.7431 72.7976 17.7184 72.763 17.6993C71.6465 16.6736 70.4606 15.7276 69.214 14.8684C69.1422 14.83 69.0735 14.786 69.0085 14.7368C68.9419 14.69 68.8782 14.6432 68.803 14.6051C68.6901 14.5291 68.5714 14.4531 68.4469 14.377C68.3279 14.3041 68.2101 14.2291 68.0938 14.1518L67.6074 13.8682C66.9189 13.4463 66.2087 13.0617 65.4798 12.7159C61.3316 10.7184 59.3515 9.43456 59.3515 6.52757C59.3515 3.6235 61.705 1.24585 64.5824 1.24585C66.823 1.24585 68.6901 2.67888 69.4369 4.67926C70.8229 3.24517 72.4789 2.1058 74.3074 1.32829C76.136 0.550786 78.1 0.15086 80.0839 0.152076C82.0457 0.152076 83.9883 0.542504 85.8007 1.30106C87.6132 2.05962 89.2599 3.17145 90.647 4.57305C92.0341 5.97466 93.1343 7.63858 93.8848 9.46979C94.6352 11.301 95.0213 13.2636 95.0209 15.2456C95.0209 16.0352 94.9109 16.8307 94.798 17.6233Z" fill="#034AD8"/>
<path d="M71.3041 37.9605C71.3052 35.7997 70.8847 33.6597 70.0666 31.6632C69.2485 29.6666 68.0489 27.8525 66.5364 26.3247C65.0238 24.7968 63.228 23.5852 61.2516 22.759C59.2752 21.9329 57.157 21.5085 55.0181 21.51C52.8792 21.5089 50.761 21.9337 48.7848 22.7602C46.8085 23.5867 45.0129 24.7986 43.5006 26.3267C41.9883 27.8548 40.789 29.6691 39.9713 31.6659C39.1536 33.6626 38.7334 35.8026 38.735 37.9635C38.7338 40.1241 39.1542 42.2638 39.9721 44.2602C40.79 46.2566 41.9894 48.0705 43.5016 49.5983C45.0139 51.1261 46.8094 52.3378 48.7854 53.1641C50.7615 53.9904 52.8794 54.4152 55.0181 54.414C57.157 54.4155 59.2752 53.9911 61.2516 53.165C63.228 52.3388 65.0238 51.1272 66.5364 49.5994C68.0489 48.0715 69.2485 46.2574 70.0666 44.2609C70.8847 42.2643 71.3052 40.1244 71.3041 37.9635V37.9605Z" fill="#034AD8"/>
</svg>