<svg fill="none" height="63" viewBox="0 0 62 63" width="62" xmlns="http://www.w3.org/2000/svg" xmlns:xlink="http://www.w3.org/1999/xlink"><filter id="a" color-interpolation-filters="sRGB" filterUnits="userSpaceOnUse" height="64.8033" width="77.5231" x="-7.63262" y="4.82539"><feFlood flood-opacity="0" result="BackgroundImageFix"/><feGaussianBlur in="BackgroundImageFix" stdDeviation="6.41201"/><feComposite in2="SourceAlpha" operator="in" result="effect1_backgroundBlur_648_2899"/><feBlend in="SourceGraphic" in2="effect1_backgroundBlur_648_2899" mode="normal" result="shape"/></filter><filter id="b" color-interpolation-filters="sRGB" filterUnits="userSpaceOnUse" height="33.3226" width="44.4881" x="8.87901" y="19.7479"><feFlood flood-opacity="0" result="BackgroundImageFix"/><feGaussianBlur in="BackgroundImageFix" stdDeviation="1.12495"/><feComposite in2="SourceAlpha" operator="in" result="effect1_backgroundBlur_648_2899"/><feColorMatrix in="SourceAlpha" result="hardAlpha" type="matrix" values="0 0 0 0 0 0 0 0 0 0 0 0 0 0 0 0 0 0 127 0"/><feOffset dy="1.35278"/><feGaussianBlur stdDeviation=".676391"/><feComposite in2="hardAlpha" operator="out"/><feColorMatrix type="matrix" values="0 0 0 0 0 0 0 0 0 0 0 0 0 0 0 0 0 0 0.09 0"/><feBlend in2="effect1_backgroundBlur_648_2899" mode="normal" result="effect2_dropShadow_648_2899"/><feBlend in="SourceGraphic" in2="effect2_dropShadow_648_2899" mode="normal" result="shape"/></filter><filter id="c" color-interpolation-filters="sRGB" filterUnits="userSpaceOnUse" height="32.867" width="16.0076" x="23.6134" y="19.7479"><feFlood flood-opacity="0" result="BackgroundImageFix"/><feGaussianBlur in="BackgroundImageFix" stdDeviation="1.12495"/><feComposite in2="SourceAlpha" operator="in" result="effect1_backgroundBlur_648_2899"/><feBlend in="SourceGraphic" in2="effect1_backgroundBlur_648_2899" mode="normal" result="shape"/></filter><filter id="d" color-interpolation-filters="sRGB" filterUnits="userSpaceOnUse" height="21.093" width="15.6678" x="37.6993" y="25.755"><feFlood flood-opacity="0" result="BackgroundImageFix"/><feGaussianBlur in="BackgroundImageFix" stdDeviation="1.12495"/><feComposite in2="SourceAlpha" operator="in" result="effect1_backgroundBlur_648_2899"/><feBlend in="SourceGraphic" in2="effect1_backgroundBlur_648_2899" mode="normal" result="shape"/></filter><filter id="e" color-interpolation-filters="sRGB" filterUnits="userSpaceOnUse" height="21.1165" width="15.6834" x="8.87901" y="26.0045"><feFlood flood-opacity="0" result="BackgroundImageFix"/><feGaussianBlur in="BackgroundImageFix" stdDeviation="1.12495"/><feComposite in2="SourceAlpha" operator="in" result="effect1_backgroundBlur_648_2899"/><feBlend in="SourceGraphic" in2="effect1_backgroundBlur_648_2899" mode="normal" result="shape"/></filter><filter id="f" color-interpolation-filters="sRGB" filterUnits="userSpaceOnUse" height="9.80989" width="50.8709" x="5.5587" y="4.50206"><feFlood flood-opacity="0" result="BackgroundImageFix"/><feGaussianBlur in="BackgroundImageFix" stdDeviation="1.12495"/><feComposite in2="SourceAlpha" operator="in" result="effect1_backgroundBlur_648_2899"/><feColorMatrix in="SourceAlpha" result="hardAlpha" type="matrix" values="0 0 0 0 0 0 0 0 0 0 0 0 0 0 0 0 0 0 127 0"/><feOffset dy=".676391"/><feGaussianBlur stdDeviation=".845489"/><feComposite in2="hardAlpha" operator="out"/><feColorMatrix type="matrix" values="0 0 0 0 0 0 0 0 0 0 0 0 0 0 0 0 0 0 0.05 0"/><feBlend in2="effect1_backgroundBlur_648_2899" mode="normal" result="effect2_dropShadow_648_2899"/><feBlend in="SourceGraphic" in2="effect2_dropShadow_648_2899" mode="normal" result="shape"/></filter><linearGradient id="g" gradientUnits="userSpaceOnUse" x1="17.8839" x2="68.8976" y1="13.5633" y2="40.0663"><stop offset="0" stop-color="#617cff"/><stop offset="1" stop-color="#bfc6ff"/></linearGradient><linearGradient id="h" gradientUnits="userSpaceOnUse" x1="7.62344" x2="62.6774" y1="53.3234" y2="33.6586"><stop offset="0" stop-color="#fff" stop-opacity=".45"/><stop offset="1" stop-color="#fff" stop-opacity="0"/></linearGradient><linearGradient id="i"><stop offset="0" stop-color="#fff" stop-opacity=".7"/><stop offset="1" stop-color="#fff" stop-opacity=".5"/></linearGradient><linearGradient id="j" gradientUnits="userSpaceOnUse" x1="32.2714" x2="32.2714" xlink:href="#i" y1="54.8369" y2="16.7583"/><linearGradient id="k"><stop offset="0" stop-color="#fff"/><stop offset="1" stop-color="#fff" stop-opacity="0"/></linearGradient><linearGradient id="l" gradientUnits="userSpaceOnUse" x1="2.98603" x2="12.8705" xlink:href="#k" y1="59.961" y2="8.77814"/><linearGradient id="m" gradientUnits="userSpaceOnUse" x1="46.1686" x2="46.1686" xlink:href="#i" y1="47.214" y2="24.9401"/><linearGradient id="n" gradientUnits="userSpaceOnUse" x1="17.7457" x2="21.3121" xlink:href="#k" y1="50.2113" y2="19.5706"/><linearGradient id="o" gradientUnits="userSpaceOnUse" x1="17.3581" x2="17.358" xlink:href="#i" y1="47.4906" y2="25.1853"/><linearGradient id="p" gradientUnits="userSpaceOnUse" x1="-11.1093" x2="-7.53848" xlink:href="#k" y1="50.4922" y2="19.8081"/><linearGradient id="q" gradientUnits="userSpaceOnUse" x1="41.8977" x2="41.8977" y1="12.7631" y2="5.79288"><stop offset="0" stop-color="#fff"/><stop offset="1" stop-color="#fff" stop-opacity=".4"/></linearGradient><linearGradient id="r" gradientUnits="userSpaceOnUse" x1="-28.6489" x2="-28.5063" xlink:href="#k" y1="13.7011" y2="3.98478"/><linearGradient id="s" gradientUnits="userSpaceOnUse" x1="17.9444" x2="17.9444" xlink:href="#k" y1="12.7394" y2="5.80261"/><linearGradient id="t" gradientUnits="userSpaceOnUse" x1="4.79186" x2="5.54485" xlink:href="#k" y1="13.6728" y2="4.0601"/><linearGradient id="u" gradientUnits="userSpaceOnUse" x1="10.697" x2="10.697" xlink:href="#k" y1="12.7421" y2="5.80982"/><linearGradient id="v" gradientUnits="userSpaceOnUse" x1="-2.50297" x2="-1.75361" xlink:href="#k" y1="13.6749" y2="4.06795"/><path clip-rule="evenodd" d="m53.2966 61.9911c4.8599-.0423 8.6832-3.8047 8.6832-8.624.0237-14.92.0237-29.8401 0-44.76015-.0084-4.82267-3.8723-8.60707398-8.695-8.60707398h-44.56063c-.59041-.00309378-1.17961.05356068-1.75862.16909798-1.97639.387298-3.75491 1.454096-5.02711 3.015396-1.272198 1.56129-1.957842 3.51861-1.93802204 5.53249v22.22794c0 7.3777 0 14.7639.01521884 22.1518-.0032914.8407.0983902 1.6786.3026852 2.4942 1.023038 3.8757 4.440508 6.4003 8.608768 6.4003h33.79921c1.1748 0 2.3495.0034 3.5242.0068 2.3491.0067 4.698.0135 7.0461-.0068z" fill="url(#g)" fill-rule="evenodd"/><g filter="url(#a)"><path d="m57.0638 37.5091v15.5062c0 2.3674-1.4153 3.7895-3.7709 3.7895h-44.23423c-2.48912 0-3.86726-1.3832-3.86726-3.8808 0-10.4841 0-20.9681 0-31.4522 0-2.4299 1.37645-3.8182 3.7861-3.8199h44.04319c.4632-.0135.9264.0279 1.3798.1234 1.6521.4042 2.6583 1.7248 2.6599 3.4665.0068 5.4247.0079 10.8471.0034 16.2673z" fill="#b5baff" fill-opacity=".6"/><path d="m56.7807 37.5088v.0003.0302.0303.0303.0303.0303.0303.0303.0302.0303.0303.0303.0303.0303.0303.0302.0303.0303.0303.0303.0303.0303.0302.0303.0303.0303.0303.0303.0302.0303.0303.0303.0303.0303.0303.0302.0303.0303.0303.0303.0303.0303.0302.0303.0303.0303.0303.0303.0303.0302.0303.0303.0303.0303.0303.0303.0302.0303.0303.0303.0303.0303.0303.0302.0303.0303.0303.0303.0303.0303.0302.0303.0303.0303.0303.0303.0303.0302.0303.0303.0303.0303.0303.0303.0302.0303.0303.0303.0303.0303.0303.0302.0303.0303.0303.0303.0303.0303.0302.0303.0303.0303.0303.0303.0303.0302.0303.0303.0303.0303.0303.0303.0302.0303.0303.0303.0303.0303.0303.0302.0303.0303.0303.0303.0303.0303.0302.0303.0303.0303.0303.0303.0303.0302.0303.0303.0303.0303.0303.0303.0302.0303.0303.0303.0303.0303.0303.0302.0303.0303.0303.0303.0303.0303.0302.0303.0303.0303.0303.0303.0303.0302.0303.0303.0303.0303.0303.0303.0302.0303.0303.0303.0303.0303.0303.0302.0303.0303.0303.0303.0303.0303.0302.0303.0303.0303.0303.0303.0303.0302.0303.0303.0303.0303.0303.0303.0302.0303.0303.0303.0303.0303.0303.0302.0303.0303.0303.0303.0303.0303.0302.0303.0303.0303.0303.0303.0303.0302.0303.0303.0303.0303.0303.0303.0302.0303.0303.0303.0303.0303.0303.0302.0303.0303.0303.0303.0303.0303.0302.0303.0303.0303.0303.0303.0303.0302.0303.0303.0303.0303.0303.0303.0302.0303.0303.0303.0303.0303.0303.0302.0303.0303.0303.0303.0303.0303.0302.0303.0303.0303.0303.0303.0302.0303.0303.0303.0303.0303.0303.0302.0303.0303.0303.0303.0303.0303.0302.0303.0303.0303.0303.0303.0303.0302.0303.0303.0303.0303.0303.0303.0302.0303.0303.0303.0303.0303.0303.0302.0303.0303.0303.0303.0303.0303.0302.0303.0303.0303.0303.0303.0303.0302.0303.0303.0303.0303.0303.0303.0302.0303.0303.0303.0303.0303.0303.0302.0303.0303.0303.0303.0303.0303.0302.0303.0303.0303.0303.0303.0303.0302.0303.0303.0303.0303.0303.0303.0302.0303.0303.0303.0303.0303.0303.0302.0303.0303.0303.0303.0303.0303.0302.0303.0303.0303.0303.0303.0303.0302.0303.0303.0303.0303.0303.0303.0302.0303.0303.0303.0303.0303.0303.0302.0303.0303.0303.0303.0303.0303.0302.0303.0303.0303.0303.0303.0303.0302.0303.0303.0303.0303.0303.0303.0302.0303.0303.0303.0303.0303.0303.0302.0303.0303.0303.0303.0303.0303.0302.0303.0303.0303.0303.0303.0303.0302.0303.0303.0303.0303.0303.0303.0302.0303.0303.0303.0303.0303.0303.0302.0303.0303.0303.0303.0303.0303.0302.0303.0303.0303.0303.0303.0303.0302.0303.0303.0303.0303.0303.0303.0302.0303.0303.0303.0303.0303.0303.0302.0303.0303.0303.0303.0303.0303.0302.0303.0303.0303.0303.0303.0303.0302.0303.0303.0303.0303.0303.0303.0302.0303.0303.0303.0303.0303.0303.0302.0303.0303.0303.0303.0303.0302.0303.0303.0303c0 1.1272-.3359 1.9961-.9197 2.5828-.5836.5865-1.4475.9235-2.5681.9235h-44.23423c-1.1933 0-2.07877-.3307-2.66648-.9205-.58786-.5899-.91764-1.479-.91764-2.6771v-.0614-.0615-.0614-.0614-.0615-.0614-.0614-.0614-.0615-.0614-.0614-.0615-.0614-.0614-.0615-.0614-.0614-.0614-.0615-.0614-.0614-.0615-.0614-.0614-.0615-.0614-.0614-.0614-.0615-.0614-.0614-.0615-.0614-.0614-.0615-.0614-.0614-.0614-.0615-.0614-.0614-.0615-.0614-.0614-.0615-.0614-.0614-.0614-.0615-.0614-.0614-.0615-.0614-.0614-.0615-.0614-.0614-.0614-.0615-.0614-.0614-.0615-.0614-.0614-.0615-.0614-.0614-.0614-.0615-.0614-.0614-.0615-.0614-.0614-.0615-.0614-.0614-.0614-.0615-.0614-.0614-.0615-.0614-.0614-.0615-.0614-.0614-.0614-.0615-.0614-.0614-.0615-.0614-.0614-.0615-.0614-.0614-.0614-.0615-.0614-.0614-.0615-.0614-.0614-.0615-.0614-.0614-.0614-.0615-.0614-.0614-.0615-.0614-.0614-.0615-.0614-.0614-.0614-.0615-.0614-.0614-.0615-.0614-.0614-.0615-.0614-.0614-.0614-.0615-.0614-.0614-.0615-.0614-.0614-.0615-.0614-.0614-.0614-.0615-.0614-.0614-.0615-.0614-.0614-.0615-.0614-.0614-.0614-.0615-.0614-.0614-.0615-.0614-.0614-.0615-.0614-.0614-.0614-.0615-.0614-.0614-.0615-.0614-.0614-.0615-.0614-.0614-.0614-.0615-.0614-.0614-.0615-.0614-.0614-.0615-.0614-.0614-.0614-.0615-.0614-.0614-.0615-.0614-.0614-.0615-.0614-.0614-.0614-.0615-.0614-.0614-.0615-.0614-.0614-.0615-.0614-.0614-.0614-.0615-.0614-.0614-.0615-.0614-.0614-.0615-.0614-.0614-.0614-.0615-.0614-.0614-.0615-.0614-.0614-.0615-.0614-.0614-.0614-.0615-.0614-.0614-.0615-.0614-.0614-.0615-.0614-.0614-.0614-.0615-.0614-.0614-.0615-.0614-.0614-.0615-.0614-.0614-.0614-.0615-.0614-.0614-.0615-.0614-.0614-.0615-.0614-.0614-.0614-.0615-.0614-.0614-.0615-.0614-.0614-.0615-.0614-.0614-.0614-.0615-.0614-.0614-.0615-.0614-.0614-.0615-.0614-.0614-.0614-.0615-.0614-.0614-.0615-.0614-.0614-.0615-.0614-.0614-.0614-.0615-.0614-.0614-.0615-.0614-.0614-.0615-.0614-.0614-.0615-.0614-.0614-.0614-.0615-.0614-.0614-.0615-.0614-.0614-.0615-.0614-.0614-.0614-.0615-.0614-.0614-.0615-.0614-.0614-.0615-.0614-.0614-.0614-.0615-.0614-.0614-.0615-.0614-.0614-.0615-.0614-.0614-.0614-.0615-.0614-.0614-.0615-.0614-.0614-.0615-.0614-.0614-.0614-.0615-.0614-.0614-.0615-.0614-.0614-.0615-.0614-.0614-.0614-.0615-.0614-.0614-.0615-.0614-.0614-.0615-.0614-.0614-.0614-.0615-.0614-.0614-.0615-.0614-.0614-.0615-.0614-.0614-.0614-.0615-.0614-.0614-.0615-.0614-.0614-.0615-.0614-.0614-.0614-.0615-.0614-.0614-.0615-.0614-.0614-.0615-.0614-.0614-.0614-.0615-.0614-.0614-.0615-.0614-.0614-.0615-.0614-.0614-.0614-.0615-.0614-.0614-.0615-.0614-.0614-.0615-.0614-.0614-.0614-.0615-.0614-.0614-.0615-.0614-.0614-.0615-.0614-.0614-.0614-.0615-.0614-.0614-.0615-.0614-.0614-.0615-.0614-.0614-.0614-.0615-.0614-.0614-.0615-.0614-.0614-.0615-.0614-.0614-.0614-.0615-.0614-.0614-.0615-.0614-.0614-.0615-.0614-.0614-.0614-.0615-.0614-.0614-.0615-.0614-.0614-.0615-.0614-.0614-.0614-.0615-.0614-.0614-.0615-.0614-.0614-.0615-.0614-.0614-.0614-.0615-.0614-.0614-.0615-.0614-.0614-.0615-.0614-.0614-.0614-.0615-.0614-.0614-.0615-.0614-.0614-.0615-.0614-.0614-.0614-.0615-.0614-.0614-.0615-.0614-.0614-.0615-.0614-.0614-.0614-.0615-.0614-.0614-.0615-.0614-.0614-.0615-.0614-.0614-.0614-.0615-.0614-.0614-.0615-.0614-.0614-.0615-.0614-.0614-.0614-.0615c0-1.1624.32836-2.037.90739-2.6212.5787-.5838 1.4448-.9147 2.59576-.9155h.08583.08602.08602.08602.08602.08603.08602.08602.08602.08602.08603.08605.086.086.086.0861.086.086.086.086.0861.086.086.086.0861.086.086.086.086.0861.086.086.086.086.0861.086.086.086.0861.086.086.086.086.0861.086.086.086.0861.086.086.086.086.0861.086.086.086.0861.086.086.086.086.0861.086.086.086.086.0861.086.086.086.0861.086.086.086.086.0861.086.086.086.0861.086.086.086.086.0861.086.086.086.0861.086.086.086.086.0861.086.086.086.086.0861.086.086.086.0861.086.086.086.086.0861.086.086.086.0861.086.086.086.086.0861.086.086.086.0861.086.086.086.086.0861.086.086.086.086.0861.086.086.086.0861.086.086.086.086.0861.086.086.086.0861.086.086.086.086.0861.086.086.086.0861.086.086.086.086.0861.086.086.086.086.0861.086.086.086.0861.086.086.086.086.0861.086.086.086.0861.086.086.086.086.0861.086.086.086.0861.086.086.086.086.0861.086.086.086.086.0861.086.086.086.0861.086.086.086.086.0861.086.086.086.0861.086.086.086.086.0861.086.086.086.0861.086.086.086.086.0861.086.086.086.086.0861.086.086.086.0861.086.086.086.086.0861.086.086.086.0861.086.086.086.086.0861.086.086.086.0861.086.086.086.086.0861.086.086.086.086.0861.086.086.086.0861.086.086.086.086.0861.086.086.086.0861.086.086.086.086.0861.086.086.086.0861.086.086.086.086.0861.086.086.086.086.0861.086.086.086.0861.086.086.086.086.0861.086.086.086.0861.086.086.086.086.0861.086.086.086.0861.086.086.086.086.0861.086.086.086.086.0861.086.086.086.0861.086.086.086.086.0861.086.086.086.0861.086.086.086.086.0861.086.086.086.0861.086.086.086.086.0861.086.086.086.086.0861.086.086.086.0861.086.086.086.086.0861.086.086.086.0861.086.086.086.086.0861.086.086.086.0861.086.086.086.086.0861.086.086.086.086.0861.086.086.086.0861.086.086.086.086.0861.086.086.086.0861.086.086.086.086.0861.086.086.086.0861.086.086.086.086.0861.086.086.086.0861.086.086.086.086.0861.086.086.086.086.0861.086.086.086.0861.086.086.086.086.0861.086.086.086.0861.086.086.086.086.0861.086.086.086.0861.086.086.086.086.0861.086.086.086.086.0861.086.086.086.0861.086.086.086.086.0861.086.086.086.0861.086.086.086.086.0861.086.086.086.086.0861.086.086.086.0861.086.086.086.086.0861.086.086.086.0861.086.086.086.086.0861.086.086.086.0861.086.086.086.086.0861.086.086v.0001l.0083-.0003c.4393-.0128.8786.0263 1.3087.1166 1.5171.373 2.438 1.5749 2.4396 3.1906v.0001c.0068 5.4245.0079 10.8467.0034 16.2666z" stroke="url(#h)" stroke-width=".566297"/></g><g filter="url(#b)"><g filter="url(#c)"><path d="m25.8633 47.6932c.0811-.3686.1454-.7423.2452-1.1042 2.0866-7.5096 4.2054-15.0108 6.2397-22.5339.399-1.4796 1.9277-2.2744 3.13-2.0055 1.3375.2993 2.1864 1.9378 1.7958 3.3819-.3534 1.3021-.7221 2.5974-1.0839 3.8893-1.7654 6.3535-3.5313 12.706-5.2979 19.0573-.1635.6278-.5511 1.174-1.0897 1.5357-.5386.3616-1.191.5137-1.834.4275-1.1887-.1437-2.068-1.2733-2.1052-2.6481z" fill="url(#j)"/><path d="m25.8633 47.6932c.0811-.3686.1454-.7423.2452-1.1042 2.0866-7.5096 4.2054-15.0108 6.2397-22.5339.399-1.4796 1.9277-2.2744 3.13-2.0055 1.3375.2993 2.1864 1.9378 1.7958 3.3819-.3534 1.3021-.7221 2.5974-1.0839 3.8893-1.7654 6.3535-3.5313 12.706-5.2979 19.0573-.1635.6278-.5511 1.174-1.0897 1.5357-.5386.3616-1.191.5137-1.834.4275-1.1887-.1437-2.068-1.2733-2.1052-2.6481z" fill="#bbe3ff" fill-opacity=".2"/><path d="m32.3881 24.0659v-.0001c.3933-1.458 1.9002-2.2399 3.081-1.9758.6546.1464 1.1923.6213 1.5184 1.2405.3262.6192.4389 1.3791.2465 2.0902-.2637.9718-.536 1.9398-.8076 2.9056-.0922.328-.1844.6557-.2762.9833v.0001c-1.7654 6.3536-3.5313 12.706-5.2978 19.0573l-.0002.0007c-.161.618-.5426 1.1557-1.0728 1.5117-.5302.3561-1.1724.5058-1.8054.4209l-.0005-.0001c-1.1621-.1405-2.0299-1.2458-2.0687-2.603.0259-.1181.0501-.236.0741-.3536.0512-.2505.1021-.4992.1695-.7435.5748-2.069 1.1522-4.1373 1.7295-6.2057 1.5182-5.4389 3.0364-10.878 4.5102-16.3285z" stroke="url(#l)" stroke-width=".082776"/></g><g filter="url(#d)"><path d="m44.5985 36.2892c-1.2581-1.2564-2.5246-2.4586-3.71-3.737-.4264-.4556-.7291-1.0127-.8793-1.6183-.2317-1.0738.3737-2.0917 1.3528-2.6176.4555-.2572.9824-.3592 1.501-.2906.5186.0687 1.0007.3042 1.3737.6711 2.1058 1.9761 4.1953 3.9704 6.2684 5.9826.9182.8946.7829 2.4875-.2756 3.519-1.7823 1.7366-3.59 3.4462-5.3858 5.1676-.1386.1302-.2739.2621-.4143.3906-1.1837 1.1025-2.6633 1.1228-3.7201.0541-1.0569-1.0687-1.0062-2.5753.1183-3.7201 1.0975-1.1093 2.2068-2.1983 3.3076-3.3127.1454-.1386.2824-.2942.4633-.4887z" fill="url(#m)"/><path d="m44.5985 36.2892c-1.2581-1.2564-2.5246-2.4586-3.71-3.737-.4264-.4556-.7291-1.0127-.8793-1.6183-.2317-1.0738.3737-2.0917 1.3528-2.6176.4555-.2572.9824-.3592 1.501-.2906.5186.0687 1.0007.3042 1.3737.6711 2.1058 1.9761 4.1953 3.9704 6.2684 5.9826.9182.8946.7829 2.4875-.2756 3.519-1.7823 1.7366-3.59 3.4462-5.3858 5.1676-.1386.1302-.2739.2621-.4143.3906-1.1837 1.1025-2.6633 1.1228-3.7201.0541-1.0569-1.0687-1.0062-2.5753.1183-3.7201 1.0975-1.1093 2.2068-2.1983 3.3076-3.3127.1454-.1386.2824-.2942.4633-.4887z" fill="#bbe3ff" fill-opacity=".2"/><path d="m50.5051 34.6794-.0289.0297c.8972.874.771 2.4398-.2756 3.4596-1.228 1.1965-2.4679 2.3801-3.7079 3.5637-.5595.5341-1.119 1.0683-1.6775 1.6036-.0523.0491-.1038.0982-.1552.1471-.0857.0816-.1709.1628-.2585.243l-.0003.0002c-.5856.5455-1.2419.821-1.88.8302-.6377.0091-1.2613-.2478-1.7825-.7749-.521-.5269-.7676-1.1599-.7469-1.8011.0208-.6415.3093-1.2948.8654-1.8609.5344-.5402 1.0716-1.0756 1.6094-1.6115l.0428-.0426c.5519-.5501 1.1044-1.1009 1.6548-1.658.1093-.1043.2142-.2183.3351-.3498.041-.0446.084-.0913.1295-.1403l.0272-.0292-.0282-.0282c-.3601-.3596-.7207-.7146-1.0797-1.068-.8964-.8826-1.7834-1.7557-2.6292-2.668l-.0002-.0001c-.4214-.4502-.7206-1.0008-.8692-1.5993-.2265-1.0516.3656-2.0527 1.3321-2.5719v.0001l.0007-.0005c.4477-.2528.9655-.353 1.4752-.2856.5097.0675.9836.299 1.3501.6596l.0007.0006c2.1057 1.9761 4.195 3.9701 6.268 5.9822zm0 0c-2.0731-2.0122-4.1626-4.0065-6.2684-5.9826l.1927 15.0598c.0879-.0804.1737-.1622.2596-.244.0514-.0489.1028-.0979.1547-.1466.5584-.5353 1.1179-1.0694 1.6775-1.6035 1.24-1.1837 2.4802-2.3675 3.7083-3.5641 1.0585-1.0315 1.1938-2.6244.2756-3.519z" stroke="url(#n)" stroke-width=".082776"/></g><g filter="url(#e)"><path d="m17.6563 36.5873c1.275 1.2716 2.5585 2.4874 3.7557 3.7844.4227.4592.7146 1.0233.8455 1.6335.2063 1.0772-.4245 2.0833-1.4154 2.5855-.4516.2393-.9676.3287-1.4734.2555-.5058-.0733-.9752-.3055-1.3404-.663-2.108-1.9785-4.1992-3.9727-6.2735-5.9827-.8455-.8151-.8455-2.3674.0677-3.2805 2.0765-2.0664 4.193-4.0922 6.3496-6.0774.9841-.9063 2.4756-.7254 3.4157.2689.4624.4609.7234 1.0861.7259 1.7389s-.2536 1.2801-.7123 1.7445c-1.1178 1.1837-2.2879 2.3031-3.4327 3.453-.1607.1606-.3128.3297-.5124.5394z" fill="url(#o)"/><path d="m17.6563 36.5873c1.275 1.2716 2.5585 2.4874 3.7557 3.7844.4227.4592.7146 1.0233.8455 1.6335.2063 1.0772-.4245 2.0833-1.4154 2.5855-.4516.2393-.9676.3287-1.4734.2555-.5058-.0733-.9752-.3055-1.3404-.663-2.108-1.9785-4.1992-3.9727-6.2735-5.9827-.8455-.8151-.8455-2.3674.0677-3.2805 2.0765-2.0664 4.193-4.0922 6.3496-6.0774.9841-.9063 2.4756-.7254 3.4157.2689.4624.4609.7234 1.0861.7259 1.7389s-.2536 1.2801-.7123 1.7445c-1.1178 1.1837-2.2879 2.3031-3.4327 3.453-.1607.1606-.3128.3297-.5124.5394z" fill="#bbe3ff" fill-opacity=".2"/><path d="m17.5985 36.5881.0278-.0293c.0722-.0758.1384-.1466.2012-.2138.1099-.1175.2094-.2239.3119-.3264m-.5409.5695.5702-.5402m-.5702.5402.0286.0285c.3558.3548.712.7051 1.0667 1.0539.9175.9023 1.8249 1.7945 2.6877 2.7292.4176.4537.7061 1.0109.8354 1.6137.2018 1.0549-.4152 2.0446-1.3935 2.5404l-.0006.0003c-.4439.2352-.951.3231-1.4481.2511-.4972-.072-.9585-.3002-1.3174-.6516l-.0006-.0006c-2.108-1.9783-4.199-3.9724-6.2731-5.9822l-.0001-.0001c-.8275-.7977-.8298-2.3233.0682-3.2214m5.7468 1.6388-5.776-1.6681m6.3169 1.0986.0293.0293m-.0293-.0293v.0001l.0293.0292m-.0293-.0293c.3709-.3725.7441-.7415 1.1173-1.1105.7797-.7709 1.5589-1.5414 2.3146-2.3416l.0006-.0007c.4511-.4566.7029-1.0734.7004-1.7152-.0025-.6419-.2591-1.2566-.7137-1.7098l-.0008-.0009c-.9278-.9811-2.3933-1.1549-3.3577-.2668-2.1561 1.9848-4.2723 4.0102-6.3484 6.0762m6.317 1.0986c.3704-.372.7434-.7408 1.1164-1.1097.78-.7712 1.5601-1.5426 2.3163-2.3433.4587-.4644.7148-1.0917.7123-1.7445s-.2635-1.278-.7259-1.7389c-.9401-.9943-2.4316-1.1752-3.4157-.2689-2.1566 1.9852-4.2731 4.011-6.3496 6.0774m.0292.0293-.0292-.0293m.0292.0293s0 0-.0001 0l-.0291-.0293" stroke="url(#p)" stroke-width=".082776"/></g></g><g fill-opacity=".9" filter="url(#f)" stroke-width=".082776"><path d="m40.2792 11.8935h-.0215-.0215-.0215-.0215-.0215-.0214-.0215-.0215-.0215-.0215-.0215-.0215-.0215-.0215-.0215-.0215-.0214-.0215-.0215-.0215-.0215-.0215-.0215-.0215-.0215-.0215-.0214-.0215-.0215-.0215-.0215-.0215-.0215-.0215-.0215-.0215-.0215-.0214-.0215-.0215-.0215-.0215-.0215-.0215-.0215-.0215-.0215-.0214-.0215-.0215-.0215-.0215-.0215-.0215-.0215-.0215-.0215-.0215-.0214-.0215-.0215-.0215-.0215-.0215-.0215-.0215-.0215-.0215-.0215-.0214-.0215-.0215-.0215-.0215-.0215-.0215-.0215-.0215-.0215-.0214-.0215-.0215-.0215-.0215-.0215-.0215-.0215-.0215-.0215-.0215-.0214-.0215-.0215-.0215-.0215-.0215-.0215-.0215-.0215-.0215-.0215-.0214-.0215-.0215-.0215-.0215-.0215-.0215-.0215-.0215-.0215-.0214-.0215-.0215-.0215-.0215-.0215-.0215-.0215-.0215-.0215-.0215-.0214-.0215-.0215-.0215-.0215-.0215-.0215-.0215-.0215-.0215-.0215-.0214-.0215-.0215-.0215-.0215-.0215-.0215-.0215-.0215-.0215-.0214-.0215-.0215-.0215-.0215-.0215-.0215-.0215-.0215-.0215-.0215-.0214-.0215-.0215-.0215-.0215-.0215-.0215-.0215-.0215-.0215-.0215-.0214-.0215-.0215-.0215-.0215-.0215-.0215-.0215-.0215-.0215-.0214-.0215-.0215-.0215-.0215-.0215-.0215-.0215-.0215-.0215-.0215-.0214-.0215-.0215-.0215-.0215-.0215-.0215-.0215-.0215-.0215-.0214-.0215-.0215-.0215-.0215-.0215-.0215-.0215-.0215-.0215-.0215-.0214-.0215-.0215-.0215-.0215-.0215-.0215-.0215-.0215-.0215-.0215-.0214-.0215-.0215-.0215-.0215-.0215-.0215-.0215-.0215-.0215-.0214-.0215-.0215-.0215-.0215-.0215-.0215-.0215-.0215-.0215-.0215-.0214-.0215-.0215-.0215-.0215-.0215-.0215-.0215-.0215-.0215-.0215-.0214-.0215-.0215-.0215-.0215-.0215-.0215-.0215-.0215-.0215-.0214-.0215-.0215-.0215-.0215-.0215-.0215-.0215-.0215-.0215-.0215-.0214-.0215-.0215-.0215-.0215-.0215-.0215-.0215-.0215-.0215-.0215-.0214-.0215-.0215-.0215-.0215-.0215-.0215-.0215-.0215-.0215-.0214-.0215-.0215-.0215-.0215-.0215-.0215-.0215-.0215-.0215-.0215-.0214-.0215-.0215-.0215-.0215-.0215-.0215-.0215-.0215-.0215-.0214-.0215-.0215-.0215-.0215-.0215-.0215-.0215-.0215-.0215-.0215-.0214-.0215-.0215-.0215-.0215-.0215-.0215-.0215-.0215-.0215-.0215-.0214-.0215-.0215-.0215-.0215-.0215-.0215-.0215-.0215-.0215-.0214-.0215-.0215-.0215-.0215-.0215-.0215-.0215-.0215-.0215-.0215-.0214-.0215-.0215-.0215-.0215-.0215-.0215-.0215-.0215-.0215-.0215-.0214-.0215-.0215-.0215-.0215-.0215-.0215-.0215-.0215-.0215-.0214-.0215-.0215-.0215-.0215-.0215-.0215-.0215-.0215-.0215-.0215-.0214-.0215-.0215-.0215-.0215-.0215-.0215-.0215-.0215-.0215-.0215-.0214-.0215-.0215-.0215-.0215-.0215-.0215-.0215-.0215-.0215-.0214-.0215-.0215-.0215-.0215-.0215-.0215-.0215-.0215-.0215-.0215-.0214-.0215-.0215-.0215-.0215-.0215-.0215-.0215-.0215-.0215-.0215-.0214-.0215-.0215-.0215-.0215-.0215-.0215-.0215-.0215-.0215-.0214-.0215-.0215-.0215-.0215-.0215-.0215-.0215-.0215-.0215-.0215-.0214-.0215-.0215-.0215-.0215-.0215-.0215-.0215-.0215-.0215-.0214-.0215-.0215-.0215-.0215-.0215-.0215-.0215-.0215-.0215-.0215-.0214-.0215-.0215-.0215-.0215-.0215-.0215-.0215-.0215-.0215-.0215-.0214-.0215-.0215-.0215-.0215-.0215-.0215-.0215-.0215-.0215-.0214-.0215-.0215-.0215-.0215-.0215-.0215-.0215-.0215-.0215-.0215-.0214-.0215-.0215-.0215-.0215-.0215-.0215c-.7395 0-1.3469-.188-1.8052-.5377-.458-.3496-.7704-.8634-.9157-1.52157-.2893-1.30996.6448-2.74446 1.9822-2.97543.268-.04524.5394-.06711.8112-.06536h.0002.0429.0428.0429.0428.0429.0429.0428.0429.0428.0429.0428.0429.0428.0429.0429.0428.0429.0428.0429.0428.0429.0428.0429.0429.0428.0429.0428.0429.0428.0429.0428.0429.0429.0428.0429.0428.0429.0428.0429.0428.0429.0429.0428.0429.0428.0429.0428.0429.0429.0428.0429.0428.0429.0428.0429.0428.0429.0429.0428.0429.0428.0429.0428.0429.0428.0429.0429.0428.0429.0428.0429.0428.0429.0428.0429.0429.0428.0429.0428.0429.0428.0429.0428.0429.0429.0428.0429.0428.0429.0428.0429.0428.0429.0429.0428.0429.0428.0429.0428.0429.0428.0429.0429.0428.0429.0428.0429.0428.0429.0428.0429.0429.0428.0429.0428.0429.0428.0429.0429.0428.0429.0428.0429.0428.0429.0428.0429.0429.0428.0429.0428.0429.0428.0429.0428.0429.0429.0428.0429.0428.0429.0428.0429.0428.0429.0429.0428.0429.0428.0429.0428.0429.0428.0429.0429.0428.0429.0428.0429.0428.0429.0428.0429.0429.0428.0429.0428.0429.0428.0429.0428.0429.0429.0428.0429.0428.0429.0428.0429.0428.0429.0429.0428.0429.0428.0429.0428.0429.0429.0428.0429.0428.0429.0428.0429.0428.0429.0429.0428.0429.0428.0429.0428.0429.0428.0429.0429.0428.0429.0428.0429.0428.0429.0428.0429.0429.0428.0429.0428.0429.0428.0429.0428.0429.0429.0428.0429.0428.0429.0428.0429.0428.0429.0429.0428.0429.0428.0429.0428.0429.0428.0429.0429.0428.0429.0428.0429.0428.0429.0429.0428.0429.0428.0429.0428.0429.0428.0429.0429.0428.0429.0428.0429.0428.0429.0428.0429.0429.0428.0429.0428.0429.0428.0429.0428.0429.0429.0428.0429.0428.0429.0428.0429.0428.0429.0429.0428.0429.0428.0429.0428.0429.0428.0429.0429.0428.0429.0428.0429.0428.0429.0428.0429.0429.0428.0429.0428.0429.0428.0429.0428.0429.0429.0428.0429.0428.0429.0428.0429.0429.0428.0429.0428.0429.0428.0429.0428.0429.0429.0428.0429.0428.0429.0428.0429.0428.0429.0429.0428.0429.0428.0429.0428.0429.0428.0429.0429.0428.0429.0428.0429.0428.0429.0428.0429.0429.0428.0429.0428.0429.0428.0429.0428.0429.0429.0428.0429.0428.0429.0428.0429.0428.0429.0429.0428.0429.0428.0429.0428.0429.0429.0428.0429.0428.0429.0428.0429.0428.0429.0429.0428.0429.0428.0429.0428.0429.0428.0429.0429.0428.0429.0428.0429.0428.0429.0428.0429.0429.0428.0429.0428.0429.0428.0429.0428.0429.0429.0428.0429.0428.0429.0428.0429.0428.0429.0429.0428.0429.0428.0429.0428.0429.0428.0429.0429.0428.0429.0428.0429.0428.0429.0428.0429.0429.0428.0429.0428.0429.0428.0429.0428.0429.0429.0428.0429.0428.0429.0428.0429.0429.0428.0429.0428.0429.0428.0429.0428.0429.0429.0428.0429.0428.0429.0428.0429.0428.0429.0429.0428.0429.0428.0429.0428.0429.0428.0429.0429.0428.0429.0428.0429.0428.0429.0428.0429.0429.0428.0429.0428.0429.0428.0429.0428.0429.0429.0428.0429.0428.0429.0428.0429.0428c1.4693 0 2.6975 1.00243 2.8336 2.27795v.00018c.0721.64836-.1629 1.31403-.5856 1.83403-.4226.52-1.0302.8912-1.6989.9543-.527.0503-1.0593.0452-1.5933.0401-.1625-.0015-.3251-.0031-.4878-.0031-3.1587 0-6.3186-.0011-9.4796-.0034z" fill="url(#q)" stroke="url(#r)"/><path d="m17.6232 11.8832c-.5037-.0054-.9944-.1602-1.4099-.4449-.4155-.2846-.7371-.6863-.924-1.154-.1869-.46772-.2307-.9804-.1257-1.47302.1049-.49262.3538-.94298.715-1.29395.3613-.35096.8186-.58672 1.3141-.67735.4954-.09064 1.0066-.03208 1.4688.16825.4621.20034.8543.53341 1.1268.95698s.4131.91854.4039 1.42213c-.0122.67086-.2892 1.30956-.7704 1.77716-.4812.4675-1.1277.7258-1.7986.7187z" fill="url(#s)" stroke="url(#t)"/><path d="m10.4609 11.8861v-.0046h-.0414c-.65523 0-1.2971-.3063-1.77611-.7778-.47903-.4715-.79174-1.10486-.7934-1.75462s.30815-1.28601.78489-1.76046c.47673-.47443 1.11686-.78355 1.77102-.78355h.0002c.6738-.00177 1.3207.26422 1.7985.73946.4777.47523.7471 1.12077.7488 1.79462.0018.67385-.2642 1.32075-.7394 1.79855-.4655.4679-1.0943.7359-1.7531.7484z" fill="url(#u)" stroke="url(#v)"/></g></svg>