<svg fill="none" height="70" viewBox="0 0 78 70" width="78" xmlns="http://www.w3.org/2000/svg" xmlns:xlink="http://www.w3.org/1999/xlink"><filter id="a" color-interpolation-filters="sRGB" filterUnits="userSpaceOnUse" height="74.3111" width="78" x="-9.75001" y="-9.75001"><feFlood flood-opacity="0" result="BackgroundImageFix"/><feGaussianBlur in="BackgroundImageFix" stdDeviation="4.87501"/><feComposite in2="SourceAlpha" operator="in" result="effect1_backgroundBlur_648_2887"/><feBlend in="SourceGraphic" in2="effect1_backgroundBlur_648_2887" mode="normal" result="shape"/></filter><filter id="b" color-interpolation-filters="sRGB" filterUnits="userSpaceOnUse" height="74.2759" width="78" x="9.74999" y="4.87499"><feFlood flood-opacity="0" result="BackgroundImageFix"/><feGaussianBlur in="BackgroundImageFix" stdDeviation="4.87501"/><feComposite in2="SourceAlpha" operator="in" result="effect1_backgroundBlur_648_2887"/><feBlend in="SourceGraphic" in2="effect1_backgroundBlur_648_2887" mode="normal" result="shape"/></filter><filter id="c" color-interpolation-filters="sRGB" filterUnits="userSpaceOnUse" height="24.8797" width="42.8797" x="24.0601" y="34.0601"><feFlood flood-opacity="0" result="BackgroundImageFix"/><feGaussianBlur in="BackgroundImageFix" stdDeviation="4.96993"/><feComposite in2="SourceAlpha" operator="in" result="effect1_backgroundBlur_648_2887"/><feBlend in="SourceGraphic" in2="effect1_backgroundBlur_648_2887" mode="normal" result="shape"/></filter><filter id="d" color-interpolation-filters="sRGB" filterUnits="userSpaceOnUse" height="24.8797" width="49.8797" x="24.0601" y="19.0601"><feFlood flood-opacity="0" result="BackgroundImageFix"/><feGaussianBlur in="BackgroundImageFix" stdDeviation="4.96993"/><feComposite in2="SourceAlpha" operator="in" result="effect1_backgroundBlur_648_2887"/><feBlend in="SourceGraphic" in2="effect1_backgroundBlur_648_2887" mode="normal" result="shape"/></filter><linearGradient id="e" gradientUnits="userSpaceOnUse" x1="-12.9673" x2="10.3859" y1=".018693" y2="84.2676"><stop offset="0" stop-color="#75eda1"/><stop offset="1" stop-color="#349256"/></linearGradient><linearGradient id="f"><stop offset="0" stop-color="#fff" stop-opacity="0"/><stop offset=".979167" stop-color="#fff"/></linearGradient><linearGradient id="g" gradientUnits="userSpaceOnUse" x1="63.6252" x2="60.8818" xlink:href="#f" y1="43.7534" y2="62.3612"/><linearGradient id="h"><stop offset="0" stop-color="#fff" stop-opacity="0"/><stop offset="1" stop-color="#fff"/></linearGradient><linearGradient id="i" gradientUnits="userSpaceOnUse" x1="59.5" x2="59.5" xlink:href="#h" y1="44" y2="67"/><linearGradient id="j" gradientUnits="userSpaceOnUse" x1="72.7483" x2="66.3099" xlink:href="#f" y1="25.4591" y2="53.9723"/><linearGradient id="k" gradientUnits="userSpaceOnUse" x1="66.5" x2="66.5" xlink:href="#h" y1="29" y2="59"/><g filter="url(#a)"><path d="m56.5407 7.3125c1.9594 3.3938 1.9594 7.95 1.9594 17.0625 0 9.1126 0 13.6688-1.9594 17.0626-1.2836 2.2232-3.1298 4.0695-5.3531 5.3531-3.3938 1.9594-7.95 1.9594-17.0625 1.9594h-9.7501c-2.7463 0-5.0787 0-7.0903-.0537l-9.95098 5.9068c-1.02577.6088-2.30978-.2003-2.20316-1.3884l.66675-7.4294c-1.55185-1.1749-2.85862-2.6516-3.83792-4.3478-1.95938869-3.3938-1.9593892-7.95-1.95939-17.0626-.0000008-9.1125-.00000131-13.6687 1.95938-17.06249 1.28362-2.22328 3.12985-4.06951 5.35312-5.35312 3.3938-1.95938782 7.95-1.95938835 17.0625-1.95938915l9.7501-.00000085c9.1125-.0000008 13.6687-.00000131 17.0625 1.95938 2.2233 1.28362 4.0695 3.12984 5.3531 5.35312z" fill="url(#e)"/></g><g filter="url(#b)"><path d="m21.4594 21.9375c-1.9594 3.3938-1.9594 7.95-1.9594 17.0625 0 9.1126 0 13.6688 1.9594 17.0626 1.2836 2.2232 3.1298 4.0695 5.3531 5.3531 3.3938 1.9594 7.95 1.9594 17.0625 1.9594h9.7501c2.8672 0 5.2833 0 7.3541-.0611l9.6718 5.8716c1.0253.6225 2.3228-.1862 2.2156-1.3809l-.6636-7.3945c1.5517-1.1748 2.8585-2.6515 3.8377-4.3476 1.9594-3.3938 1.9594-7.95 1.9594-17.0626 0-9.1125 0-13.6687-1.9594-17.0625-1.2836-2.2233-3.1298-4.0695-5.3531-5.3531-3.3938-1.9594-7.95-1.9594-17.0625-1.9594h-9.7501c-9.1125 0-13.6687 0-17.0625 1.9594-2.2233 1.2836-4.0695 3.1298-5.3531 5.3531z" fill="#6ae092" fill-opacity=".6"/></g><g filter="url(#c)"><rect fill="url(#g)" fill-opacity=".9" height="23" rx="2.5" transform="matrix(0 1 -1 0 101 -13)" width="5" x="57" y="44"/><rect height="22.6343" rx="2.31715" stroke="url(#i)" stroke-width=".365699" transform="matrix(0 1 -1 0 101 -12.6344)" width="4.6343" x="56.8172" y="44.1828"/></g><g filter="url(#d)"><rect fill="url(#j)" fill-opacity=".9" height="30" rx="2.5" transform="matrix(0 1 -1 0 93 -35)" width="5" x="64" y="29"/><rect height="29.6343" rx="2.31715" stroke="url(#k)" stroke-width=".365699" transform="matrix(0 1 -1 0 93 -34.6344)" width="4.6343" x="63.8172" y="29.1828"/></g></svg>