<svg fill="none" height="85" viewBox="0 0 82 85" width="82" xmlns="http://www.w3.org/2000/svg" xmlns:xlink="http://www.w3.org/1999/xlink"><filter id="a" color-interpolation-filters="sRGB" filterUnits="userSpaceOnUse" height="80.4584" width="76.0531" x=".510544" y=".42778"><feFlood flood-opacity="0" result="BackgroundImageFix"/><feBlend in="SourceGraphic" in2="BackgroundImageFix" mode="normal" result="shape"/><feGaussianBlur result="effect1_foregroundBlur_648_2869" stdDeviation="9.98496"/></filter><filter id="b" color-interpolation-filters="sRGB" filterUnits="userSpaceOnUse" height="96.0546" width="89.9162" x="9.57708" y="6.43621"><feFlood flood-opacity="0" result="BackgroundImageFix"/><feGaussianBlur in="BackgroundImageFix" stdDeviation="8.87552"/><feComposite in2="SourceAlpha" operator="in" result="effect1_backgroundBlur_648_2869"/><feBlend in="SourceGraphic" in2="effect1_backgroundBlur_648_2869" mode="normal" result="shape"/></filter><filter id="c" color-interpolation-filters="sRGB" filterUnits="userSpaceOnUse" height="53.6942" width="50.0951" x="29.3548" y="27.5682"><feFlood flood-opacity="0" result="BackgroundImageFix"/><feGaussianBlur in="BackgroundImageFix" stdDeviation="5.5472"/><feComposite in2="SourceAlpha" operator="in" result="effect1_backgroundBlur_648_2869"/><feColorMatrix in="SourceAlpha" result="hardAlpha" type="matrix" values="0 0 0 0 0 0 0 0 0 0 0 0 0 0 0 0 0 0 127 0"/><feOffset dx="3.69813" dy="3.69813"/><feGaussianBlur stdDeviation="3.69813"/><feColorMatrix type="matrix" values="0 0 0 0 0.577356 0 0 0 0 0.359375 0 0 0 0 0.9375 0 0 0 0.5 0"/><feBlend in2="effect1_backgroundBlur_648_2869" mode="normal" result="effect2_dropShadow_648_2869"/><feBlend in="SourceGraphic" in2="effect2_dropShadow_648_2869" mode="normal" result="shape"/></filter><linearGradient id="d" gradientUnits="userSpaceOnUse" x1="32.5653" x2="47.9124" y1="12.8803" y2="69.9071"><stop offset="0" stop-color="#bc94ff"/><stop offset="1" stop-color="#9f66ff"/></linearGradient><linearGradient id="e"><stop offset="0" stop-color="#fff" stop-opacity=".25"/><stop offset="1" stop-color="#fff" stop-opacity="0"/></linearGradient><linearGradient id="f" gradientUnits="userSpaceOnUse" x1="36.4927" x2="74.8322" xlink:href="#e" y1="31.8091" y2="74.359"/><linearGradient id="g" gradientUnits="userSpaceOnUse" x1="66.3785" x2="35.2846" y1="44.3518" y2="45.2499"><stop offset="0" stop-color="#fff"/><stop offset="1" stop-color="#fff" stop-opacity=".2"/></linearGradient><linearGradient id="h" gradientUnits="userSpaceOnUse" x1="44.8917" x2="65.3623" xlink:href="#e" y1="42.333" y2="64.7915"/><mask id="i" fill="#fff"><path clip-rule="evenodd" d="m43.0074 38.6626v.0295c-1.2675 0-2.2938 1.0338-2.2938 2.3039s1.0263 2.3038 2.2938 2.3038h8.79c1.2675 0 2.2968-1.0337 2.2968-2.3363 0-1.2671-1.0293-2.3009-2.2968-2.3009zm23.0559 17.9883h-23.0559c-1.2675 0-2.2938-1.0338-2.2938-2.3039 0-1.27 1.0263-2.3068 2.2938-2.3068h23.0559c1.2645 0 2.2938 1.0368 2.2938 2.3068 0 1.2701-1.0293 2.3039-2.2938 2.3039zm.0003 13.498h-23.0559c-.8822.1182-1.7351-.3249-2.2056-1.0633-.4705-.7679-.4705-1.7426 0-2.4811.4705-.7679 1.3234-1.1814 2.2056-1.0928h23.0559c1.1733.1181 2.0585 1.1224 2.0585 2.3334 0 1.1785-.8852 2.1857-2.0585 2.3038z" fill="#fff" fill-rule="evenodd"/></mask><path d="m44.4703 9.67649-23.8071 6.40691c-8.6354 2.324-12.30838 8.7555-9.9869 17.4571l7.8625 29.4716c2.3595 8.8443 8.7117 12.4555 17.3471 10.1315l23.807-6.4069c8.7746-2.3615 12.3361-8.6406 9.9766-17.4849l-7.8626-29.4716c-2.3214-8.7017-8.5621-12.46513-17.3366-10.10371z" fill="url(#d)"/><g filter="url(#a)"><rect fill="#8237ff" fill-opacity=".5" height="32.0094" rx="10.3548" transform="matrix(-.257768 -.966207 .965643 -.259874 28 63.249)" width="38.155"/></g><g filter="url(#b)"><path d="m66.8585 24.927h-24.6469c-8.94 0-14.1452 5.2575-14.1452 14.2661v30.5113c0 9.1563 5.2052 14.2956 14.1452 14.2956h24.6469c9.0841 0 14.1423-5.1393 14.1423-14.2956v-30.5113c0-9.0086-5.0582-14.2661-14.1423-14.2661z" fill="#ba90ff" fill-opacity=".35"/><path d="m66.8585 24.5572h-24.6469c-4.5423 0-8.1829 1.3371-10.6877 3.8643-2.5044 2.5268-3.8273 6.1968-3.8273 10.7716v30.5113c0 4.6472 1.3221 8.3257 3.8278 10.8423 2.5059 2.5169 6.1471 3.8232 10.6872 3.8232h24.6469c4.6107 0 8.2525-1.3056 10.7407-3.8242 2.4876-2.5179 3.7714-6.1969 3.7714-10.8413v-30.5113c0-4.572-1.2846-8.2426-3.7708-10.7706-2.4871-2.529-6.1283-3.8653-10.7413-3.8653z" stroke="url(#f)" stroke-linecap="round" stroke-linejoin="round" stroke-width=".739627"/></g><g filter="url(#c)"><path clip-rule="evenodd" d="m43.0074 38.6626v.0295c-1.2675 0-2.2938 1.0338-2.2938 2.3039s1.0263 2.3038 2.2938 2.3038h8.79c1.2675 0 2.2968-1.0337 2.2968-2.3363 0-1.2671-1.0293-2.3009-2.2968-2.3009zm23.0559 17.9883h-23.0559c-1.2675 0-2.2938-1.0338-2.2938-2.3039 0-1.27 1.0263-2.3068 2.2938-2.3068h23.0559c1.2645 0 2.2938 1.0368 2.2938 2.3068 0 1.2701-1.0293 2.3039-2.2938 2.3039zm.0003 13.498h-23.0559c-.8822.1182-1.7351-.3249-2.2056-1.0633-.4705-.7679-.4705-1.7426 0-2.4811.4705-.7679 1.3234-1.1814 2.2056-1.0928h23.0559c1.1733.1181 2.0585 1.1224 2.0585 2.3334 0 1.1785-.8852 2.1857-2.0585 2.3038z" fill="url(#g)" fill-rule="evenodd"/><path d="m43.0074 38.6921v.2959h.2959v-.2959zm0-.0295v-.2959h-.2959v.2959zm.0003 31.4863v-.2958h-.0197l-.0196.0026zm23.0559 0v.2959h.0148l.0148-.0015zm-25.2615-1.0633-.2523.1546.0028.0044zm0-2.4811.2496.159.0027-.0044zm2.2056-1.0928-.0296.2944.0148.0014h.0148zm23.0559 0 .0296-.2944-.0148-.0015h-.0148zm-22.7603-26.8196v-.0295h-.5918v.0295zm-2.2939 2.3039c0-1.1082.8954-2.008 1.998-2.008v-.5917c-1.4323 0-2.5897 1.1677-2.5897 2.5997zm1.998 2.008c-1.1026 0-1.998-.8999-1.998-2.008h-.5917c0 1.432 1.1574 2.5997 2.5897 2.5997zm8.79 0h-8.79v.5917h8.79zm2.001-2.0405c0 1.1428-.9005 2.0405-2.001 2.0405v.5917c1.4346 0 2.5927-1.1699 2.5927-2.6322zm-2.001-2.0051c1.1034 0 2.001.9006 2.001 2.0051h.5917c0-1.4298-1.1611-2.5968-2.5927-2.5968zm-8.79 0h8.79v-.5917h-8.79zm0 17.9883h23.0559v-.5917h-23.0559zm-2.5897-2.5997c0 1.432 1.1574 2.5997 2.5897 2.5997v-.5917c-1.1026 0-1.998-.8998-1.998-2.008zm2.5897-2.6026c-1.4328 0-2.5897 1.1711-2.5897 2.6026h.5917c0-1.1086.8959-2.0109 1.998-2.0109zm23.0559 0h-23.0559v.5917h23.0559zm2.5896 2.6026c0-1.4317-1.16-2.6026-2.5896-2.6026v.5917c1.0994 0 1.9979.9026 1.9979 2.0109zm-2.5896 2.5997c1.4291 0 2.5896-1.1674 2.5896-2.5997h-.5917c0 1.1079-.898 2.008-1.9979 2.008zm-23.0556 13.4981h23.0559v-.5917h-23.0559zm-2.4551-1.2002c.5267.8265 1.4877 1.3324 2.4944 1.1976l-.0786-.5865c-.7578.1015-1.5024-.2788-1.9168-.9291zm0-2.799c-.5335.8372-.5302 1.9337-.0028 2.7946l.5046-.3092c-.4136-.675-.4103-1.5279-.0028-2.1675zm2.4847-1.2283c-.9939-.0998-1.9569.3668-2.4875 1.2327l.5046.3091c.4105-.67 1.1532-1.0304 1.9237-.953zm23.0263-.0015h-23.0559v.5917h23.0559zm2.3544 2.6293c0-1.3563-.9937-2.4937-2.3248-2.6278l-.0593.5887c1.0157.1023 1.7924.9733 1.7924 2.0391zm-2.3248 2.5982c1.329-.1338 2.3248-1.2723 2.3248-2.5982h-.5917c0 1.0311-.7746 1.907-1.7924 2.0095z" fill="url(#h)" mask="url(#i)"/></g></svg>