<svg fill="none" height="67" viewBox="0 0 80 67" width="80" xmlns="http://www.w3.org/2000/svg" xmlns:xlink="http://www.w3.org/1999/xlink"><filter id="a" color-interpolation-filters="sRGB" filterUnits="userSpaceOnUse" height="61.9116" width="88.2612" x="-7.20872" y="4.10232"><feFlood flood-opacity="0" result="BackgroundImageFix"/><feGaussianBlur in="BackgroundImageFix" stdDeviation="4.8485"/><feComposite in2="SourceAlpha" operator="in" result="effect1_backgroundBlur_648_2701"/><feBlend in="SourceGraphic" in2="effect1_backgroundBlur_648_2701" mode="normal" result="shape"/></filter><linearGradient id="b"><stop offset="0" stop-color="#fba47f"/><stop offset="1" stop-color="#df6b00"/></linearGradient><linearGradient id="c" gradientUnits="userSpaceOnUse" x1="45.4808" x2="60.0593" xlink:href="#b" y1="52.1562" y2="57.1697"/><linearGradient id="d" gradientUnits="userSpaceOnUse" x1="18.4808" x2="33.0593" xlink:href="#b" y1="52.1562" y2="57.1697"/><linearGradient id="e" gradientUnits="userSpaceOnUse" x1="61.0247" x2="81.0423" xlink:href="#b" y1="5.30331" y2="12.8755"/><linearGradient id="f" gradientUnits="userSpaceOnUse" x1="35.8043" x2="78.07" y1="13.7993" y2="51.5898"><stop offset="0" stop-color="#fff"/><stop offset="1" stop-color="#fff" stop-opacity="0"/></linearGradient><circle cx="49.5" cy="57.5" fill="url(#c)" r="9.5"/><circle cx="22.5" cy="57.5" fill="url(#d)" r="9.5"/><path clip-rule="evenodd" d="m60.3443 2.8501c.785-1.73517 2.5131-2.8501 4.4176-2.8501h10.3896c2.6777 0 4.8485 2.17075 4.8485 4.8485s-2.1708 4.8485-4.8485 4.8485h-7.2615l-5.2908 11.6954c-1.1037 2.4397-3.9762 3.5228-6.4159 2.4191s-3.5228-3.9762-2.4191-6.4159z" fill="url(#e)" fill-rule="evenodd"/><g filter="url(#a)"><path d="m4.8019 32.0465c-2.20741-8.3881-3.31112-12.5822-1.1276-15.4147 2.18353-2.8325 6.5204-2.8325 15.1942-2.8325h36.1094c8.6738 0 13.0106 0 15.1942 2.8325 2.1835 2.8325 1.0798 7.0266-1.1276 15.4147l-3.5333 13.4267c-1.3716 5.2121-2.0574 7.8181-4.0199 9.3309-1.9624 1.5128-4.6572 1.5128-10.0467 1.5128h-29.0428c-5.3895 0-8.0843 0-10.0467-1.5128-1.9625-1.5128-2.64827-4.1188-4.01988-9.3309z" fill="#f8b77b" fill-opacity=".6"/><path d="m5.01831 31.9896c-1.10551-4.2009-1.92782-7.3279-2.20447-9.7591-.27599-2.4255-.00279-4.1124 1.03769-5.4621 1.04049-1.3497 2.60233-2.0432 5.01814-2.3936 2.42153-.3511 5.65483-.3517 9.99883-.3517h36.1094c4.344 0 7.5773.0006 9.9988.3517 2.4158.3504 3.9777 1.0439 5.0181 2.3936 1.0405 1.3497 1.3137 3.0366 1.0377 5.4621-.2766 2.4312-1.0989 5.5582-2.2044 9.7591l-3.5334 13.4266c-.6871 2.6113-1.1979 4.5507-1.7801 6.0276-.58 1.4714-1.2225 2.4605-2.1599 3.1831s-2.0574 1.0922-3.628 1.2787c-1.5764.1872-3.5819.1876-6.2821.1876h-29.0428c-2.7002 0-4.7057-.0004-6.2822-.1876-1.5705-.1865-2.6905-.5561-3.6279-1.2787s-1.5799-1.7117-2.1599-3.1831c-.58224-1.4769-1.09299-3.4163-1.78017-6.0276z" stroke="url(#f)" stroke-width=".447554"/></g></svg>