<svg fill="none" height="79" viewBox="0 0 93 79" width="93" xmlns="http://www.w3.org/2000/svg" xmlns:xlink="http://www.w3.org/1999/xlink"><filter id="a" color-interpolation-filters="sRGB" filterUnits="userSpaceOnUse" height="78.1868" width="93" x="0" y="0"><feFlood flood-opacity="0" result="BackgroundImageFix"/><feColorMatrix in="SourceAlpha" result="hardAlpha" type="matrix" values="0 0 0 0 0 0 0 0 0 0 0 0 0 0 0 0 0 0 127 0"/><feOffset dy="4"/><feGaussianBlur stdDeviation="2"/><feComposite in2="hardAlpha" operator="out"/><feColorMatrix type="matrix" values="0 0 0 0 0 0 0 0 0 0 0 0 0 0 0 0 0 0 0.25 0"/><feBlend in2="BackgroundImageFix" mode="normal" result="effect1_dropShadow_648_2679"/><feBlend in="SourceGraphic" in2="effect1_dropShadow_648_2679" mode="normal" result="shape"/></filter><filter id="b" color-interpolation-filters="sRGB" filterUnits="userSpaceOnUse" height="56.3408" width="86.3787" x="-9.66003" y="1.84485"><feFlood flood-opacity="0" result="BackgroundImageFix"/><feGaussianBlur in="BackgroundImageFix" stdDeviation="7.37494"/><feComposite in2="SourceAlpha" operator="in" result="effect1_backgroundBlur_648_2679"/><feBlend in="SourceGraphic" in2="effect1_backgroundBlur_648_2679" mode="normal" result="shape"/></filter><filter id="c" color-interpolation-filters="sRGB" filterUnits="userSpaceOnUse" height="28.6117" width="55.7733" x="5.17586" y="15.7093"><feFlood flood-opacity="0" result="BackgroundImageFix"/><feGaussianBlur in="BackgroundImageFix" stdDeviation="4.60934"/><feComposite in2="SourceAlpha" operator="in" result="effect1_backgroundBlur_648_2679"/><feColorMatrix in="SourceAlpha" result="hardAlpha" type="matrix" values="0 0 0 0 0 0 0 0 0 0 0 0 0 0 0 0 0 0 127 0"/><feOffset dx="3.07289" dy="3.07289"/><feGaussianBlur stdDeviation="3.07289"/><feColorMatrix type="matrix" values="0 0 0 0 0.15375 0 0 0 0 0.522433 0 0 0 0 0.9 0 0 0 0.5 0"/><feBlend in2="effect1_backgroundBlur_648_2679" mode="normal" result="effect2_dropShadow_648_2679"/><feBlend in="SourceGraphic" in2="effect2_dropShadow_648_2679" mode="normal" result="shape"/></filter><filter id="d" color-interpolation-filters="sRGB" filterUnits="userSpaceOnUse" height="56.3408" width="86.3787" x="-9.71863" y="27.569"><feFlood flood-opacity="0" result="BackgroundImageFix"/><feGaussianBlur in="BackgroundImageFix" stdDeviation="7.37494"/><feComposite in2="SourceAlpha" operator="in" result="effect1_backgroundBlur_648_2679"/><feBlend in="SourceGraphic" in2="effect1_backgroundBlur_648_2679" mode="normal" result="shape"/></filter><filter id="e" color-interpolation-filters="sRGB" filterUnits="userSpaceOnUse" height="28.6117" width="55.7733" x="5.11726" y="41.4337"><feFlood flood-opacity="0" result="BackgroundImageFix"/><feGaussianBlur in="BackgroundImageFix" stdDeviation="4.60934"/><feComposite in2="SourceAlpha" operator="in" result="effect1_backgroundBlur_648_2679"/><feColorMatrix in="SourceAlpha" result="hardAlpha" type="matrix" values="0 0 0 0 0 0 0 0 0 0 0 0 0 0 0 0 0 0 127 0"/><feOffset dx="3.07289" dy="3.07289"/><feGaussianBlur stdDeviation="3.07289"/><feColorMatrix type="matrix" values="0 0 0 0 0.15375 0 0 0 0 0.522433 0 0 0 0 0.9 0 0 0 0.5 0"/><feBlend in2="effect1_backgroundBlur_648_2679" mode="normal" result="effect2_dropShadow_648_2679"/><feBlend in="SourceGraphic" in2="effect2_dropShadow_648_2679" mode="normal" result="shape"/></filter><linearGradient id="f" gradientUnits="userSpaceOnUse" x1="20" x2="89.0311" y1="7.5" y2="34.0906"><stop offset="0" stop-color="#fff"/><stop offset="1" stop-color="#3aa0ff"/></linearGradient><linearGradient id="g"><stop offset="0" stop-color="#fff" stop-opacity=".25"/><stop offset="1" stop-color="#fff" stop-opacity="0"/></linearGradient><linearGradient id="h" gradientUnits="userSpaceOnUse" x1="14.5619" x2="25.4757" xlink:href="#g" y1="20.1931" y2="49.5636"/><linearGradient id="i"><stop offset="0" stop-color="#62b0fd"/><stop offset="1" stop-color="#4096f4"/></linearGradient><linearGradient id="j" gradientUnits="userSpaceOnUse" x1="21.0611" x2="54.9616" xlink:href="#i" y1="21.8861" y2="45.6609"/><linearGradient id="k"><stop offset="0" stop-color="#fff"/><stop offset="1" stop-color="#fff" stop-opacity=".2"/></linearGradient><linearGradient id="l" gradientUnits="userSpaceOnUse" x1="23.8476" x2="12.5143" xlink:href="#k" y1="26.7653" y2="27.1348"/><linearGradient id="m"><stop offset="0" stop-color="#fff"/><stop offset="1" stop-color="#fff" stop-opacity="0"/></linearGradient><linearGradient id="n" gradientUnits="userSpaceOnUse" x1="15.4905" x2="24.13" xlink:href="#m" y1="28.341" y2="28.3887"/><linearGradient id="o" gradientUnits="userSpaceOnUse" x1="50.1385" x2="25.3438" xlink:href="#k" y1="27.6504" y2="30.1021"/><linearGradient id="p" gradientUnits="userSpaceOnUse" x1="31.696" x2="50.757" xlink:href="#m" y1="28.7971" y2="29.1162"/><linearGradient id="q" gradientUnits="userSpaceOnUse" x1="14.5033" x2="25.4171" xlink:href="#g" y1="45.9172" y2="75.2877"/><linearGradient id="r" gradientUnits="userSpaceOnUse" x1="21.0025" x2="54.903" xlink:href="#i" y1="47.6066" y2="71.3814"/><linearGradient id="s" gradientUnits="userSpaceOnUse" x1="23.789" x2="12.4557" xlink:href="#k" y1="52.4896" y2="52.8591"/><linearGradient id="t" gradientUnits="userSpaceOnUse" x1="15.4319" x2="24.0714" xlink:href="#m" y1="54.0654" y2="54.113"/><linearGradient id="u" gradientUnits="userSpaceOnUse" x1="50.0799" x2="25.2852" xlink:href="#k" y1="53.3746" y2="55.8262"/><linearGradient id="v" gradientUnits="userSpaceOnUse" x1="31.6374" x2="50.6984" xlink:href="#m" y1="54.5212" y2="54.8403"/><g filter="url(#a)"><path d="m42.125 55.8824c-15.533 0-28.125-12.5097-28.125-27.9412s12.592-27.9412 28.125-27.9412c10.3267 0 19.3535 5.52917 24.2445 13.7701.4185.7051 1.1856 1.1319 2.0055 1.1319 11.3909 0 20.625 9.1737 20.625 20.4902 0 11.3164-9.2341 20.4902-20.625 20.4902-9.5682 0-16.4161 0-26.25 0z" fill="url(#f)"/><g filter="url(#b)"><path d="m49.3687 17.2092h-31.6798c-6.6195 0-11.98578 5.3663-11.98578 11.9859v1.6403c0 6.6196 5.36628 11.9858 11.98578 11.9858h31.6798c6.6196 0 11.9858-5.3662 11.9858-11.9858v-1.6403c0-6.6196-5.3662-11.9859-11.9858-11.9859z" fill="#2d95fa" fill-opacity=".4"/><path d="m49.3687 16.9019h-31.6798c-6.7893 0-12.29306 5.5039-12.29306 12.2932v1.6403c0 6.7893 5.50376 12.2931 12.29306 12.2931h31.6798c6.7893 0 12.2931-5.5038 12.2931-12.2931v-1.6403c0-6.7893-5.5038-12.2932-12.2931-12.2932z" stroke="url(#h)" stroke-linecap="round" stroke-linejoin="round" stroke-width=".614578"/></g><path d="m49.3694 44.4662h-31.6797c-3.6137-.0039-7.0783-1.441-9.63374-3.9962-2.55543-2.5551-3.99301-6.0195-3.99737-9.6332v-1.6453c.0074-3.6126 1.44601-7.0751 4.00082-9.6293 2.55479-2.5542 6.01769-3.992 9.63029-3.9985h31.6797c3.614.0039 7.0789 1.4413 9.6343 3.9968 2.5555 2.5555 3.9929 6.0203 3.9968 9.6343v1.6453c-.0048 3.6133-1.4426 7.0771-3.998 9.6316s-6.0198 3.9911-9.6331 3.9945zm-31.6797-25.6119c-2.7416.003-5.3699 1.0934-7.3085 3.032-1.93858 1.9386-3.02901 4.567-3.03206 7.3085v1.6453c.00436 2.7407 1.09536 5.3678 3.03376 7.3053 1.9385 1.9375 4.5661 3.0273 7.3068 3.0303h31.6797c2.7414-.0026 5.3698-1.0927 7.3084-3.031 1.9387-1.9383 3.0291-4.5665 3.0322-7.3079v-1.6453c-.0039-2.741-1.0947-5.3685-3.0332-7.3064-1.9385-1.9378-4.5664-3.0278-7.3074-3.0308z" fill="url(#j)"/><g filter="url(#c)"><path d="m19.4817 35.1024c2.8096 0 5.0872-2.2777 5.0872-5.0872 0-2.8096-2.2776-5.0872-5.0872-5.0872s-5.0872 2.2776-5.0872 5.0872c0 2.8095 2.2776 5.0872 5.0872 5.0872z" fill="url(#l)"/><path d="m24.5074 30.0152c0 2.7756-2.25 5.0257-5.0257 5.0257-2.7756 0-5.0257-2.2501-5.0257-5.0257 0-2.7757 2.2501-5.0258 5.0257-5.0258 2.7757 0 5.0257 2.2501 5.0257 5.0258z" stroke="url(#n)" stroke-opacity=".5" stroke-width=".122916"/><path d="m48.0285 33.7172h-15.0493c-.9818 0-1.9234-.39-2.6176-1.0842-.6942-.6943-1.0843-1.6359-1.0843-2.6177s.3901-1.9233 1.0843-2.6176c.6942-.6942 1.6358-1.0842 2.6176-1.0842h15.0493c.9818 0 1.9234.39 2.6176 1.0842.6943.6943 1.0843 1.6358 1.0843 2.6176s-.39 1.9234-1.0843 2.6177c-.6942.6942-1.6358 1.0842-2.6176 1.0842z" fill="url(#o)"/><path d="m48.0285 33.6558h-15.0493c-.9655 0-1.8914-.3836-2.5741-1.0663-.6828-.6827-1.0663-1.6087-1.0663-2.5742s.3835-1.8914 1.0663-2.5741c.6827-.6827 1.6086-1.0663 2.5741-1.0663h15.0493c.9655 0 1.8915.3836 2.5742 1.0663s1.0662 1.6086 1.0662 2.5741-.3835 1.8915-1.0662 2.5742-1.6087 1.0663-2.5742 1.0663z" stroke="url(#p)" stroke-opacity=".5" stroke-width=".122916"/></g><g filter="url(#d)"><path d="m49.3101 42.9333h-31.6797c-6.6196 0-11.98587 5.3663-11.98587 11.9859v1.6403c0 6.6196 5.36627 11.9858 11.98587 11.9858h31.6797c6.6196 0 11.9858-5.3662 11.9858-11.9858v-1.6403c0-6.6196-5.3662-11.9859-11.9858-11.9859z" fill="#2d95fa" fill-opacity=".4"/><path d="m49.3101 42.6261h-31.6797c-6.7893 0-12.29316 5.5038-12.29316 12.2931v1.6403c0 6.7893 5.50386 12.2931 12.29316 12.2931h31.6797c6.7893 0 12.2931-5.5038 12.2931-12.2931v-1.6403c0-6.7893-5.5038-12.2931-12.2931-12.2931z" stroke="url(#q)" stroke-linecap="round" stroke-linejoin="round" stroke-width=".614578"/></g><path d="m49.3108 70.1867h-31.6797c-3.6123-.0065-7.0749-1.4441-9.6297-3.9979-2.55477-2.5539-3.99357-6.0159-4.0014-9.6283v-1.6452c.00652-3.6132 1.44475-7.0765 3.99966-9.6315 2.55494-2.5549 6.01824-3.9931 9.63144-3.9996h31.6797c3.6132.0065 7.0766 1.4447 9.6315 3.9996 2.5549 2.555 3.9931 6.0183 3.9996 9.6315v1.6452c-.0078 3.6124-1.4466 7.0744-4.0014 9.6283-2.5547 2.5538-6.0173 3.9914-9.6297 3.9979zm-31.6797-25.6087c-2.7416.0031-5.3699 1.0935-7.3085 3.0321-1.93858 1.9385-3.029 4.5669-3.03205 7.3085v1.6452c.00522 2.7402 1.09661 5.3664 3.03495 7.3032 1.9383 1.9368 4.5655 3.0261 7.3056 3.0292h31.6797c2.7415-.0035 5.3696-1.0941 7.3081-3.0326 1.9384-1.9384 3.029-4.5666 3.0325-7.308v-1.6453c-.0031-2.7415-1.0935-5.3699-3.032-7.3085-1.9386-1.9385-4.567-3.029-7.3086-3.032z" fill="url(#r)"/><g filter="url(#e)"><path d="m19.4231 60.8267c2.8096 0 5.0872-2.2776 5.0872-5.0872 0-2.8095-2.2776-5.0872-5.0872-5.0872s-5.0872 2.2777-5.0872 5.0872c0 2.8096 2.2776 5.0872 5.0872 5.0872z" fill="url(#s)"/><path d="m24.4489 55.7395c0 2.7757-2.2501 5.0258-5.0258 5.0258-2.7756 0-5.0257-2.2501-5.0257-5.0258 0-2.7756 2.2501-5.0257 5.0257-5.0257 2.7757 0 5.0258 2.2501 5.0258 5.0257z" stroke="url(#t)" stroke-opacity=".5" stroke-width=".122916"/><path d="m47.9699 59.4413h-15.0493c-.9818 0-1.9234-.39-2.6176-1.0842-.6942-.6943-1.0842-1.6358-1.0842-2.6176s.39-1.9234 1.0842-2.6177c.6942-.6942 1.6358-1.0842 2.6176-1.0842h15.0493c.9818 0 1.9234.39 2.6177 1.0842.6942.6943 1.0842 1.6359 1.0842 2.6177s-.39 1.9233-1.0842 2.6176c-.6943.6942-1.6359 1.0842-2.6177 1.0842z" fill="url(#u)"/><path d="m47.9699 59.3799h-15.0493c-.9655 0-1.8914-.3836-2.5741-1.0663s-1.0663-1.6086-1.0663-2.5741.3836-1.8915 1.0663-2.5742 1.6086-1.0662 2.5741-1.0662h15.0493c.9655 0 1.8915.3835 2.5742 1.0662s1.0662 1.6087 1.0662 2.5742-.3835 1.8914-1.0662 2.5741-1.6087 1.0663-2.5742 1.0663z" stroke="url(#v)" stroke-opacity=".5" stroke-width=".122916"/></g></g></svg>