<svg fill="none" height="71" viewBox="0 0 66 71" width="66" xmlns="http://www.w3.org/2000/svg" xmlns:xlink="http://www.w3.org/1999/xlink"><filter id="a" color-interpolation-filters="sRGB" filterUnits="userSpaceOnUse" height="79.5769" width="84.8571" x="-9.42857" y=".56606"><feFlood flood-opacity="0" result="BackgroundImageFix"/><feGaussianBlur in="BackgroundImageFix" stdDeviation="4.71428"/><feComposite in2="SourceAlpha" operator="in" result="effect1_backgroundBlur_648_2649"/><feBlend in="SourceGraphic" in2="effect1_backgroundBlur_648_2649" mode="normal" result="shape"/></filter><filter id="b" color-interpolation-filters="sRGB" filterUnits="userSpaceOnUse" height="70.7143" width="75.4275" x="-4.71373" y="-9.42832"><feFlood flood-opacity="0" result="BackgroundImageFix"/><feGaussianBlur in="BackgroundImageFix" stdDeviation="4.71428"/><feComposite in2="SourceAlpha" operator="in" result="effect1_backgroundBlur_648_2649"/><feBlend in="SourceGraphic" in2="effect1_backgroundBlur_648_2649" mode="normal" result="shape"/></filter><linearGradient id="c" gradientUnits="userSpaceOnUse" x1="19.0385" x2="68.8383" y1="22.835" y2="41.278"><stop offset="0" stop-color="#7fc0fb"/><stop offset="1" stop-color="#4088f4"/></linearGradient><linearGradient id="d" gradientUnits="userSpaceOnUse" x1="35.3577" x2="34.3683" y1="-7.7783" y2="41.4659"><stop offset="0" stop-color="#fff"/><stop offset=".996024" stop-color="#fff" stop-opacity="0"/></linearGradient><linearGradient id="e"><stop offset="0" stop-color="#fff"/><stop offset="1" stop-color="#fff" stop-opacity="0"/></linearGradient><linearGradient id="f" gradientUnits="userSpaceOnUse" x1="45.2252" x2="49.1305" xlink:href="#e" y1="56.238" y2="22.2988"/><linearGradient id="g" gradientUnits="userSpaceOnUse" x1="39.9945" x2="55.6995" xlink:href="#e" y1="57.7458" y2="27.6346"/><linearGradient id="h" gradientUnits="userSpaceOnUse" x1="19.0428" x2="56.6277" y1="31.6569" y2="58.3962"><stop offset="0" stop-color="#529ee3"/><stop offset="1" stop-color="#4088f4"/></linearGradient><linearGradient id="i" gradientUnits="userSpaceOnUse" x1="49.7846" x2="49.7846" xlink:href="#e" y1="46.4142" y2="8.82835"/><linearGradient id="j" gradientUnits="userSpaceOnUse" x1="37.0587" x2="56.3372" xlink:href="#e" y1="51.4719" y2="7.52403"/><g filter="url(#a)"><path d="m0 33.0812c0-6.8461 0-10.2692 1.90128-12.7898 1.90129-2.5206 5.19266-3.461 11.77542-5.3417l11.5526-3.3008c3.86-1.1028 5.7899-1.65425 7.7707-1.65425s3.9107.55145 7.7707 1.65425l11.5526 3.3008c6.5828 1.8807 9.8741 2.8211 11.7754 5.3417s1.9013 5.9437 1.9013 12.7898v9.3475c0 13.334 0 20.001-4.1423 24.1434-4.1424 4.1423-10.8094 4.1423-24.1434 4.1423h-9.4286c-13.334 0-20.00101 0-24.14335-4.1423-4.14235-4.1424-4.14235-10.8094-4.14235-24.1434z" fill="url(#c)"/></g><g filter="url(#b)"><path clip-rule="evenodd" d="m11.7863.00024414c-3.90547 0-7.07146 4.36890586-7.07146 9.75822586v21.35593c13.84916 10.506 21.13846 20.6906 28.28576 20.7428 7.2986.0532 14.4491-10.2463 28.2857-20.7428v-21.35593c0-5.38932-3.166-9.75822586-7.0715-9.75822586z" fill="#b9ddff" fill-opacity=".6" fill-rule="evenodd"/><path d="m4.93165 9.75847c0-2.65399.77986-5.04787 2.02992-6.77289 1.25024-1.72527 2.95878-2.768531 4.82473-2.768531h42.4285c1.866 0 3.5745 1.043261 4.8247 2.768531 1.2501 1.72502 2.03 4.1189 2.03 6.77289v21.24833c-4.9526 3.7643-9.0533 7.5049-12.6025 10.7425-1.384 1.2625-2.6841 2.4485-3.9182 3.5295-2.2126 1.9383-4.2104 3.5375-6.1049 4.6488-1.8935 1.1107-3.6699 1.7257-5.4418 1.7128-1.7345-.0127-3.4921-.6401-5.3785-1.7555-1.8872-1.1158-3.8891-2.7114-6.1104-4.6425-1.2465-1.0837-2.5614-2.2725-3.9617-3.5385-3.5611-3.2197-7.67451-6.9387-12.61985-10.6971z" stroke="url(#d)" stroke-width=".43361"/></g><rect fill="url(#f)" fill-opacity=".9" height="27.6531" rx="2.32656" stroke="url(#g)" stroke-width=".346888" transform="matrix(0 1 -1 0 75 -18.6532)" width="4.65311" x="46.8266" y="28.1734"/><path clip-rule="evenodd" d="m65.6091 24.6809c.2651 1.5448.3499 3.4169.3771 5.7678l-31.5015 25.595c-.866.7037-2.1068.7037-2.9728 0l-31.5001812-25.5939c.0271272-2.3509.1119182-4.2231.3769452-5.7679l32.609636 26.4953z" fill="url(#h)" fill-rule="evenodd"/><rect fill="url(#i)" fill-opacity=".9" height="27.6531" rx="2.32656" stroke="url(#j)" stroke-width=".346888" transform="matrix(0 1 -1 0 61 -32.6532)" width="4.65311" x="46.8266" y="14.1734"/></svg>