<svg fill="none" height="64" viewBox="0 0 79 64" width="79" xmlns="http://www.w3.org/2000/svg" xmlns:xlink="http://www.w3.org/1999/xlink"><filter id="a" color-interpolation-filters="sRGB" filterUnits="userSpaceOnUse" height="82.8884" width="87.771" x="-9.71558" y="-9.71558"><feFlood flood-opacity="0" result="BackgroundImageFix"/><feGaussianBlur in="BackgroundImageFix" stdDeviation="4.85779"/><feComposite in2="SourceAlpha" operator="in" result="effect1_backgroundBlur_648_2638"/><feBlend in="SourceGraphic" in2="effect1_backgroundBlur_648_2638" mode="normal" result="shape"/></filter><filter id="b" color-interpolation-filters="sRGB" filterUnits="userSpaceOnUse" height="66.5482" width="93.9585" x="-5.68042" y="6.99694"><feFlood flood-opacity="0" result="BackgroundImageFix"/><feGaussianBlur in="BackgroundImageFix" stdDeviation="4.85779"/><feComposite in2="SourceAlpha" operator="in" result="effect1_backgroundBlur_648_2638"/><feBlend in="SourceGraphic" in2="effect1_backgroundBlur_648_2638" mode="normal" result="shape"/></filter><linearGradient id="c" gradientUnits="userSpaceOnUse" x1="-15.1482" x2="11.6816" y1=".021642" y2="97.6845"><stop offset="0" stop-color="#75eda1"/><stop offset="1" stop-color="#349256"/></linearGradient><linearGradient id="d" gradientUnits="userSpaceOnUse" x1="18.6872" x2="41.4928" y1="17.1579" y2="63.4573"><stop offset="0" stop-color="#fff" stop-opacity=".7"/><stop offset="1" stop-color="#fff" stop-opacity="0"/></linearGradient><linearGradient id="e"><stop offset="0" stop-color="#fff"/><stop offset="1" stop-color="#fff" stop-opacity="0"/></linearGradient><linearGradient id="f" gradientUnits="userSpaceOnUse" x1="8.64875" x2="28.6912" xlink:href="#e" y1="4.55517" y2="10.4768"/><linearGradient id="g" gradientUnits="userSpaceOnUse" x1="7.28222" x2="17.0837" xlink:href="#e" y1="5.9217" y2="9.76268"/><g filter="url(#a)"><path d="m0 4.88133c0-2.69588 2.18544-4.88133 4.88133-4.88133h24.69137c1.2627 0 2.4763.489329 3.3859 1.36521l2.2336 2.15091c.9096.87588 2.1232 1.36521 3.3859 1.36521h24.8792c2.6959 0 4.8813 2.18544 4.8813 4.88133v53.69464h-63.94541c-2.42629 0-4.39319-1.9669-4.39319-4.3932z" fill="url(#c)"/></g><g filter="url(#b)"><path d="m19.5268 17.0847h58.5759l-9.7626 46.3726h-63.45729c2.52483-2.7457 2.52483-5.4915 5.04965-13.7287 2.52484-8.2372 9.59434-32.6439 9.59434-32.6439z" fill="#6ae092" fill-opacity=".6"/><path d="m19.5268 17.0847h58.5759l-9.7626 46.3726h-63.45729c2.52483-2.7457 2.52483-5.4915 5.04965-13.7287 2.52484-8.2372 9.59434-32.6439 9.59434-32.6439z" stroke="url(#d)" stroke-width=".744424"/></g><path d="m9.94392 7.32201c0-1.24731 1.01118-2.25846 2.25848-2.25846h9.7626c1.2474 0 2.2585 1.01115 2.2585 2.25846s-1.0111 2.25846-2.2585 2.25846h-9.7626c-1.2473 0-2.25848-1.01115-2.25848-2.25846z" fill="url(#f)" fill-opacity=".9" stroke="url(#g)" stroke-width=".364408"/></svg>