<svg fill="none" height="85" viewBox="0 0 85 85" width="85" xmlns="http://www.w3.org/2000/svg" xmlns:xlink="http://www.w3.org/1999/xlink"><filter id="a" color-interpolation-filters="sRGB" filterUnits="userSpaceOnUse" height="77.9624" width="77.9607" x="3.52158" y="3.51878"><feFlood flood-opacity="0" result="BackgroundImageFix"/><feGaussianBlur in="BackgroundImageFix" stdDeviation="4.46382"/><feComposite in2="SourceAlpha" operator="in" result="effect1_backgroundBlur_648_2626"/><feBlend in="SourceGraphic" in2="effect1_backgroundBlur_648_2626" mode="normal" result="shape"/></filter><filter id="b" color-interpolation-filters="sRGB" filterUnits="userSpaceOnUse" height="69.0598" width="69.0613" x="7.96937" y="7.9701"><feFlood flood-opacity="0" result="BackgroundImageFix"/><feGaussianBlur in="BackgroundImageFix" stdDeviation="4.67547"/><feComposite in2="SourceAlpha" operator="in" result="effect1_backgroundBlur_648_2626"/><feBlend in="SourceGraphic" in2="effect1_backgroundBlur_648_2626" mode="normal" result="shape"/></filter><linearGradient id="c" gradientUnits="userSpaceOnUse" x1="16.2692" x2="37.4224" y1="74.7188" y2="94.4024"><stop offset="0" stop-color="#fba47f"/><stop offset="1" stop-color="#df6b00"/></linearGradient><linearGradient id="d"><stop offset="0" stop-color="#fff"/><stop offset="1" stop-color="#fff" stop-opacity="0"/></linearGradient><linearGradient id="e" gradientUnits="userSpaceOnUse" x1="35.187" x2="63.6507" xlink:href="#d" y1=".75927" y2="92.5745"/><linearGradient id="f" gradientUnits="userSpaceOnUse" x1="-1.31878" x2="67.0311" xlink:href="#d" y1="18.3942" y2="57.6743"/><rect fill="url(#c)" height="17" rx="8.5" transform="matrix(.70710678 -.70710678 .70710678 .70710678 -49.325902 22.916739)" width="46" x="3" y="71"/><g filter="url(#a)"><path d="m63.9625 63.9614c-11.6193 11.6193-30.6472 11.43-42.5-.4228-11.85286-11.8529-12.0422-30.8808-.4229-42.5 11.6192-11.61932 30.6471-11.42998 42.5.4228 11.8528 11.8529 12.0421 30.8808.4229 42.5z" fill="#f8b77b" fill-opacity=".6"/><path d="m63.8145 63.8135c-11.5348 11.5348-30.4302 11.3511-42.2041-.4229-11.77394-11.7739-11.95772-30.6693-.4229-42.2041 11.5348-11.53484 30.4302-11.35105 42.2041.4229 11.774 11.7739 11.9578 30.6693.4229 42.2041z" stroke="url(#e)" stroke-width=".418387"/></g><g filter="url(#b)"><path d="m25.0764 59.9225c9.4028 9.4028 24.8143 9.1851 34.4222-.4229 9.6079-9.6079 9.8256-25.0194.4229-34.4221-9.4027-9.4028-24.8142-9.185-34.4222.4229-9.6079 9.6079-9.8256 25.0194-.4229 34.4221z" stroke="url(#f)" stroke-width="1.67355"/></g></svg>