<svg fill="none" height="80" viewBox="0 0 73 80" width="73" xmlns="http://www.w3.org/2000/svg" xmlns:xlink="http://www.w3.org/1999/xlink"><filter id="a" color-interpolation-filters="sRGB" filterUnits="userSpaceOnUse" height="9.23274" width="47.8757" x="8.23011" y="4.23744"><feFlood flood-opacity="0" result="BackgroundImageFix"/><feGaussianBlur in="BackgroundImageFix" stdDeviation="1.05877"/><feComposite in2="SourceAlpha" operator="in" result="effect1_backgroundBlur_648_2609"/><feColorMatrix in="SourceAlpha" result="hardAlpha" type="matrix" values="0 0 0 0 0 0 0 0 0 0 0 0 0 0 0 0 0 0 127 0"/><feOffset dy=".636603"/><feGaussianBlur stdDeviation=".795754"/><feComposite in2="hardAlpha" operator="out"/><feColorMatrix type="matrix" values="0 0 0 0 0 0 0 0 0 0 0 0 0 0 0 0 0 0 0.05 0"/><feBlend in2="effect1_backgroundBlur_648_2609" mode="normal" result="effect2_dropShadow_648_2609"/><feBlend in="SourceGraphic" in2="effect2_dropShadow_648_2609" mode="normal" result="shape"/></filter><filter id="b" color-interpolation-filters="sRGB" filterUnits="userSpaceOnUse" height="84.1459" width="83.0397" x="-.431965" y=".844646"><feFlood flood-opacity="0" result="BackgroundImageFix"/><feGaussianBlur in="BackgroundImageFix" stdDeviation="8.30387"/><feComposite in2="SourceAlpha" operator="in" result="effect1_backgroundBlur_648_2609"/><feColorMatrix in="SourceAlpha" result="hardAlpha" type="matrix" values="0 0 0 0 0 0 0 0 0 0 0 0 0 0 0 0 0 0 127 0"/><feOffset dx="-4.26439" dy="-.343111"/><feGaussianBlur stdDeviation="5.53592"/><feColorMatrix type="matrix" values="0 0 0 0 0.577356 0 0 0 0 0.359375 0 0 0 0 0.9375 0 0 0 0.5 0"/><feBlend in2="effect1_backgroundBlur_648_2609" mode="normal" result="effect2_dropShadow_648_2609"/><feBlend in="SourceGraphic" in2="effect2_dropShadow_648_2609" mode="normal" result="shape"/></filter><linearGradient id="c" gradientUnits="userSpaceOnUse" x1="32.1753" x2="32.1753" y1="0" y2="58.3575"><stop offset="0" stop-color="#bc94ff"/><stop offset="1" stop-color="#9f66ff"/></linearGradient><linearGradient id="d" gradientUnits="userSpaceOnUse" x1="42.4311" x2="42.4311" y1="12.0125" y2="5.45232"><stop offset="0" stop-color="#fff"/><stop offset="1" stop-color="#fff" stop-opacity=".4"/></linearGradient><linearGradient id="e"><stop offset="0" stop-color="#fff"/><stop offset="1" stop-color="#fff" stop-opacity="0"/></linearGradient><linearGradient id="f" gradientUnits="userSpaceOnUse" x1="-23.9657" x2="-23.8315" xlink:href="#e" y1="12.8953" y2="3.75058"/><linearGradient id="g" gradientUnits="userSpaceOnUse" x1="19.8884" x2="19.8884" xlink:href="#e" y1="11.9903" y2="5.46154"/><linearGradient id="h" gradientUnits="userSpaceOnUse" x1="7.50952" x2="8.21823" xlink:href="#e" y1="12.8688" y2="3.82153"/><linearGradient id="i" gradientUnits="userSpaceOnUse" x1="13.0661" x2="13.0661" xlink:href="#e" y1="11.9927" y2="5.46823"/><linearGradient id="j" gradientUnits="userSpaceOnUse" x1=".642659" x2="1.34793" xlink:href="#e" y1="12.8707" y2="3.82882"/><linearGradient id="k" gradientUnits="userSpaceOnUse" x1="62.4666" x2="6.96569" y1="26.6494" y2="28.4196"><stop offset="0" stop-color="#fff"/><stop offset="1" stop-color="#fff" stop-opacity=".2"/></linearGradient><linearGradient id="l" gradientUnits="userSpaceOnUse" x1="24.1068" x2="56.7383" y1="23.3859" y2="62.9221"><stop offset="0" stop-color="#fff" stop-opacity=".25"/><stop offset="1" stop-color="#fff" stop-opacity="0"/></linearGradient><path clip-rule="evenodd" d="m53.1616 58.3448c4.5739-.0398 8.1724-3.5809 8.1724-8.1167.0222-14.0424.0222-28.0848 0-42.12721-.008-4.53898-3.6446-8.10077691-8.1836-8.10077691h-41.9394c-.5557-.00291179-1.1102.05041001-1.65518.15915091-1.86014.364516-3.53404 1.368566-4.7314 2.838016-1.19737 1.46946-1.84268 3.31163-1.82403 5.20706v20.92036c0 6.9438 0 13.8955.01433 20.8488-.0031.7913.0926 1.5799.28488 2.3474.96286 3.6478 4.1793 6.0239 8.1024 6.0239h31.811c1.1057 0 2.2113.0032 3.3169.0064 2.2109.0063 4.4216.0127 6.6317-.0064z" fill="url(#c)" fill-rule="evenodd"/><g fill-opacity=".9" filter="url(#a)" stroke-width=".077907"><path d="m40.9078 11.1941h-.0203-.0202-.0202-.0202-.0203-.0202-.0202-.0202-.0203-.0202-.0202-.0203-.0202-.0202-.0202-.0203-.0202-.0202-.0202-.0203-.0202-.0202-.0202-.0203-.0202-.0202-.0202-.0203-.0202-.0202-.0203-.0202-.0202-.0202-.0203-.0202-.0202-.0202-.0203-.0202-.0202-.0202-.0203-.0202-.0202-.0203-.0202-.0202-.0202-.0203-.0202-.0202-.0202-.0203-.0202-.0202-.0202-.0203-.0202-.0202-.0202-.0203-.0202-.0202-.0203-.0202-.0202-.0202-.0203-.0202-.0202-.0202-.0203-.0202-.0202-.0202-.0203-.0202-.0202-.0202-.0203-.0202-.0202-.0203-.0202-.0202-.0202-.0203-.0202-.0202-.0202-.0203-.0202-.0202-.0202-.0203-.0202-.0202-.0203-.0202-.0202-.0202-.0203-.0202-.0202-.0202-.0203-.0202-.0202-.0202-.0203-.0202-.0202-.0202-.0203-.0202-.0202-.0203-.0202-.0202-.0202-.0203-.0202-.0202-.0202-.0203-.0202-.0202-.0202-.0203-.0202-.0202-.0203-.0202-.0202-.0202-.0203-.0202-.0202-.0202-.0203-.0202-.0202-.0202-.0203-.0202-.0202-.0202-.0203-.0202-.0202-.0203-.0202-.0202-.0202-.0203-.0202-.0202-.0202-.0203-.0202-.0202-.0202-.0203-.0202-.0202-.0203-.0202-.0202-.0202-.0203-.0202-.0202-.0202-.0203-.0202-.0202-.0202-.0203-.0202-.0202-.0202-.0203-.0202-.0202-.0203-.0202-.0202-.0202-.0203-.0202-.0202-.0202-.0203-.0202-.0202-.0202-.0203-.0202-.0202-.0203-.0202-.0202-.0202-.0203-.0202-.0202-.0202-.0203-.0202-.0202-.0202-.0203-.0202-.0202-.0202-.0203-.0202-.0202-.0203-.0202-.0202-.0202-.0203-.0202-.0202-.0202-.0203-.0202-.0202-.0202-.0203-.0202-.0202-.0202-.0203-.0202-.0202-.0203-.0202-.0202-.0202-.0203-.0202-.0202-.0202-.0203-.0202-.0202-.0202-.0203-.0202-.0202-.0203-.0202-.0202-.0202-.0203-.0202-.0202-.0202-.0203-.0202-.0202-.0202-.0203-.0202-.0202-.0202-.0203-.0202-.0202-.0203-.0202-.0202-.0202-.0203-.0202-.0202-.0202-.0203-.0202-.0202-.0202-.0203-.0202-.0202-.0203-.0202-.0202-.0202-.0203-.0202-.0202-.0202-.0203-.0202-.0202-.0202-.0203-.0202-.0202-.0202-.0203-.0202-.0202-.0203-.0202-.0202-.0202-.0203-.0202-.0202-.0202-.0203-.0202-.0202-.0202-.0203-.0202-.0202-.0203-.0202-.0202-.0202-.0203-.0202-.0202-.0202-.0203-.0202-.0202-.0202-.0203-.0202-.0202-.0202-.0203-.0202-.0202-.0203-.0202-.0202-.0202-.0203-.0202-.0202-.0202-.0203-.0202-.0202-.0202-.0203-.0202-.0202-.0202-.0203-.0202-.0202-.0203-.0202-.0202-.0202-.0203-.0202-.0202-.0202-.0203-.0202-.0202-.0202-.0203-.0202-.0202-.0203-.0202-.0202-.0202-.0203-.0202-.0202-.0202-.0203-.0202-.0202-.0202-.0203-.0202-.0202-.0202-.0203-.0202-.0202-.0203-.0202-.0202-.0202-.0203-.0202-.0202-.0202-.0203-.0202-.0202-.0202-.0203-.0202-.0202-.0203-.0202-.0202-.0202-.0203-.0202-.0202-.0202-.0203-.0202-.0202-.0202-.0203-.0202-.0202-.0202-.0203-.0202-.0202-.0203-.0202-.0202-.0202-.0203-.0202-.0202-.0202-.0203-.0202-.0202-.0202-.0203-.0202-.0202-.0203-.0202-.0202-.0202-.0203-.0202-.0202-.0202-.0203-.0202-.0202-.0202-.0203-.0202-.0202-.0202-.0203-.0202-.0202-.0203-.0202-.0202-.0202-.0203-.0202-.0202-.0202-.0203-.0202-.0202-.0202-.0203-.0202-.0202-.0202-.0203-.0202-.0202-.0203-.0202-.0202-.0202-.0203-.0202-.0202-.0202-.0203-.0202-.0202-.0202-.0203-.0202-.0202-.0203-.0202-.0202-.0202-.0203-.0202-.0202-.0202-.0203-.0202-.0202-.0202-.0203-.0202-.0202-.0202-.0203c-.696 0-1.2677-.1769-1.699-.5061-.431-.329-.7251-.81258-.8619-1.43205-.2722-1.2329.6069-2.58302 1.8656-2.80041.2523-.04257.5077-.06316.7635-.06151h.0003.0403.0403.0404.0403.0403.0404.0403.0403.0404.0403.0403.0404.0403.0403.0404.0403.0403.0404.0403.0404.0403.0403.0404.0403.0403.0404.0403.0403.0404.0403.0403.0404.0403.0403.0404.0403.0403.0404.0403.0403.0404.0403.0404.0403.0403.0404.0403.0403.0404.0403.0403.0404.0403.0403.0404.0403.0403.0404.0403.0403.0404.0403.0403.0404.0403.0404.0403.0403.0404.0403.0403.0404.0403.0403.0404.0403.0403.0404.0403.0403.0404.0403.0403.0404.0403.0403.0404.0403.0404.0403.0403.0404.0403.0403.0404.0403.0403.0404.0403.0403.0404.0403.0403.0404.0403.0403.0404.0403.0403.0404.0403.0404.0403.0403.0404.0403.0403.0404.0403.0403.0404.0403.0403.0404.0403.0403.0404.0403.0403.0404.0403.0404.0403.0403.0404.0403.0403.0404.0403.0403.0404.0403.0403.0404.0403.0403.0404.0403.0403.0404.0403.0403.0404.0403.0404.0403.0403.0404.0403.0403.0404.0403.0403.0404.0403.0403.0404.0403.0403.0404.0403.0403.0404.0403.0403.0404.0403.0404.0403.0403.0404.0403.0403.0404.0403.0403.0404.0403.0403.0404.0403.0403.0404.0403.0403.0404.0403.0403.0404.0403.0404.0403.0403.0404.0403.0403.0404.0403.0403.0404.0403.0403.0404.0403.0403.0404.0403.0403.0404.0403.0403.0404.0403.0404.0403.0403.0404.0403.0403.0404.0403.0403.0404.0403.0403.0404.0403.0403.0404.0403.0403.0404.0403.0403.0404.0403.0404.0403.0403.0404.0403.0403.0404.0403.0403.0404.0403.0403.0404.0403.0403.0404.0403.0403.0404.0403.0403.0404.0403.0404.0403.0403.0404.0403.0403.0404.0403.0403.0404.0403.0403.0404.0403.0403.0404.0403.0403.0404.0403.0403.0404.0403.0404.0403.0403.0404.0403.0403.0404.0403.0403.0404.0403.0403.0404.0403.0403.0404.0403.0403.0404.0403.0403.0404.0403.0404.0403.0403.0404.0403.0403.0404.0403.0403.0404.0403.0403.0404.0403.0403.0404.0403.0403.0404.0403.0403.0404.0403.0404.0403.0403.0404.0403.0403.0404.0403.0403.0404.0403.0403.0404.0403.0403.0404.0403.0403.0404.0403.0403.0404.0403.0404.0403.0403.0404.0403.0403.0404.0403.0403.0404.0403.0403.0404.0403.0403.0404.0403.0403.0404.0403.0403.0404.0403.0404.0403.0403.0404.0403.0403.0404.0403.0403.0404.0403.0403.0404.0403.0403.0404.0403.0403.0404.0403.0403.0404.0403.0404.0403.0403.0404.0403.0403.0404.0403.0403.0404.0403.0403.0404.0403.0403.0404.0403.0403.0404.0403.0403.0404.0403.0404.0403.0403.0404.0403.0403.0404.0403.0403.0404.0403.0403.0404.0403.0403.0404.0403.0403.0404.0403.0403.0404.0403.0404.0403.0403.0404.0403.0403.0404.0403.0403.0404.0403.0403.0404.0403.0403.0404.0403.0403.0404.0403.0403.0404.0403.0404.0403.0403.0404.0403.0403.0404.0403.0403.0404.0403.0403.0404.0403.0403.0404.0403.0403.0404.0403.0403.0404.0403.0404.0403.0403.0404.0403.0403.0404.0403.0403.0404.0403.0403.0404c1.3828 0 2.5388.94346 2.6668 2.14395v.00017c.0679.61022-.1533 1.23669-.5511 1.72615-.3978.4894-.9696.8388-1.599.8981-.496.0474-.997.0426-1.4995.0378-.153-.0015-.306-.0029-.4591-.0029-2.973 0-5.947-.0011-8.922-.0032z" fill="url(#d)" stroke="url(#f)"/><path d="m19.5861 11.1844c-.4741-.005-.9359-.1507-1.327-.4187-.391-.2679-.6937-.6459-.8696-1.08611-.1759-.4402-.2171-.92272-.1184-1.38637.0988-.46364.333-.8875.673-1.21782s.7705-.55221 1.2368-.63752c.4663-.0853.9474-.03019 1.3824.15836.4349.18855.804.50204 1.0605.90069s.3888.86451.3802 1.33847c-.0116.63136-.2722 1.2326-.7251 1.6726s-1.0614.6831-1.6928.6764z" fill="url(#g)" stroke="url(#h)"/><path d="m12.8439 11.1871v-.0044h-.0389c-.6167 0-1.2208-.2883-1.6717-.732-.4508-.4438-.7451-1.03987-.7467-1.65141-.0015-.61154.29-1.21036.7387-1.6569.4487-.44653 1.0512-.73746 1.6669-.73746h.0001c.6342-.00166 1.2431.24868 1.6927.69596.4497.44728.7032 1.05485.7049 1.68905.0016.63421-.2487 1.24306-.696 1.69276-.4381.4404-1.0299.6926-1.65.7044z" fill="url(#i)" stroke="url(#j)"/></g><g filter="url(#b)"><path d="m46.4833 68.3828h-10.7882c-1.2024-.4247-1.7342-1.2892-1.8618-2.5397-.1664-1.6292-.4592-3.246-.6844-4.8702-.0091-.1282-.0528-.2516-.1266-.3571s-.1749-.1891-.2926-.2421c-.8896-.482-1.7655-.9964-2.6276-1.5196-.1045-.0752-.2276-.1206-.3562-.1314-.1285-.0107-.2575.0136-.3732.0704-1.6266.6676-3.2682 1.3141-4.9048 1.9643-1.4002.5555-2.4287.2142-3.1782-1.07-1.5682-2.678-3.128-5.3589-4.6796-8.0427-.7507-1.2929-.518-2.4077.6619-3.3244 1.3764-1.0712 2.7527-2.1474 4.1391-3.2074.1066-.0729.1912-.1733.2448-.2905s.074-.2467.0593-.3746c-.0238-1.0102-.0288-2.0203 0-3.0292.0157-.1359-.0062-.2735-.0636-.3979-.0574-.1243-.1479-.2305-.2618-.3071-1.3863-1.0588-2.7602-2.1362-4.1365-3.2074-1.1574-.9018-1.3901-2.0191-.6607-3.2821 1.5574-2.7004 3.1227-5.3967 4.6959-8.0888.7207-1.2331 1.808-1.5956 3.1456-1.0637 1.6378.6489 3.2757 1.2966 4.9061 1.9618.1223.0613.2591.0881.3956.0776.1365-.0106.2675-.0581.3789-.1374.8458-.5232 1.7075-1.0214 2.585-1.4947.1251-.0563.2326-.1451.3112-.2572.0786-.112.1254-.243.1355-.3793.2377-1.7438.5005-3.4752.7407-5.214.194-1.3838 1.0573-2.1685 2.4574-2.176h9.4944c1.3963 0 2.2522.7872 2.4461 2.1748.244 1.7562.5005 3.51.777 5.26.0566.226.1987.4215.3967.5456.8621.5306 1.758 1.0064 2.6176 1.5395.1118.079.2432.126.38.1359.1367.0099.2736-.0177.3957-.0798 1.6116-.6577 3.2382-1.2979 4.8548-1.9406 1.4264-.5655 2.4474-.2217 3.2119 1.0899 1.5532 2.6638 3.1018 5.3306 4.6458 8.0003.7507 1.2917.5243 2.4164-.6481 3.3294-1.3764 1.0725-2.7527 2.1487-4.1366 3.2099-.1081.0705-.195.1689-.2512.2848-.0562.1158-.0797.2447-.0679.3729.0251 1.0263.0251 2.0527 0 3.079-.0129.1282.0096.2575.0652.3739.0556.1163.1421.2153.2502.2863 1.3863 1.06 2.7602 2.1361 4.1365 3.2086 1.1774.9167 1.4014 2.0353.6544 3.3269-1.544 2.6697-3.0918 5.3369-4.6433 8.0016-.767 1.3153-1.798 1.6629-3.2119 1.1024-1.6366-.6502-3.2757-1.2954-4.9061-1.9618-.1159-.0566-.2452-.0804-.3738-.069s-.2516.0577-.3556.1337c-.8634.5269-1.7518 1.0102-2.6176 1.5408-.1955.1223-.3365.3144-.3942.5369-.2802 1.7662-.5367 3.5374-.7807 5.3099-.1389 1.0151-.6469 1.7151-1.6404 2.0415-.0571.0259-.1109.0585-.1601.0971zm3.1193-25.4559c.0015-1.6773-.4969-3.3173-1.4321-4.7126-.9352-1.3952-2.2651-2.4829-3.8214-3.1255-1.5564-.6426-3.2693-.8111-4.9219-.4842s-3.1707 1.1344-4.3621 2.3204c-1.1914 1.1861-2.0027 2.6973-2.331 4.3424-.3284 1.6452-.1591 3.3503.4864 4.8997.6455 1.5493 1.7381 2.8732 3.1397 3.8042 1.4016.9309 3.0491 1.427 4.734 1.4256 2.2566 0 4.4207-.8924 6.0163-2.4808 1.5957-1.5884 2.4921-3.7428 2.4921-5.9892z" fill="url(#k)"/><path d="m49.824 42.9271c.0015-1.7213-.5099-3.4043-1.4695-4.836m1.4695 4.836-.2214-.0002h.2214zm0 0c0 2.3054-.92 4.5161-2.5572 6.1459s-3.8575 2.5453-6.1724 2.5453l7.2601-13.5272m0 0c-.9596-1.4318-2.3242-2.5477-3.9209-3.207m3.9209 3.207-3.9209-3.207m0 0c-1.5968-.6592-3.354-.8321-5.0494-.4967m5.0494.4967-5.0494-.4967m0 0c-1.6954.3353-3.2529 1.1638-4.4754 2.3807m4.4754-2.3807-4.4754 2.3807m0 0c-1.2224 1.217-2.0549 2.7677-2.3919 4.456m2.3919-4.456-2.3919 4.456m0 0c-.3369 1.6883-.1632 3.4382.4992 5.0281m-.4992-5.0281.4992 5.0281m0 0c.6624 1.59 1.7836 2.9484 3.2216 3.9035m-3.2216-3.9035 3.2216 3.9035m0 0c1.4379.9551 3.1281 1.4641 4.8565 1.4626zm-14.7567 9.4201-.0002-.0003c-1.568-2.6776-3.1276-5.3581-4.679-8.0416l-.0002-.0003c-.3567-.6144-.4656-1.1611-.3674-1.6484.0983-.4879.4118-.9535.9737-1.39l.0001-.0002c.2369-.1843.4738-.3688.7107-.5533 1.1384-.8867 2.277-1.7736 3.4226-2.6496.1373-.0953.2465-.2257.316-.3777.0688-.1506.0961-.3167.079-.4813-.0234-1.0013-.0283-2.0013-.0001-2.9992.0183-.1731-.0106-.3478-.0835-.5059-.0735-.1591-.1887-.2953-.3334-.3942-1.0741-.8203-2.1404-1.6516-3.2073-2.4834-.3074-.2397-.6149-.4794-.9226-.7189-.5499-.4285-.8587-.8909-.957-1.375-.0982-.4834.0064-1.0234.352-1.6217v-.0001c1.5572-2.7 3.1223-5.3959 4.6953-8.0876.3405-.5827.7546-.9385 1.221-1.0957.4669-.1573 1.0177-.1261 1.6516.126l.0002.0001c.094.0372.188.0744.282.1117 1.5415.6107 3.0814 1.2208 4.6146 1.8462.1562.0764.3302.1097.5037.0963.1741-.0134.3413-.0733.4841-.1733.8381-.5183 1.6919-1.012 2.5614-1.4811.158-.0727.2939-.186.3938-.3284.1002-.1426.1604-.3093.1746-.4829.1265-.928.2592-1.8462.392-2.765.1173-.8112.2346-1.6229.3477-2.4421.0916-.6528.3373-1.142.7045-1.4693.3665-.3268.8763-.5122 1.5342-.5158h.018.0185.0186.0185.0186.0185.0185.0186.0185.0186.0185.0186.0185.0185.0186.0185.0186.0185.0186.0185.0186.0185.0185.0186.0185.0186.0185.0186.0185.0185.0186.0185.0186.0185.0186.0185.0185.0186.0185.0186.0185.0186.0185.0186.0185.0185.0186.0185.0186.0185.0186.0185.0185.0186.0185.0186.0185.0186.0185.0186.0185.0185.0186.0185.0186.0185.0186.0185.0185.0186.0185.0186.0185.0186.0185.0186.0185.0185.0186.0185.0186.0185.0186.0185.0185.0186.0185.0186.0185.0186.0185.0185.0186.0185.0186.0185.0186.0185.0186.0185.0185.0186.0185.0186.0185.0186.0185.0185.0186.0185.0186.0185.0186.0185.0186.0185.0185.0186.0185.0186.0185.0186.0185.0185.0186.0185.0186.0185.0186.0185.0186.0185.0185.0186.0185.0186.0185.0186.0185.0185.0186.0185.0186.0185.0186.0185.0185.0186.0185.0186.0185.0186.0185.0186.0185.0185.0186.0185.0186.0185.0186.0185.0185.0186.0185.0186.0185.0186.0185.0186.0185.0185.0186.0185.0186.0185.0186.0185.0185.0186.0185.0186.0185.0186.0185.0185.0186.0185.0186.0185.0186.0185.0186.0185.0185.0186.0185.0186.0185.0186.0185.0185.0186.0185.0186.0185.0186.0185.0186.0185.0185.0186.0185.0186.0185.0186.0185.0185.0186.0185.0186.0185.0186.0185.0186.0185.0185.0186.0185.0186.0185.0186.0185.0185.0186.0185.0186.0185.0186.0185.0185.0186.0185.0186.0185.0186.0185.0186.0185.0185.0186.0185.0186.0185.0186.0185.0185.0186.0185.0186.0185.0186.0185.0186.0185.0185.0186.0185.0186.0185.0186.0185.0185.0186.0185.0186.0185.0186.0185.0186.0185.0185.0186.0185.0186.0185.0186.0185.0185.0186.0185.0186.0185.0186.0185.0185.0186.0185.0186.0185.0186.0185.0186.0185.0185.0186.0185.0186.0185.0186.0185.0185.0186.0185.0186.0185.0186.0185.0186.0185.0185.0186.0185.0186.0185.0186.0185.0185.0186.0185.0186.0185.0186.0185.0186.0185.0185.0186.0185.0186.0185.0186.0185.0185.0186.0185.0186.0185.0186.0185.0185.0186.0185.0186.0185.0186.0185.0186.0185.0185.0186.0185.0186.0185.0186.0185.0185.0186.0185.0186.0185.0186.0185.0186.0185.0185.0186.0185.0186.0185.0186.0185.0185.0186.0185.0186.0185.0186.0185.0185.0186.0185.0186.0185.0186.0185.0186.0185.0185.0186.0185.0186.0185.0186.0185.0185.0186.0185.0186.0185.0186.0185.0186.0185.0185.0186.0185.0186.0185.0186.0185.0185.0186.0185.0186.0185.0186.0185.0185.0186.0185.0186.0185.0186.0185.0186.0185.0185.0186.0185.0186.0185.0186.0185.0185.0186.0185.0186.0185.0186.0185.0186.0185.0185.0186.0185.0186.0185.0186.0185.0185.0186.0185.0186.0185.0186.0185.0186.0185.0185.0186.0185.0186.0185.0186.0185.0185.0186.0185.0186.0185.0186.0185.0185.0186.0185.0186.0185.0186.0185.0186.0185.0185.0186.0185.0186.0185.0186.0185.0185.0186.0185.0186.0185.0186.0185.0186.0185.0185.0186.0185.0186c.6557 0 1.1622.184 1.5261.5105.3648.3272.6091.818.7007 1.4735.2441 1.7573.5008 3.5124.7776 5.264l.0015.0097.0024.0096c.0706.2816.2476.5249.4938.6793l.0016.001c.4229.2603.8535.5073 1.2805.7522l.0351.0201c.4378.2511.8717.5005 1.2961.7636.1435.0998.3115.1591.486.1717.1737.0126.3475-.0216.5033-.0988 1.259-.5137 2.5269-1.0167 3.7932-1.5191.3508-.1392.7015-.2783 1.0518-.4175.6837-.2711 1.2387-.3117 1.7013-.1551.4621.1565.8719.5235 1.2375 1.1507 1.5531 2.6637 3.1015 5.3302 4.6454 7.9997l.0003.0004c.3567.6137.4674 1.163.3712 1.6528-.0962.4899-.4066.9566-.964 1.3906v.0001c-.2099.1635-.4198.3271-.6297.4908-1.1646.9079-2.3292 1.8158-3.4992 2.7131-.1383.092-.2495.2193-.322.3687-.0727.1498-.1037.3162-.0899.4819.0247 1.0178.0248 2.0357.0001 3.0535-.0151.1656.0148.3323.0865.4825l.1998-.0954-.1998.0954c.0718.1504.1829.2786.3213.3713 1.1344.8674 2.2603 1.7455 3.3871 2.6243.2473.1929.4946.3858.742.5786h.0001c.5602.4362.8711.9023.9676 1.3911.0965.4885-.0138 1.0363-.3689 1.6503-1.5439 2.6695-3.0915 5.3365-4.643 8.001-.3666.6287-.7797.998-1.2436 1.1565-.4642.1586-1.0186.1197-1.6953-.1486-.3194-.1269-.6388-.2535-.9581-.3802-1.3157-.5217-2.6304-1.0431-3.9395-1.5781-.1504-.0718-.3174-.1019-.4835-.0872-.1654.0147-.3238.0733-.4587.1698-.4187.2553-.8436.5006-1.2716.7477l-.0243.0141c-.4379.2528-.8789.5077-1.3147.7747l-.0017.0011c-.2434.1522-.4192.3915-.4911.669l-.0027.0103-.0017.0106c-.2805 1.7681-.5373 3.5409-.7814 5.3144v.0001c-.0655.4786-.2158.8677-.4546 1.1725-.2379.3036-.5743.5372-1.0355.6887l-.0114.0037-.0109.005c-.0487.0221-.0955.0479-.14.0774h-10.6783c-.5454-.1991-.9279-.4914-1.1914-.8661-.2709-.3853-.4274-.8742-.4887-1.4747-.1089-1.066-.2724-2.1321-.435-3.1919-.0861-.5619-.1721-1.122-.2494-1.6794-.0132-.1654-.0703-.3243-.1655-.4604-.095-.1359-.2246-.244-.3751-.3134-.8806-.4774-1.7486-.9871-2.6047-1.5065-.1355-.0954-.2941-.1531-.4595-.1669-.1658-.0139-.3323.0168-.4822.0888-1.3399.5499-2.6899 1.0854-4.0403 1.6211-.2853.1131-.5706.2263-.8558.3396-.6697.2657-1.2206.3052-1.6809.1508-.4594-.1542-.8669-.5144-1.2242-1.1266z" stroke="url(#l)" stroke-width=".442873"/></g></svg>