<svg width="421" height="421" viewBox="0 0 421 421" fill="none" xmlns="http://www.w3.org/2000/svg">
<circle cx="210.613" cy="194.274" r="150" fill="#C703D8"/>
<path d="M80.9559 267C69.8661 261.881 63.9639 256.755 57.3409 246.492C48.0008 232.019 44.2906 215.575 45.6888 189.94C41.3388 175.958 35.2796 138.36 36.2117 114.124C37.316 85.4084 47.7498 60.5333 76.295 48.0949C103.111 36.4102 136.477 52.6318 152.112 81.6531C159.08 94.5878 164.23 117.852 164.23 117.852C166.899 128.773 169.639 139.557 172.309 150.478C172.309 150.478 179.358 159.378 182.873 165.704C195.609 188.625 199.346 206.971 192.195 232.199C189.735 240.876 182.873 253.328 182.873 253.328C182.873 253.328 194.169 284.59 195.924 305.53C198.492 336.177 197.542 365.291 164.23 375.753C151.584 379.724 132.225 378.084 117 364.567C93.5487 343.748 87.2299 295.521 80.9559 267Z" fill="white"/>
<path d="M80.9559 267C69.8661 261.881 63.9639 256.755 57.3409 246.492C48.0008 232.019 44.2906 215.575 45.6888 189.94M80.9559 267C88.4793 269.669 96.7494 275.885 103.95 272.437C109.77 269.65 110.759 261.028 107.367 254.882C104.882 250.376 94.7478 243.915 89.5009 238.724C80.6353 229.952 77.1859 221.229 75.829 207.652C74.7817 197.172 84.083 170.691 88.7241 161.043C94.6279 148.77 96.0261 147.06 103.95 135.408C112.608 141.981 117.839 145.13 125.7 152.653C136.808 163.284 155.507 177.074 160.967 191.494C164.006 199.518 165.433 209.41 164.23 217.905C162.1 232.945 147.14 248.356 163.142 257.212C169.513 260.737 182.873 253.328 182.873 253.328M80.9559 267C87.2299 295.521 93.5487 343.748 117 364.567C132.225 378.084 151.584 379.724 164.23 375.753C197.542 365.291 198.492 336.177 195.924 305.53C194.169 284.59 182.873 253.328 182.873 253.328M45.6888 189.94C41.3388 175.958 35.2796 138.36 36.2117 114.124C37.316 85.4084 47.7498 60.5333 76.295 48.0949C103.111 36.4102 136.477 52.6318 152.112 81.6531C159.08 94.5878 164.23 117.852 164.23 117.852C166.899 128.773 169.639 139.557 172.309 150.478M45.6888 189.94C58.7392 156.693 75.8251 127.668 98.6672 99.3644C124.482 113.105 150.317 130.745 172.309 150.478M172.309 150.478C172.309 150.478 179.358 159.378 182.873 165.704C195.609 188.625 199.346 206.971 192.195 232.199C189.735 240.876 182.873 253.328 182.873 253.328" stroke="#034AD8" stroke-width="9.94316" stroke-linecap="round"/>
<path d="M340.27 267C351.36 261.881 357.262 256.755 363.885 246.492C373.225 232.019 376.936 215.575 375.537 189.94C379.887 175.958 385.947 138.36 385.015 114.124C383.91 85.4084 373.476 60.5333 344.931 48.0949C318.116 36.4102 284.749 52.6318 269.115 81.6531C262.146 94.5878 256.996 117.852 256.996 117.852C254.327 128.773 251.587 139.557 248.917 150.478C248.917 150.478 241.868 159.378 238.353 165.704C225.617 188.625 221.88 206.971 229.031 232.199C231.491 240.876 238.353 253.328 238.353 253.328C238.353 253.328 227.057 284.59 225.303 305.53C222.734 336.177 223.684 365.291 256.996 375.753C269.642 379.724 289.001 378.083 304.226 364.567C327.677 343.748 333.996 295.521 340.27 267Z" fill="white"/>
<path d="M340.27 267C351.36 261.881 357.262 256.755 363.885 246.492C373.225 232.019 376.936 215.575 375.537 189.94M340.27 267C332.747 269.669 324.477 275.885 317.277 272.437C311.456 269.65 310.467 261.028 313.859 254.882C316.345 250.376 326.478 243.915 331.725 238.724C340.591 229.952 344.04 221.229 345.397 207.652C346.444 197.172 337.143 170.691 332.502 161.043C326.598 148.77 325.2 147.06 317.277 135.408C308.618 141.981 303.388 145.13 295.526 152.653C284.418 163.284 265.719 177.074 260.259 191.494C257.22 199.518 255.793 209.41 256.996 217.905C259.126 232.945 274.086 248.356 258.084 257.212C251.714 260.737 238.353 253.328 238.353 253.328M340.27 267C333.996 295.521 327.677 343.748 304.226 364.567C289.001 378.083 269.642 379.724 256.996 375.753C223.684 365.291 222.734 336.177 225.303 305.53C227.057 284.59 238.353 253.328 238.353 253.328M375.537 189.94C379.887 175.958 385.947 138.36 385.015 114.124C383.91 85.4084 373.476 60.5333 344.931 48.0949C318.115 36.4102 284.749 52.6318 269.115 81.6531C262.146 94.5878 256.996 117.852 256.996 117.852C254.327 128.773 251.587 139.557 248.917 150.478M375.537 189.94C362.487 156.693 345.401 127.668 322.559 99.3644C296.744 113.105 270.909 130.745 248.917 150.478M248.917 150.478C248.917 150.478 241.868 159.378 238.353 165.704C225.617 188.625 221.88 206.971 229.031 232.199C231.491 240.876 238.353 253.328 238.353 253.328" stroke="#034AD8" stroke-width="9.94316" stroke-linecap="round"/>
</svg>
