<svg width="421" height="421" viewBox="0 0 421 421" fill="none" xmlns="http://www.w3.org/2000/svg">
<circle cx="204.124" cy="210.614" r="150" fill="#38A413"/>
<path d="M214.654 328.276L210.929 399.051H185.386L182.193 337.799C182.193 337.799 161.742 313.316 164.184 300.063C166.901 285.318 174.17 274.822 182.193 288.897V264.931C182.193 264.931 161.486 255.045 164.184 241.536C165.185 236.524 165.645 227.855 170.365 225.893C176.433 223.371 186.305 234.351 186.305 234.351C189.032 197.278 196.64 161.893 207.204 126.061C207.204 126.061 187.619 129.349 175.807 126.061C142.604 116.821 132.757 88.5836 146.172 58.6376C158.892 30.2411 184.514 17.8776 214.654 23.5043C250.637 30.2219 272.955 60.6152 263.611 97.3255C259.886 111.96 217.437 213.225 225.011 213.651C239.801 215.871 241.555 214.63 242.388 225.893C243.105 235.569 220.349 245.862 220.349 245.862L217.314 293.687C217.314 293.687 227.822 280.873 234.343 284.64C241.001 288.486 236.351 296.907 234.343 304.329C231.18 316.016 214.654 328.276 214.654 328.276Z" fill="white"/>
<path d="M207.204 126.061C207.204 126.061 187.619 129.349 175.807 126.061C142.604 116.821 132.757 88.5836 146.172 58.6376C158.892 30.2411 184.514 17.8776 214.654 23.5043C250.637 30.2219 272.955 60.6152 263.611 97.3255C259.886 111.96 217.437 213.225 225.011 213.651C239.801 215.871 241.555 214.63 242.388 225.893C243.105 235.569 220.349 245.862 220.349 245.862L217.314 293.687C217.314 293.687 227.822 280.873 234.343 284.64C241.001 288.486 236.351 296.907 234.343 304.329C231.18 316.016 214.654 328.276 214.654 328.276L210.929 399.051H185.386L182.193 337.799C182.193 337.799 161.742 313.316 164.184 300.063C166.901 285.318 174.17 274.822 182.193 288.897V264.931C182.193 264.931 161.486 255.045 164.184 241.536C165.185 236.524 165.645 227.855 170.365 225.893C176.433 223.371 186.305 234.351 186.305 234.351C189.032 197.278 196.64 161.893 207.204 126.061ZM207.204 126.061C207.204 126.061 227.944 108.782 227.944 91.5405C227.944 85.953 223.652 72.4337 211.679 65.5159C199.706 58.598 184.352 64.7175 179 73.3233C169.686 88.3 190.343 110.121 202.57 93.8177" stroke="#034AD8" stroke-width="10.4099" stroke-linecap="round"/>
<path d="M102.343 399.051H130.517C130.517 399.051 127.324 383.236 130.517 378.047C133.71 372.859 142.006 367.942 142.937 359.029C144.405 344.981 132.462 336.422 125.757 346.22C117.147 299.558 108.418 254.649 95.9575 208.821C95.9575 208.821 105.935 212.535 114.05 212.801C154.373 214.123 157.77 159.998 136.4 134.576C123.804 119.59 108.302 115.919 88.5075 120.474C27.2256 134.576 53.9749 203.354 64.0289 245.794C64.0289 245.794 54.5728 241.89 54.5729 251.92C54.573 261.95 71.3955 279.248 75.3809 281.447L84.7824 306.458C84.7824 306.458 74.6717 303.265 69.3503 304.329C54.5397 307.292 87.2394 330.846 88.5075 333.065C92.2325 339.584 95.9575 356.48 95.9575 356.48C86.5826 351.29 77.8646 349.235 77.8646 363.397C77.8646 371.246 95.9947 378.865 99.4537 384.319C102.913 389.774 102.343 399.051 102.343 399.051Z" fill="white"/>
<path d="M95.9575 208.821C95.9575 208.821 105.935 212.535 114.05 212.801C154.373 214.123 157.77 159.998 136.4 134.576C123.804 119.59 108.302 115.919 88.5075 120.474C27.2256 134.576 53.9749 203.354 64.0289 245.794C64.0289 245.794 54.5728 241.89 54.5729 251.92C54.573 261.95 71.3955 279.248 75.3809 281.447L84.7824 306.458C84.7824 306.458 74.6717 303.265 69.3503 304.329C54.5397 307.292 87.2394 330.846 88.5075 333.065C92.2325 339.584 95.9575 356.48 95.9575 356.48C86.5826 351.29 77.8646 349.235 77.8646 363.397C77.8646 371.246 95.9947 378.865 99.4537 384.319C102.913 389.774 102.343 399.051 102.343 399.051H130.517C130.517 399.051 127.324 383.236 130.517 378.047C133.71 372.859 142.006 367.942 142.937 359.029C144.405 344.981 132.462 336.422 125.757 346.22C117.147 299.558 108.418 254.649 95.9575 208.821ZM95.9575 208.821C78.2802 201.371 68.7197 171.826 88.5075 159.586C108.295 147.347 128.75 173.393 111.49 184.597" stroke="#034AD8" stroke-width="10.4099" stroke-linecap="round"/>
<path d="M285.424 380.426L273.717 399.051H244.449C249.023 387.614 262.091 356.48 262.091 356.48C262.091 356.48 286.666 293.953 299.501 264.931C312.917 234.599 314.791 224.508 314.791 224.508C302.08 224.508 286.798 221.993 277.442 212.801C268.877 204.386 265.573 196.598 265.202 184.597C264.749 169.915 270.811 160.957 281.167 150.54C294.788 136.838 308.895 131.66 327.995 134.576C348.882 137.764 362.477 148.902 370.035 168.633C377.98 189.376 359.392 224.508 359.392 224.508C359.392 224.508 369.679 224.756 373.716 228.256C382.322 235.72 349.813 245.794 349.813 245.794L327.995 288.897C341.038 283.373 351.628 293.722 334.646 306.458C325.013 313.682 316.82 315.505 316.82 315.505L301.388 351.69C312.827 347.061 323.872 356.247 307.774 370.332C300.928 376.322 285.424 380.426 285.424 380.426Z" fill="white"/>
<path d="M313.095 198.433C299.218 197.728 295.299 185.578 305.645 176.083C312.076 170.181 320.366 171.842 327.995 176.083C337.512 181.373 341.299 194.176 339.17 201.626C334.358 218.471 314.791 224.508 314.791 224.508M314.791 224.508C314.791 224.508 312.917 234.599 299.501 264.931C286.666 293.953 262.091 356.48 262.091 356.48C262.091 356.48 249.023 387.614 244.449 399.051H273.717L285.424 380.426C285.424 380.426 300.928 376.322 307.774 370.332C323.872 356.247 312.827 347.061 301.388 351.69L316.82 315.505C316.82 315.505 325.013 313.682 334.646 306.458C351.628 293.722 341.038 283.373 327.995 288.897L349.813 245.794C349.813 245.794 382.322 235.72 373.716 228.256C369.679 224.756 359.392 224.508 359.392 224.508C359.392 224.508 377.98 189.376 370.035 168.633C362.477 148.902 348.882 137.764 327.995 134.576C308.895 131.66 294.788 136.838 281.167 150.54C270.811 160.957 264.749 169.915 265.202 184.597C265.573 196.598 268.877 204.386 277.442 212.801C286.798 221.993 302.08 224.508 314.791 224.508Z" stroke="#034AD8" stroke-width="10.4099" stroke-linecap="round"/>
</svg>
