<svg width="421" height="420" viewBox="0 0 421 420" fill="none" xmlns="http://www.w3.org/2000/svg">
<circle cx="210.705" cy="211.251" r="150" fill="#F7E064"/>
<path d="M175.636 236.032V203.22C175.636 172.77 138.962 160.811 138.962 119.662C138.962 78.5125 178.295 39.9997 213.616 40C248.936 40.0003 285.35 67.2764 285.35 112.853C285.35 158.43 248.936 170.047 248.936 203.22V236.03C248.936 237.259 247.94 238.249 246.711 238.249H236.217V266.668C236.217 267.896 235.221 268.893 233.992 268.893H229.789C229.789 268.893 229.789 288.866 213.616 288.866C197.442 288.866 195.311 268.893 195.311 268.893H192.188C190.959 268.893 189.963 267.896 189.963 266.668V238.249H177.861C176.633 238.249 175.636 237.261 175.636 236.032Z" fill="white"/>
<path d="M236.217 238.249C239.546 238.249 243.025 238.249 246.711 238.249C247.94 238.249 248.936 237.259 248.936 236.03C248.936 232.648 248.936 224.193 248.936 203.22C248.936 170.047 285.35 158.43 285.35 112.853C285.35 67.2764 248.936 40.0003 213.616 40C178.295 39.9997 138.962 78.5125 138.962 119.662C138.962 160.811 175.636 172.77 175.636 203.22C175.636 223.707 175.636 232.483 175.636 236.032C175.636 237.261 176.633 238.249 177.861 238.249C182.144 238.249 186.148 238.249 189.963 238.249M236.217 238.249C232.802 238.249 229.545 238.249 226.382 238.249C220.386 238.249 214.732 238.249 208.997 238.249C202.912 238.249 196.735 238.249 189.963 238.249M236.217 238.249V266.668C236.217 267.896 235.221 268.893 233.992 268.893H229.789M189.963 238.249V266.668C189.963 267.896 190.959 268.893 192.188 268.893H195.311M229.789 268.893C229.789 268.893 229.789 288.866 213.616 288.866C197.442 288.866 195.311 268.893 195.311 268.893M229.789 268.893H195.311" stroke="#034AD8" stroke-width="11.867"/>
<path d="M102.536 341.073H59.6408L57.5981 386.389H75.9817L108.323 382.505L144.069 390.597L205.347 392.539H243.136L293.52 369.881L331.99 332.981L324.16 326.507L309.521 319.386L296.584 313.236L276.158 315.501L263.902 323.917L224.412 336.865L178.453 326.507H144.069L102.536 341.073Z" fill="white" stroke="white" stroke-width="11.867"/>
<path d="M274.999 356.311L314.946 323.723C314.946 323.723 323.355 315.313 314.946 310.057C306.536 304.801 292.87 316.365 292.87 316.365C292.87 316.365 303.274 310.857 292.87 302.717C282.466 294.578 237.197 336.788 215.732 333.127L273.527 355.788L274.999 356.311Z" fill="white"/>
<path d="M274.999 356.311L314.946 323.723C314.946 323.723 323.355 315.313 314.946 310.057C306.536 304.801 292.87 316.365 292.87 316.365C292.87 316.365 303.274 310.857 292.87 302.717C282.466 294.578 237.197 336.788 215.732 333.127L273.527 355.788L274.999 356.311Z" fill="white"/>
<path d="M314.946 323.723C314.946 323.723 333.358 312.723 338.072 323.723C342.787 334.723 307.722 370.755 267.641 391.001C227.559 411.247 107.855 391.001 107.855 391.001L51.0887 398.36L56.3448 339.492L102.599 339.492C102.599 339.492 114.688 331.082 142.545 323.723C170.402 316.365 210.426 331.536 215.732 333.127M314.946 323.723L274.999 356.311L273.527 355.788M314.946 323.723C314.946 323.723 323.355 315.313 314.946 310.057C306.536 304.801 292.87 316.365 292.87 316.365M292.87 316.365C292.87 316.365 258.252 342.066 249.983 346.556M292.87 316.365C292.87 316.365 303.274 310.857 292.87 302.717C282.466 294.578 237.197 336.788 215.732 333.127M215.732 333.127L273.527 355.788M273.527 355.788C273.527 355.788 281.306 366.296 257.128 369.977C232.95 373.658 184.594 356.311 184.594 356.311" stroke="#034AD8" stroke-width="11.867" stroke-linecap="round"/>
<path d="M281.17 37.1517L295.46 23.1215M293.005 53.9878L326.327 39.2561M302.217 73.8632L328.396 68.9691" stroke="#034AD8" stroke-width="11.867" stroke-linecap="round"/>
</svg>
